<svg width="190" height="32" viewBox="0 0 190 32" fill="none" xmlns="http://www.w3.org/2000/svg">
<path d="M72.9233 10.6616C75.1293 10.6617 76.9553 11.0421 78.4012 11.8028C79.8719 12.5383 80.9744 13.6798 81.7097 15.2266C82.4451 16.7481 82.8132 18.7138 82.8132 21.1227C82.8132 23.5064 82.4451 25.4728 81.7097 27.0198C80.9744 28.5663 79.8709 29.7204 78.4012 30.4811C76.9553 31.2165 75.1293 31.5847 72.9233 31.5847C70.7419 31.5847 68.915 31.2165 67.4443 30.4811C65.9737 29.7204 64.8707 28.5665 64.1353 27.0198C63.3999 25.4728 63.0317 23.5066 63.0317 21.1227C63.0317 18.7138 63.4 16.7481 64.1353 15.2266C64.8707 13.6799 65.9737 12.5383 67.4443 11.8028C68.915 11.0421 70.7419 10.6616 72.9233 10.6616ZM119.981 13.4385H120.208C120.613 12.8301 121.109 12.3232 121.692 11.9175C122.275 11.4867 122.947 11.169 123.708 10.9662C124.469 10.7634 125.306 10.6616 126.219 10.6616C127.715 10.6616 129.035 11.0299 130.176 11.7652C131.341 12.5007 132.254 13.6422 132.914 15.189C133.573 16.7105 133.903 18.6761 133.903 21.0851C133.903 23.5194 133.573 25.5104 132.914 27.0574C132.28 28.604 131.367 29.7456 130.176 30.4811C129.009 31.2165 127.6 31.5847 125.952 31.5847C124.659 31.5847 123.48 31.3304 122.414 30.8233C121.35 30.2908 120.487 29.505 119.828 28.4656H119.561L119.181 31.1279H115.339V3.62425H119.981V13.4385ZM145.036 10.6616C146.862 10.6616 148.359 10.915 149.525 11.4221C150.717 11.9293 151.606 12.6526 152.188 13.5908C152.771 14.5291 153.063 15.6707 153.063 17.0146V26.4492C153.063 26.9306 153.203 27.2728 153.481 27.4757C153.76 27.6785 154.065 27.7803 154.395 27.7803H155.612V30.9756C155.358 31.077 154.99 31.191 154.509 31.3178C154.027 31.4699 153.431 31.5462 152.721 31.5462C152.062 31.5462 151.465 31.4322 150.933 31.2041C150.425 31.0011 149.994 30.6969 149.639 30.2913C149.284 29.8855 149.031 29.4033 148.879 28.8454H148.65C148.219 29.3779 147.699 29.8601 147.09 30.2913C146.508 30.6969 145.809 31.0134 144.998 31.2416C144.212 31.4698 143.299 31.5847 142.26 31.5847C141.702 31.5847 141.055 31.5085 140.319 31.3564C139.61 31.2295 138.912 30.9762 138.227 30.5958C137.567 30.2154 137.023 29.657 136.591 28.9216C136.16 28.1608 135.944 27.1718 135.944 25.9547C135.944 24.5854 136.25 23.4561 136.858 22.5685C137.467 21.6559 138.317 20.9454 139.406 20.4383C140.523 19.9059 141.841 19.5375 143.362 19.3347C144.909 19.1065 146.596 18.9925 148.422 18.9925V17.3568C148.422 16.7737 148.333 16.2535 148.156 15.7972C147.979 15.3409 147.649 14.9857 147.167 14.7321C146.71 14.4532 146.012 14.3138 145.074 14.3138C144.136 14.3138 143.401 14.4278 142.868 14.6559C142.336 14.884 141.969 15.1632 141.765 15.4926C141.562 15.8222 141.46 16.1652 141.46 16.5201V17.0522H136.971C136.947 16.9257 136.933 16.7989 136.933 16.6724V16.2155C136.934 15.0746 137.276 14.0854 137.96 13.2487C138.645 12.412 139.597 11.778 140.814 11.3469C142.031 10.8905 143.439 10.6616 145.036 10.6616ZM189.121 31.1279H185.279L184.899 28.4656H184.633C183.998 29.5049 183.136 30.2908 182.046 30.8233C180.981 31.3304 179.801 31.5847 178.507 31.5847C176.884 31.5847 175.478 31.2164 174.286 30.4811C173.094 29.7456 172.167 28.6043 171.508 27.0574C170.873 25.5104 170.558 23.5195 170.558 21.0851C170.558 18.6761 170.887 16.7105 171.547 15.189C172.206 13.6421 173.119 12.5007 174.286 11.7652C175.452 11.0301 176.771 10.6616 178.242 10.6616C179.155 10.6616 179.992 10.7633 180.753 10.9662C181.514 11.1691 182.186 11.4865 182.769 11.9175C183.352 12.3232 183.847 12.8301 184.253 13.4385H184.481V3.62425H189.121V31.1279ZM48.957 26.8289H62.0427V31.1279H44.0112V5.03155H48.957V26.8289ZM107.007 10.6616C108.199 10.6616 109.252 10.8773 110.165 11.3083C111.078 11.7395 111.8 12.4498 112.333 13.4385C112.865 14.4275 113.132 15.747 113.132 17.3953V31.1279H108.491V18.3457C108.491 17.6613 108.416 17.0902 108.264 16.6338C108.111 16.1523 107.895 15.7847 107.616 15.5312C107.362 15.2523 107.033 15.0487 106.627 14.922C106.247 14.7952 105.828 14.7321 105.372 14.7321C104.636 14.7321 103.977 14.9357 103.394 15.3413C102.81 15.747 102.341 16.3048 101.986 17.0146C101.657 17.7246 101.492 18.5488 101.492 19.487V31.1279H96.8507V18.3457C96.8507 17.6613 96.7747 17.0902 96.6227 16.6338C96.4697 16.1523 96.2545 15.7847 95.9752 15.5312C95.7215 15.2523 95.3919 15.0487 94.9862 14.922C94.6062 14.7952 94.1867 14.7321 93.7307 14.7321C92.9954 14.7322 92.3232 14.9357 91.7152 15.3413C91.1319 15.747 90.662 16.3046 90.3067 17.0146C89.9771 17.7245 89.8122 18.5489 89.8122 19.487V31.1279H85.1712V11.1184H89.0522L89.4322 13.7807H89.6987C90.13 13.1724 90.6245 12.6398 91.1822 12.1836C91.7399 11.702 92.3735 11.3335 93.0842 11.0799C93.8195 10.8011 94.619 10.6616 95.4807 10.6616C96.6474 10.6616 97.6877 10.9028 98.5997 11.3845C99.5127 11.8663 100.223 12.6652 100.731 13.7807H100.996C101.428 13.1723 101.935 12.6399 102.518 12.1836C103.102 11.7019 103.775 11.3335 104.535 11.0799C105.296 10.8011 106.12 10.6616 107.007 10.6616ZM167.151 10.6616C167.557 10.6616 167.925 10.7002 168.255 10.7763C168.609 10.8522 168.876 10.9278 169.052 11.0037V15.3789H167.646C166.859 15.3789 166.161 15.4929 165.552 15.721C164.944 15.9238 164.424 16.2538 163.993 16.71C163.587 17.1663 163.283 17.7374 163.081 18.4219C162.878 19.1065 162.776 19.9062 162.776 20.8191V31.1279H158.135V11.1184H162.016L162.396 14.2752H162.662C162.916 13.6416 163.22 13.0581 163.575 12.5257C163.955 11.9681 164.438 11.5242 165.02 11.1946C165.604 10.8398 166.314 10.6616 167.151 10.6616ZM15.5331 25.6298H25.6298V15.5331H16.7688V10.0968H31.0662V31.0662H10.0968V5.43633H5.43633V10.0968H9.03738V15.5331H0V0H15.5331V25.6298ZM72.9233 14.466C71.7063 14.466 70.7163 14.7073 69.9553 15.189C69.22 15.6454 68.6741 16.3558 68.3198 17.3192C67.9901 18.2574 67.8253 19.4368 67.8253 20.8567V21.3897C67.8253 22.8097 67.9901 24.0021 68.3198 24.9657C68.6741 25.9038 69.22 26.6141 69.9553 27.0959C70.7163 27.5524 71.7063 27.7803 72.9233 27.7803C74.1403 27.7802 75.1164 27.5521 75.8518 27.0959C76.6118 26.6141 77.1586 25.9037 77.4883 24.9657C77.8426 24.0021 78.0202 22.8095 78.0202 21.3897V20.8567C78.0202 19.4369 77.8426 18.2574 77.4883 17.3192C77.1586 16.3556 76.6118 15.6454 75.8518 15.189C75.1164 14.7073 74.1403 14.4662 72.9233 14.466ZM148.422 22.1878C147.027 22.1878 145.734 22.2773 144.542 22.4548C143.376 22.6322 142.436 22.962 141.727 23.4438C141.042 23.9255 140.7 24.6104 140.7 25.4978C140.7 25.9542 140.801 26.3601 141.003 26.7152C141.232 27.0448 141.563 27.3113 141.993 27.5143C142.45 27.6915 143.008 27.7803 143.667 27.7803C144.427 27.7803 145.1 27.6663 145.684 27.4381C146.292 27.2099 146.786 26.8923 147.167 26.4868C147.572 26.0811 147.877 25.5864 148.079 25.0033C148.307 24.4202 148.422 23.786 148.422 23.1016V22.1878ZM124.507 14.6559C123.72 14.6559 123.035 14.7956 122.452 15.0743C121.895 15.3531 121.426 15.7595 121.046 16.2917C120.69 16.8242 120.424 17.4845 120.246 18.2705C120.068 19.0565 119.981 19.9441 119.981 20.9328V21.4273C119.981 22.7459 120.132 23.862 120.437 24.7749C120.766 25.6878 121.261 26.3856 121.919 26.8675C122.604 27.3492 123.467 27.5904 124.507 27.5904C125.648 27.5904 126.548 27.3746 127.208 26.9437C127.892 26.4872 128.374 25.8023 128.654 24.8896C128.958 23.9767 129.11 22.822 129.11 21.4273V20.8952C129.11 19.4753 128.958 18.3082 128.654 17.3953C128.374 16.4571 127.892 15.7724 127.208 15.3413C126.548 14.8848 125.648 14.656 124.507 14.6559ZM179.953 14.6559C178.812 14.6559 177.899 14.885 177.214 15.3413C176.555 15.7723 176.073 16.4574 175.769 17.3953C175.49 18.3082 175.351 19.4752 175.351 20.8952V21.4273C175.351 22.8221 175.49 23.9766 175.769 24.8896C176.073 25.8023 176.555 26.4872 177.214 26.9437C177.899 27.3747 178.812 27.5904 179.953 27.5904C181.018 27.5904 181.881 27.3492 182.54 26.8675C183.199 26.3856 183.681 25.6876 183.985 24.7749C184.315 23.862 184.481 22.7458 184.481 21.4273V20.9328C184.481 19.9441 184.392 19.0565 184.214 18.2705C184.036 17.4844 183.757 16.8242 183.377 16.2917C183.022 15.7593 182.553 15.3532 181.97 15.0743C181.412 14.7954 180.74 14.656 179.953 14.6559Z" fill="white"/>
</svg>
