<svg width="190" height="37" viewBox="0 0 190 37" fill="none" xmlns="http://www.w3.org/2000/svg">
<mask id="mask0_425_4519" style="mask-type:luminance" maskUnits="userSpaceOnUse" x="0" y="-1" width="37" height="38">
<path d="M0 -0.00146484H36.8763V36.9017H0V-0.00146484Z" fill="white"/>
</mask>
<g mask="url(#mask0_425_4519)">
<path fill-rule="evenodd" clip-rule="evenodd" d="M18.4679 24.5866C15.0737 24.5866 12.3226 21.8358 12.326 18.4438C12.3295 15.0289 15.0779 12.2985 18.4958 12.3137C21.1984 12.3257 23.4886 14.0818 24.2975 16.5134C24.4389 16.9384 24.8361 17.2256 25.2843 17.2256H30.694C30.8341 17.2256 30.9476 17.1122 30.9476 16.9723V15.5778C30.9476 15.5156 30.998 15.4652 31.0602 15.4652H32.3782C32.4405 15.4652 32.491 15.5156 32.491 15.5778V16.9723C32.491 17.1122 32.6045 17.2256 32.7445 17.2256H33.5153C33.6553 17.2256 33.7689 17.1122 33.7689 16.9723V15.5778C33.7689 15.5156 33.8194 15.4652 33.8816 15.4652H35.1995C35.2618 15.4652 35.3123 15.5156 35.3123 15.5778V16.9723C35.3123 17.1122 35.4258 17.2256 35.5658 17.2256H36.6226C36.7706 17.2256 36.8874 17.0994 36.8755 16.9519C36.1126 7.46582 28.1689 0.00443577 18.4794 -0.00146134C8.28348 -0.00767722 0 8.26347 0 18.4504C0 28.6408 8.26844 36.9017 18.4679 36.9017C28.1625 36.9017 36.1121 29.4383 36.8755 19.9487C36.8874 19.8011 36.7708 19.6746 36.6226 19.6746H25.2845C24.8337 19.6746 24.4379 19.9661 24.2952 20.3934C23.4817 22.83 21.1801 24.5866 18.4679 24.5866Z" fill="white"/>
</g>
<path fill-rule="evenodd" clip-rule="evenodd" d="M48.1133 18.5129V18.4736C48.1133 14.5689 51.0395 11.3706 55.2031 11.3706C57.7362 11.3706 59.2684 12.2536 60.5838 13.5093L59.0325 15.2949C57.9328 14.2746 56.7544 13.5879 55.1834 13.5879C52.5515 13.5879 50.6469 15.7462 50.6469 18.4344V18.4736C50.6469 21.1618 52.5515 23.3594 55.1834 23.3594C56.8724 23.3594 57.9524 22.6727 59.1308 21.5738L60.6821 23.1436C59.2487 24.6348 57.6772 25.5767 55.1048 25.5767C51.0985 25.5767 48.1133 22.4569 48.1133 18.5129Z" fill="white"/>
<path fill-rule="evenodd" clip-rule="evenodd" d="M68.3595 21.0045C67.7506 20.7691 66.9059 20.5925 65.9831 20.5925C64.4902 20.5925 63.6067 21.2008 63.6067 22.2014V22.2407C63.6067 23.2218 64.4902 23.7712 65.6096 23.7712C67.1811 23.7712 68.3595 22.8882 68.3595 21.5932V21.0045ZM68.3005 25.3409V24.0655C67.5934 24.9093 66.5133 25.5568 64.9423 25.5568C62.9782 25.5568 61.25 24.4384 61.25 22.3585V22.3192C61.25 20.0234 63.0372 18.9246 65.4529 18.9246C66.7093 18.9246 67.5148 19.1013 68.3202 19.3563V19.1601C68.3202 17.7277 67.4165 16.9429 65.7669 16.9429C64.6082 16.9429 63.7443 17.1979 62.8013 17.5904L62.1532 15.687C63.2922 15.1769 64.4116 14.8237 66.101 14.8237C69.1643 14.8237 70.6572 16.4327 70.6572 19.1994V25.3409H68.3005Z" fill="white"/>
<path fill-rule="evenodd" clip-rule="evenodd" d="M71.9375 20.2199V20.1807C71.9375 17.2374 74.2156 14.7651 77.3187 14.7651C79.2823 14.7651 80.5 15.4911 81.4627 16.5507L79.9895 18.14C79.2632 17.3748 78.4971 16.845 77.2991 16.845C75.5709 16.845 74.3139 18.3363 74.3139 20.1414V20.1807C74.3139 22.0251 75.5905 23.5163 77.417 23.5163C78.5364 23.5163 79.361 22.9866 80.1074 22.2213L81.5413 23.6341C80.5197 24.7722 79.3216 25.5767 77.2991 25.5767C74.2156 25.5767 71.9375 23.1632 71.9375 20.2199Z" fill="white"/>
<path fill-rule="evenodd" clip-rule="evenodd" d="M83.23 22.4759V17.021H81.9141V14.9804H83.23V12.1353H85.6064V14.9804H88.395V17.021H85.6064V22.103C85.6064 23.0253 86.0776 23.398 86.8825 23.398C87.4127 23.398 87.8845 23.2803 88.3557 23.0449V24.9874C87.7665 25.321 87.0987 25.5172 86.2147 25.5172C84.4674 25.5172 83.23 24.7519 83.23 22.4759Z" fill="white"/>
<path fill-rule="evenodd" clip-rule="evenodd" d="M89.6875 21.5734V14.9805H92.0639V20.867C92.0639 22.476 92.8693 23.3982 94.283 23.3982C95.6579 23.3982 96.6201 22.4367 96.6201 20.8277V14.9805H98.9964V25.3407H96.6201V23.7318C95.9522 24.7128 94.9901 25.5566 93.3798 25.5566C91.0428 25.5566 89.6875 23.9868 89.6875 21.5734Z" fill="white"/>
<path fill-rule="evenodd" clip-rule="evenodd" d="M100.16 23.9871L101.221 22.3782C102.34 23.2219 103.558 23.6535 104.618 23.6535C105.639 23.6535 106.228 23.2219 106.228 22.5352V22.4959C106.228 21.6914 105.129 21.4167 103.911 21.0439C102.379 20.6122 100.671 19.9843 100.671 18.0025V17.9632C100.671 16.0011 102.301 14.8042 104.363 14.8042C105.659 14.8042 107.073 15.2555 108.173 15.9815L107.23 17.6689C106.228 17.0607 105.168 16.6879 104.304 16.6879C103.381 16.6879 102.851 17.1195 102.851 17.7278V17.767C102.851 18.5127 103.97 18.8266 105.188 19.2191C106.7 19.69 108.409 20.3768 108.409 22.2408V22.28C108.409 24.458 106.719 25.5373 104.559 25.5373C103.086 25.5373 101.456 25.0075 100.16 23.9871Z" fill="white"/>
<path fill-rule="evenodd" clip-rule="evenodd" d="M114.414 18.5129V18.4736C114.414 14.5689 117.34 11.3706 121.503 11.3706C124.037 11.3706 125.569 12.2536 126.885 13.5093L125.333 15.2949C124.234 14.2746 123.055 13.5879 121.484 13.5879C118.852 13.5879 116.947 15.7462 116.947 18.4344V18.4736C116.947 21.1618 118.852 23.3594 121.484 23.3594C123.173 23.3594 124.253 22.6727 125.432 21.5738L126.983 23.1436C125.549 24.6348 123.978 25.5767 121.406 25.5767C117.399 25.5767 114.414 22.4569 114.414 18.5129Z" fill="white"/>
<path fill-rule="evenodd" clip-rule="evenodd" d="M128.145 21.5734V14.9805H130.521V20.867C130.521 22.476 131.326 23.3982 132.74 23.3982C134.115 23.3982 135.077 22.4367 135.077 20.8277V14.9805H137.453V25.3407H135.077V23.7318C134.409 24.7128 133.447 25.5566 131.837 25.5566C129.5 25.5566 128.145 23.9868 128.145 21.5734Z" fill="white"/>
<path fill-rule="evenodd" clip-rule="evenodd" d="M138.609 23.9871L139.67 22.3782C140.789 23.2219 142.007 23.6535 143.067 23.6535C144.088 23.6535 144.678 23.2219 144.678 22.5352V22.4959C144.678 21.6914 143.578 21.4167 142.36 21.0439C140.828 20.6122 139.12 19.9843 139.12 18.0025V17.9632C139.12 16.0011 140.75 14.8042 142.812 14.8042C144.108 14.8042 145.522 15.2555 146.622 15.9815L145.679 17.6689C144.678 17.0607 143.617 16.6879 142.753 16.6879C141.83 16.6879 141.3 17.1195 141.3 17.7278V17.767C141.3 18.5127 142.419 18.8266 143.637 19.2191C145.149 19.69 146.857 20.3768 146.857 22.2408V22.28C146.857 24.458 145.168 25.5373 143.008 25.5373C141.535 25.5373 139.905 25.0075 138.609 23.9871Z" fill="white"/>
<path fill-rule="evenodd" clip-rule="evenodd" d="M148.785 22.4759V17.021H147.469V14.9804H148.785V12.1353H151.161V14.9804H153.95V17.021H151.161V22.103C151.161 23.0253 151.632 23.398 152.438 23.398C152.968 23.398 153.439 23.2803 153.91 23.0449V24.9874C153.321 25.321 152.653 25.5172 151.77 25.5172C150.022 25.5172 148.785 24.7519 148.785 22.4759Z" fill="white"/>
<path fill-rule="evenodd" clip-rule="evenodd" d="M163.47 20.2199V20.1807C163.47 18.3558 162.154 16.845 160.288 16.845C158.383 16.845 157.165 18.3363 157.165 20.1414V20.1807C157.165 21.9859 158.481 23.5163 160.328 23.5163C162.252 23.5163 163.47 22.0055 163.47 20.2199ZM154.789 20.2199V20.1807C154.789 17.2178 157.146 14.7651 160.328 14.7651C163.509 14.7651 165.846 17.1785 165.846 20.1414V20.1807C165.846 23.1239 163.489 25.5767 160.288 25.5767C157.126 25.5767 154.789 23.1632 154.789 20.2199Z" fill="white"/>
<path fill-rule="evenodd" clip-rule="evenodd" d="M175.14 20.1799V20.1407C175.14 18.1392 173.726 16.8246 172.135 16.8246C170.505 16.8246 169.15 18.0804 169.15 20.1407V20.1799C169.15 22.1813 170.525 23.496 172.135 23.496C173.726 23.496 175.14 22.1617 175.14 20.1799ZM166.754 20.1799V20.1407C166.754 16.7069 169.091 14.7644 171.566 14.7644C173.274 14.7644 174.354 15.6277 175.101 16.5892V11.0166H177.477V25.3404H175.101V23.6137C174.335 24.6929 173.255 25.5562 171.566 25.5562C169.13 25.5562 166.754 23.6137 166.754 20.1799Z" fill="white"/>
<path fill-rule="evenodd" clip-rule="evenodd" d="M179.125 27.9111L179.93 26.1452C180.362 26.3806 180.833 26.5376 181.324 26.5376C181.992 26.5376 182.404 26.2433 182.797 25.3407L178.477 14.9805H181.01L183.956 22.6722L186.646 14.9805H189.121L184.997 25.635C184.172 27.7541 183.249 28.539 181.58 28.539C180.578 28.539 179.851 28.3036 179.125 27.9111Z" fill="white"/>
</svg>
