<svg width="189" height="33" viewBox="0 0 189 33" fill="none" xmlns="http://www.w3.org/2000/svg">
<path d="M0 4.98535V9.13122H16.1508C16.8322 9.13122 17.3344 8.77958 17.653 8.07847L18.805 4.98751H0V4.98535ZM0 14.4927V28.0155H4.63741V19.3309C4.63741 19.09 4.71759 18.8946 4.87793 18.7405C5.03617 18.5864 5.22395 18.5083 5.43705 18.5083H11.929C12.6105 18.5083 13.1126 18.1371 13.4312 17.3904L14.4228 14.4927H0Z" fill="white"/>
<path d="M38.0467 6.6297C37.5361 5.53354 36.747 4.98438 35.6815 4.98438H32.0357L22.8242 28.0146H27.6537L34.6245 9.65553L41.4688 28.0146H46.4902L38.0467 6.6297Z" fill="white"/>
<path d="M58.4322 23.8036V6.6297C58.4322 6.16736 58.2782 5.78099 57.9701 5.45974C57.6622 5.14283 57.2823 4.98438 56.835 4.98438H53.7969V28.0146H67.9961C68.6354 28.0146 69.127 27.6651 69.4687 26.964L70.6819 23.8036H58.4322Z" fill="white"/>
<path d="M94.7634 22.0154C94.4448 22.0154 94.1234 22.1261 93.8047 22.3453C92.4187 23.4198 90.862 23.9559 89.1341 23.9559C87.0453 23.9559 85.3068 23.2374 83.9206 21.8005C82.5345 20.3636 81.8424 18.6054 81.8424 16.5194C81.8424 14.4335 82.5302 12.5819 83.9038 11.1558C85.2773 9.7297 86.9799 9.0156 89.0032 9.0156C90.7754 9.0156 92.3722 9.58651 93.8011 10.726C94.1197 10.9453 94.4402 11.0538 94.7589 11.0538C95.0775 11.0538 95.3898 10.9561 95.6874 10.7587L98.2777 8.91576C97.257 7.64378 95.9239 6.61274 94.2823 5.82263C92.6388 5.0347 90.881 4.63965 89.0032 4.63965C86.809 4.63965 84.8047 5.1606 82.9902 6.20032C81.1799 7.24222 79.7389 8.65745 78.6735 10.4461C77.608 12.2347 77.0742 14.2555 77.0742 16.515C77.0742 18.6423 77.5806 20.6067 78.5911 22.4061C79.6039 24.2034 81.0049 25.6447 82.7961 26.7321C84.5873 27.8175 86.655 28.3601 88.999 28.3601C90.7712 28.3601 92.4699 27.9759 94.1006 27.2075C95.7313 26.4392 97.0899 25.4103 98.1791 24.1144L95.6829 22.3063C95.3852 22.1087 95.0775 22.0089 94.7543 22.0089" fill="white"/>
<path d="M127.648 10.347C126.562 8.57142 125.117 7.17354 123.317 6.15335C122.081 5.45441 120.766 4.99424 119.376 4.77501V9.2443C120.587 9.5634 121.633 10.1994 122.517 11.1523C123.848 12.5892 124.516 14.3734 124.516 16.4985C124.516 18.6235 123.848 20.4121 122.517 21.8469C121.633 22.7998 120.587 23.438 119.376 23.7571V28.235C120.864 28.0093 122.237 27.5209 123.492 26.7677C125.281 25.6932 126.695 24.2563 127.729 22.4569C128.762 20.6596 129.279 18.6734 129.279 16.4985C129.279 14.176 128.735 12.1247 127.648 10.347ZM107.132 10.5445C106.099 12.3439 105.582 14.3279 105.582 16.4985C105.582 18.8254 106.131 20.8831 107.229 22.6695C108.327 24.4581 109.777 25.856 111.578 26.8632C112.814 27.5556 114.116 28.0114 115.488 28.2285V23.7506C114.308 23.4315 113.27 22.7955 112.378 21.8469C111.023 20.4121 110.345 18.6279 110.345 16.4985C110.345 14.3691 111.023 12.5632 112.378 11.137C113.27 10.1951 114.308 9.5656 115.488 9.2465V4.76416C114.004 4.98773 112.633 5.47612 111.371 6.23366C109.58 7.31028 108.169 8.74723 107.132 10.5445Z" fill="white"/>
<path d="M156.474 4.98438H152.125V21.5309C149.884 18.1904 144.82 10.5694 142.424 6.95964C141.607 5.73106 140.255 4.99306 138.808 4.98872L136.582 4.98438V28.0146H140.964V12.6185L149.536 25.985C150.349 27.2527 151.727 28.0146 153.203 28.0146H156.475V4.98438H156.474Z" fill="white"/>
<path d="M169.241 5.04248H163.781L171.718 16.6596L164.032 27.9555H169.494L177.048 16.6618L169.241 5.04248ZM179.56 5.04248L176.335 9.78313L179.021 13.7119L184.989 5.04248H179.56ZM179.023 19.2882L176.33 23.2279L179.562 27.9576H184.991L179.023 19.2903V19.2882Z" fill="white"/>
</svg>
