<svg width="169" height="41" viewBox="0 0 169 41" fill="none" xmlns="http://www.w3.org/2000/svg">
<path d="M11.7725 40.0209V11.4184H0.386719V3.14844H33.5907V11.4184H22.258V40.0209H11.7725Z" fill="#3B3B3B"/>
<path d="M48.5278 40.4937C46.1977 40.4937 44.0969 40.0372 42.2258 39.1241C40.3901 38.2111 38.9426 36.7888 37.8833 34.8575C36.8596 32.8909 36.3477 30.4151 36.3477 27.4303V11.4697H46.4095V25.7973C46.4095 28.0097 46.8156 29.59 47.6276 30.5381C48.4748 31.4863 49.6574 31.9602 51.1755 31.9602C52.1642 31.9602 53.0644 31.732 53.8765 31.2755C54.6885 30.819 55.3416 30.0992 55.8358 29.1158C56.33 28.0974 56.5772 26.7981 56.5772 25.218V11.4697H66.639V40.0196H57.0539V31.9602L58.9073 34.2253C57.9189 36.3322 56.489 37.9126 54.6178 38.9661C52.7466 39.9845 50.7166 40.4937 48.5278 40.4937Z" fill="#3B3B3B"/>
<path d="M73.1172 40.02V11.4702H82.7024V19.7928L81.2725 17.4224C82.1197 15.2803 83.4967 13.6825 85.4031 12.629C87.3097 11.5404 89.6221 10.9961 92.3405 10.9961V20.0035C91.8815 19.9333 91.4755 19.8982 91.1225 19.8982C90.8047 19.863 90.4516 19.8455 90.0634 19.8455C88.0158 19.8455 86.3563 20.4074 85.0855 21.5311C83.8145 22.6196 83.1789 24.4107 83.1789 26.9039V40.02H73.1172Z" fill="#3B3B3B"/>
<path d="M110.186 40.4944C106.514 40.4944 103.654 39.5987 101.607 37.8079C99.559 35.9817 98.5351 33.2427 98.5351 29.5906V5.09668H108.597V29.4853C108.597 30.5035 108.879 31.3112 109.444 31.9082C110.009 32.4701 110.733 32.7511 111.616 32.7511C112.816 32.7511 113.84 32.4526 114.687 31.8557L117.176 38.8613C116.329 39.4233 115.287 39.8271 114.052 40.0729C112.816 40.3537 111.527 40.4944 110.186 40.4944ZM94.3516 20.0037V12.5239H115.164V20.0037H94.3516Z" fill="#3B3B3B"/>
<path d="M121.059 40.0204V0.935547H131.12V40.0204H121.059Z" fill="#3B3B3B"/>
<path d="M152.704 40.4942C149.314 40.4942 146.349 39.862 143.807 38.5977C141.3 37.2984 139.341 35.5426 137.929 33.3302C136.552 31.0828 135.863 28.5369 135.863 25.6924C135.863 22.848 136.534 20.3196 137.876 18.1072C139.253 15.8597 141.141 14.1215 143.542 12.8924C145.943 11.6282 148.644 10.9961 151.645 10.9961C154.469 10.9961 157.046 11.5755 159.376 12.7344C161.706 13.8581 163.56 15.5261 164.937 17.7385C166.314 19.9508 167.002 22.6372 167.002 25.7977C167.002 26.1489 166.984 26.5527 166.949 27.0093C166.914 27.4658 166.878 27.8873 166.843 28.2735H144.124V23.006H161.494L157.682 24.4808C157.717 23.1815 157.47 22.0579 156.94 21.1096C156.446 20.1615 155.74 19.4241 154.822 18.8973C153.939 18.3706 152.898 18.1072 151.697 18.1072C150.497 18.1072 149.438 18.3706 148.52 18.8973C147.637 19.4241 146.949 20.1791 146.455 21.1623C145.96 22.1106 145.713 23.2342 145.713 24.5335V26.0612C145.713 27.4658 145.996 28.6774 146.561 29.6958C147.161 30.714 148.008 31.5043 149.103 32.066C150.197 32.5929 151.503 32.8563 153.021 32.8563C154.434 32.8563 155.634 32.663 156.622 32.2768C157.646 31.8555 158.653 31.2233 159.641 30.3805L164.937 35.8587C163.56 37.3687 161.865 38.5276 159.853 39.3353C157.84 40.1078 155.457 40.4942 152.704 40.4942Z" fill="#3B3B3B"/>
</svg>
