<svg width="191" height="59" viewBox="0 0 191 59" fill="none" xmlns="http://www.w3.org/2000/svg">
<path d="M76.3196 16.1377C79.8065 16.1377 82.5479 17.1317 84.5127 19.0732C86.0348 20.5798 86.9978 22.4825 87.3861 24.7657C87.5181 25.6743 87.6036 26.7538 87.6502 28.0041V34.776C87.6036 36.073 87.5181 37.1913 87.3861 38.0999C86.9978 40.4685 86.0348 42.41 84.5127 43.9244C82.5557 45.8659 79.8065 46.8599 76.3196 46.8599H65.121V24.6492H70.5339V41.4548H75.6672C77.865 41.4548 79.5813 40.8102 80.754 39.5677C81.7325 38.496 82.2217 35.7934 82.2217 31.3745C82.2217 26.9557 81.7325 24.5094 80.754 23.4377C79.5813 22.1952 77.8728 21.5506 75.6672 21.5506H65.1133V16.1455H76.3118L76.3196 16.1377Z" fill="white"/>
<path d="M98.1659 21.7754V16.145H92.5977V21.7754H98.1659ZM98.1659 46.8517V24.5944H92.5977V46.8517H98.1659Z" fill="white"/>
<path d="M133.154 21.7754V16.145H127.586V21.7754H133.154ZM133.154 46.8517V24.5944H127.586V46.8517H133.154Z" fill="white"/>
<path d="M122.625 24.7495H117.228V26.5202C117.228 26.5202 115.574 24.7495 112.064 24.7495C108.553 24.7495 106.62 25.3863 105.33 26.6988C104.368 27.6773 103.746 28.9043 103.451 30.3876C103.241 31.4904 103.117 33.626 103.117 35.8782C103.117 38.1303 103.241 40.2116 103.451 41.3143C103.738 42.8442 104.368 44.0713 105.33 45.0498C106.627 46.3622 108.561 46.999 112.025 46.999C115.488 46.999 117.197 45.3604 117.197 45.3604V46.2147C117.197 47.4883 116.863 48.5445 116.234 49.3521C115.442 50.3307 113.562 50.7966 112.064 50.7966C110.565 50.7966 108.786 50.2452 107.66 49.1036L104.282 52.5828C106.239 54.4932 109.019 55.464 112.312 55.464C115.605 55.464 118.276 54.6175 120.031 52.8779C121.74 51.1849 122.618 48.9716 122.618 46.3001V24.7495H122.625ZM116.754 30.9312C117.22 31.7777 117.476 34.224 117.476 36.0024C117.476 37.7808 117.22 39.7068 116.754 40.5533C116.079 41.7415 114.836 42.3395 113.027 42.3395C111.217 42.3395 110.021 41.7492 109.353 40.5533C108.887 39.7068 108.631 37.8274 108.631 36.0024C108.631 34.1774 108.887 31.7389 109.353 30.9312C110.029 29.743 111.217 29.1451 113.027 29.1451C114.836 29.1451 116.079 29.7353 116.754 30.9312Z" fill="white"/>
<path d="M157.614 21.7754V16.145H151.114C143.93 16.145 138.113 21.9695 138.113 29.1453V46.8517H143.891V34.0534H157.614V28.8036H143.891C143.891 24.9206 147.036 21.7754 150.919 21.7754H157.614Z" fill="white"/>
<path d="M181.664 21.7758V16.1377H160.074V21.7758H167.933V46.8521H173.804V21.7758H181.664Z" fill="white"/>
<path d="M33.9317 22.2732C38.2807 18.0097 41.1851 15.1751 42.5908 13.8083C42.7616 13.6452 43.0257 13.6141 43.2276 13.7306C52.4846 19.3066 56.3832 30.6604 52.5856 40.7562C52.4536 41.1212 51.9876 41.2222 51.7158 40.9426L33.9317 23.0187C33.722 22.809 33.7298 22.4751 33.9317 22.2654V22.2732Z" fill="white"/>
<path fill-rule="evenodd" clip-rule="evenodd" d="M31.5756 55.4573C28.8886 55.4573 26.2636 54.9758 23.7475 54.0205C23.3902 53.8885 23.2893 53.4226 23.5611 53.1508L41.3918 35.2735C41.6015 35.0638 41.9432 35.0638 42.1451 35.2735C46.3853 39.6457 49.2121 42.5657 50.5634 43.9791C50.7265 44.15 50.7576 44.414 50.6333 44.6159C46.626 51.318 39.3726 55.4573 31.56 55.4573H31.5756Z" fill="white"/>
<path fill-rule="evenodd" clip-rule="evenodd" d="M19.9212 52.0867C10.6719 46.503 6.7734 35.1569 10.5632 25.0611C10.6952 24.6961 11.1612 24.5952 11.433 24.8747L29.2171 42.7986C29.4268 43.0083 29.419 43.3422 29.2171 43.5519C24.8681 47.8154 21.9637 50.65 20.558 52.0168C20.3872 52.1799 20.1231 52.211 19.9212 52.0945V52.0867Z" fill="white"/>
<path fill-rule="evenodd" clip-rule="evenodd" d="M20.7695 30.0784C19.3638 28.7194 16.4593 25.877 12.1104 21.6135C11.9007 21.4116 11.9007 21.0699 12.1104 20.8602L29.8945 2.94411C30.1663 2.6723 30.6322 2.76549 30.7643 3.13049C31.7117 5.65443 32.1932 8.29487 32.1932 11.013C32.1932 18.8566 28.0772 26.1411 21.4063 30.1561C21.2043 30.2804 20.9403 30.2493 20.7695 30.0784Z" fill="white"/>
<path fill-rule="evenodd" clip-rule="evenodd" d="M24.1046 32.6875L31.4123 25.3409C31.622 25.1312 31.956 25.1312 32.1579 25.3409L39.4657 32.6875C39.6676 32.8972 39.6676 33.2311 39.4657 33.433L32.1579 40.7796C31.9482 40.9893 31.6143 40.9893 31.4123 40.7796L24.1046 33.433C23.9026 33.2233 23.9026 32.8894 24.1046 32.6875Z" fill="white"/>
</svg>
