<svg width="166" height="51" viewBox="0 0 166 51" fill="none" xmlns="http://www.w3.org/2000/svg">
<g clip-path="url(#clip0_472_817)">
<path d="M113.771 31.4828C113.771 25.561 109.011 20.7581 103.144 20.7608C97.2782 20.7608 92.5203 25.5665 92.523 31.4883C92.523 37.4101 97.2809 42.2103 103.147 42.2103C109.013 42.2103 113.771 37.4074 113.771 31.4856V31.4828ZM164.799 31.4828C164.791 42.2519 156.133 50.975 145.465 50.9667C137.531 50.961 130.405 46.0554 127.503 38.6012L134.857 31.1774V31.4856C134.871 37.399 139.632 42.1797 145.49 42.1632C151.348 42.1464 156.084 37.3435 156.067 31.43C156.053 25.5166 151.293 20.7359 145.435 20.7524C142.632 20.7608 139.945 21.8852 137.965 23.8869L116.882 45.1809C109.407 52.8462 97.1901 52.9433 89.594 45.3975C85.9005 41.7273 83.8267 36.7133 83.835 31.4828V4.12544C83.9835 1.70176 86.049 -0.138901 88.4471 0.00824151C90.6418 0.144279 92.3882 1.90999 92.5257 4.12544V15.0667C101.436 9.14494 113.416 11.638 119.283 20.6331C120.628 22.6959 121.571 24.9975 122.066 27.4156L131.824 17.5681C139.365 9.95283 151.595 9.95006 159.139 17.5626C162.794 21.2522 164.835 26.2663 164.799 31.4828ZM80.9418 31.4828C80.9611 42.2407 72.339 50.9805 61.6791 51C53.7145 51.0166 46.5583 46.0887 43.665 38.6012L51.0192 31.1774V31.4856C51.0329 37.399 55.7937 42.1797 61.6517 42.1632C67.5097 42.1491 72.2455 37.3435 72.2289 31.43C72.2152 25.5166 67.4546 20.7359 61.5966 20.7524C58.7941 20.7608 56.1071 21.8852 54.127 23.8869L32.9694 45.2641C25.4256 52.8766 13.1953 52.8739 5.65414 45.2587C-1.88701 37.6433 -1.88425 25.2973 5.65964 17.6847C13.2008 10.075 25.4283 10.075 32.9694 17.6847C34.6664 19.406 34.6581 22.1934 32.9503 23.9035C31.245 25.6166 28.4838 25.6082 26.7897 23.8842C22.6341 19.7031 15.907 19.7142 11.7652 23.9092C7.62329 28.1041 7.6343 34.8947 11.7899 39.0758C15.9373 43.2485 22.6451 43.2485 26.7897 39.0758L47.983 17.6264C55.5104 10.0111 67.7296 9.99726 75.2763 17.5959C78.9287 21.2745 80.9692 26.2772 80.9418 31.4883V31.4799V31.4828Z" fill="#3B3B3B"/>
</g>
<defs>
<clipPath id="clip0_472_817">
<rect width="166" height="51" fill="white"/>
</clipPath>
</defs>
</svg>
