<svg width="190" height="37" viewBox="0 0 190 37" fill="none" xmlns="http://www.w3.org/2000/svg">
<g clip-path="url(#clip0_425_4554)">
<path d="M25.5512 18.2449C24.8269 18.0634 24.1474 17.7352 23.5546 17.2808C22.9619 16.8264 22.4685 16.2552 22.1048 15.6027C22.0801 15.5547 22.068 15.5011 22.0697 15.4471C22.0715 15.3932 22.0869 15.3405 22.1148 15.2942C22.1425 15.2479 22.1816 15.2094 22.2285 15.1825C22.2753 15.1555 22.3282 15.141 22.3822 15.1403H23.8875C22.7776 14.2952 21.8789 13.2038 21.2625 11.952C20.6461 10.7002 20.3288 9.32229 20.3354 7.92685C20.3816 6.4586 20.795 5.02541 21.5377 3.75833C22.2806 2.49124 23.3291 1.43072 24.5874 0.673781C25.0145 0.424628 25.4554 0.19968 25.9078 0C22.889 0.188 20.0264 1.40714 17.7983 3.45358C15.5702 5.50002 14.1118 8.2497 13.6671 11.2429H12.7559C9.89002 11.2429 7.10756 12.2085 4.85719 13.9839C2.60682 15.7595 1.01963 18.2415 0.351492 21.0298C-0.316643 23.8182 -0.0267871 26.7504 1.17433 29.3538C2.37544 31.9572 4.41784 34.08 6.97223 35.3801C7.10816 33.2227 8.07378 31.2017 9.66661 29.7411C11.2594 28.2804 13.3557 27.4937 15.5157 27.5458L20.5599 27.6647C21.8028 27.6614 23.0004 27.198 23.9221 26.3637C24.8437 25.5294 25.4241 24.3834 25.5512 23.1464C25.7097 21.4685 25.8814 19.7511 25.987 18.8791C25.9987 18.7393 25.9617 18.5998 25.8823 18.4842C25.8028 18.3687 25.6859 18.2841 25.5512 18.2449ZM39.918 12.128C39.7417 9.96108 39.0336 7.87116 37.8566 6.04363C36.6795 4.21608 35.0699 2.7074 33.1704 1.65142C31.9563 1.07277 30.6151 0.812801 29.2729 0.896009C27.9307 0.979217 26.6318 1.40286 25.4985 2.12703C24.4846 2.72901 23.6372 3.57482 23.033 4.58767C22.4288 5.60051 22.0871 6.7483 22.0385 7.92685C22.0314 9.13425 22.3265 10.3243 22.8972 11.3883C22.8906 11.3091 22.8906 11.2295 22.8972 11.1504C22.8972 9.63322 23.4995 8.17821 24.5718 7.10537C25.644 6.0326 27.0984 5.42989 28.6148 5.42989H29.3014L28.6148 7.14735C28.0893 7.13697 27.567 7.23016 27.0776 7.42173C26.5882 7.61329 26.1413 7.89942 25.7624 8.26377C24.9972 8.99962 24.5555 10.0095 24.5345 11.0712C24.5135 12.1328 24.9149 13.1594 25.6504 13.925C26.3858 14.6905 27.3952 15.1324 28.4563 15.1535H33.5269C33.6772 15.1596 33.8224 15.209 33.9452 15.2958C34.068 15.3826 34.163 15.5032 34.2189 15.6428C34.2747 15.7825 34.2889 15.9354 34.2599 16.0829C34.2308 16.2306 34.1597 16.3666 34.0551 16.4746L32.2197 18.0996C31.8559 18.4249 31.5849 18.8407 31.4341 19.3049C31.2834 19.7691 31.2582 20.2649 31.3614 20.7419C31.7443 22.4858 32.3121 25.2338 32.5234 26.5021C33.1024 29.5315 32.4821 32.6675 30.7935 35.248C32.3291 35.9485 33.991 36.3289 35.6783 36.3663C37.3654 36.4037 39.0426 36.0971 40.6076 35.4654C42.1727 34.8337 43.5928 33.8898 44.7817 32.6915C45.9706 31.4932 46.9033 30.0653 47.5231 28.4948C48.1429 26.9244 48.4368 25.2441 48.387 23.5564C48.3371 21.8687 47.9445 20.2088 47.233 18.6777C46.5216 17.1466 45.5062 15.7764 44.2486 14.6503C42.9911 13.5244 41.5176 12.6662 39.918 12.128Z" fill="white"/>
<path d="M58.1723 32.5534C58.0592 32.5555 57.9468 32.5344 57.8423 32.4912C57.7378 32.448 57.6433 32.3836 57.5649 32.302C57.4812 32.2218 57.4147 32.1254 57.3693 32.0187C57.3239 31.9119 57.3008 31.7971 57.3008 31.6811V10.8732C57.3008 10.7572 57.3239 10.6424 57.3693 10.5357C57.4147 10.4289 57.4812 10.3325 57.5649 10.2522C57.6433 10.1707 57.7378 10.1063 57.8423 10.0631C57.9468 10.0199 58.0592 9.99882 58.1723 10.0012H67.6797C68.8644 9.94665 70.0473 10.1401 71.1527 10.5693C71.9965 10.9338 72.7527 11.4743 73.3707 12.1547C73.9076 12.7548 74.3206 13.4552 74.5858 14.2156C74.8158 14.8837 74.9403 15.5835 74.9552 16.2898C74.963 16.8773 74.8736 17.462 74.6912 18.0205C74.5441 18.4865 74.3355 18.9308 74.0709 19.3417C73.8534 19.6635 73.6007 19.9604 73.3183 20.2268C73.1407 20.4136 72.941 20.5778 72.7241 20.7157C73.4535 21.2295 74.0769 21.8801 74.5596 22.6313C75.1549 23.5686 75.4498 24.6658 75.4046 25.7757C75.3974 26.606 75.2455 27.4286 74.9552 28.2065C74.6555 29.0095 74.208 29.7489 73.6353 30.3864C73.0257 31.0524 72.2831 31.5834 71.456 31.9453C70.5067 32.3574 69.48 32.5601 68.4454 32.5399L58.1723 32.5534ZM70.5717 16.5012C70.5943 16.1548 70.5371 15.8077 70.4048 15.4869C70.2719 15.1661 70.0669 14.8803 69.8059 14.6516C69.0986 14.1881 68.2589 13.9699 67.4157 14.0307H61.6848V18.985H67.4157C68.2804 19.0525 69.1433 18.8344 69.8715 18.364C70.1265 18.1295 70.325 17.8397 70.4507 17.5168C70.5764 17.194 70.6271 16.8466 70.5979 16.5012H70.5717ZM61.6585 28.5236H67.6135C68.5575 28.6171 69.502 28.3478 70.2546 27.7705C70.5163 27.5113 70.7242 27.2027 70.8661 26.8626C71.0085 26.5224 71.0812 26.1574 71.0812 25.7888C71.0812 25.4202 71.0085 25.0553 70.8661 24.7152C70.7242 24.375 70.5163 24.0664 70.2546 23.8071C69.5276 23.2374 68.6141 22.9594 67.6928 23.0277H61.6848L61.6585 28.5236Z" fill="white"/>
<path d="M80.3016 32.5533C80.189 32.5551 80.077 32.5346 79.9721 32.493C79.8672 32.4515 79.7718 32.3897 79.6908 32.3112C79.6097 32.2327 79.5454 32.139 79.5001 32.0354C79.4554 31.9319 79.4316 31.8205 79.4298 31.7078V10.8734C79.428 10.7584 79.4495 10.6442 79.493 10.5376C79.5359 10.431 79.6002 10.3342 79.6813 10.2529C79.7623 10.1716 79.8594 10.1074 79.9661 10.0642C80.0722 10.021 80.1866 9.99966 80.3016 10.0011H82.9427C83.0553 9.99907 83.168 10.0201 83.2723 10.0633C83.3771 10.1065 83.4713 10.171 83.55 10.2525C83.6334 10.3328 83.7001 10.4292 83.7454 10.5359C83.7907 10.6426 83.8139 10.7575 83.8139 10.8734V31.7078C83.8139 31.8238 83.7907 31.9386 83.7454 32.0453C83.7001 32.152 83.6334 32.2485 83.55 32.3288C83.4713 32.4103 83.3771 32.4747 83.2723 32.5179C83.168 32.5611 83.0553 32.5822 82.9427 32.5801L80.3016 32.5533Z" fill="white"/>
<path d="M104.389 10.0011C104.504 9.99947 104.618 10.0208 104.724 10.064C104.831 10.1072 104.928 10.1714 105.009 10.2527C105.09 10.334 105.155 10.4308 105.197 10.5374C105.24 10.644 105.262 10.7582 105.26 10.8732V13.2116C105.262 13.3248 105.242 13.4372 105.198 13.5418C105.155 13.6464 105.091 13.7409 105.009 13.8193C104.929 13.903 104.833 13.9696 104.726 14.015C104.619 14.0604 104.504 14.0837 104.389 14.0836H98.5524V31.7076C98.5542 31.8226 98.5327 31.9368 98.4892 32.0433C98.4463 32.1499 98.3819 32.2468 98.3009 32.3281C98.2199 32.4094 98.1227 32.4736 98.0161 32.5168C97.91 32.56 97.7956 32.5813 97.6806 32.5797H95.1455C95.0305 32.5813 94.9161 32.56 94.8094 32.5168C94.7034 32.4736 94.6062 32.4094 94.5252 32.3281C94.4435 32.2468 94.3798 32.1499 94.3363 32.0433C94.2934 31.9368 94.2719 31.8226 94.2737 31.7076V14.0307H88.4111C88.2949 14.0309 88.1804 14.0075 88.0738 13.9622C87.9671 13.9167 87.8706 13.8502 87.7901 13.7665C87.7091 13.688 87.6447 13.5935 87.6012 13.489C87.5583 13.3843 87.5369 13.2719 87.5392 13.1588V10.8732C87.5375 10.7582 87.5589 10.644 87.6024 10.5374C87.6453 10.4308 87.7097 10.334 87.7907 10.2527C87.8718 10.1714 87.9689 10.1072 88.0756 10.064C88.1816 10.0208 88.2961 9.99947 88.4111 10.0011H104.389Z" fill="white"/>
<path d="M126.679 15.2199C126.294 14.1654 125.681 13.209 124.883 12.4191C124.053 11.5961 123.053 10.9647 121.952 10.5695C120.615 10.1318 119.213 9.92189 117.806 9.94854H109.883C109.77 9.94629 109.658 9.9672 109.553 10.0104C109.449 10.0536 109.354 10.118 109.276 10.1996C109.192 10.2799 109.126 10.3763 109.08 10.483C109.035 10.5897 109.012 10.7045 109.012 10.8205V31.7077C109.012 31.8237 109.035 31.9385 109.08 32.0452C109.126 32.152 109.192 32.2484 109.276 32.3287C109.354 32.4102 109.449 32.4746 109.553 32.5179C109.658 32.561 109.77 32.5821 109.883 32.5797H118.004C119.376 32.6049 120.743 32.3949 122.044 31.9587C123.126 31.5819 124.109 30.968 124.923 30.162C125.716 29.3713 126.325 28.4149 126.706 27.3612C127.143 26.1821 127.402 24.9441 127.472 23.6884C127.551 22.1031 127.551 20.5045 127.472 18.9191C127.397 17.6529 127.13 16.4055 126.679 15.2199ZM123.088 23.662C123.054 24.3213 122.921 24.9718 122.692 25.5909C122.482 26.1711 122.149 26.6986 121.714 27.1366C121.257 27.5874 120.707 27.9344 120.104 28.1539C119.367 28.4177 118.588 28.5431 117.806 28.5238H113.33V13.9913H117.595C118.407 13.9715 119.216 14.0968 119.985 14.3612C120.606 14.5737 121.171 14.9263 121.635 15.3917C122.081 15.8256 122.423 16.3538 122.639 16.9374C122.868 17.5519 123.001 18.198 123.035 18.8531C123.146 20.4536 123.164 22.0594 123.088 23.662Z" fill="white"/>
<path d="M146.641 28.5233H137.187C136.868 28.5233 136.563 28.3967 136.337 28.1712C136.112 27.9458 135.985 27.64 135.985 27.3211V23.1728H145.678C145.79 23.1751 145.903 23.1541 146.007 23.1109C146.112 23.0677 146.206 23.0033 146.285 22.9217C146.368 22.8414 146.435 22.745 146.48 22.6383C146.526 22.5316 146.549 22.4168 146.549 22.3008V20.0152C146.542 19.7861 146.448 19.5681 146.286 19.406C146.125 19.2439 145.907 19.1499 145.678 19.1433H136.077V15.3648C136.077 15.0144 136.217 14.6784 136.464 14.4306C136.712 14.1829 137.048 14.0437 137.398 14.0437H146.47C146.584 14.0421 146.696 14.0179 146.8 13.9726C146.904 13.9272 146.998 13.8616 147.077 13.7795C147.159 13.701 147.223 13.6065 147.266 13.5019C147.309 13.3973 147.331 13.2849 147.328 13.1717V10.8729C147.33 10.7591 147.309 10.646 147.266 10.5403C147.224 10.4345 147.162 10.3383 147.082 10.2572C147.002 10.176 146.906 10.1116 146.802 10.0676C146.696 10.0236 146.584 10.001 146.47 10.001H135.827C134.737 10.001 133.69 10.4334 132.919 11.2036C132.146 11.9737 131.711 13.0188 131.707 14.1098V28.4969C131.711 29.5739 132.14 30.6055 132.903 31.3657C133.665 32.1259 134.697 32.5532 135.774 32.5532H146.641C146.755 32.5553 146.867 32.5342 146.971 32.491C147.076 32.4478 147.17 32.3834 147.249 32.3018C147.333 32.2216 147.399 32.1251 147.445 32.0184C147.49 31.9117 147.513 31.7969 147.513 31.6809V29.3953C147.507 29.1662 147.412 28.9482 147.25 28.7861C147.088 28.624 146.871 28.53 146.641 28.5233Z" fill="white"/>
<path d="M166.452 28.5236H156.997C156.677 28.5237 156.37 28.3974 156.143 28.1723C155.915 27.9473 155.786 27.6415 155.782 27.3214V23.173H165.487C165.601 23.1754 165.713 23.1544 165.818 23.1111C165.922 23.068 166.017 23.0035 166.095 22.922C166.179 22.8417 166.245 22.7453 166.291 22.6386C166.336 22.5319 166.359 22.417 166.359 22.3011V20.0155C166.353 19.7863 166.259 19.5684 166.096 19.4063C165.934 19.2442 165.717 19.1502 165.487 19.1436H155.756V15.3651C155.756 15.0147 155.895 14.6786 156.142 14.4309C156.39 14.1831 156.726 14.0439 157.076 14.0439H166.135C166.251 14.0441 166.365 14.0208 166.472 13.9754C166.579 13.93 166.675 13.8634 166.756 13.7797C166.837 13.7013 166.901 13.6067 166.944 13.5021C166.987 13.3976 167.009 13.2851 167.006 13.172V10.8732C167.008 10.7582 166.987 10.644 166.943 10.5374C166.9 10.4308 166.836 10.334 166.755 10.2527C166.674 10.1714 166.577 10.1072 166.47 10.064C166.364 10.0208 166.25 9.99947 166.135 10.0011H155.571C154.449 10.0011 153.373 10.4462 152.578 11.2387C151.784 12.0311 151.336 13.1064 151.332 14.2289V28.3651C151.332 29.4758 151.773 30.541 152.558 31.3264C153.343 32.1119 154.408 32.5535 155.518 32.5535H166.452C166.565 32.5556 166.677 32.5344 166.782 32.4913C166.886 32.4481 166.981 32.3837 167.059 32.3021C167.143 32.2218 167.209 32.1254 167.254 32.0187C167.3 31.9119 167.323 31.7972 167.323 31.6811V29.3956C167.316 29.1664 167.223 28.9485 167.061 28.7864C166.899 28.6243 166.68 28.5303 166.452 28.5236Z" fill="white"/>
<path d="M188.991 31.4953L184.554 23.5685C185.845 23.1082 186.956 22.2472 187.723 21.1111C188.458 19.9217 188.834 18.5456 188.806 17.1477C188.868 16.1704 188.711 15.1916 188.348 14.2821C187.985 13.3728 187.424 12.5555 186.707 11.8896C184.968 10.5361 182.79 9.87275 180.593 10.0268H172.274C172.16 10.0244 172.048 10.0454 171.943 10.0886C171.839 10.1318 171.744 10.1963 171.666 10.2778C171.583 10.3581 171.516 10.4545 171.471 10.5612C171.426 10.6679 171.402 10.7828 171.402 10.8987V31.7067C171.402 31.8227 171.426 31.9375 171.471 32.0442C171.516 32.1509 171.583 32.2473 171.666 32.3276C171.744 32.4092 171.839 32.4736 171.943 32.5168C172.048 32.56 172.16 32.581 172.274 32.579H174.915C175.028 32.581 175.14 32.56 175.245 32.5168C175.349 32.4736 175.444 32.4092 175.522 32.3276C175.606 32.2473 175.672 32.1509 175.717 32.0442C175.763 31.9375 175.787 31.8227 175.786 31.7067V24.1762H180.065L184.29 31.6803C184.398 31.8953 184.546 32.0881 184.726 32.2484C184.99 32.4702 185.332 32.5793 185.676 32.5522H188.41C188.503 32.5539 188.596 32.5359 188.683 32.4995C188.769 32.4631 188.847 32.4091 188.912 32.3408C188.978 32.2775 189.03 32.2017 189.067 32.1177C189.103 32.0338 189.122 31.9435 189.123 31.852C189.111 31.7236 189.065 31.6007 188.991 31.4953ZM183.352 19.4994C182.451 19.9744 181.439 20.1979 180.421 20.1467H175.76V14.0298H180.421C181.434 13.9805 182.442 14.1897 183.352 14.6375C183.743 14.8977 184.052 15.2622 184.246 15.6896C184.44 16.1169 184.51 16.59 184.448 17.0552C184.509 17.5241 184.439 18.0006 184.245 18.4319C184.051 18.8633 183.743 19.2327 183.352 19.4994Z" fill="white"/>
</g>
<defs>
<clipPath id="clip0_425_4554">
<rect width="189.121" height="36.3693" fill="white"/>
</clipPath>
</defs>
</svg>
