<svg width="168" height="30" viewBox="0 0 168 30" fill="none" xmlns="http://www.w3.org/2000/svg">
<path fill-rule="evenodd" clip-rule="evenodd" d="M14.4997 14.298L8.28727 10.9702L25.1538 1.5V8.2095L14.4997 14.298ZM25.185 28.5L7.41406 18.924V12.2797L25.185 21.7927V28.5Z" fill="#3B3B3B"/>
<path fill-rule="evenodd" clip-rule="evenodd" d="M40.5134 15.702L46.7259 19.0297L29.8593 28.4999V21.7905L40.5134 15.702ZM29.8281 1.5L47.5991 11.076V17.7202L29.8281 8.20725V1.5Z" fill="#3B3B3B"/>
<path fill-rule="evenodd" clip-rule="evenodd" d="M55.0195 22.0722L59.7374 7.92871H63.5753L68.2932 22.0722H65.2593L61.6663 10.8335L59.7574 16.7375H62.544L63.3637 19.3002H58.9511L58.0512 22.0722H55.0195ZM72.7794 7.92871L78.7489 16.9512V7.92871H81.6136V22.0722H78.938L73.0021 13.2995V22.0722H70.1375V7.92871H72.7794ZM83.6181 7.92871H95.0005V10.4915H90.7505V22.0722H87.868V10.4915H83.6181V7.92871ZM94.4666 22.0722L99.1859 7.92871H103.022L107.742 22.0722H104.708L101.113 10.8335L99.2037 16.7375H101.991L102.811 19.3002H98.3977L97.5003 22.0722H94.4666ZM109.567 7.92871H112.449V19.5095H119.227V22.0722H109.567V7.92871ZM127.315 7.92871C128.451 7.92871 129.395 8.15596 130.15 8.61496C130.908 9.07396 131.476 9.66346 131.852 10.3857C132.236 11.1057 132.423 11.8527 132.423 12.6312C132.423 13.4345 132.236 14.195 131.852 14.915C131.472 15.6327 130.906 16.2245 130.15 16.6812C129.395 17.138 128.451 17.3697 127.315 17.3697H124.488V22.0722H121.604V7.92871H127.315ZM137.201 13.5672H142.593V7.92871H145.476V22.0722H142.593V16.1277H137.201V22.0722H134.318V7.92871H137.201V13.5672ZM160.585 22.0722H157.551L153.956 10.8335L152.047 16.7375H154.834L155.653 19.3002H151.243L150.343 22.0722H147.311L152.027 7.92871H155.867L160.585 22.0722ZM129.273 11.6165C129.104 11.288 128.859 11.0202 128.534 10.8155C128.21 10.6107 127.803 10.5095 127.318 10.5095H124.491V14.8092H127.318C127.803 14.8092 128.208 14.7035 128.534 14.4942C128.859 14.285 129.104 14.015 129.273 13.691C129.44 13.367 129.525 13.0182 129.525 12.6492C129.525 12.2937 129.44 11.9495 129.273 11.6165Z" fill="#3B3B3B"/>
</svg>
