<svg width="190" height="57" viewBox="0 0 190 57" fill="none" xmlns="http://www.w3.org/2000/svg">
<g clip-path="url(#clip0_425_4415)">
<path d="M73.4401 45.0381C82.5035 45.0381 89.8478 37.6817 89.8266 28.6122C89.8205 26.3615 91.6794 24.5482 93.93 24.5482H94.3583C95.0296 24.5482 95.5732 24.0045 95.5732 23.3332V13.4801C95.5732 12.8088 95.0296 12.2651 94.3583 12.2651H93.93C84.8666 12.2651 77.5223 19.6216 77.5435 28.6911C77.5496 30.9418 75.6908 32.7551 73.4401 32.7551H73.0118C72.3406 32.7551 71.7969 33.2988 71.7969 33.97V43.8232C71.7969 44.4945 72.3406 45.0381 73.0118 45.0381H73.4401Z" fill="white"/>
<path d="M141.999 13.4981C145.719 13.4981 148.735 10.4819 148.735 6.76126C148.735 3.0406 145.719 0.0244141 141.999 0.0244141C138.278 0.0244141 135.262 3.0406 135.262 6.76126C135.262 10.4819 138.278 13.4981 141.999 13.4981Z" fill="white"/>
<path d="M146.927 16.3682H137.074C136.403 16.3682 135.859 16.9121 135.859 17.5831V42.5896C135.859 43.2606 136.403 43.8045 137.074 43.8045H146.927C147.598 43.8045 148.142 43.2606 148.142 42.5896V17.5831C148.142 16.9121 147.598 16.3682 146.927 16.3682Z" fill="white"/>
<path d="M168.633 11.1896V1.2453C168.633 0.53456 168.025 -0.0243128 167.314 0.0333969C158.88 0.704651 152.246 7.76042 152.246 16.3683V42.5897C152.246 43.261 152.79 43.8046 153.461 43.8046H163.314C163.985 43.8046 164.529 43.261 164.529 42.5897V29.8693C164.529 29.198 165.073 28.6543 165.744 28.6543H167.418C168.089 28.6543 168.633 28.1107 168.633 27.4394V17.5862C168.633 16.915 168.089 16.3713 167.418 16.3713H166.014C165.127 16.3713 164.535 15.451 164.909 14.6461C165.434 13.5162 166.458 12.6627 167.7 12.3742C168.247 12.2466 168.633 11.7576 168.633 11.1957V11.1896Z" fill="white"/>
<path d="M189.121 33.827V43.7712C189.121 44.482 188.513 45.0409 187.803 44.9832C179.368 44.3119 172.734 37.2561 172.734 28.6483V1.21494C172.734 0.543686 173.278 0 173.949 0H183.802C184.474 0 185.017 0.543686 185.017 1.21494V15.1503C185.017 15.8216 185.561 16.3652 186.232 16.3652H187.906C188.577 16.3652 189.121 16.9089 189.121 17.5802V27.4333C189.121 28.1046 188.577 28.6483 187.906 28.6483H186.503C185.616 28.6483 185.023 29.5686 185.397 30.3735C185.923 31.5034 186.946 32.3569 188.188 32.6454C188.735 32.773 189.121 33.262 189.121 33.8239V33.827Z" fill="white"/>
<path d="M111.267 28.6514C111.267 26.3188 113.213 24.4417 115.567 24.5541C117.776 24.6573 119.473 26.5587 119.473 28.7699V42.5898C119.473 43.2611 120.017 43.8048 120.688 43.8048H130.542C131.213 43.8048 131.757 43.2611 131.757 42.5898V28.9096C131.757 19.8978 124.588 12.3834 115.58 12.268C114.592 12.2558 113.627 12.3318 112.685 12.4867C111.941 12.6082 111.264 12.0432 111.264 11.2899V2.34192H111.26C111.212 1.67066 110.629 1.1695 109.957 1.2181C109.79 1.23025 109.632 1.27581 109.493 1.34871L99.6426 6.36641C99.2356 6.57295 98.9805 6.9921 98.9805 7.4477V42.5838C98.9805 43.255 99.5242 43.7987 100.195 43.7987H110.049C110.72 43.7987 111.264 43.255 111.264 42.5838V28.6484L111.267 28.6514Z" fill="white"/>
<path d="M31.5581 43.8012H16.3865C7.3352 43.8012 0 36.466 0 27.4147V14.7125C0 14.0412 0.543686 13.4976 1.21494 13.4976H11.0681C11.7394 13.4976 12.283 14.0412 12.283 14.7125V28.5324C12.283 30.7406 13.9809 32.642 16.1891 32.7483C18.5461 32.8607 20.49 30.9805 20.49 28.6509V14.7155C20.49 14.0443 21.0336 13.5006 21.7049 13.5006H31.5581C32.2293 13.5006 32.773 14.0443 32.773 14.7155V42.5893C32.773 43.2605 32.2293 43.8042 31.5581 43.8042V43.8012Z" fill="white"/>
<path d="M50.5765 44.8187C51.7155 45.007 52.8909 45.0769 54.0968 45.0161C62.489 44.6 69.2805 37.7538 69.6328 29.3586C70.0246 20.0157 62.5922 12.313 53.3496 12.2644C44.2223 12.2158 36.875 19.7909 36.875 28.9182V54.9604H36.878C36.9266 55.6286 37.5098 56.1328 38.1811 56.0812C38.3481 56.069 38.5061 56.0235 38.6458 55.9506L48.4959 50.9329C48.9029 50.7264 49.158 50.3072 49.158 49.8516V46.0154C49.158 45.2622 49.8354 44.6972 50.5765 44.8187ZM53.2615 32.7544C50.9956 32.7544 49.158 30.9168 49.158 28.6509C49.158 26.385 50.9956 24.5474 53.2615 24.5474C55.5274 24.5474 57.365 26.385 57.365 28.6509C57.365 30.9168 55.5274 32.7544 53.2615 32.7544Z" fill="white"/>
</g>
<defs>
<clipPath id="clip0_425_4415">
<rect width="189.121" height="56.0847" fill="white"/>
</clipPath>
</defs>
</svg>
