<svg width="190" height="60" viewBox="0 0 190 60" fill="none" xmlns="http://www.w3.org/2000/svg">
<path fill-rule="evenodd" clip-rule="evenodd" d="M48.1166 22.2485C48.1166 45.2843 29.6815 51.5565 29.6815 51.5565C29.6815 51.5565 11.2461 45.2843 11.2461 22.2485V13.9565C11.2461 13.0477 11.953 12.3183 12.8394 12.251C16.1831 12.0939 24.1272 11.4207 29.6815 8.43604C35.2468 11.4207 43.1796 12.0939 46.5233 12.2622C47.4098 12.3183 48.1166 13.0477 48.1166 13.9565V22.2485ZM32.0154 21.6426C34.7531 21.9006 36.9074 22.7646 37.1317 25.2781C37.3002 27.1182 36.5259 28.2178 35.2916 28.8461C37.3225 29.3398 38.5793 30.5517 38.31 33.2558C37.9733 36.5995 35.4599 37.4858 31.8919 37.6654L31.9031 41.1776H29.76L29.7712 37.6991C29.2215 37.6879 28.6604 37.6766 28.0769 37.6654L28.0544 41.1776L25.945 41.1663L25.9338 37.6318C25.44 37.6318 22.0739 37.6431 22.0739 37.6431L22.0963 35.0847L24.4752 35.0734L24.4864 23.853H21.7709V21.6201C21.7709 21.6201 25.5972 21.6201 26.0573 21.6089L26.046 18.1193L28.1891 18.1081V21.5528C28.7614 21.5416 29.356 21.5416 29.917 21.5416L29.9058 18.1418L32.0264 18.1306L32.0154 21.6426ZM28.5793 35.103C30.3112 35.1402 34.0929 35.2218 34.1135 32.7958C34.1337 30.3241 30.4802 30.3832 28.6909 30.412C28.49 30.4153 28.3126 30.4181 28.1666 30.4169L28.1779 35.0959C28.2937 35.0969 28.4286 35.0997 28.5793 35.103ZM28.5671 28.2918C29.999 28.3277 33.1503 28.4059 33.171 26.1981C33.181 23.9327 30.0914 24.0034 28.6241 24.0372C28.4708 24.0407 28.3351 24.0438 28.2227 24.0438L28.2339 28.285C28.3298 28.286 28.4418 28.2888 28.5671 28.2918Z" fill="white"/>
<path d="M84.7748 37.0144C84.7748 38.8548 84.4155 40.3919 83.6862 41.6374C82.9569 42.8828 81.9921 43.8926 80.7913 44.6444C79.5907 45.4074 78.2219 45.9459 76.6848 46.2827C75.1475 46.6192 73.5766 46.7763 71.9608 46.7763H58.5859V13.2046H71.9608C73.2624 13.2046 74.5864 13.3392 75.9443 13.6085C77.3018 13.8778 78.5362 14.3379 79.647 14.9886C80.7578 15.6394 81.6554 16.5146 82.3512 17.6255C83.0467 18.7363 83.3945 20.1389 83.3945 21.8444C83.3945 23.7071 82.8897 25.2554 81.8799 26.4672C80.8701 27.6903 79.5347 28.5654 77.8966 29.1041V29.1939C78.8502 29.3509 79.7367 29.6427 80.5783 30.069C81.4198 30.4955 82.1491 31.0453 82.7549 31.7073C83.3722 32.3691 83.8658 33.1434 84.2248 34.03C84.5953 34.9163 84.7748 35.9148 84.7748 37.0144ZM75.574 22.9328C75.574 21.7995 75.1362 20.9692 74.2724 20.4418C73.3971 19.9145 72.118 19.6564 70.4012 19.6564H66.4179V26.5795H70.7827C72.2975 26.5795 73.4756 26.2765 74.3172 25.6594C75.1587 25.0422 75.574 24.1333 75.574 22.9328ZM76.6623 36.2628C76.6623 34.8715 76.146 33.9064 75.0915 33.3679C74.0479 32.8294 72.6566 32.5599 70.9174 32.5599H66.4067V40.2461H70.9622C71.5905 40.2461 72.2525 40.1898 72.9258 40.0778C73.6104 39.9656 74.2274 39.7748 74.7772 39.483C75.327 39.2025 75.7758 38.7985 76.1238 38.2712C76.494 37.7552 76.6623 37.0819 76.6623 36.2628Z" fill="white"/>
<path d="M95.557 15.6285C95.557 16.2344 95.4335 16.7955 95.1978 17.3116C94.9622 17.839 94.648 18.2878 94.2442 18.6581C93.8514 19.0396 93.3689 19.3425 92.8191 19.5557C92.2693 19.7801 91.6858 19.8923 91.0913 19.8923C89.8232 19.8923 88.7686 19.4772 87.9158 18.6356C87.063 17.7941 86.6367 16.7955 86.6367 15.6285C86.6367 15.0563 86.7487 14.5177 86.9732 13.9903C87.1975 13.463 87.5118 13.0141 87.9271 12.6439C88.3421 12.2624 88.8134 11.9594 89.3519 11.7238C89.8904 11.4882 90.474 11.3647 91.1023 11.3647C91.7083 11.3647 92.2806 11.477 92.8304 11.7013C93.3801 11.9258 93.8627 12.2175 94.2554 12.599C94.648 12.9805 94.9622 13.4293 95.209 13.9455C95.4448 14.4616 95.557 15.0226 95.557 15.6285ZM87.2088 46.7878V23.1687H94.9847V46.7878H87.2088Z" fill="white"/>
<path d="M109.092 28.9586V38.0024C109.092 39.1132 109.305 39.9435 109.731 40.5045C110.158 41.0656 110.921 41.3348 112.032 41.3348C112.413 41.3348 112.817 41.3011 113.244 41.2451C113.67 41.1778 114.029 41.0881 114.309 40.9646L114.399 46.6534C113.861 46.8442 113.187 47.0124 112.357 47.1469C111.538 47.2929 110.708 47.3602 109.889 47.3602C108.307 47.3602 106.982 47.1582 105.905 46.7657C104.828 46.3729 103.964 45.8006 103.324 45.0488C102.674 44.3083 102.214 43.4107 101.922 42.3896C101.641 41.3573 101.496 40.2128 101.496 38.9449V28.9586H97.7031V23.1688H101.451V16.9526H109.092V23.1688H114.646V28.9586H109.092Z" fill="white"/>
<path d="M142.799 46.8332C140.599 47.3717 138.209 47.641 135.606 47.641C132.913 47.641 130.445 47.2147 128.178 46.3619C125.912 45.5091 123.971 44.3085 122.344 42.7601C120.717 41.2116 119.438 39.3489 118.529 37.1836C117.609 35.0179 117.148 32.6055 117.148 29.9464C117.148 27.2534 117.62 24.8185 118.551 22.6417C119.482 20.4649 120.773 18.6023 122.422 17.0651C124.06 15.5279 125.99 14.3497 128.212 13.5306C130.423 12.7115 132.812 12.2964 135.371 12.2964C138.03 12.2964 140.498 12.7003 142.776 13.5082C145.054 14.3161 146.905 15.3932 148.33 16.7621L143.203 22.5968C142.406 21.6767 141.362 20.9249 140.072 20.3415C138.771 19.758 137.301 19.4663 135.662 19.4663C134.237 19.4663 132.925 19.7243 131.724 20.2517C130.524 20.7679 129.48 21.4972 128.593 22.4285C127.707 23.3598 127.023 24.4705 126.529 25.7498C126.035 27.0289 125.788 28.4315 125.788 29.9464C125.788 31.4947 126.013 32.9198 126.45 34.2214C126.888 35.5229 127.55 36.6338 128.414 37.5651C129.278 38.4964 130.355 39.2257 131.634 39.7417C132.913 40.269 134.372 40.5273 136.021 40.5273C136.975 40.5273 137.873 40.4598 138.726 40.314C139.578 40.1682 140.375 39.9437 141.093 39.6295V33.5143H134.686V26.9729H148.544V44.7573C146.917 45.5988 144.998 46.2946 142.799 46.8332Z" fill="white"/>
<path d="M177.808 34.8829C177.808 36.813 177.46 38.5633 176.764 40.1229C176.069 41.6938 175.115 43.0179 173.914 44.1062C172.714 45.1947 171.322 46.0473 169.74 46.6421C168.158 47.2479 166.464 47.5397 164.669 47.5397C162.896 47.5397 161.213 47.2369 159.619 46.6421C158.026 46.0361 156.635 45.1947 155.445 44.1062C154.256 43.0179 153.314 41.6825 152.618 40.1229C151.922 38.5521 151.574 36.813 151.574 34.8829C151.574 32.953 151.922 31.2139 152.618 29.6655C153.314 28.1169 154.256 26.8041 155.445 25.727C156.635 24.65 158.026 23.8307 159.619 23.2585C161.213 22.6863 162.896 22.4058 164.669 22.4058C166.475 22.4058 168.158 22.6863 169.74 23.2585C171.322 23.8307 172.714 24.65 173.914 25.727C175.115 26.8041 176.069 28.1169 176.764 29.6655C177.46 31.2139 177.808 32.953 177.808 34.8829ZM170.313 34.8829C170.313 34.1201 170.189 33.3795 169.931 32.6502C169.673 31.9207 169.314 31.2811 168.843 30.7314C168.371 30.1816 167.788 29.7328 167.092 29.385C166.397 29.037 165.589 28.8687 164.669 28.8687C163.748 28.8687 162.941 29.0483 162.245 29.385C161.549 29.7328 160.977 30.1816 160.517 30.7314C160.057 31.2811 159.709 31.9207 159.473 32.6502C159.238 33.3795 159.114 34.1201 159.114 34.8829C159.114 35.6459 159.238 36.3865 159.473 37.1158C159.709 37.8453 160.068 38.4961 160.54 39.0794C161.011 39.6629 161.594 40.1342 162.29 40.482C162.986 40.8297 163.793 41.0095 164.714 41.0095C165.634 41.0095 166.441 40.841 167.137 40.482C167.833 40.1342 168.416 39.6629 168.888 39.0794C169.359 38.4961 169.718 37.834 169.954 37.1158C170.2 36.3865 170.313 35.6459 170.313 34.8829Z" fill="white"/>
</svg>
