<svg width="169" height="51" viewBox="0 0 169 51" fill="none" xmlns="http://www.w3.org/2000/svg">
<g clip-path="url(#clip0_472_791)">
<path d="M24.874 0.000976562C38.6098 0.000992102 49.744 11.2015 49.7441 25.0186C49.7441 38.8357 38.6099 50.0361 24.874 50.0361C11.1381 50.0361 0.00390625 38.8357 0.00390625 25.0186C0.00403973 11.2015 11.1382 0.000976562 24.874 0.000976562ZM23.9443 20.627C25.7679 23.2768 23.5486 26.4084 19.4131 25.3154C17.0817 24.677 14.9745 23.3921 13.333 21.6084C11.0947 28.6503 13.72 34.8956 19.4492 37.7588C19.8241 39.1922 19.088 40.6849 17.7266 41.252C20.3821 41.8125 23.1467 41.1319 25.2432 39.3994C26.4636 39.569 27.6953 39.6489 28.9277 39.6396C27.3049 37.4345 26.6045 34.6773 26.9756 31.959C26.9772 32.008 27.1528 36.9657 31.3965 39.4551L31.4062 39.5195C33.9815 39.2859 36.4015 38.1791 38.2686 36.3789C37.5961 27.354 28.2644 21.0995 23.9443 20.627ZM33.5664 33.0098C34.1642 32.9542 34.6937 33.3958 34.749 33.9971V34.0713C34.6854 34.5992 34.2551 35.0052 33.7266 35.0332C33.1269 35.0638 32.6163 34.6003 32.585 33.9971C32.6329 33.4728 33.0462 33.0581 33.5664 33.0098ZM17.3496 15.3359C15.5258 16.7795 14.1825 18.7474 13.499 20.9785C17.7178 24.6292 19.9473 23.7031 19.9473 23.7031C16.7694 22.026 17.377 15.3633 17.377 15.3633L17.3496 15.3359ZM23.4199 7.64551C20.8094 9.27629 18.8524 11.7785 17.8926 14.7148C19.1821 14.3442 23.7786 16.7255 25.9434 15.6416C22.5812 13.2548 23.3644 7.74247 23.373 7.68262L23.4199 7.64551Z" fill="#3B3B3B"/>
<path fill-rule="evenodd" clip-rule="evenodd" d="M66.9426 9.41449C65.6052 10.1094 64.4694 11.1398 63.645 12.4074C62.8325 13.6499 62.4061 15.1083 62.4199 16.5955V18.041L59.7578 18.7266V20.8578H62.4199V34.4971L59.7947 34.8121V37.0637H71.447V34.8121L67.9467 34.4971V20.8578H72.0457V18.0039H67.9467V14.9462C67.8868 14.2679 68.0554 13.5887 68.4257 13.0189C68.8439 12.589 69.4334 12.374 70.0284 12.4351C70.7644 12.4435 71.493 12.5778 72.1839 12.8336C72.7273 12.9865 73.2284 13.2617 73.6485 13.6397V8.65469C72.9097 8.42027 72.1387 8.30445 71.3641 8.31186C69.8101 8.30259 68.2783 8.68156 66.9058 9.41449" fill="#3B3B3B"/>
<path fill-rule="evenodd" clip-rule="evenodd" d="M89.599 32.9877L80.1021 33.9884C83.0295 32.3975 85.7155 30.3952 88.0791 28.0398C90.1121 25.9337 91.1308 23.8025 91.1373 21.6464C91.1465 20.5484 90.8563 19.468 90.299 18.5238C89.681 17.5324 88.7829 16.7475 87.7199 16.2722C86.364 15.669 84.8911 15.3808 83.409 15.429C82.2152 15.4299 81.0306 15.6403 79.9087 16.0498C78.8263 16.4325 77.7984 16.956 76.8505 17.6065C76.1007 18.0864 75.432 18.6841 74.8701 19.3763L76.2334 21.4425C76.8045 20.9607 77.2742 20.5901 77.6519 20.3306C78.1189 20.0193 78.6237 19.77 79.1533 19.5894C79.8304 19.3503 80.5452 19.2345 81.2627 19.2465C82.2502 19.1937 83.2202 19.5254 83.9709 20.1731C84.6516 20.8087 85.0219 21.7131 84.9841 22.6471C84.9841 24.7347 84.0326 26.8352 82.1286 28.9478C79.9234 31.318 77.3848 33.35 74.5938 34.9799L75.4136 37.0832H92.2611L93.2835 30.6528L90.9715 30.1339L89.599 32.9877Z" fill="#3B3B3B"/>
<path fill-rule="evenodd" clip-rule="evenodd" d="M106.977 17.4948C105.9 17.4819 104.838 17.7469 103.891 18.2639C103.03 18.7133 102.275 19.3461 101.68 20.1171V18.2639L100.759 17.5412H100.694L94.5781 18.3009V20.9788L96.6599 21.5996V42.8183L94.5781 43.2631V45.4035H105.07V43.2723L102.131 42.8276V39.8996L102.021 37.1198C102.337 37.2366 102.664 37.3172 102.997 37.3607C103.387 37.4284 103.781 37.4627 104.176 37.4627C106.116 37.5127 108.03 37.0151 109.703 36.0265C111.206 35.1027 112.415 33.7656 113.185 32.1719C114.007 30.5272 114.432 28.712 114.429 26.8718C114.429 23.6844 113.74 21.3188 112.365 19.7742C111.013 18.2398 109.051 17.391 107.013 17.4578M107.373 33.3579C106.773 34.4976 105.596 35.2101 104.314 35.2111C103.867 35.2139 103.422 35.1425 102.997 34.998C102.679 34.9099 102.391 34.7339 102.168 34.4883V21.8868C102.475 21.5014 102.874 21.2012 103.329 21.0158C103.852 20.7749 104.421 20.6517 104.996 20.6544C106.092 20.6702 107.084 21.3096 107.557 22.3038C108.281 23.8697 108.598 25.5941 108.478 27.3166C108.478 30.0963 108.1 32.0978 107.336 33.3301" fill="#3B3B3B"/>
<path fill-rule="evenodd" clip-rule="evenodd" d="M126.776 17.5416C125.097 17.5203 123.438 17.9085 121.94 18.672C120.465 19.4411 119.248 20.6299 118.44 22.0911C117.534 23.7988 117.086 25.715 117.141 27.6506C117.141 30.7361 117.952 33.1545 119.582 34.8779C121.351 36.6662 123.794 37.6095 126.297 37.4724C127.988 37.4983 129.659 37.124 131.179 36.379C132.65 35.6294 133.866 34.4545 134.67 33.0062C135.588 31.2624 136.036 29.3073 135.969 27.3355C135.969 24.2472 135.152 21.8381 133.519 20.1082C131.741 18.3171 129.288 17.3729 126.776 17.5138M129.079 33.2842C128.723 34.3368 127.744 35.0466 126.638 35.054C125.437 35.0558 124.372 34.2766 124.004 33.1267C123.363 31.2253 123.084 29.2202 123.184 27.2151C123.184 22.332 124.308 19.8951 126.537 19.8951C127.723 19.8821 128.775 20.6604 129.116 21.8039C129.722 23.7182 129.981 25.727 129.881 27.734C129.984 29.6223 129.711 31.5126 129.079 33.2935" fill="#3B3B3B"/>
<path fill-rule="evenodd" clip-rule="evenodd" d="M148.315 17.541C146.64 17.5058 144.981 17.8774 143.479 18.6251C142.004 19.3942 140.787 20.583 139.979 22.0442C139.073 23.7519 138.625 25.6681 138.68 27.6037C138.68 30.6892 139.491 33.1076 141.121 34.831C142.89 36.6194 145.333 37.5626 147.836 37.4255C149.527 37.4514 151.199 37.0771 152.718 36.3321C154.189 35.5825 155.405 34.4076 156.209 32.9594C157.127 31.2155 157.575 29.2604 157.508 27.2887C157.508 24.2004 156.691 21.7913 155.058 20.0613C153.28 18.2702 150.827 17.3261 148.315 17.4669M150.618 33.2837C150.262 34.3363 149.283 35.046 148.177 35.0534C146.976 35.0553 145.911 34.276 145.543 33.1261C144.902 31.2248 144.623 29.2197 144.723 27.2145C144.723 22.3315 145.847 19.8945 148.076 19.8945C149.262 19.8816 150.314 20.6599 150.655 21.8033C151.261 23.7176 151.52 25.7265 151.42 27.7334C151.523 29.6218 151.25 31.512 150.618 33.2929" fill="#3B3B3B"/>
<path fill-rule="evenodd" clip-rule="evenodd" d="M166.782 9.61922L165.788 8.89648H165.686L158.852 9.72114V11.8245L161.247 12.2692V34.4979L159.063 34.813V37.0831H169.002V34.813L166.782 34.4979V9.61922Z" fill="#3B3B3B"/>
</g>
<defs>
<clipPath id="clip0_472_791">
<rect width="169" height="51" fill="white"/>
</clipPath>
</defs>
</svg>
