<svg width="190" height="35" viewBox="0 0 190 35" fill="none" xmlns="http://www.w3.org/2000/svg">
<g clip-path="url(#clip0_425_4444)">
<path d="M118.42 9.96729C119.715 9.96729 120.402 10.549 120.402 11.7387C120.402 12.3204 120.297 12.7963 119.927 13.0342C119.583 13.378 119.107 13.5102 118.393 13.5102C117.098 13.5102 116.41 12.9285 116.41 11.7387C116.437 10.549 117.124 9.96729 118.42 9.96729Z" fill="white"/>
<path d="M145.966 15.0176C147.606 15.0176 148.769 15.5992 149.721 16.8948C150.646 18.1903 151.122 19.8295 151.122 22.0504C151.122 23.4517 150.884 24.7473 150.54 25.8048C150.065 26.8624 149.483 27.682 148.769 28.2637C147.949 28.8454 146.998 29.0833 145.966 29.0833C144.327 29.0833 143.164 28.5016 142.212 27.3119H141.974C142.08 28.4752 142.212 29.0833 142.212 29.2948V34.7942H138.59V15.2291H141.63L142.106 17.0005H142.212C143.032 15.5992 144.327 15.0176 145.966 15.0176ZM144.803 17.9259C143.878 17.9259 143.27 18.1639 142.82 18.7455C142.344 19.3272 142.238 20.279 142.106 21.5481V21.8918C142.106 23.2931 142.344 24.3507 142.82 25.0645C143.296 25.6462 143.983 25.9899 144.803 25.9899C146.442 25.9899 147.262 24.5886 147.262 21.8918C147.262 20.5963 147.024 19.5387 146.68 18.8513C146.31 18.2961 145.728 17.9259 144.803 17.9259Z" fill="white"/>
<path d="M159.93 15.0176C161.226 15.0176 162.389 15.2555 163.341 15.8372C164.266 16.4189 165.113 17.2385 165.562 18.2961C166.144 19.3536 166.382 20.6492 166.382 22.0504C166.382 24.2713 165.8 25.9106 164.61 27.2061C163.447 28.5016 161.808 29.0833 159.798 29.0833C158.503 29.0833 157.339 28.8454 156.388 28.2637C155.462 27.682 154.616 26.8624 154.034 25.8048C153.453 24.7473 153.215 23.4517 153.215 22.0504C153.215 19.8295 153.797 18.1903 154.986 16.8948C156.282 15.5992 157.815 15.0176 159.93 15.0176ZM159.93 17.9259C159.005 17.9259 158.291 18.2696 157.815 18.9835C157.339 19.6973 157.101 20.6227 157.101 22.024C157.101 23.3195 157.339 24.3771 157.815 25.0645C158.291 25.7784 158.979 26.1221 159.93 26.1221C160.856 26.1221 161.57 25.7784 162.046 25.0645C162.521 24.3507 162.759 23.4253 162.759 22.024C162.759 20.7285 162.521 19.6709 162.046 18.9835C161.57 18.2961 160.856 17.9259 159.93 17.9259Z" fill="white"/>
<path d="M85.7129 14.8857C87.4844 14.8857 88.8856 15.2295 89.9432 16.0491C90.8686 16.8687 91.3445 18.032 91.3445 19.6713V28.6871H88.7534L88.0396 26.8363H87.9338C87.3522 27.6559 86.6383 28.1319 86.0566 28.4756C85.3428 28.8193 84.5231 28.9515 83.4656 28.9515C82.17 28.9515 81.1125 28.6078 80.425 27.8939C79.7376 27.18 79.2617 26.1225 79.2617 24.7212C79.2617 23.3199 79.7376 22.2623 80.7952 21.5485C81.8528 20.8346 83.2541 20.4909 85.3692 20.3851L87.7223 20.2794V19.6977C87.7223 18.2964 87.0084 17.5826 85.6072 17.5826C84.5496 17.5826 83.2541 17.9263 81.747 18.5079L80.5572 16.0755C82.0643 15.3617 83.8357 14.8857 85.7129 14.8857ZM87.6959 22.5003H86.2946C85.237 22.5003 84.4174 22.7382 83.9415 23.0819C83.4656 23.4256 83.1219 24.0073 83.1219 24.7212C83.1219 25.7788 83.7035 26.2547 84.8933 26.2547C85.7129 26.2547 86.4268 26.0167 86.8762 25.5408C87.3522 25.0649 87.6959 24.3775 87.6959 23.5578V22.5003Z" fill="white"/>
<path d="M126.749 15.229L129.314 19.5915L132.011 15.229H136.241L131.773 21.8124L136.479 28.7131H132.249L129.314 24.1391L126.512 28.7131H122.281L126.987 21.8124L122.519 15.229H126.749Z" fill="white"/>
<path d="M120.165 15.229H116.543V28.7131H120.165V15.229Z" fill="white"/>
<path d="M176.932 15.0176C177.408 15.0176 177.857 15.0176 178.227 15.1233L177.989 18.534C177.646 18.4283 177.276 18.4283 176.932 18.4283C175.769 18.4283 174.817 18.772 174.235 19.3536C173.521 19.9353 173.31 20.7549 173.31 21.9447V28.8718H169.688V15.2291H172.49L173.072 17.45H173.31C173.786 16.7361 174.235 16.0487 174.949 15.5728C175.293 15.2291 176.112 15.0176 176.932 15.0176Z" fill="white"/>
<path d="M113.025 15.0176C113.501 15.0176 113.951 15.0176 114.321 15.1233L114.083 18.534C113.739 18.4283 113.369 18.4283 113.025 18.4283C111.862 18.4283 110.91 18.772 110.328 19.3536C109.615 19.9353 109.403 20.7549 109.403 21.9447V28.8718H105.543V15.2291H108.346L108.927 17.45H109.033C109.509 16.7361 109.958 16.0487 110.672 15.5728C111.492 15.2291 112.206 15.0176 113.025 15.0176Z" fill="white"/>
<path d="M71.9943 15.0176C73.5278 15.0176 74.6911 15.3613 75.5107 16.1809C76.3304 17.0005 76.6741 18.1639 76.6741 19.9353V28.7396H72.9197V20.8607C72.9197 19.9353 72.8139 19.0892 72.4438 18.6398C72.1001 18.1639 71.6506 17.9259 70.9367 17.9259C70.0114 17.9259 69.4033 18.2696 68.9538 18.8513C68.4779 19.5916 68.2399 20.517 68.2399 21.9182V28.7132H64.4855V20.8607C64.4855 19.9353 64.3798 19.0892 64.0096 18.6398C63.6659 18.1639 63.19 17.9259 62.5026 17.9259C61.5772 17.9259 60.8634 18.2696 60.3874 18.9835C59.9115 19.6973 59.8058 20.8607 59.8058 22.3942V28.7132H56.1836V15.2291H58.9862L59.4621 17.0005H59.7C60.0437 16.4189 60.6254 15.943 61.2335 15.5992C61.9474 15.2555 62.767 15.0176 63.5866 15.0176C65.5431 15.0176 66.9444 15.705 67.6583 17.0005H68.002C68.3457 16.4189 68.9274 15.8372 69.6412 15.5992C70.3551 15.1233 71.0425 15.0176 71.9943 15.0176Z" fill="white"/>
<path d="M185.127 12.3203V15.2551H188.881V18.0576H185.127V24.6146C185.127 25.0905 185.233 25.54 185.603 25.7779C185.947 26.0159 186.317 26.1216 186.766 26.1216C187.48 26.1216 188.168 26.0159 189.119 25.6457V28.3426C188.194 28.8185 187.136 28.9242 185.709 28.9242C184.175 28.9242 183.118 28.5805 182.536 27.7609C181.822 27.047 181.478 25.8837 181.478 24.3502V17.8197H179.707V16.4184L181.69 15.2551L182.748 12.4525H185.101V12.3203H185.127Z" fill="white"/>
<path d="M98.9591 12.3203V15.2551H102.714V18.0576H98.9591V24.6146C98.9591 25.0905 99.0649 25.54 99.435 25.7779C99.7787 26.0159 100.149 26.1216 100.598 26.1216C101.312 26.1216 102 26.0159 102.951 25.6457V28.3426C102.026 28.8185 100.969 28.9242 99.5408 28.9242C98.0073 28.9242 96.9497 28.5805 96.3681 27.7609C95.6542 27.047 95.3105 25.8837 95.3105 24.3502V17.8197H93.5391V16.4184L95.522 15.1229L96.5796 12.3203H98.9591Z" fill="white"/>
<path d="M29.9007 19.9351C30.0065 19.9351 30.1387 19.9351 30.1387 20.0409V24.6149C30.1387 24.7206 30.0329 24.8528 30.0329 24.8528L21.9425 29.3211C20.7792 30.035 19.3514 30.035 18.1881 29.3211L10.2034 24.7471C10.0977 24.7471 10.0977 24.6413 10.0977 24.5091V19.9351C10.0977 19.8294 10.2034 19.6972 10.3356 19.8294L19.0077 24.7471C19.7216 25.0908 20.5412 25.0908 21.1229 24.7471L29.9007 19.9351Z" fill="white"/>
<path d="M40.2133 13.2462V32.8377C40.2133 32.9435 40.1076 33.0757 39.9754 33.0757H35.983C35.8773 33.0757 35.7451 32.9699 35.7451 32.8377V13.2462C35.7451 12.5323 34.9255 12.0829 34.2116 12.4266L21.7851 19.4594C20.6218 20.1733 19.1941 20.1733 18.0307 19.4594L5.60424 12.4266C4.89037 12.0829 4.20295 12.5323 4.20295 13.2462V32.8377C4.20295 32.9435 4.09719 33.0757 3.965 33.0757H0.210613C0.104855 33.0757 -0.0273438 32.9699 -0.0273438 32.8377V13.2462C-0.0273438 9.14809 4.30871 6.68923 7.82514 8.67218L19.009 15.0176C19.7228 15.3613 20.5425 15.3613 21.1241 15.0176L32.2551 8.67218C35.8773 6.55703 40.2133 9.14809 40.2133 13.2462Z" fill="white"/>
<path d="M29.8998 0L21.0955 4.91772C20.3817 5.26143 19.562 5.26143 18.9804 4.91772L10.3083 0C10.2025 0 10.0703 -6.06724e-07 10.0703 0.105757V4.67976C10.0703 4.78552 10.1761 4.91772 10.1761 4.91772L18.1607 9.49172C19.3241 10.2056 20.7518 10.2056 21.9151 9.49172L30.0056 4.91772C30.1113 4.91772 30.1113 4.81196 30.1113 4.67976V0.105757C30.1378 -6.06724e-07 30.0056 0 29.8998 0Z" fill="white"/>
</g>
<defs>
<clipPath id="clip0_425_4444">
<rect width="189.121" height="34.8206" fill="white"/>
</clipPath>
</defs>
</svg>
