<svg width="190" height="69" viewBox="0 0 190 69" fill="none" xmlns="http://www.w3.org/2000/svg">
<g clip-path="url(#clip0_425_4426)">
<path d="M110.557 41.2623C110.557 55.398 102.819 57.1836 95.0819 57.1836C81.839 57.1836 79.0119 50.3389 79.0119 40.6671V13.1397H74.1016V10.4614H92.7011V13.1397H87.4933V39.7743C87.4933 49.1485 89.874 53.91 96.7187 53.91C103.563 53.91 106.986 50.4877 106.986 40.6671V13.1397H102.075V10.4614H115.318V13.1397H110.854L110.557 41.2623ZM123.502 53.91V13.1397H118.294V10.4614H138.828C147.607 10.4614 151.922 15.3717 151.922 21.1748C151.922 27.4242 146.268 30.8465 141.358 31.8881C151.029 32.7809 153.708 39.0304 153.708 43.6431C153.708 53.0172 145.673 56.5884 137.935 56.5884H117.997V53.91H123.502ZM143.59 21.7699C143.59 17.4548 141.358 13.1397 136.447 13.1397H131.091V30.8465H135.852C141.209 30.8465 143.59 26.5314 143.59 21.7699ZM145.375 43.7919C145.375 37.6912 142.697 33.5249 136.596 33.5249H131.388V54.0588H135.703C142.102 53.91 145.375 50.0413 145.375 43.7919ZM174.391 12.5446C169.48 12.5446 166.356 15.3717 166.356 20.4308C166.356 24.8947 171.266 27.1266 176.027 28.7634C178.854 29.805 182.426 31.1441 184.955 33.3761C187.633 35.9056 189.121 39.328 188.973 43.6431C188.824 51.6781 183.17 57.1836 173.2 57.1836C169.48 57.1836 163.677 56.2908 160.255 54.3564L159.808 42.3039H162.784C163.082 50.4877 166.802 54.654 173.498 54.654C178.854 54.654 181.83 51.0829 181.83 45.5774C181.83 40.8159 177.962 38.8816 172.01 36.7984C170.075 36.2032 166.207 34.7153 163.528 32.0369C161.148 29.6562 159.957 26.5314 159.957 23.4067C159.957 14.0325 166.653 9.86621 174.986 9.86621C178.259 9.86621 183.17 11.0566 186.145 12.6933L186.443 23.2579H183.467C183.021 15.8181 179.747 12.5446 174.391 12.5446Z" fill="white"/>
<path d="M50.7397 19.8359L49.5493 20.8774L50.8885 25.1925L47.0198 23.1094L45.6806 24.151L49.9957 26.5317L45.383 30.2516L44.1926 28.6149L45.8294 27.2757L44.639 25.7877L43.0022 27.1269L41.6631 25.3413L43.2998 24.0022L42.1095 22.3654L33.7768 29.3588L41.8119 35.7571L43.2998 33.9715C44.3414 33.9715 45.0854 34.8643 45.5318 35.7571L44.0438 37.5427L44.9366 38.2866C46.871 36.5011 49.5493 35.3107 52.2276 35.3107C57.8819 35.3107 62.197 39.9234 62.197 45.5777C62.197 47.3632 61.7506 49.4464 60.709 51.0832L62.197 52.2735C62.197 53.3151 61.1554 54.5055 60.1139 54.8031L58.6259 53.6127C56.6915 55.5471 54.0132 56.5886 51.3349 56.5886C45.6806 56.5886 41.3655 52.1247 41.3655 46.4705C41.3655 44.6849 41.9607 42.7505 42.7047 41.1138L41.6631 40.3698L40.1751 42.3042C39.1335 42.1554 38.2407 41.4114 37.9432 40.3698L39.4311 38.733L32.7353 33.0788V42.0066H34.9672C35.2648 42.453 35.4136 42.8993 35.4136 43.3457C35.4136 43.7921 35.2648 44.3873 34.9672 44.8337H32.7353V45.8753C37.6456 46.7681 41.8119 50.9344 41.8119 55.9934C41.8119 61.2013 37.7944 65.3676 32.7353 66.2604V68.046C32.2889 68.3436 31.6937 68.4924 31.0985 68.4924C30.5033 68.4924 29.7593 68.3436 29.3129 68.046V66.2604C24.2539 65.5164 20.3851 61.2013 20.3851 55.9934C20.3851 50.9344 24.2539 46.7681 29.3129 46.0241V44.8337H26.9322C26.6346 44.3873 26.4858 43.9409 26.4858 43.3457C26.4858 42.7505 26.6346 42.3042 26.9322 41.8578H29.3129V32.93L22.4683 38.5842L23.9563 40.221C23.6587 41.2626 22.7659 42.0066 21.7243 42.1554L20.2364 40.221L19.3436 41.1138C20.2363 42.7505 20.8315 44.5361 20.8315 46.4705C20.8315 52.1247 16.3676 56.5886 10.8622 56.5886C8.18382 56.5886 5.50548 55.5471 3.57112 53.6127L2.08315 54.8031C1.19037 54.5055 0.148797 53.3151 0 52.2735L1.48797 51.0832C0.595187 49.4464 0 47.512 0 45.5777C0 39.9234 4.3151 35.3107 9.96938 35.3107C12.6477 35.3107 15.3261 36.5011 17.2604 38.2866L18.1532 37.6915L16.6652 35.9059C16.9628 35.0131 17.8556 34.2691 18.8972 34.1203L20.3851 35.9059L28.4202 29.5076L20.0876 22.5142L18.8972 24.151L20.5339 25.4901L19.3436 27.1269L17.7068 25.7877L16.5164 27.2757L17.8556 28.3173L16.6652 29.954L12.2013 26.2341L16.3676 23.8534L15.1773 22.8118L11.3085 24.8949L12.4989 20.8774L11.3085 19.8359L9.82058 24.4486L5.20788 20.7286L6.39826 19.2407L8.03502 20.5798L9.37419 19.0919L7.73743 17.6039L8.9278 16.1159L10.5646 17.3063L11.7549 15.8183L8.18382 13.14C8.48141 11.9496 9.2254 11.0569 10.4158 10.3129L29.3129 25.7877V15.5208H27.3786V17.4551H25.4442V15.5208H23.5099V17.4551H21.5755V11.652L26.0394 13.5864V11.9496L21.8731 10.1641L26.0394 8.52731V7.03934L21.5755 8.8249V2.87304H23.5099V4.95619H25.4442V2.87304H27.3786V4.95619H29.3129V0.343492C29.9081 0.194695 30.5033 0.0458984 31.0985 0.0458984C31.6937 0.0458984 32.2889 0.194695 32.7353 0.343492V25.7877L51.6325 10.3129C52.674 11.0569 53.418 11.9496 53.8644 13.14L50.2933 15.9671L51.4837 17.4551L53.1204 16.2647L54.3108 17.7527L52.674 19.2407L53.8644 20.7286L55.5012 19.3895L56.6915 20.8774L52.0788 24.5974L50.7397 19.8359ZM12.2013 47.8096C12.2013 49.4464 13.3917 50.488 14.8797 50.6368L12.4989 52.4223C10.8622 51.8271 9.37419 49.8928 9.37419 48.1072C9.37419 47.512 9.52299 47.2144 9.67178 46.7681H9.22539C6.99344 46.7681 5.20788 44.6849 4.76149 42.6017L7.29104 40.6674V41.4114C7.29104 42.7505 8.63021 43.9409 9.96938 43.9409C11.4573 43.9409 12.7965 42.7505 12.7965 41.2626C12.7965 39.477 11.4573 38.2866 9.67178 38.2866C6.39826 38.2866 3.12473 41.5602 3.12473 45.7265C3.12473 46.9169 3.42232 48.1072 3.86871 49.1488L5.35668 47.9584C6.39826 48.4048 7.14224 49.4464 7.43983 50.6368L5.95187 51.8271C7.43983 53.0175 9.2254 53.6127 11.011 53.6127C14.8797 53.6127 17.8556 50.488 17.8556 47.8096C17.8556 46.1729 16.814 44.8337 15.1773 44.8337C13.3917 45.1313 12.2013 46.3217 12.2013 47.8096ZM32.4377 53.7615C32.4377 55.2495 33.6281 56.4398 35.116 56.4398C36.1576 56.4398 36.604 55.9935 37.348 55.3983V58.523C36.604 58.9694 35.86 59.1182 34.9672 59.1182C33.3305 59.1182 31.9913 58.6718 31.0985 57.1838C30.2057 58.6718 28.7178 59.1182 27.081 59.1182C26.337 59.1182 25.4442 58.9694 24.7003 58.523V55.3983C25.4442 56.1422 25.8906 56.4398 26.9322 56.4398C28.4202 56.4398 29.6105 55.2495 29.6105 53.7615C29.6105 52.2735 28.7178 51.0832 27.081 51.0832C24.2539 51.0832 23.0635 53.7615 23.0635 56.291C23.0635 59.8622 25.7418 62.9869 29.1642 63.5821V61.7965C29.7593 61.4989 30.3545 61.4989 30.8009 61.4989C31.3961 61.4989 31.9913 61.4989 32.5865 61.7965V63.5821C35.86 63.1357 38.6871 59.7134 38.6871 56.291C38.6871 53.7615 37.6456 51.0832 34.6696 51.0832C33.4793 50.9344 32.4377 52.2735 32.4377 53.7615ZM49.4005 41.4114C49.4005 42.7505 50.8885 44.0897 52.2276 44.0897C53.5668 44.0897 54.906 42.8993 54.906 41.5602V40.8162L57.2867 42.7505C56.8403 45.1313 54.7572 47.0656 52.3764 46.9169C52.5252 47.3632 52.5252 47.8096 52.5252 48.256C52.5252 50.0416 51.0373 51.9759 49.4005 52.5711L47.1686 50.6368C48.6565 50.488 49.8469 49.4464 49.8469 47.8096C49.8469 46.1729 48.5077 45.1313 47.0198 45.1313C45.383 45.1313 44.3414 46.4705 44.3414 48.1072C44.3414 50.0416 46.7222 53.9103 51.3349 53.9103C53.1204 53.9103 54.906 53.3151 56.2451 52.1247L54.7572 50.9344C55.0548 49.744 55.7988 48.7024 56.8403 48.256L58.3283 49.4464C58.9235 48.4048 59.2211 47.2144 59.2211 46.0241C59.2211 42.7505 56.6915 38.5842 52.674 38.5842C50.8885 38.5842 49.4005 39.6258 49.4005 41.4114Z" fill="white"/>
</g>
<defs>
<clipPath id="clip0_425_4426">
<rect width="189.121" height="68.5373" fill="white"/>
</clipPath>
</defs>
</svg>
