<svg width="169" height="32" viewBox="0 0 169 32" fill="none" xmlns="http://www.w3.org/2000/svg">
<g clip-path="url(#clip0_472_854)">
<path d="M22.8328 16.053C22.1856 15.8933 21.5783 15.6046 21.0486 15.2047C20.519 14.8049 20.078 14.3024 19.7531 13.7282C19.731 13.686 19.7202 13.6389 19.7217 13.5913C19.7233 13.5439 19.7371 13.4975 19.762 13.4568C19.7868 13.416 19.8217 13.3822 19.8636 13.3585C19.9054 13.3348 19.9527 13.322 20.0009 13.3213H21.3461C20.3542 12.5778 19.5512 11.6175 19.0004 10.5161C18.4496 9.41471 18.166 8.20233 18.1719 6.97453C18.2132 5.68267 18.5826 4.42167 19.2463 3.30681C19.9101 2.19195 20.8471 1.25884 21.9715 0.592834C22.3532 0.373614 22.7472 0.175691 23.1515 0C20.4539 0.165414 17.8958 1.23809 15.9047 3.03867C13.9137 4.83926 12.6105 7.2586 12.213 9.89219H11.3988C8.83782 9.89219 6.35139 10.7418 4.34044 12.3039C2.32948 13.8662 0.911147 16.05 0.314097 18.5033C-0.282955 20.9567 -0.0239372 23.5367 1.04939 25.8273C2.12272 28.1179 3.94782 29.9857 6.23045 31.1296C6.35192 29.2314 7.21481 27.4532 8.63817 26.168C10.0615 24.8829 11.9348 24.1906 13.865 24.2365L18.3725 24.3411C19.4832 24.3383 20.5534 23.9305 21.377 23.1964C22.2006 22.4624 22.7192 21.454 22.8328 20.3656C22.9744 18.8893 23.1279 17.3782 23.2223 16.611C23.2327 16.488 23.1996 16.3653 23.1287 16.2635C23.0577 16.1619 22.9531 16.0875 22.8328 16.053ZM35.6711 10.671C35.5136 8.76438 34.8808 6.92553 33.829 5.31756C32.7772 3.70957 31.3388 2.38214 29.6414 1.45303C28.5565 0.94389 27.358 0.715153 26.1586 0.788364C24.9592 0.861576 23.7985 1.23432 22.7857 1.8715C21.8797 2.40115 21.1224 3.14535 20.5825 4.03652C20.0426 4.92768 19.7372 5.93757 19.6938 6.97453C19.6875 8.03688 19.9512 9.08396 20.4611 10.0201C20.4553 9.95042 20.4553 9.88044 20.4611 9.81083C20.4611 8.47591 20.9994 7.1957 21.9576 6.25175C22.9158 5.30785 24.2154 4.77755 25.5705 4.77755H26.184L25.5705 6.28868C25.1009 6.27955 24.6341 6.36155 24.1968 6.5301C23.7595 6.69865 23.3601 6.9504 23.0215 7.27098C22.3378 7.91842 21.9431 8.80698 21.9243 9.74111C21.9055 10.6752 22.2642 11.5784 22.9214 12.2521C23.5786 12.9256 24.4806 13.3145 25.4288 13.333H29.96C30.0942 13.3383 30.224 13.3818 30.3338 13.4582C30.4435 13.5346 30.5284 13.6407 30.5783 13.7635C30.6282 13.8864 30.6409 14.0209 30.615 14.1508C30.589 14.2807 30.5255 14.4003 30.432 14.4954L28.7918 15.9252C28.4668 16.2114 28.2246 16.5773 28.0899 16.9856C27.9551 17.394 27.9327 17.8303 28.0248 18.25C28.367 19.7844 28.8744 22.2022 29.0632 23.3182C29.5806 25.9837 29.0263 28.7429 27.5174 31.0134C28.8896 31.6297 30.3747 31.9644 31.8824 31.9973C33.3901 32.0302 34.8888 31.7605 36.2874 31.2047C37.6859 30.6488 38.955 29.8184 40.0174 28.764C41.0798 27.7096 41.9133 26.4533 42.4671 25.0715C43.021 23.6898 43.2836 22.2114 43.2391 20.7264C43.1945 19.2414 42.8437 17.7809 42.2079 16.4338C41.5721 15.0866 40.6648 13.881 39.541 12.8903C38.4172 11.8996 37.1005 11.1445 35.6711 10.671Z" fill="#3B3B3B"/>
<path d="M51.9819 28.6427C51.8809 28.6446 51.7804 28.6261 51.687 28.588C51.5936 28.55 51.5092 28.4934 51.4391 28.4216C51.3644 28.351 51.3049 28.2661 51.2644 28.1722C51.2238 28.0783 51.2031 27.9773 51.2031 27.8753V9.56714C51.2031 9.46511 51.2238 9.36407 51.2644 9.27017C51.3049 9.17627 51.3644 9.09144 51.4391 9.02078C51.5092 8.94907 51.5936 8.89236 51.687 8.85438C51.7804 8.81634 51.8809 8.79783 51.9819 8.79992H60.4778C61.5365 8.75192 62.5935 8.92216 63.5813 9.29976C64.3354 9.62049 65.0111 10.096 65.5634 10.6947C66.0432 11.2227 66.4122 11.839 66.6492 12.508C66.8547 13.0958 66.966 13.7116 66.9793 14.333C66.9862 14.85 66.9064 15.3644 66.7434 15.8558C66.6119 16.2658 66.4255 16.6567 66.1891 17.0183C65.9947 17.3014 65.7689 17.5626 65.5165 17.7971C65.3578 17.9614 65.1794 18.1058 64.9856 18.2272C65.6374 18.6793 66.1944 19.2517 66.6257 19.9127C67.1577 20.7373 67.4213 21.7027 67.3808 22.6793C67.3744 23.4098 67.2387 24.1336 66.9793 24.8181C66.7115 25.5246 66.3115 26.1752 65.7998 26.7361C65.255 27.3221 64.5915 27.7893 63.8524 28.1077C63.0041 28.4703 62.0866 28.6487 61.1621 28.6308L51.9819 28.6427ZM63.0621 14.5191C63.0824 14.2142 63.0312 13.9088 62.913 13.6266C62.7943 13.3443 62.6111 13.0929 62.3778 12.8917C61.7457 12.4838 60.9954 12.2919 60.2419 12.3453H55.1207V16.7044H60.2419C61.0146 16.7638 61.7857 16.5719 62.4364 16.158C62.6643 15.9517 62.8417 15.6967 62.954 15.4126C63.0664 15.1286 63.1116 14.8229 63.0856 14.5191H63.0621ZM55.0973 25.0971H60.4187C61.2622 25.1793 62.1063 24.9424 62.7788 24.4345C63.0126 24.2064 63.1985 23.9349 63.3252 23.6356C63.4525 23.3363 63.5174 23.0152 63.5174 22.6909C63.5174 22.3666 63.4525 22.0455 63.3252 21.7462C63.1985 21.4468 63.0126 21.1753 62.7788 20.9472C62.1292 20.4459 61.3128 20.2014 60.4895 20.2614H55.1207L55.0973 25.0971Z" fill="#3B3B3B"/>
<path d="M71.7596 28.6427C71.659 28.6443 71.5589 28.6263 71.4651 28.5897C71.3714 28.5532 71.2862 28.4988 71.2138 28.4297C71.1414 28.3606 71.0839 28.2782 71.0434 28.1871C71.0035 28.096 70.9822 27.998 70.9806 27.8988V9.56744C70.979 9.46624 70.9981 9.36578 71.037 9.27199C71.0753 9.17819 71.1329 9.093 71.2053 9.02144C71.2777 8.94989 71.3645 8.89344 71.4598 8.85546C71.5546 8.81743 71.6569 8.79865 71.7596 8.79992H74.1197C74.2204 8.79812 74.321 8.81664 74.4142 8.85467C74.508 8.89266 74.5921 8.94936 74.6624 9.02108C74.7369 9.09174 74.7966 9.17656 74.837 9.27046C74.8775 9.36437 74.8983 9.4654 74.8983 9.56744V27.8988C74.8983 28.0008 74.8775 28.1019 74.837 28.1958C74.7966 28.2897 74.7369 28.3745 74.6624 28.4452C74.5921 28.5169 74.508 28.5736 74.4142 28.6116C74.321 28.6496 74.2204 28.6681 74.1197 28.6663L71.7596 28.6427Z" fill="#3B3B3B"/>
<path d="M93.2797 8.79988C93.3825 8.79848 93.4842 8.81726 93.5795 8.85524C93.6749 8.89327 93.7611 8.94972 93.8341 9.02127C93.9065 9.09282 93.964 9.17802 94.0024 9.27181C94.0407 9.36561 94.0599 9.46607 94.0583 9.56726V11.6247C94.0604 11.7243 94.0418 11.8232 94.0029 11.9152C93.9646 12.0072 93.907 12.0904 93.8341 12.1594C93.7627 12.2331 93.6765 12.2916 93.5811 12.3316C93.4858 12.3716 93.383 12.3921 93.2797 12.3919H88.0643V27.8986C88.0659 27.9998 88.0467 28.1003 88.0078 28.194C87.9695 28.2878 87.912 28.373 87.8395 28.4446C87.7671 28.5161 87.6803 28.5726 87.585 28.6106C87.4902 28.6486 87.388 28.6674 87.2852 28.666H85.0199C84.9171 28.6674 84.8148 28.6486 84.7195 28.6106C84.6247 28.5726 84.5379 28.5161 84.4655 28.4446C84.3926 28.373 84.3356 28.2878 84.2967 28.194C84.2584 28.1003 84.2392 27.9998 84.2408 27.8986V12.3454H79.0019C78.898 12.3456 78.7958 12.325 78.7005 12.2851C78.6052 12.2451 78.5189 12.1866 78.447 12.1129C78.3746 12.0439 78.3171 11.9608 78.2782 11.8687C78.2399 11.7767 78.2207 11.6778 78.2228 11.5782V9.56726C78.2212 9.46607 78.2404 9.36561 78.2793 9.27181C78.3176 9.17802 78.3751 9.09282 78.4475 9.02127C78.52 8.94972 78.6068 8.89327 78.7021 8.85524C78.7969 8.81726 78.8991 8.79848 79.0019 8.79988H93.2797Z" fill="#3B3B3B"/>
<path d="M113.202 13.391C112.858 12.4632 112.31 11.6217 111.597 10.9267C110.855 10.2026 109.961 9.64707 108.978 9.29932C107.783 8.91417 106.53 8.72951 105.272 8.75296H98.1926C98.092 8.75098 97.9913 8.76938 97.8981 8.80741C97.8044 8.84539 97.7203 8.9021 97.65 8.97381C97.5754 9.04447 97.5158 9.1293 97.4753 9.2232C97.4348 9.3171 97.4141 9.41814 97.4141 9.52017V27.898C97.4141 28.0001 97.4348 28.1011 97.4753 28.195C97.5158 28.2889 97.5754 28.3737 97.65 28.4444C97.7203 28.5162 97.8044 28.5728 97.8981 28.6108C97.9913 28.6488 98.092 28.6673 98.1926 28.6652H105.45C106.676 28.6874 107.897 28.5026 109.06 28.1189C110.027 27.7873 110.905 27.2472 111.633 26.538C112.342 25.8423 112.886 25.0008 113.226 24.0737C113.616 23.0363 113.848 21.947 113.91 20.8421C113.981 19.4473 113.981 18.0407 113.91 16.6458C113.843 15.5318 113.605 14.4342 113.202 13.391ZM109.993 20.8189C109.963 21.399 109.844 21.9713 109.639 22.5161C109.452 23.0265 109.153 23.4907 108.765 23.876C108.356 24.2727 107.865 24.578 107.326 24.7712C106.668 25.0033 105.972 25.1136 105.272 25.0966H101.273V12.31H105.084C105.81 12.2926 106.533 12.4028 107.22 12.6354C107.775 12.8225 108.28 13.1327 108.694 13.5422C109.093 13.924 109.399 14.3887 109.592 14.9022C109.796 15.4429 109.915 16.0113 109.945 16.5877C110.045 17.996 110.061 19.4088 109.993 20.8189Z" fill="#3B3B3B"/>
<path d="M131.041 25.0969H122.592C122.307 25.0969 122.034 24.9855 121.833 24.7871C121.632 24.5888 121.518 24.3197 121.518 24.0391V20.3892H130.18C130.28 20.3913 130.381 20.3727 130.474 20.3348C130.568 20.2967 130.652 20.2401 130.722 20.1683C130.797 20.0976 130.856 20.0128 130.897 19.9189C130.937 19.825 130.958 19.724 130.958 19.6219V17.611C130.952 17.4093 130.868 17.2176 130.723 17.075C130.579 16.9323 130.384 16.8496 130.18 16.8438H121.601V13.5192C121.601 13.2109 121.725 12.9153 121.946 12.6973C122.168 12.4793 122.468 12.3568 122.781 12.3568H130.887C130.989 12.3554 131.089 12.3341 131.182 12.2943C131.276 12.2543 131.36 12.1966 131.43 12.1243C131.503 12.0553 131.56 11.9722 131.599 11.8801C131.638 11.7881 131.657 11.6892 131.655 11.5896V9.56702C131.656 9.46682 131.637 9.36731 131.599 9.2743C131.562 9.18129 131.506 9.09662 131.434 9.02522C131.363 8.95383 131.278 8.89712 131.184 8.8584C131.09 8.81974 130.989 8.7998 130.887 8.7998H121.377C120.403 8.7998 119.468 9.18029 118.778 9.85796C118.088 10.5356 117.699 11.4551 117.695 12.415V25.0737C117.699 26.0213 118.082 26.9289 118.764 27.5978C119.445 28.2667 120.367 28.6426 121.33 28.6426H131.041C131.142 28.6445 131.243 28.626 131.336 28.5879C131.429 28.5499 131.514 28.4932 131.584 28.4215C131.658 28.3509 131.718 28.266 131.759 28.1721C131.799 28.0782 131.82 27.9772 131.82 27.8752V25.8641C131.814 25.6625 131.73 25.4708 131.585 25.3281C131.44 25.1855 131.246 25.1028 131.041 25.0969Z" fill="#3B3B3B"/>
<path d="M148.741 25.0972H140.293C140.007 25.0972 139.732 24.9861 139.529 24.7881C139.326 24.5901 139.21 24.321 139.207 24.0394V20.3894H147.88C147.981 20.3915 148.082 20.373 148.175 20.3349C148.269 20.297 148.353 20.2403 148.423 20.1685C148.498 20.0979 148.557 20.0131 148.598 19.9192C148.638 19.8253 148.659 19.7242 148.659 19.6222V17.6112C148.653 17.4096 148.569 17.2178 148.424 17.0752C148.279 16.9326 148.085 16.8498 147.88 16.844H139.183V13.5195C139.183 13.2112 139.308 12.9155 139.529 12.6975C139.75 12.4795 140.051 12.357 140.363 12.357H148.458C148.562 12.3572 148.664 12.3367 148.76 12.2967C148.855 12.2568 148.941 12.1982 149.013 12.1246C149.085 12.0556 149.143 11.9724 149.182 11.8803C149.22 11.7883 149.239 11.6894 149.237 11.5899V9.56726C149.239 9.46607 149.22 9.36561 149.181 9.27181C149.142 9.17802 149.085 9.09282 149.013 9.02127C148.94 8.94972 148.853 8.89327 148.758 8.85524C148.663 8.81726 148.561 8.79848 148.458 8.79988H139.018C138.016 8.79988 137.054 9.19155 136.344 9.88884C135.634 10.5861 135.234 11.5322 135.23 12.5198V24.9577C135.23 25.935 135.625 26.8722 136.326 27.5633C137.028 28.2544 137.979 28.6429 138.971 28.6429H148.741C148.843 28.6447 148.943 28.6261 149.037 28.5882C149.13 28.5501 149.214 28.4935 149.284 28.4217C149.359 28.351 149.418 28.2662 149.459 28.1723C149.5 28.0784 149.521 27.9774 149.52 27.8754V25.8644C149.514 25.6627 149.431 25.471 149.286 25.3284C149.141 25.1857 148.946 25.1031 148.741 25.0972Z" fill="#3B3B3B"/>
<path d="M168.881 27.7113L164.917 20.7368C166.07 20.3318 167.063 19.5743 167.749 18.5747C168.405 17.5282 168.741 16.3174 168.716 15.0874C168.771 14.2275 168.631 13.3663 168.307 12.5661C167.982 11.766 167.481 11.0469 166.84 10.461C165.286 9.27013 163.34 8.68648 161.377 8.82198H153.943C153.841 8.81988 153.741 8.8384 153.648 8.87643C153.554 8.91441 153.47 8.97112 153.4 9.04283C153.325 9.11349 153.266 9.19832 153.225 9.29222C153.185 9.38612 153.164 9.48716 153.164 9.58919V27.8973C153.164 27.9994 153.185 28.1004 153.225 28.1943C153.266 28.2882 153.325 28.373 153.4 28.4436C153.47 28.5154 153.554 28.5721 153.648 28.6101C153.741 28.6481 153.841 28.6666 153.943 28.6648H156.303C156.404 28.6666 156.504 28.6481 156.598 28.6101C156.691 28.5721 156.776 28.5154 156.845 28.4436C156.92 28.373 156.98 28.2882 157.02 28.1943C157.061 28.1004 157.082 27.9994 157.081 27.8973V21.2715H160.905L164.681 27.8741C164.777 28.0633 164.909 28.2329 165.07 28.3739C165.307 28.5691 165.612 28.6651 165.919 28.6413H168.362C168.446 28.6427 168.529 28.6269 168.606 28.5949C168.683 28.5629 168.753 28.5153 168.811 28.4553C168.87 28.3996 168.916 28.3328 168.949 28.259C168.981 28.1851 168.998 28.1056 169 28.0252C168.988 27.9122 168.948 27.8041 168.881 27.7113ZM163.843 17.1566C163.037 17.5745 162.133 17.7712 161.223 17.7262H157.058V12.3441H161.223C162.128 12.3007 163.03 12.4848 163.843 12.8788C164.191 13.1078 164.468 13.4285 164.641 13.8045C164.814 14.1805 164.877 14.5968 164.822 15.0061C164.876 15.4186 164.813 15.8378 164.64 16.2174C164.467 16.5969 164.191 16.922 163.843 17.1566Z" fill="#3B3B3B"/>
</g>
<defs>
<clipPath id="clip0_472_854">
<rect width="169" height="32" fill="white"/>
</clipPath>
</defs>
</svg>
