<svg width="169" height="43" viewBox="0 0 169 43" fill="none" xmlns="http://www.w3.org/2000/svg">
<g clip-path="url(#clip0_472_877)">
<path d="M22.2985 24.768L20.23 30.445C20.1421 30.6138 20.1421 30.7893 20.23 30.9581L23.8466 40.7596L27.9769 38.3498L22.9813 24.768C22.9002 24.4237 22.4675 24.4237 22.2985 24.768Z" fill="#3B3B3B"/>
<path d="M26.4295 15.141C26.3416 14.7967 25.9157 14.7967 25.7399 15.141L23.6714 20.8181C23.5835 20.9869 23.5835 21.1624 23.6714 21.3311L29.5255 37.4106L33.6559 35.0007L26.4295 15.141Z" fill="#3B3B3B"/>
<path d="M19.0285 2.67226C19.1164 2.67226 19.1975 2.67226 19.2854 2.76002L35.124 11.873C35.293 11.9608 35.3809 12.1296 35.3809 12.3861V30.6121C35.3809 30.7809 35.293 31.0442 35.124 31.1252L19.2854 40.2382C19.1975 40.326 19.1164 40.326 19.0285 40.326C18.9406 40.326 18.8595 40.326 18.7716 40.2382L2.93293 31.1252C2.76393 31.0374 2.67605 30.8687 2.67605 30.6121V12.3861C2.67605 12.2173 2.76393 11.9541 2.93293 11.873L18.7716 2.76002C18.8527 2.67226 18.9406 2.67226 19.0285 2.67226ZM19.0285 0.00585938C18.4268 0.00585938 17.9063 0.174619 17.3926 0.437885L1.55389 9.55091C0.519609 10.1517 -0.0820312 11.1845 -0.0820312 12.3861V30.6121C-0.0820312 31.7327 0.519609 32.8465 1.55389 33.4473L17.3926 42.5603C17.9063 42.8169 18.4268 42.9924 19.0285 42.9924C19.6301 42.9924 20.1507 42.8236 20.6644 42.5603L36.5031 33.4473C37.5374 32.8465 38.139 31.8137 38.139 30.6121V12.3861C38.139 11.2655 37.5374 10.1517 36.5031 9.55091L20.7455 0.437885C20.2318 0.18137 19.7113 0.00585938 19.1096 0.00585938H19.0285Z" fill="#3B3B3B"/>
<path d="M8.61328 37.403L10.0734 33.4473L13.0005 35.8572L10.2492 38.4358L8.61328 37.403Z" fill="#3B3B3B"/>
<path d="M17.7388 11.0967H13.6895C13.4327 11.0967 13.0879 11.2654 13 11.5287L4.39453 35.0808L8.52489 37.4907L17.9957 11.6097C18.0835 11.3532 17.9078 11.0967 17.6509 11.0967H17.7388Z" fill="#3B3B3B"/>
<path d="M24.7077 11.0966H20.6584C20.4016 11.0966 20.0568 11.2654 19.9689 11.5287L10.1602 38.348L14.2905 40.7579L24.9646 11.5287C25.0524 11.2721 24.8767 11.0156 24.6198 11.0156L24.7077 11.0966Z" fill="#3B3B3B"/>
<path d="M55.1893 15.9971C55.6219 15.9971 55.9667 16.0848 56.2235 16.2536C56.4804 16.4223 56.7373 16.7666 57.0009 17.1986L62.2535 26.6559C62.3413 26.7437 62.3413 26.8247 62.2535 26.9125C62.2535 27.0002 62.1656 27.0002 61.9966 27.0002H60.0159C59.8469 27.0002 59.759 26.9125 59.6711 26.8314L58.5422 24.7658H51.14L50.0179 26.8314C49.93 27.0002 49.8489 27.0002 49.6731 27.0002H47.6045C47.4355 27.0002 47.3477 27.0002 47.3477 26.9125C47.3477 26.8247 47.3477 26.7437 47.3477 26.6559L52.5123 17.1986C52.7692 16.6856 53.0261 16.4223 53.2897 16.2536C53.5533 16.0848 53.8035 15.9971 54.1482 15.9971H55.0946H55.1893ZM52.0864 22.9635H57.5079L55.0135 18.3192C54.9256 18.2314 54.9256 18.2315 54.8445 18.2315H54.7566C54.6687 18.2315 54.5876 18.2314 54.5876 18.3192L52.0864 22.9635Z" fill="#3B3B3B"/>
<path d="M73.6984 15.9971C74.9017 15.9971 75.767 16.2536 76.2808 16.8544C76.7945 17.3674 77.0582 18.2314 77.0582 19.2643V20.1216C77.0582 21.0666 76.8892 21.7552 76.5444 22.2682C76.1996 22.7812 75.598 23.1255 74.7395 23.301L77.4097 26.6559C77.4976 26.7437 77.4976 26.8247 77.4976 26.9125C77.4976 27.0002 77.4097 27.0812 77.2407 27.0812H75.1721C75.0031 27.0812 74.9152 27.0812 74.9152 26.9935C74.8274 26.9935 74.8274 26.9057 74.7462 26.8247L72.2518 23.5575H67.175V26.7369C67.175 26.9935 67.0872 27.0812 66.8303 27.0812H65.1065C64.8496 27.0812 64.7617 26.9935 64.7617 26.7369V16.5101C64.7617 16.1658 64.9307 15.9971 65.2755 15.9971H73.7998H73.6984ZM67.1548 21.6674H73.1779C73.6917 21.6674 74.1243 21.5796 74.3001 21.3231C74.557 21.0666 74.6448 20.7223 74.6448 20.2903V19.6018C74.6448 19.0887 74.557 18.7445 74.3001 18.569C74.0432 18.3125 73.6984 18.2247 73.1779 18.2247H67.3238C67.1548 18.2247 67.1548 18.3125 67.1548 18.3935V21.6674Z" fill="#3B3B3B"/>
<path d="M90.3146 15.9971C91.4368 15.9971 92.2074 16.2536 92.6401 16.6856C93.0727 17.1176 93.3296 17.8062 93.3296 18.6635V19.4398C93.3296 20.2971 92.9849 20.9856 92.2953 21.4176C92.9849 21.8497 93.4175 22.5382 93.4175 23.4833V24.4283C93.4175 24.8603 93.3296 25.2046 93.2485 25.5489C93.1674 25.8931 92.9916 26.1497 92.8158 26.4062C92.559 26.6627 92.3021 26.8382 91.9573 26.9192C91.6126 27.007 91.1799 27.088 90.6662 27.088H81.2833C80.9385 27.088 80.7695 26.9192 80.7695 26.5749V16.5169C80.7695 16.1726 80.9385 16.0038 81.2833 16.0038H90.4093H90.3146V15.9971ZM83.1693 20.5536H89.6251C90.1389 20.5536 90.4836 20.4658 90.6594 20.2971C90.8352 20.1283 90.9163 19.9528 90.9163 19.6085V19.0955C90.9163 18.7512 90.8284 18.4947 90.6594 18.407C90.4904 18.2382 90.1456 18.1504 89.8009 18.1504H83.3451C83.1761 18.1504 83.1761 18.2382 83.1761 18.3192V20.5536H83.1693ZM83.1693 22.2749V24.5971C83.1693 24.7658 83.2572 24.7658 83.3383 24.7658H89.7941C90.2268 24.7658 90.4836 24.6781 90.6526 24.5093C90.8216 24.3406 90.9095 24.0773 90.9095 23.8208V23.22C90.9095 22.8757 90.8216 22.6192 90.6526 22.4437C90.4836 22.2682 90.1389 22.1872 89.5305 22.1872H83.0814L83.1693 22.2749Z" fill="#3B3B3B"/>
<path d="M99.2639 15.9971C99.5208 15.9971 99.6086 16.0848 99.6086 16.3413V26.6559C99.6086 26.9125 99.5208 27.0002 99.2639 27.0002H97.5401C97.2832 27.0002 97.1953 26.9125 97.1953 26.6559V16.3413C97.1953 16.0848 97.2832 15.9971 97.5401 15.9971H99.2639Z" fill="#3B3B3B"/>
<path d="M115.882 15.9971C116.139 15.9971 116.227 16.0848 116.227 16.3413V17.8872C116.227 18.1437 116.139 18.2315 115.882 18.2315H110.887V26.6559C110.887 26.9125 110.799 27.0002 110.542 27.0002H108.818C108.561 27.0002 108.473 26.9125 108.473 26.6559V18.2315H103.478C103.221 18.2315 103.133 18.1437 103.133 17.8872V16.3413C103.133 16.0848 103.221 15.9971 103.478 15.9971H115.788H115.882Z" fill="#3B3B3B"/>
<path d="M128.366 15.9971C129.57 15.9971 130.435 16.2536 130.949 16.8544C131.462 17.3674 131.726 18.2314 131.726 19.2643V20.1216C131.726 21.0666 131.557 21.7552 131.212 22.2682C130.868 22.7812 130.266 23.1255 129.407 23.301L132.078 26.6559C132.166 26.7437 132.166 26.8247 132.166 26.9125C132.166 27.0002 132.078 27.0812 131.909 27.0812H129.84C129.671 27.0812 129.583 27.0812 129.583 26.9935C129.495 26.9935 129.495 26.9057 129.414 26.8247L126.92 23.5575H121.843V26.7369C121.843 26.9935 121.755 27.0812 121.498 27.0812H119.774C119.518 27.0812 119.43 26.9935 119.43 26.7369V16.5101C119.43 16.1658 119.599 15.9971 119.943 15.9971H128.468H128.366ZM121.823 21.6674H127.846C128.36 21.6674 128.792 21.5796 128.968 21.3231C129.225 21.0666 129.313 20.7223 129.313 20.2903V19.6018C129.313 19.0887 129.225 18.7445 128.968 18.569C128.711 18.3125 128.366 18.2247 127.846 18.2247H121.992C121.823 18.2247 121.823 18.3125 121.823 18.3935V21.6674Z" fill="#3B3B3B"/>
<path d="M137.238 15.9971C137.494 15.9971 137.582 16.0848 137.582 16.3413V22.6192C137.582 23.0512 137.582 23.3955 137.67 23.652C137.758 23.9085 137.839 24.165 138.015 24.3406C138.191 24.5161 138.36 24.5971 138.617 24.6848C138.873 24.7726 139.218 24.7726 139.651 24.7726H144.045C144.478 24.7726 144.822 24.7726 145.079 24.6848C145.336 24.5971 145.593 24.5161 145.681 24.3406C145.85 24.1718 145.938 23.9085 146.026 23.652C146.113 23.3955 146.113 23.0512 146.113 22.6192V16.3413C146.113 16.0848 146.201 15.9971 146.458 15.9971H148.182C148.439 15.9971 148.527 16.0848 148.527 16.3413V22.8757C148.527 23.652 148.439 24.2528 148.27 24.7658C148.101 25.2789 147.837 25.7109 147.492 26.0552C147.148 26.3994 146.715 26.6559 146.113 26.7437C145.512 26.9125 144.91 27.0002 144.045 27.0002H139.482C138.704 27.0002 138.015 26.9125 137.413 26.7437C136.9 26.5749 136.379 26.3117 136.034 26.0552C135.69 25.7109 135.433 25.2789 135.257 24.7658C135.088 24.2528 135 23.5643 135 22.8757V16.3413C135 16.0848 135.088 15.9971 135.345 15.9971H137.069H137.238Z" fill="#3B3B3B"/>
<path d="M155.312 15.9971C155.569 15.9971 155.744 15.9971 155.913 16.0848C156.082 16.0848 156.258 16.1726 156.346 16.2536C156.434 16.3413 156.603 16.4223 156.691 16.5979C156.779 16.7666 156.86 16.9421 157.036 17.1986L160.307 24.7658C160.395 24.8536 160.395 24.9346 160.564 24.9346H160.733C160.821 24.9346 160.902 24.8468 160.99 24.7658L164.262 17.1986C164.35 16.9421 164.431 16.7666 164.607 16.5979C164.695 16.4291 164.776 16.3413 164.952 16.2536C165.039 16.1658 165.208 16.0848 165.384 16.0848C165.56 16.0848 165.729 15.9971 165.986 15.9971H167.71C168.223 15.9971 168.656 16.0848 168.832 16.3413C169.001 16.5979 169.089 17.0299 169.089 17.6307V26.6559C169.089 26.9125 169.001 27.0002 168.744 27.0002H167.108C166.851 27.0002 166.763 26.9125 166.763 26.6559V18.407C166.763 18.3192 166.675 18.2382 166.675 18.2382H166.506C166.419 18.2382 166.337 18.326 166.337 18.326L163.153 25.3734C163.066 25.6299 162.897 25.8864 162.721 26.0619C162.545 26.2374 162.464 26.4062 162.288 26.5749C162.119 26.6627 161.943 26.8314 161.774 26.8314C161.605 26.9192 161.342 26.9192 161.085 26.9192H160.307C160.051 26.9192 159.794 26.9192 159.618 26.8314C159.442 26.7437 159.273 26.6627 159.104 26.5749C158.935 26.4872 158.847 26.3184 158.672 26.0619C158.503 25.8931 158.415 25.6299 158.239 25.3734L155.055 18.326C155.055 18.2382 154.967 18.2382 154.886 18.2382H154.717C154.629 18.2382 154.629 18.326 154.629 18.407V26.6627C154.629 26.9192 154.541 27.007 154.284 27.007H152.642C152.385 27.007 152.297 26.9192 152.297 26.6627V17.6307C152.297 17.0299 152.385 16.5979 152.554 16.3413C152.723 16.0848 153.155 15.9971 153.676 15.9971H155.4H155.312Z" fill="#3B3B3B"/>
</g>
<defs>
<clipPath id="clip0_472_877">
<rect width="169" height="43" fill="white"/>
</clipPath>
</defs>
</svg>
