<svg width="169" height="61" viewBox="0 0 169 61" fill="none" xmlns="http://www.w3.org/2000/svg">
<g clip-path="url(#clip0_472_726)">
<path d="M98.7916 36.7246C98.7916 49.3057 91.8773 50.8949 84.9631 50.8949C73.1291 50.8949 70.6027 44.803 70.6027 36.1949V11.6948H66.2148V9.31098H82.8356V11.6948H78.1818V35.4003C78.1818 43.7436 80.3093 47.9814 86.4257 47.9814C92.5421 47.9814 95.6004 44.9354 95.6004 36.1949V11.6948H91.2125V9.31098H103.046V11.6948H99.0575L98.7916 36.7246ZM110.36 47.9814V11.6948H105.706V9.31098H124.055C131.9 9.31098 135.756 13.6813 135.756 18.8462C135.756 24.4083 130.703 27.4543 126.316 28.3813C134.958 29.1759 137.352 34.7381 137.352 38.8435C137.352 47.1868 130.172 50.3652 123.257 50.3652H105.44V47.9814H110.36ZM128.31 19.3759C128.31 15.5353 126.316 11.6948 121.928 11.6948H117.141V27.4543H121.396C126.183 27.4543 128.31 23.6137 128.31 19.3759ZM129.906 38.976C129.906 33.5462 127.512 29.8381 122.061 29.8381H117.407V48.1138H121.263C126.98 47.9814 129.906 44.5381 129.906 38.976ZM155.834 11.165C151.446 11.165 148.654 13.6813 148.654 18.184C148.654 22.157 153.042 24.1435 157.297 25.6002C159.823 26.5273 163.014 27.7192 165.275 29.7057C167.668 31.957 168.998 35.003 168.865 38.8435C168.732 45.9949 163.679 50.8949 154.77 50.8949C151.446 50.8949 146.26 50.1003 143.202 48.3787L142.803 37.6516H145.463C145.729 44.9354 149.053 48.6436 155.036 48.6436C159.823 48.6436 162.482 45.4652 162.482 40.5652C162.482 36.3273 159.025 34.6057 153.707 32.7516C151.978 32.2219 148.521 30.8976 146.128 28.5138C144 26.3948 142.936 23.6137 142.936 20.8327C142.936 12.4894 148.92 8.78125 156.366 8.78125C159.291 8.78125 163.679 9.84071 166.338 11.2975L166.604 20.7002H163.945C163.546 14.0786 160.621 11.165 155.834 11.165Z" fill="#3B3B3B"/>
<path d="M45.3415 17.6546L44.2777 18.5816L45.4744 22.4222L42.0173 20.5681L40.8206 21.4952L44.6766 23.6141L40.5547 26.9249L39.491 25.4681L40.9536 24.2762L39.8899 22.9519L38.4272 24.1438L37.2305 22.5546L38.6932 21.3627L37.6294 19.906L30.1833 26.1303L37.3635 31.8249L38.6932 30.2357C39.6239 30.2357 40.2887 31.0303 40.6876 31.8249L39.358 33.4141L40.1558 34.0763C41.8843 32.4871 44.2777 31.4276 46.6711 31.4276C51.7238 31.4276 55.5799 35.533 55.5799 40.5655C55.5799 42.1547 55.181 44.0088 54.2502 45.4655L55.5799 46.525C55.5799 47.452 54.6491 48.5115 53.7183 48.7763L52.3887 47.7169C50.6601 49.4385 48.2667 50.3655 45.8733 50.3655C40.8206 50.3655 36.9646 46.3925 36.9646 41.3601C36.9646 39.7709 37.4965 38.0493 38.1613 36.5925L37.2305 35.9303L35.9009 37.652C34.9701 37.5195 34.1723 36.8574 33.9064 35.9303L35.236 34.4736L29.2526 29.4411V37.3871H31.2471C31.513 37.7844 31.6459 38.1817 31.6459 38.579C31.6459 38.9763 31.513 39.506 31.2471 39.9033H29.2526V40.8304C33.6404 41.625 37.3635 45.3331 37.3635 49.8358C37.3635 54.471 33.7734 58.1791 29.2526 58.9737V60.5629C28.8537 60.8277 28.3218 60.9602 27.7899 60.9602C27.2581 60.9602 26.5932 60.8277 26.1943 60.5629V58.9737C21.6735 58.3115 18.2164 54.471 18.2164 49.8358C18.2164 45.3331 21.6735 41.625 26.1943 40.9628V39.9033H24.0669C23.8009 39.506 23.668 39.1087 23.668 38.579C23.668 38.0493 23.8009 37.652 24.0669 37.2547H26.1943V29.3087L20.0779 34.3411L21.4076 35.7979C21.1416 36.7249 20.3438 37.3871 19.4131 37.5195L18.0834 35.7979L17.2856 36.5925C18.0834 38.0493 18.6153 39.6385 18.6153 41.3601C18.6153 46.3925 14.6263 50.3655 9.70653 50.3655C7.31314 50.3655 4.91975 49.4385 3.19119 47.7169L1.86153 48.7763C1.06373 48.5115 0.132966 47.452 0 46.525L1.32966 45.4655C0.531865 44.0088 0 42.2871 0 40.5655C0 35.533 3.85602 31.4276 8.90873 31.4276C11.3021 31.4276 13.6955 32.4871 15.4241 34.0763L16.2219 33.5466L14.8922 31.9574C15.1581 31.1628 15.9559 30.5006 16.8867 30.3682L18.2164 31.9574L25.3965 26.2627L17.9504 20.0384L16.8867 21.4952L18.3493 22.687L17.2856 24.1438L15.823 22.9519L14.7592 24.2762L15.9559 25.2033L14.8922 26.66L10.9032 23.3492L14.6263 21.2303L13.5625 20.3033L10.1054 22.1573L11.1692 18.5816L10.1054 17.6546L8.77577 21.76L4.65382 18.4492L5.71755 17.1249L7.18017 18.3168L8.37687 16.9924L6.91424 15.6681L7.97797 14.3438L9.4406 15.4032L10.5043 14.0789L7.31314 11.6951C7.57907 10.6357 8.2439 9.84105 9.30763 9.17889L26.1943 22.9519V13.814H24.4658V15.5357H22.7372V13.814H21.0087V15.5357H19.2801V10.3708L23.2691 12.0924V10.6357L19.546 9.04646L23.2691 7.58969V6.26536L19.2801 7.85456V2.55724H21.0087V4.4113H22.7372V2.55724H24.4658V4.4113H26.1943V0.305882C26.7262 0.173449 27.2581 0.0410156 27.7899 0.0410156C28.3218 0.0410156 28.8537 0.173449 29.2526 0.305882V22.9519L46.1393 9.17889C47.07 9.84105 47.7349 10.6357 48.1338 11.6951L44.9426 14.2113L46.0063 15.5357L47.4689 14.4762L48.5327 15.8005L47.07 17.1249L48.1338 18.4492L49.5964 17.2573L50.6601 18.5816L46.5382 21.8925L45.3415 17.6546ZM10.9032 42.552C10.9032 44.0088 11.967 44.9358 13.2966 45.0682L11.1692 46.6574C9.70653 46.1277 8.37687 44.4061 8.37687 42.8169C8.37687 42.2871 8.50984 42.0223 8.6428 41.625H8.2439C6.24941 41.625 4.65382 39.7709 4.25492 37.9168L6.51534 36.1952V36.8574C6.51534 38.0493 7.71204 39.1087 8.90873 39.1087C10.2384 39.1087 11.4351 38.0493 11.4351 36.7249C11.4351 35.1357 10.2384 34.0763 8.6428 34.0763C5.71755 34.0763 2.79229 36.9898 2.79229 40.6979C2.79229 41.7574 3.05822 42.8169 3.45712 43.7439L4.78678 42.6844C5.71755 43.0817 6.38238 44.0088 6.64831 45.0682L5.31865 46.1277C6.64831 47.1871 8.2439 47.7169 9.8395 47.7169C13.2966 47.7169 15.9559 44.9358 15.9559 42.552C15.9559 41.0952 15.0252 39.9033 13.5625 39.9033C11.967 40.1682 10.9032 41.2277 10.9032 42.552ZM28.9866 47.8493C28.9866 49.1736 30.0504 50.2331 31.38 50.2331C32.3108 50.2331 32.7097 49.8358 33.3745 49.3061V52.0872C32.7097 52.4845 32.0448 52.6169 31.2471 52.6169C29.7844 52.6169 28.5877 52.2196 27.7899 50.8953C26.9921 52.2196 25.6625 52.6169 24.1998 52.6169C23.535 52.6169 22.7372 52.4845 22.0724 52.0872V49.3061C22.7372 49.9682 23.1361 50.2331 24.0669 50.2331C25.3965 50.2331 26.4603 49.1736 26.4603 47.8493C26.4603 46.525 25.6625 45.4655 24.1998 45.4655C21.6735 45.4655 20.6098 47.8493 20.6098 50.1007C20.6098 53.2791 23.0031 56.0602 26.0614 56.5899V55.0007C26.5932 54.7358 27.1251 54.7358 27.524 54.7358C28.0559 54.7358 28.5877 54.7358 29.1196 55.0007V56.5899C32.0448 56.1926 34.5712 53.1466 34.5712 50.1007C34.5712 47.8493 33.6404 45.4655 30.9811 45.4655C29.9174 45.3331 28.9866 46.525 28.9866 47.8493ZM44.1448 36.8574C44.1448 38.0493 45.4744 39.2412 46.6711 39.2412C47.8678 39.2412 49.0645 38.1817 49.0645 36.9898V36.3276L51.192 38.0493C50.7931 40.1682 48.9316 41.8898 46.8041 41.7574C46.9371 42.1547 46.9371 42.552 46.9371 42.9493C46.9371 44.5385 45.6074 46.2601 44.1448 46.7898L42.1503 45.0682C43.4799 44.9358 44.5437 44.0088 44.5437 42.552C44.5437 41.0952 43.347 40.1682 42.0173 40.1682C40.5547 40.1682 39.6239 41.3601 39.6239 42.8169C39.6239 44.5385 41.7514 47.9817 45.8733 47.9817C47.4689 47.9817 49.0645 47.452 50.2612 46.3925L48.9315 45.3331C49.1975 44.2736 49.8623 43.3466 50.7931 42.9493L52.1227 44.0088C52.6546 43.0817 52.9205 42.0223 52.9205 40.9628C52.9205 38.0493 50.6601 34.3411 47.07 34.3411C45.4744 34.3411 44.1448 35.2682 44.1448 36.8574Z" fill="#3B3B3B"/>
</g>
<defs>
<clipPath id="clip0_472_726">
<rect width="169" height="61" fill="white"/>
</clipPath>
</defs>
</svg>
