<svg width="189" height="47" viewBox="0 0 189 47" fill="none" xmlns="http://www.w3.org/2000/svg">
<path d="M13.1629 44.9964V12.8377H0.429688V3.53955H37.5632V12.8377H24.8893V44.9964H13.1629Z" fill="white"/>
<path d="M54.2739 45.5286C51.668 45.5286 49.3187 45.0153 47.2261 43.9887C45.1731 42.9621 43.5544 41.363 42.3697 39.1916C41.2249 36.9805 40.6523 34.1969 40.6523 30.841V12.896H51.905V29.0049C51.905 31.4924 52.359 33.2692 53.2672 34.3352C54.2147 35.4012 55.5372 35.9341 57.235 35.9341C58.3407 35.9341 59.3474 35.6775 60.2556 35.1643C61.1637 34.651 61.8941 33.8417 62.4468 32.7361C62.9995 31.591 63.2759 30.1302 63.2759 28.3536V12.896H74.5285V44.9955H63.809V35.9341L65.8818 38.4807C64.7763 40.8497 63.1772 42.6265 61.0846 43.811C58.992 44.9561 56.7217 45.5286 54.2739 45.5286Z" fill="white"/>
<path d="M81.7695 44.9963V12.8968H92.4891V22.2542L90.8899 19.5891C91.8375 17.1807 93.3774 15.3842 95.5094 14.1997C97.6416 12.9757 100.228 12.3638 103.268 12.3638V22.4911C102.755 22.4121 102.3 22.3726 101.906 22.3726C101.55 22.3332 101.155 22.3134 100.721 22.3134C98.4313 22.3134 96.5754 22.9451 95.1542 24.2086C93.7328 25.4324 93.0219 27.4462 93.0219 30.2494V44.9963H81.7695Z" fill="white"/>
<path d="M123.228 45.5292C119.121 45.5292 115.923 44.5222 113.633 42.5086C111.343 40.4555 110.198 37.3759 110.198 33.2698V5.73047H121.451V33.1513C121.451 34.2961 121.767 35.2043 122.398 35.8754C123.03 36.5072 123.84 36.8232 124.827 36.8232C126.169 36.8232 127.314 36.4876 128.262 35.8164L131.045 43.6931C130.098 44.3249 128.933 44.7789 127.551 45.0553C126.169 45.3711 124.728 45.5292 123.228 45.5292ZM105.52 22.4909V14.0811H128.795V22.4909H105.52Z" fill="white"/>
<path d="M135.383 44.9965V1.05225H146.635V44.9965H135.383Z" fill="white"/>
<path d="M170.775 45.5294C166.984 45.5294 163.668 44.8185 160.825 43.3971C158.022 41.9363 155.83 39.9622 154.251 37.4747C152.711 34.9479 151.941 32.0855 151.941 28.8872C151.941 25.6892 152.692 22.8464 154.192 20.359C155.732 17.8321 157.844 15.8777 160.529 14.4958C163.214 13.0745 166.234 12.3638 169.59 12.3638C172.749 12.3638 175.631 13.0152 178.237 14.3182C180.843 15.5816 182.916 17.457 184.455 19.9444C185.995 22.4319 186.765 25.4523 186.765 29.0057C186.765 29.4005 186.746 29.8546 186.706 30.3679C186.666 30.8812 186.627 31.3551 186.588 31.7893H161.18V25.8669H180.606L176.342 27.525C176.381 26.0642 176.105 24.8009 175.513 23.7347C174.96 22.6688 174.17 21.8396 173.144 21.2474C172.157 20.6551 170.992 20.359 169.649 20.359C168.307 20.359 167.122 20.6551 166.096 21.2474C165.109 21.8396 164.339 22.6885 163.786 23.7939C163.233 24.8602 162.957 26.1235 162.957 27.5843V29.3019C162.957 30.8812 163.273 32.2434 163.905 33.3884C164.576 34.5333 165.523 35.4218 166.747 36.0533C167.971 36.6457 169.432 36.9419 171.13 36.9419C172.709 36.9419 174.052 36.7245 175.157 36.2903C176.302 35.8166 177.428 35.1058 178.533 34.1583L184.455 40.3176C182.916 42.0154 181.02 43.3183 178.77 44.2264C176.519 45.0949 173.854 45.5294 170.775 45.5294Z" fill="white"/>
</svg>
