<svg width="168" height="33" viewBox="0 0 168 33" fill="none" xmlns="http://www.w3.org/2000/svg">
<mask id="mask0_472_819" style="mask-type:luminance" maskUnits="userSpaceOnUse" x="0" y="-1" width="33" height="34">
<path d="M0 -0.000976562H32.7581V32.999H0V-0.000976562Z" fill="white"/>
</mask>
<g mask="url(#mask0_472_819)">
<path fill-rule="evenodd" clip-rule="evenodd" d="M16.4054 21.9864C13.3903 21.9864 10.9465 19.5266 10.9495 16.4934C10.9525 13.4397 13.394 10.9981 16.4302 11.0117C18.831 11.0224 20.8655 12.5927 21.584 14.7672C21.7096 15.1472 22.0624 15.4041 22.4606 15.4041H27.2662C27.3906 15.4041 27.4915 15.3026 27.4915 15.1775V13.9305C27.4915 13.8749 27.5362 13.8298 27.5915 13.8298H28.7623C28.8176 13.8298 28.8624 13.8749 28.8624 13.9305V15.1775C28.8624 15.3026 28.9633 15.4041 29.0876 15.4041H29.7724C29.8968 15.4041 29.9976 15.3026 29.9976 15.1775V13.9305C29.9976 13.8749 30.0425 13.8298 30.0978 13.8298H31.2685C31.3238 13.8298 31.3687 13.8749 31.3687 13.9305V15.1775C31.3687 15.3026 31.4695 15.4041 31.5939 15.4041H32.5327C32.6642 15.4041 32.7679 15.2911 32.7574 15.1593C32.0796 6.67651 25.023 0.00429996 16.4156 -0.000973432C7.3584 -0.00653187 0 7.3898 0 16.4993C0 25.6119 7.34504 32.999 16.4054 32.999C25.0174 32.999 32.0792 26.325 32.7574 17.8391C32.7679 17.7071 32.6643 17.594 32.5326 17.594H22.4608C22.0603 17.594 21.7088 17.8546 21.582 18.2367C20.8593 20.4156 18.8148 21.9864 16.4054 21.9864Z" fill="#3B3B3B"/>
</g>
<path fill-rule="evenodd" clip-rule="evenodd" d="M42.7422 16.5548V16.5197C42.7422 13.028 45.3416 10.168 49.0402 10.168C51.2904 10.168 52.6515 10.9576 53.82 12.0805L52.442 13.6772C51.4651 12.7648 50.4183 12.1507 49.0228 12.1507C46.6848 12.1507 44.9929 14.0808 44.9929 16.4846V16.5197C44.9929 18.9235 46.6848 20.8888 49.0228 20.8888C50.5231 20.8888 51.4825 20.2746 52.5293 19.292L53.9073 20.6957C52.6341 22.0292 51.2381 22.8715 48.9529 22.8715C45.394 22.8715 42.7422 20.0817 42.7422 16.5548Z" fill="#3B3B3B"/>
<path fill-rule="evenodd" clip-rule="evenodd" d="M60.7257 18.7829C60.1848 18.5724 59.4344 18.4145 58.6147 18.4145C57.2885 18.4145 56.5037 18.9584 56.5037 19.8532V19.8884C56.5037 20.7657 57.2885 21.257 58.2829 21.257C59.6789 21.257 60.7257 20.4674 60.7257 19.3093V18.7829ZM60.6733 22.6607V21.5202C60.0451 22.2747 59.0857 22.8537 57.6901 22.8537C55.9454 22.8537 54.4102 21.8536 54.4102 19.9937V19.9586C54.4102 17.9056 55.9978 16.923 58.1437 16.923C59.2598 16.923 59.9753 17.081 60.6907 17.3091V17.1336C60.6907 15.8527 59.888 15.1509 58.4226 15.1509C57.3933 15.1509 56.6259 15.3789 55.7882 15.7299L55.2125 14.0279C56.2243 13.5717 57.2187 13.2559 58.7194 13.2559C61.4406 13.2559 62.7668 14.6946 62.7668 17.1687V22.6607H60.6733Z" fill="#3B3B3B"/>
<path fill-rule="evenodd" clip-rule="evenodd" d="M63.9023 18.081V18.0459C63.9023 15.4139 65.926 13.2031 68.6826 13.2031C70.4269 13.2031 71.5086 13.8523 72.3638 14.7998L71.0551 16.2211C70.4099 15.5368 69.7294 15.063 68.6652 15.063C67.1299 15.063 66.0133 16.3966 66.0133 18.0108V18.0459C66.0133 19.6952 67.1474 21.0287 68.7699 21.0287C69.7643 21.0287 70.4968 20.555 71.1598 19.8707L72.4336 21.1341C71.5261 22.1517 70.4618 22.8711 68.6652 22.8711C65.926 22.8711 63.9023 20.713 63.9023 18.081Z" fill="#3B3B3B"/>
<path fill-rule="evenodd" clip-rule="evenodd" d="M73.9346 20.0985V15.2206H72.7656V13.3958H73.9346V10.8516H76.0456V13.3958H78.5228V15.2206H76.0456V19.7651C76.0456 20.5898 76.4642 20.9231 77.1792 20.9231C77.6502 20.9231 78.0693 20.8178 78.4879 20.6073V22.3444C77.9645 22.6427 77.3713 22.8181 76.586 22.8181C75.0338 22.8181 73.9346 22.1338 73.9346 20.0985Z" fill="#3B3B3B"/>
<path fill-rule="evenodd" clip-rule="evenodd" d="M79.6719 19.2921V13.3965H81.7829V18.6604C81.7829 20.0992 82.4983 20.9239 83.7542 20.9239C84.9755 20.9239 85.8302 20.0641 85.8302 18.6253V13.3965H87.9412V22.6609H85.8302V21.2222C85.237 22.0995 84.3823 22.854 82.9519 22.854C80.8758 22.854 79.6719 21.4503 79.6719 19.2921Z" fill="#3B3B3B"/>
<path fill-rule="evenodd" clip-rule="evenodd" d="M88.9727 21.4499L89.9146 20.0112C90.909 20.7657 91.9907 21.1516 92.9327 21.1516C93.8398 21.1516 94.3632 20.7657 94.3632 20.1515V20.1164C94.3632 19.3971 93.3862 19.1514 92.3046 18.818C90.944 18.432 89.4262 17.8705 89.4262 16.0983V16.0632C89.4262 14.3086 90.8741 13.2383 92.7062 13.2383C93.8572 13.2383 95.1135 13.6418 96.0905 14.2911L95.2532 15.8C94.3632 15.2561 93.4212 14.9228 92.6538 14.9228C91.8336 14.9228 91.3626 15.3087 91.3626 15.8527V15.8878C91.3626 16.5546 92.3569 16.8353 93.4386 17.1862C94.7822 17.6073 96.3 18.2214 96.3 19.8884V19.9234C96.3 21.8711 94.7992 22.8361 92.8803 22.8361C91.5721 22.8361 90.1242 22.3624 88.9727 21.4499Z" fill="#3B3B3B"/>
<path fill-rule="evenodd" clip-rule="evenodd" d="M101.637 16.5548V16.5197C101.637 13.028 104.236 10.168 107.934 10.168C110.185 10.168 111.546 10.9576 112.715 12.0805L111.337 13.6772C110.36 12.7648 109.313 12.1507 107.917 12.1507C105.579 12.1507 103.887 14.0808 103.887 16.4846V16.5197C103.887 18.9235 105.579 20.8888 107.917 20.8888C109.418 20.8888 110.377 20.2746 111.424 19.292L112.802 20.6957C111.528 22.0292 110.133 22.8715 107.847 22.8715C104.289 22.8715 101.637 20.0817 101.637 16.5548Z" fill="#3B3B3B"/>
<path fill-rule="evenodd" clip-rule="evenodd" d="M113.832 19.2921V13.3965H115.943V18.6604C115.943 20.0992 116.658 20.9239 117.914 20.9239C119.136 20.9239 119.99 20.0641 119.99 18.6253V13.3965H122.101V22.6609H119.99V21.2222C119.397 22.0995 118.542 22.854 117.112 22.854C115.036 22.854 113.832 21.4503 113.832 19.2921Z" fill="#3B3B3B"/>
<path fill-rule="evenodd" clip-rule="evenodd" d="M123.129 21.4499L124.071 20.0112C125.065 20.7657 126.147 21.1516 127.089 21.1516C127.996 21.1516 128.519 20.7657 128.519 20.1515V20.1164C128.519 19.3971 127.542 19.1514 126.461 18.818C125.1 18.432 123.582 17.8705 123.582 16.0983V16.0632C123.582 14.3086 125.03 13.2383 126.862 13.2383C128.013 13.2383 129.27 13.6418 130.247 14.2911L129.409 15.8C128.519 15.2561 127.577 14.9228 126.81 14.9228C125.99 14.9228 125.519 15.3087 125.519 15.8527V15.8878C125.519 16.5546 126.513 16.8353 127.595 17.1862C128.938 17.6073 130.456 18.2214 130.456 19.8884V19.9234C130.456 21.8711 128.955 22.8361 127.037 22.8361C125.728 22.8361 124.28 22.3624 123.129 21.4499Z" fill="#3B3B3B"/>
<path fill-rule="evenodd" clip-rule="evenodd" d="M132.169 20.0985V15.2206H131V13.3958H132.169V10.8516H134.28V13.3958H136.757V15.2206H134.28V19.7651C134.28 20.5898 134.699 20.9231 135.414 20.9231C135.885 20.9231 136.304 20.8178 136.722 20.6073V22.3444C136.199 22.6427 135.606 22.8181 134.821 22.8181C133.268 22.8181 132.169 22.1338 132.169 20.0985Z" fill="#3B3B3B"/>
<path fill-rule="evenodd" clip-rule="evenodd" d="M145.215 18.081V18.0459C145.215 16.414 144.046 15.063 142.389 15.063C140.697 15.063 139.615 16.3966 139.615 18.0108V18.0459C139.615 19.6601 140.784 21.0287 142.424 21.0287C144.133 21.0287 145.215 19.6777 145.215 18.081ZM137.504 18.081V18.0459C137.504 15.3964 139.597 13.2031 142.424 13.2031C145.25 13.2031 147.326 15.3613 147.326 18.0108V18.0459C147.326 20.6778 145.232 22.8711 142.389 22.8711C139.58 22.8711 137.504 20.713 137.504 18.081Z" fill="#3B3B3B"/>
<path fill-rule="evenodd" clip-rule="evenodd" d="M155.578 18.0456V18.0106C155.578 16.2209 154.322 15.0452 152.909 15.0452C151.461 15.0452 150.257 16.1682 150.257 18.0106V18.0456C150.257 19.8354 151.479 21.011 152.909 21.011C154.322 21.011 155.578 19.8178 155.578 18.0456ZM148.129 18.0456V18.0106C148.129 14.94 150.205 13.2029 152.403 13.2029C153.921 13.2029 154.88 13.975 155.544 14.8347V9.85156H157.655V22.6604H155.544V21.1163C154.863 22.0814 153.904 22.8534 152.403 22.8534C150.24 22.8534 148.129 21.1163 148.129 18.0456Z" fill="#3B3B3B"/>
<path fill-rule="evenodd" clip-rule="evenodd" d="M159.119 24.9595L159.834 23.3804C160.218 23.5909 160.636 23.7313 161.073 23.7313C161.666 23.7313 162.032 23.4681 162.381 22.6609L158.543 13.3965H160.794L163.411 20.2746L165.8 13.3965H167.999L164.335 22.9241C163.602 24.8191 162.782 25.521 161.3 25.521C160.41 25.521 159.764 25.3104 159.119 24.9595Z" fill="#3B3B3B"/>
</svg>
