<svg width="190" height="53" viewBox="0 0 190 53" fill="none" xmlns="http://www.w3.org/2000/svg">
<path d="M19.5538 36.5191L22.523 41.928C22.7688 42.3819 23.4308 42.3819 23.6955 41.928L26.6647 36.5191C26.816 36.2544 26.7593 35.9328 26.5323 35.7248L23.5631 32.888C23.2984 32.6421 22.9012 32.6421 22.6365 32.888L19.6673 35.7248C19.4592 35.9139 19.4214 36.2544 19.5538 36.5191Z" fill="white"/>
<path d="M36.8601 34.6653L23.9621 11.1576C23.6028 10.4957 22.6572 10.4957 22.2978 11.1576L9.38091 34.6653C9.04049 35.2894 9.49438 36.0648 10.213 36.0648H15.2436C15.4139 36.0648 15.5841 35.9891 15.6975 35.8756L22.6383 29.2375C22.903 28.9916 23.3002 28.9916 23.565 29.2375L30.5057 35.8756C30.6381 35.9891 30.7894 36.0648 30.9596 36.0648H35.9902C36.7467 36.0648 37.2195 35.2894 36.8601 34.6653Z" fill="white"/>
<path d="M102.709 16.1509H87.0312V20.8032H92.6103V36.9541H97.2248V20.8032H102.709V16.1509Z" fill="white"/>
<path d="M66.2461 16.1694H70.4635L80.2032 28.9729V16.1694H84.7232V36.9538H80.8273L70.7661 23.7532V36.9538H66.2461V16.1694Z" fill="white"/>
<path d="M51.6102 16.3208L43.7617 36.7647H48.7545L49.7947 33.7577H57.9268L58.967 36.7647H63.922L56.0924 16.3208H51.6102ZM50.8916 29.5592L53.8797 21.446L56.83 29.5592H50.8916Z" fill="white"/>
<path d="M168.676 16.1509V36.9541H179.853V34.5901H170.983V16.1509H168.676Z" fill="white"/>
<path d="M118.803 20.0088C118.481 19.2334 118.009 18.5715 117.441 17.9852C116.874 17.4179 116.193 16.964 115.418 16.6235C114.661 16.302 113.829 16.1318 112.959 16.1318H107.437H105.148V36.9351H107.475V29.9187V28.784H112.997C113.867 28.784 114.699 28.6138 115.456 28.2923C116.231 27.9708 116.893 27.498 117.479 26.9306C118.046 26.3633 118.5 25.6824 118.841 24.907C119.162 24.1505 119.332 23.3184 119.332 22.4485C119.295 21.5974 119.124 20.7842 118.803 20.0088ZM116.647 24.0182C116.439 24.491 116.155 24.9259 115.796 25.2853C115.437 25.6446 115.002 25.9283 114.529 26.1363C114.037 26.3443 113.526 26.4389 112.978 26.4389H107.456V25.7959V18.5148H112.978C113.508 18.5148 114.037 18.6093 114.529 18.8173C115.002 19.0254 115.437 19.3091 115.796 19.6684C116.155 20.0277 116.439 20.4627 116.647 20.9355C116.855 21.4272 116.968 21.9378 116.968 22.4863C116.968 23.0158 116.855 23.5265 116.647 24.0182Z" fill="white"/>
<path d="M150.182 20.1602C150.806 19.6306 151.525 19.1956 152.301 18.8552C154.305 18.0042 156.688 18.0042 158.674 18.8552C159.374 19.1578 160.017 19.5361 160.603 19.99L162.173 18.4203C161.397 17.7583 160.508 17.2288 159.525 16.8127C158.277 16.2832 156.915 15.9995 155.478 15.9995C154.04 15.9995 152.679 16.2643 151.431 16.8127C150.371 17.2666 149.426 17.8718 148.594 18.6094L150.182 20.1602Z" fill="white"/>
<path d="M163.058 23.2049C163.493 24.2073 163.701 25.2853 163.701 26.3822C163.701 27.498 163.493 28.5571 163.058 29.5594C162.718 30.3537 162.283 31.0534 161.734 31.6965L163.304 33.2662C164.042 32.434 164.647 31.4884 165.101 30.4293C165.63 29.1812 165.914 27.8195 165.914 26.3822C165.914 24.9449 165.649 23.5832 165.101 22.335C164.647 21.2948 164.061 20.3492 163.323 19.5171L161.753 21.0868C162.283 21.7298 162.737 22.4295 163.058 23.2049Z" fill="white"/>
<path d="M124.196 29.5784C123.761 28.5761 123.553 27.517 123.553 26.4012C123.553 25.2854 123.78 24.2074 124.196 23.224C124.536 22.4486 124.971 21.7299 125.5 21.1058L123.931 19.5361C123.212 20.3683 122.607 21.3139 122.153 22.354C121.624 23.6022 121.34 24.9639 121.34 26.4012C121.34 27.8385 121.605 29.2002 122.153 30.4484C122.607 31.5075 123.212 32.4531 123.95 33.3041L125.519 31.7344C124.99 31.0914 124.536 30.3727 124.196 29.5784Z" fill="white"/>
<path d="M126.651 19.9898C127.237 19.5359 127.88 19.1388 128.58 18.8551C130.585 18.0041 132.968 18.0041 134.954 18.8551C135.748 19.1955 136.448 19.6305 137.091 20.16L138.66 18.5903C137.828 17.8528 136.864 17.2476 135.805 16.7937C134.556 16.2642 133.195 15.9805 131.757 15.9805C130.32 15.9805 128.958 16.2452 127.71 16.7937C126.746 17.2098 125.857 17.7582 125.062 18.4201L126.651 19.9898Z" fill="white"/>
<path d="M138.171 21.2951C139.457 22.8648 142.218 26.4013 142.218 26.4013C142.218 26.4013 139.419 29.9568 138.152 31.5076L139.703 33.0584C140.932 31.5643 143.618 28.179 143.618 28.179C143.618 28.179 146.285 31.5454 147.514 33.0584L149.065 31.5076C147.797 29.9568 145.017 26.4202 145.017 26.4202C145.017 26.4202 147.797 22.8837 149.065 21.3329L147.495 19.7632C146.247 21.2761 143.599 24.6236 143.599 24.6236C143.599 24.6236 140.913 21.2572 139.684 19.7632L138.171 21.2951Z" fill="white"/>
<path d="M137.072 32.6611C136.448 33.1907 135.748 33.6256 134.973 33.9472C133.971 34.3632 132.893 34.5902 131.777 34.5902C130.661 34.5902 129.583 34.3821 128.581 33.9472C127.881 33.6446 127.238 33.2663 126.652 32.8124L125.082 34.3821C125.857 35.0441 126.746 35.5736 127.73 35.9897C128.978 36.5192 130.34 36.8029 131.777 36.8029C133.214 36.8029 134.576 36.5381 135.824 35.9897C136.864 35.5358 137.81 34.9495 138.642 34.2119L137.072 32.6611Z" fill="white"/>
<path d="M160.6 32.8124C160.014 33.2663 159.39 33.6446 158.69 33.9472C157.688 34.3632 156.61 34.5902 155.494 34.5902C154.378 34.5902 153.3 34.3821 152.298 33.9472C151.522 33.6256 150.823 33.1907 150.199 32.6611L148.629 34.2308C149.461 34.9495 150.407 35.5547 151.447 36.0086C152.695 36.5381 154.057 36.8218 155.494 36.8218C156.931 36.8218 158.293 36.557 159.541 36.0086C160.506 35.5925 161.395 35.0441 162.17 34.401L160.6 32.8124Z" fill="white"/>
</svg>
