<svg width="187" height="57" viewBox="0 0 187 57" fill="none" xmlns="http://www.w3.org/2000/svg">
<g clip-path="url(#clip0_425_4517)">
<path d="M127.904 35.0619C127.904 28.4668 122.552 23.1179 115.957 23.1209C109.362 23.1209 104.014 28.4729 104.017 35.0679C104.017 41.663 109.365 47.0089 115.961 47.0089C122.556 47.0089 127.904 41.6599 127.904 35.0649V35.0619ZM185.271 35.0619C185.262 47.0551 175.529 56.77 163.535 56.7606C154.615 56.7543 146.604 51.291 143.342 42.9894L151.61 34.7217V35.0649C151.625 41.6506 156.977 46.9748 163.563 46.9563C170.149 46.9377 175.473 41.5887 175.454 35.003C175.439 28.4173 170.087 23.0932 163.501 23.1116C160.351 23.1209 157.33 24.3731 155.104 26.6024L131.401 50.3171C122.998 58.8538 109.263 58.9619 100.724 50.5583C96.5714 46.4709 94.24 40.8869 94.2494 35.0619V4.59443C94.4163 1.89522 96.7383 -0.154691 99.4344 0.00917842C101.902 0.16068 103.865 2.12712 104.02 4.59443V16.7795C114.037 10.1845 127.505 12.9611 134.101 22.9787C135.613 25.276 136.673 27.8392 137.229 30.5322L148.2 19.5653C156.677 11.0843 170.427 11.0812 178.908 19.5591C183.017 23.6682 185.311 29.2523 185.271 35.0619ZM90.9967 35.0619C91.0184 47.0427 81.3252 56.776 69.3411 56.7977C60.3872 56.8162 52.342 51.3281 49.0893 42.9894L57.357 34.7217V35.0649C57.3724 41.6506 62.7246 46.9748 69.3103 46.9563C75.896 46.9407 81.2202 41.5887 81.2015 35.003C81.1861 28.4173 75.8341 23.0932 69.2484 23.1116C66.0978 23.1209 63.0769 24.3731 60.8509 26.6024L37.065 50.4098C28.5841 58.8877 14.8344 58.8847 6.35652 50.4037C-2.12142 41.9226 -2.11832 28.1731 6.3627 19.6952C14.8406 11.2203 28.5871 11.2203 37.065 19.6952C38.9728 21.6122 38.9635 24.7164 37.0435 26.6209C35.1264 28.5287 32.0222 28.5194 30.1176 26.5994C25.4458 21.943 17.883 21.9554 13.2267 26.6272C8.57029 31.299 8.58266 38.8616 13.2545 43.518C17.9171 48.1651 25.4582 48.1651 30.1176 43.518L53.9437 19.6302C62.4061 11.1492 76.1433 11.1338 84.6274 19.5962C88.7335 23.693 91.0275 29.2644 90.9967 35.0679V35.0586V35.0619Z" fill="white"/>
</g>
<defs>
<clipPath id="clip0_425_4517">
<rect width="186.621" height="56.7978" fill="white"/>
</clipPath>
</defs>
</svg>
