<svg width="190" height="33" viewBox="0 0 190 33" fill="none" xmlns="http://www.w3.org/2000/svg">
<g clip-path="url(#clip0_448_749)">
<path d="M149.429 13.5156V19.0275H132.112V26.2762H150.034V32.2034H126.099C126.137 26.0118 126.137 19.8204 126.137 13.5156H149.429ZM20.5691 0.0755062C20.9095 0.0755062 21.0985 0.151012 21.2497 0.490791C25.9005 10.9106 30.589 21.3306 35.2398 31.7126C35.2777 31.8258 35.3154 31.9392 35.391 32.1279H33.009C31.7991 32.1279 30.6269 32.0902 29.417 32.1279C28.9632 32.1279 28.7364 32.0147 28.5473 31.5616C25.787 25.2568 23.0269 18.9143 20.2667 12.6095C19.4347 10.7219 18.6029 8.79647 17.7333 6.79556C17.6199 7.05984 17.5442 7.21084 17.4309 7.3996C13.8766 15.441 10.3602 23.4824 6.84378 31.5239C6.65473 31.9392 6.46567 32.0902 5.97413 32.0902C4.37095 32.0599 2.79195 32.0781 1.19846 32.0478L0 32.0147C0.113433 31.8258 0.226866 31.6371 0.340298 31.4484C4.95324 21.1795 9.56616 10.9106 14.1791 0.641802C14.3682 0.226519 14.5572 0.0755062 15.0488 0.0755062C16.9015 0.113259 18.7543 0.113259 20.5691 0.0755062ZM48.6249 0.188765C49.0029 0.188765 49.192 0.302024 49.3812 0.60405C52.4815 4.87015 55.5821 9.09849 58.6826 13.3646C58.796 13.5156 58.9095 13.7044 59.0985 13.8931C59.2497 13.7044 59.3632 13.5534 59.4766 13.4023C62.5771 9.13625 65.6777 4.90791 68.7781 0.641802C69.0428 0.302024 69.2697 0.188765 69.6856 0.188765C71.5761 0.226519 73.5046 0.188765 75.3951 0.188765H76V32.1279H70.0258V9.174C69.9881 9.13625 69.9503 9.13625 69.9124 9.09849C69.7991 9.24951 69.6856 9.40052 69.5722 9.55153C66.3581 13.8176 63.1442 18.0837 59.9303 22.3498C59.3632 23.105 58.5313 23.105 58.002 22.3121C54.9015 18.046 51.7632 13.8176 48.6627 9.55153C48.5492 9.40052 48.4358 9.21175 48.2846 9.06075C48.2468 9.09849 48.209 9.09849 48.1711 9.13625V32.1279H42.1592V0.226519C42.3104 0.226519 42.4995 0.188765 42.6508 0.188765H48.6249ZM177.03 0C178.883 0 180.661 0.377532 182.324 1.17035C186.144 2.94474 188.449 6.79556 188.222 11.0617C188.147 12.4208 187.958 13.7421 187.467 14.988C186.256 18.0083 183.951 19.7449 180.888 20.5754C180.661 20.6132 180.471 20.6887 180.17 20.7643C180.471 21.104 180.698 21.4061 180.964 21.6703C183.836 24.8792 186.673 28.0883 189.546 31.335C189.697 31.5239 189.812 31.7881 190 32.0902H183.118C182.854 32.0902 182.551 31.9392 182.363 31.7503C179.489 28.4659 176.615 25.2191 173.779 21.8969C173.439 21.5193 173.098 21.3682 172.607 21.3682C170.944 21.4061 169.242 21.3682 167.54 21.3682V32.0524C165.461 32.0147 163.495 32.0147 161.453 32.0147V15.8563H162.133C166.86 15.8563 171.586 15.894 176.351 15.894C177.181 15.894 178.053 15.8185 178.846 15.592C181.152 14.9125 182.437 12.7228 182.173 10.0423C181.946 7.77713 180.17 5.96499 177.826 5.70072C177.333 5.62521 176.805 5.62521 176.312 5.62521H161.49V0.0377532C161.605 0.0377532 161.756 0 161.869 0H177.03ZM103.148 0C105.077 0 106.967 0.339778 108.744 1.13259C111.807 2.52946 113.395 4.94565 113.697 8.26793C114 11.5525 112.752 13.9686 109.69 15.441C109.765 15.5165 109.841 15.5543 109.879 15.592C113.206 16.7623 114.907 20.5377 114.718 23.2182C114.492 26.918 112.866 29.5985 109.349 30.9576C108.328 31.335 107.232 31.6371 106.173 31.7881C105.001 31.9768 103.791 32.0524 102.619 32.0524H87.5324V13.0626H88.213C93.3174 12.9871 98.4219 12.9493 103.488 12.836C104.207 12.7983 104.963 12.6473 105.644 12.383C107.572 11.6657 108.29 9.77804 107.383 7.92815C106.703 6.53128 105.455 5.85173 103.98 5.58746C103.488 5.51195 102.959 5.47421 102.468 5.47421C97.7035 5.43645 92.9771 5.43645 88.213 5.39869H87.5324V0.0377532C87.6836 0.0377532 87.7971 0 87.9483 0H103.148ZM102.732 18.197H93.998C93.809 18.197 93.6578 18.2347 93.4687 18.2347V26.3894C96.9095 26.3894 100.237 26.4272 103.602 26.3894C104.736 26.3894 105.795 26.0873 106.816 25.5589C107.686 25.1058 108.328 24.4639 108.593 23.5202C109.009 22.0856 108.48 20.6887 107.156 19.6693C105.871 18.6878 104.358 18.197 102.732 18.197ZM150.072 0.188765V5.96499H126.137V0.188765H150.072Z" fill="white"/>
</g>
<defs>
<clipPath id="clip0_448_749">
<rect width="190" height="32.2034" fill="white"/>
</clipPath>
</defs>
</svg>
