<svg width="169" height="34" viewBox="0 0 169 34" fill="none" xmlns="http://www.w3.org/2000/svg">
<g clip-path="url(#clip0_472_729)">
<mask id="mask0_472_729" style="mask-type:luminance" maskUnits="userSpaceOnUse" x="0" y="0" width="169" height="34">
<path d="M169 0H0V34H169V0Z" fill="white"/>
</mask>
<g mask="url(#mask0_472_729)">
<path d="M4.14844 22.2064V31.7192C4.14844 32.3048 4.64534 32.5479 4.79992 32.6031C4.95449 32.6695 5.47349 32.8131 5.93723 32.3822L13.1524 25.4664C13.7668 24.8775 14.3598 24.2585 14.8054 23.5342C15.0152 23.1937 15.1021 23.0019 15.1021 23.0019C15.5439 22.107 15.5439 21.2452 15.1131 20.3833C14.4729 19.1017 12.8385 17.798 10.376 16.5605L6.16913 18.9029C4.92141 19.61 4.14844 20.8585 4.14844 22.2064Z" fill="#3B3B3B"/>
<path d="M0 1.04865V11.0256C0 12.2741 0.839205 13.3789 2.03176 13.7325C6.09519 14.9036 13.1731 17.4227 14.8847 21.124C15.1053 21.6101 15.2379 22.0852 15.2824 22.5824C16.4196 20.5164 16.9385 18.1409 16.6956 15.7323C16.3642 12.3182 14.5533 9.21356 11.7267 7.23586L1.64528 0.197901C1.46859 0.0653172 1.25879 -0.000976562 1.049 -0.000976562C0.872309 -0.000976562 0.717722 0.0321704 0.552102 0.12056C0.220826 0.308386 0 0.650903 0 1.04865Z" fill="#3B3B3B"/>
<path d="M30.9855 22.2064V31.7192C30.9855 32.3048 30.4888 32.5479 30.334 32.6031C30.1796 32.6695 29.6603 32.8131 29.1968 32.3822L21.8137 25.3055C21.3111 24.8237 20.8312 24.3142 20.4526 23.7303C20.1528 23.2682 20.032 23.0019 20.032 23.0019C19.5902 22.107 19.5902 21.2452 20.0206 20.3833C20.6612 19.1017 22.2956 17.798 24.7576 16.5605L28.9648 18.9029C30.2237 19.61 30.9855 20.8585 30.9855 22.2064Z" fill="#3B3B3B"/>
<path d="M35.1411 1.04767V11.0246C35.1411 12.273 34.3017 13.3779 33.109 13.7315C29.0457 14.9026 21.9679 17.4217 20.2564 21.123C20.0353 21.6092 19.9027 22.0842 19.8587 22.5815C18.7214 20.5154 18.2025 18.1399 18.4454 15.7313C18.7764 12.3172 20.5874 9.21261 23.4144 7.23491L33.4958 0.196921C33.6724 0.0643367 33.8822 -0.00195312 34.0919 -0.00195312C34.2685 -0.00195312 34.4233 0.0311937 34.5886 0.119583C34.92 0.307409 35.1411 0.649919 35.1411 1.04767Z" fill="#3B3B3B"/>
<path d="M52.2422 3.20312H56.1018L65.0463 23.838H65.3114L74.2559 3.20312H78.0488V26.9935H75.2329V8.06033H74.9679L66.769 26.9935H63.5225L55.3231 8.06033H55.0581V26.9935H52.2422V3.20312Z" fill="#3B3B3B"/>
<path d="M81.1602 18.585C81.1602 12.9017 84.6223 9.7627 89.7571 9.7627C94.8751 9.7627 98.3535 12.9017 98.3535 18.585C98.3535 24.2517 94.8751 27.3907 89.7571 27.3907C84.6223 27.3907 81.1602 24.2517 81.1602 18.585ZM84.1085 18.585C84.1085 22.7483 86.378 25.0117 89.7571 25.0117C93.1193 25.0117 95.3888 22.7483 95.3888 18.585C95.3888 14.4051 93.1193 12.1583 89.7571 12.1583C86.378 12.1583 84.1085 14.4051 84.1085 18.585Z" fill="#3B3B3B"/>
<path d="M101.137 10.1589H103.953V12.1744H104.218C104.798 10.9849 105.858 10.0928 108.392 10.0928H110.744V12.604H108.458C105.295 12.604 104.052 14.3387 104.052 17.7586V26.9939H101.137V10.1589Z" fill="#3B3B3B"/>
<path d="M112.988 33.6028V10.1593H115.837V12.4888H116.102C117.361 10.5393 119.415 9.7793 121.8 9.7793C126.189 9.7793 129.552 12.7531 129.552 18.5851C129.552 24.4005 126.189 27.3743 121.8 27.3743C119.465 27.3743 117.427 26.6308 116.169 24.764H115.904V33.6028H112.988ZM115.804 18.5851C115.804 22.6658 117.991 24.9622 121.204 24.9622C124.434 24.9622 126.621 22.6658 126.621 18.5851C126.621 14.4878 124.434 12.1914 121.204 12.1914C117.991 12.1914 115.804 14.4878 115.804 18.5851Z" fill="#3B3B3B"/>
<path d="M132.344 3.20312H135.259V12.2402H135.524C136.733 10.4559 138.737 9.77853 141.106 9.77853C145.032 9.77853 147.516 11.7611 147.516 15.8748V26.9935H144.601V16.1557C144.601 13.4132 143.093 12.2071 140.46 12.2071C137.578 12.2071 135.259 13.9088 135.259 17.593V26.9935H132.344V3.20312Z" fill="#3B3B3B"/>
<path d="M150.137 18.585C150.137 12.9017 153.598 9.7627 158.733 9.7627C163.852 9.7627 167.33 12.9017 167.33 18.585C167.33 24.2517 163.852 27.3907 158.733 27.3907C153.598 27.3907 150.137 24.2517 150.137 18.585ZM153.085 18.585C153.085 22.7483 155.354 25.0117 158.733 25.0117C162.096 25.0117 164.365 22.7483 164.365 18.585C164.365 14.4051 162.096 12.1583 158.733 12.1583C155.354 12.1583 153.085 14.4051 153.085 18.585Z" fill="#3B3B3B"/>
</g>
</g>
<defs>
<clipPath id="clip0_472_729">
<rect width="169" height="34" fill="white"/>
</clipPath>
</defs>
</svg>
