<svg width="168" height="22" viewBox="0 0 168 22" fill="none" xmlns="http://www.w3.org/2000/svg">
<path d="M0.886719 11.1744V1.00586L10.3323 1.07515C18.7323 1.14444 19.8665 1.19641 20.7348 1.45625C23.0918 2.20113 23.9247 3.32712 24.0665 5.94287C24.1728 8.10822 23.8538 9.25153 22.8437 10.135C22.4538 10.4815 22.1525 10.7933 22.188 10.8106C22.2057 10.8279 22.5424 11.0185 22.8968 11.2437C24.0133 11.9019 24.2791 12.6988 24.2791 15.5224C24.2791 17.7744 24.2437 18.0169 23.8361 18.8311C23.3399 19.7838 22.5779 20.4074 21.2665 20.9098C20.5399 21.187 19.5475 21.2216 10.6867 21.2736L0.886719 21.3255V11.1744ZM19.2285 17.9476C19.5475 17.809 19.9019 17.5492 20.0082 17.3586C20.1146 17.1507 20.2032 16.198 20.2032 15.1933C20.2032 13.4956 20.1855 13.3744 19.7424 12.9759L19.2817 12.5602L12.1222 12.5082L4.96267 12.4563V15.3318V18.1901H11.7855C17.2791 18.1901 18.7323 18.1381 19.2285 17.9476ZM18.8209 9.18224C19.831 8.90507 20.026 8.48932 20.026 6.70507C20.026 5.31925 19.9905 5.14602 19.5829 4.76491L19.1576 4.33184H12.0513H4.96267V6.84365V9.35547H11.5728C15.5601 9.35547 18.431 9.28617 18.8209 9.18224Z" fill="#3B3B3B"/>
<path d="M28.707 11.1739V1.04004H30.6564H32.6058V11.1739V21.3078H30.6564H28.707V11.1739Z" fill="#3B3B3B"/>
<path d="M46.6056 12.8196V4.33138H41.2891H35.9727V2.68571V1.04004H48.5549H61.1372V2.68571V4.33138H55.9094H50.6815V12.8196V21.3078H48.6435H46.6056V12.8196Z" fill="#3B3B3B"/>
<path d="M64.3636 11.2256L64.4167 1.1264L66.2066 1.07443L68.0142 1.02246L74.075 9.18152C77.4066 13.6508 80.1889 17.3232 80.242 17.3059C80.3129 17.3059 83.0598 13.6508 86.356 9.16419L92.3636 1.03978H94.0294H95.6952V11.1736V21.3075H93.8345H91.9737L91.9383 14.465L91.8851 7.62246L86.8345 14.4477L81.7838 21.2902H80.0826L78.3813 21.3075L73.2598 14.4477L68.1383 7.57049L68.0851 14.4477L68.0496 21.3075H66.1889H64.3281L64.3636 11.2256Z" fill="#3B3B3B"/>
<path d="M98.4812 20.8054C98.6585 20.5282 101.76 15.9723 105.357 10.6715L111.914 1.05736L113.261 1.04004C114.324 1.04004 114.661 1.10933 114.874 1.35185C115.193 1.69831 128.307 21.1172 128.307 21.2385C128.307 21.2731 127.296 21.3078 126.056 21.2904H123.788L118.631 13.3739C115.795 9.02587 113.403 5.45736 113.332 5.45736C113.279 5.45736 110.851 9.02587 107.962 13.3739L102.699 21.2904L100.431 21.3078H98.1445L98.4812 20.8054Z" fill="#3B3B3B"/>
<path d="M130.961 11.1739V1.04004H132.999H135.037V11.1739V21.3078H132.999H130.961V11.1739Z" fill="#3B3B3B"/>
<path d="M139.504 11.2256L139.557 1.1264L141.17 1.07443L142.8 1.02246L150.562 6.68703C154.851 9.80514 159.388 13.1311 160.681 14.0666C161.957 15.002 163.056 15.7642 163.109 15.7642C163.162 15.7642 163.233 12.4729 163.251 8.45396L163.304 1.1264L165.041 1.07443L166.76 1.02246V11.1736V21.3075H165.75H164.722L153.912 13.5815L143.102 5.87285L143.048 13.5815L143.013 21.3075H141.241H139.469L139.504 11.2256Z" fill="#3B3B3B"/>
</svg>
