<svg width="190" height="44" viewBox="0 0 190 44" fill="none" xmlns="http://www.w3.org/2000/svg">
<g clip-path="url(#clip0_425_4485)">
<path fill-rule="evenodd" clip-rule="evenodd" d="M21.6745 28.9455H14.4497H7.22484V14.473V7.23675H28.899V14.4726H36.1238V7.23634H28.8994V0.000488281H0V28.9455H7.22484V36.1818H28.8994V14.473H14.4497V21.7093H21.6745V28.9455ZM7.22484 36.1822H0V43.4185H7.22484V36.1822ZM152.314 33.68V9.14879H155.998V33.68H152.314ZM76.5774 18.7094H72.65L72.6381 18.6145C72.3975 16.7049 71.7302 15.2851 70.5327 14.34C69.3329 13.393 67.5834 12.9088 65.1509 12.9088C62.3799 12.9088 60.43 13.7009 59.1696 15.2186C57.9055 16.7404 57.3176 19.0114 57.3176 22.0049C57.3176 24.9645 57.8712 27.2355 59.1223 28.7658C60.3697 30.2913 62.3276 31.101 65.1854 31.101C67.8693 31.101 69.6685 30.3434 70.853 29.1657C72.0113 28.0136 72.5949 26.4466 72.8298 24.7533H63.1005V21.8964H76.5301V33.68H73.0881V29.2892C71.8481 32.341 68.9137 34.2705 64.6652 34.2705C60.7548 34.2705 57.9218 32.9404 56.0685 30.7322C54.2178 28.5272 53.3555 25.4601 53.3555 22.0049C53.3555 18.5655 54.2705 15.4977 56.2265 13.2883C58.1842 11.0769 61.1727 9.73927 65.2896 9.73927C68.8585 9.73927 71.522 10.5238 73.3731 12.03C75.226 13.5376 76.2498 15.7556 76.5641 18.5889L76.5774 18.7094ZM85.1529 23.5652L89.488 22.8357C90.3159 22.6975 90.9001 22.5012 91.2766 22.2021C91.6447 21.9094 91.8249 21.5093 91.8249 20.9281C91.8249 20.1662 91.623 19.5437 91.0768 19.1069C90.5246 18.6652 89.6008 18.3968 88.1185 18.3968C86.709 18.3968 85.6878 18.6813 84.9992 19.2204C84.314 19.757 83.942 20.5588 83.8571 21.6314L83.849 21.7314H80.1718L80.1726 21.6218C80.1902 19.7517 80.8962 18.2172 82.2293 17.1527C83.5592 16.0905 85.5022 15.5052 87.9798 15.5052C90.3876 15.5052 92.2007 16.0555 93.414 17.0224C94.6306 17.9918 95.2324 19.3707 95.2324 20.9976V29.6118C95.2324 30.8939 95.2669 31.9329 95.4054 33.5622L95.4154 33.68H92.0435L92.0338 33.5826C91.915 32.4233 91.8469 31.3902 91.8295 30.2457C90.9876 32.2677 89.0698 34.1316 85.6563 34.1316C83.869 34.1316 82.4019 33.6488 81.3801 32.7498C80.3563 31.8493 79.7912 30.5416 79.7912 28.9171C79.7912 27.509 80.1431 26.3328 81 25.4254C81.8546 24.5204 83.1986 23.8971 85.1529 23.5652ZM91.8249 24.2985C90.9066 24.9194 89.8483 25.1821 88.8716 25.4104L86.4784 25.9662C85.4101 26.2078 84.6603 26.5324 84.1784 26.9819C83.7016 27.4263 83.4759 28.0031 83.4759 28.7782C83.4759 29.5829 83.7676 30.1931 84.2685 30.6045C84.7723 31.0181 85.4996 31.24 86.3847 31.24C88.1756 31.24 89.5314 30.5663 90.4412 29.4728C91.3532 28.3765 91.8249 26.8489 91.8249 25.131V24.2985ZM114.789 16.0957H111.104V23.5333C111.104 26.1095 110.612 28.0123 109.749 29.2679C108.89 30.5181 107.658 31.1357 106.149 31.1357C104.998 31.1357 104.017 30.9197 103.323 30.2745C102.63 29.6307 102.2 28.5374 102.2 26.7288V16.0957H98.5154V27.0414C98.5154 29.328 98.9767 31.1303 100.037 32.3614C101.101 33.5958 102.748 34.2358 105.074 34.2358C106.726 34.2358 108.032 33.7777 109.055 32.9934C109.943 32.3115 110.611 31.3871 111.104 30.3147V33.68H114.789V16.0957ZM135.007 33.68H131.323V23.047C131.323 21.2372 130.909 20.1431 130.25 19.4992C129.59 18.8553 128.662 18.64 127.582 18.64C125.908 18.64 124.627 19.177 123.759 20.3795C122.886 21.5894 122.419 23.4896 122.419 26.2425V33.68H118.734V16.0957H122.419V19.5724C122.928 18.4772 123.613 17.5255 124.524 16.8216C125.568 16.0155 126.901 15.5399 128.587 15.5399C130.913 15.5399 132.527 16.1798 133.556 17.4155C134.581 18.647 135.007 20.4492 135.007 22.7344V33.68ZM136.937 16.4V18.9873H140.231V28.4655C140.231 30.207 140.491 31.5206 141.305 32.3951C142.121 33.271 143.469 33.68 145.576 33.68H149.118V30.6842H143.916V18.9873H149.465V16.0957H143.916V12.1707H142.003L140.267 16.1018L136.937 16.4ZM176.313 28.2181H172.916L172.894 28.2984C172.657 29.1826 172.2 29.9667 171.422 30.5312C170.644 31.096 169.532 31.4484 167.971 31.4484C166.494 31.4484 165.224 31.1214 164.289 30.2696C163.372 29.4333 162.759 28.0748 162.607 25.969H176.248L176.262 25.877C176.333 25.4169 176.333 24.993 176.333 24.5438V24.5406C176.333 22.0371 175.616 19.7866 174.195 18.1603C172.772 16.5321 170.651 15.5399 167.867 15.5399C164.874 15.5399 162.649 16.5838 161.174 18.2777C159.7 19.9694 158.984 22.2982 158.984 24.8532C158.984 27.4402 159.639 29.7868 161.082 31.4881C162.528 33.1925 164.754 34.2358 167.867 34.2358C170.939 34.2358 172.969 33.3785 174.272 32.2064C175.574 31.0352 176.138 29.5595 176.297 28.3405L176.313 28.2181ZM171.414 19.5332C172.211 20.3275 172.68 21.5371 172.781 23.2163H162.647C162.865 21.3722 163.45 20.1622 164.322 19.4081C165.213 18.6373 166.423 18.3274 167.901 18.3274C169.426 18.3274 170.6 18.7218 171.414 19.5332ZM177.308 18.9873V16.4L180.638 16.1018L182.375 12.1707H184.287V16.0957H189.836V18.9873H184.287V30.6842H189.489V33.68H185.948C183.841 33.68 182.493 33.271 181.677 32.3951C180.862 31.5206 180.603 30.207 180.603 28.4655V18.9873H177.308ZM176.178 28.4102C176.18 28.3952 176.182 28.3804 176.184 28.3657L176.185 28.3609C176.183 28.3772 176.18 28.3937 176.178 28.4102ZM162.496 25.9288L162.494 25.8963L162.492 25.872C162.493 25.8911 162.494 25.91 162.496 25.9288Z" fill="white"/>
</g>
<defs>
<clipPath id="clip0_425_4485">
<rect width="189.954" height="43.418" fill="white"/>
</clipPath>
</defs>
</svg>
