<svg width="167" height="34" viewBox="0 0 167 34" fill="none" xmlns="http://www.w3.org/2000/svg">
<g clip-path="url(#clip0_472_780)">
<path fill-rule="evenodd" clip-rule="evenodd" d="M105.713 6.77983C106.313 6.77983 106.776 6.58979 107.185 6.18257C107.595 5.77535 107.785 5.28668 107.785 4.71657C107.785 4.11932 107.567 3.6578 107.185 3.25058C106.776 2.84336 106.286 2.65332 105.713 2.65332C105.113 2.65332 104.649 2.84336 104.213 3.25058C103.804 3.63065 103.613 4.14647 103.613 4.71657C103.613 5.31383 103.804 5.77535 104.213 6.18257C104.649 6.58979 105.168 6.77983 105.713 6.77983ZM67.0197 8.27295C69.5013 8.27295 71.5738 9.0874 73.2373 10.7434C74.928 12.3723 75.746 14.4084 75.746 16.8246C75.746 19.2408 74.9007 21.2769 73.2373 22.9058C71.5465 24.5347 69.474 25.3491 67.0197 25.3491C64.5656 25.3491 62.4658 24.5347 60.8023 22.9058C59.1116 21.2769 58.2936 19.2408 58.2936 16.8246C58.2936 14.4084 59.1389 12.3723 60.8023 10.7434C62.4931 9.0874 64.5656 8.27295 67.0197 8.27295ZM67.0197 22.227C68.5469 22.227 69.774 21.7112 70.7557 20.6797C71.7647 19.648 72.2555 18.3721 72.2555 16.8246C72.2555 15.25 71.7647 13.947 70.7557 12.9424C69.7467 11.9379 68.5196 11.395 67.0197 11.395C65.5199 11.395 64.2928 11.9379 63.2838 12.9696C62.3022 13.974 61.784 15.2772 61.784 16.8246C61.784 18.3721 62.2749 19.648 63.2838 20.6797C64.2928 21.6841 65.5472 22.227 67.0197 22.227ZM100.452 10.2276C99.2245 8.92451 97.6702 8.27295 95.734 8.27295C94.5888 8.27295 93.5525 8.54443 92.598 9.11454C91.6982 9.6575 90.9618 10.3905 90.3619 11.3407C89.8166 10.3905 89.1075 9.63035 88.2077 9.0874C87.3078 8.54443 86.2987 8.27295 85.1535 8.27295C83.1628 8.27295 81.5812 9.11454 80.3813 10.7977V8.59873H76.9999V25.0505H80.3813V15.7386C80.3813 14.4627 80.7358 13.4311 81.4448 12.6167C82.1538 11.7751 83.081 11.3678 84.1717 11.3678C85.2625 11.3678 86.1625 11.7751 86.8714 12.6167C87.5805 13.4311 87.935 14.4627 87.935 15.7386V25.0505H91.3164V15.7386C91.3164 14.4627 91.6709 13.4311 92.3798 12.6167C93.0889 11.7751 94.0161 11.3678 95.1068 11.3678C96.1976 11.3678 97.0975 11.7751 97.8065 12.6167C98.5428 13.4311 98.8974 14.4627 98.8974 15.7386V25.0505H102.279V15.2228C102.279 13.2139 101.679 11.5307 100.452 10.2276ZM104.026 8.5727H107.408V24.9973H104.026V8.5727ZM118.044 8.27295C120.034 8.27295 121.67 8.92451 122.952 10.2276C124.234 11.5307 124.888 13.2139 124.888 15.2228V25.0505H121.507V15.7386C121.507 14.4627 121.098 13.4311 120.253 12.6167C119.407 11.7751 118.371 11.3678 117.089 11.3678C115.808 11.3678 114.771 11.7751 113.899 12.6167C113.053 13.4311 112.644 14.4627 112.644 15.7386V25.0505H109.263V8.59873H112.644V10.9335C113.953 9.16884 115.753 8.27295 118.044 8.27295ZM129.762 6.18257C129.353 6.58979 128.889 6.77983 128.289 6.77983C127.716 6.77983 127.226 6.58979 126.79 6.18257C126.38 5.77535 126.19 5.31383 126.19 4.71657C126.19 4.14647 126.38 3.63065 126.79 3.25058C127.226 2.84336 127.689 2.65332 128.289 2.65332C128.862 2.65332 129.353 2.84336 129.762 3.25058C130.143 3.6578 130.361 4.11932 130.361 4.71657C130.361 5.28668 130.171 5.77535 129.762 6.18257ZM129.954 8.57085H126.573V24.9955H129.954V8.57085ZM145.556 10.2018C144.275 8.89867 142.639 8.24712 140.648 8.24712C138.357 8.24712 136.531 9.14301 135.248 10.9076V8.5729H131.867V25.0246H135.248V15.7129C135.248 14.4369 135.658 13.4053 136.503 12.5908C137.375 11.7492 138.412 11.342 139.694 11.342C140.975 11.342 142.011 11.7492 142.857 12.5908C143.702 13.4053 144.111 14.4369 144.111 15.7129V25.0246H147.493V15.1971C147.493 13.188 146.838 11.5049 145.556 10.2018ZM162.655 8.5729V10.9891C161.236 9.17016 159.245 8.24712 156.818 8.24712C154.528 8.24712 152.592 9.06157 151.01 10.6633C149.455 12.265 148.692 14.2469 148.692 16.6088C148.692 18.9978 149.455 20.9796 151.01 22.5814C152.564 24.1559 154.501 24.9704 156.818 24.9704C159.273 24.9704 161.209 24.0745 162.655 22.2827V23.26C162.655 24.8074 162.136 26.0834 161.099 27.115C160.091 28.1467 158.809 28.6896 157.283 28.6896C156.245 28.6896 155.291 28.4182 154.473 27.8481C153.683 27.3051 153.055 26.5721 152.619 25.622L149.565 27.115C150.247 28.5268 151.283 29.667 152.619 30.5086C154.01 31.3501 155.564 31.7574 157.283 31.7574C159.763 31.7574 161.835 30.9429 163.499 29.314C165.19 27.6851 166.008 25.649 166.008 23.2328V8.54575H162.655V8.5729ZM161.154 20.3823C160.145 21.3868 158.945 21.8755 157.418 21.8755C155.945 21.8755 154.691 21.3597 153.683 20.3823C152.674 19.3778 152.182 18.1291 152.182 16.6088C152.182 15.0884 152.7 13.8668 153.683 12.8624C154.691 11.8578 155.918 11.3692 157.418 11.3692C158.918 11.3692 160.173 11.885 161.154 12.8624C162.163 13.8668 162.655 15.0884 162.655 16.6088C162.655 18.1291 162.163 19.405 161.154 20.3823ZM53.7861 10.9891V8.5729V8.54575H57.1404V23.2328C57.1404 25.649 56.3222 27.6851 54.6315 29.314C52.9681 30.9429 50.8956 31.7574 48.4141 31.7574C46.6961 31.7574 45.1418 31.3501 43.751 30.5086C42.4148 29.667 41.3785 28.5268 40.6968 27.115L43.751 25.622C44.1873 26.5721 44.8145 27.3051 45.6053 27.8481C46.4234 28.4182 47.3779 28.6896 48.4141 28.6896C49.9412 28.6896 51.2229 28.1467 52.2318 27.115C53.2681 26.0834 53.7861 24.8074 53.7861 23.26V22.2827C52.3409 24.0745 50.4048 24.9704 47.9505 24.9704C45.6326 24.9704 43.6964 24.1559 42.1421 22.5814C40.5878 20.9796 39.8242 18.9978 39.8242 16.6088C39.8242 14.2469 40.5878 12.265 42.1421 10.6633C43.7237 9.06157 45.6598 8.24712 47.9505 8.24712C50.3775 8.24712 52.3682 9.17016 53.7861 10.9891ZM48.5505 21.8755C50.0775 21.8755 51.2774 21.3868 52.2863 20.3823C53.2954 19.405 53.7861 18.1291 53.7861 16.6088C53.7861 15.0884 53.2954 13.8668 52.2863 12.8624C51.3047 11.885 50.0502 11.3692 48.5505 11.3692C47.0507 11.3692 45.8235 11.8578 44.8145 12.8624C43.8328 13.8668 43.3148 15.0884 43.3148 16.6088C43.3148 18.1291 43.8055 19.3778 44.8145 20.3823C45.8235 21.3597 47.0779 21.8755 48.5505 21.8755Z" fill="#3B3B3B"/>
<path d="M17.0703 0C26.4952 0.00022708 34.1357 7.6113 34.1357 17C34.1357 26.3887 26.4952 33.9998 17.0703 34C7.64519 34 0.00390625 26.3888 0.00390625 17C0.00390625 7.61116 7.64519 0 17.0703 0ZM17.3379 5.09961C15.5797 5.09961 13.7998 5.46823 12.085 6.26855C9.13285 7.6313 6.89685 10.0537 5.81152 13.082C4.74793 16.0671 4.92133 19.2688 6.31055 22.124C9.19764 28.0507 16.4916 30.56 22.5693 27.748C24.1104 27.0342 25.4777 26.0172 26.6064 24.7627C27.7134 23.5081 28.5163 22.0585 29.0156 20.4795L26.4541 17.0186L28.9512 13.623H25.4346L22.9375 16.9756L25.5215 20.415L25.499 20.458C23.5453 24.8274 18.2706 26.8392 13.7773 24.9141C11.5851 23.9623 9.89242 22.2315 9.0459 20.0469C8.22114 17.9055 8.26409 15.5913 9.19727 13.4932C11.1508 9.12381 16.4039 7.11212 20.9189 9.03711C22.3298 9.64278 23.5462 10.573 24.458 11.7627H28.3213C26.2158 7.56634 21.8745 5.09967 17.3379 5.09961ZM19.7705 13.5986L17.2305 16.9736L19.7705 20.3262H23.2646L20.8125 16.9736L23.2646 13.5986H19.7705Z" fill="#3B3B3B"/>
</g>
<defs>
<clipPath id="clip0_472_780">
<rect width="167" height="34" fill="white"/>
</clipPath>
</defs>
</svg>
