<svg width="189" height="55" viewBox="0 0 189 55" fill="none" xmlns="http://www.w3.org/2000/svg">
<g clip-path="url(#clip0_448_740)">
<path d="M79.9821 47.5387C74.7125 47.6274 70.5505 45.3748 70.1517 40.4273C70.1508 40.3864 70.1581 40.3457 70.1734 40.3077C70.1887 40.2697 70.2115 40.2352 70.2405 40.2063C70.2695 40.1774 70.3041 40.1547 70.3421 40.1396C70.3801 40.1245 70.4209 40.1172 70.4618 40.1183H73.8288C74.0062 40.1183 74.1389 40.2505 74.1835 40.4273C74.5818 43.2985 76.8842 44.625 80.0723 44.625C83.792 44.625 86.3599 42.4165 86.3599 37.2922V34.7306C84.8986 37.2492 82.4634 38.7498 79.2764 38.7498C72.9001 38.7498 69.5352 33.9356 69.5352 27.4424C69.5352 20.9932 72.9888 15.7812 79.1436 15.7812C82.3317 15.7812 84.7669 17.1502 86.2728 19.6683L86.1396 16.4434C86.1386 16.4025 86.146 16.3618 86.1613 16.3238C86.1765 16.2858 86.1994 16.2513 86.2284 16.2224C86.2574 16.1935 86.2919 16.1708 86.33 16.1557C86.368 16.1406 86.4087 16.1333 86.4497 16.1344H89.8603C89.9012 16.1333 89.9419 16.1406 89.9799 16.1557C90.018 16.1708 90.0526 16.1935 90.0816 16.2224C90.1106 16.2513 90.1334 16.2858 90.1486 16.3238C90.1639 16.3618 90.1713 16.4025 90.1704 16.4434L90.0817 25.2333L90.1258 37.3368C90.1662 43.8741 86.4906 47.5387 79.9821 47.5387ZM80.1589 35.8781C83.8786 35.8781 86.3138 33.2273 86.3578 27.6176C86.4024 22.1848 84.2768 18.9164 80.5131 18.6509H79.758C75.6847 18.7836 73.6037 22.1402 73.6037 27.3086C73.6058 32.7871 75.8196 35.9232 80.1589 35.8792V35.8781Z" fill="white"/>
<path d="M109.983 38.881C109.942 38.882 109.901 38.8747 109.863 38.8595C109.825 38.8443 109.791 38.8216 109.762 38.7927C109.733 38.7638 109.71 38.7294 109.695 38.6914C109.679 38.6535 109.672 38.6128 109.673 38.5719L109.761 35.2138C108.212 37.7759 105.773 39.3223 102.455 39.3223C96.3002 39.3223 93.0234 34.1539 93.0234 27.5725C93.0234 20.991 96.5217 15.6904 102.544 15.6904C105.776 15.6904 108.211 17.0599 109.717 19.5775L109.628 16.4413C109.627 16.4004 109.635 16.3597 109.65 16.3217C109.665 16.2837 109.688 16.2492 109.717 16.2203C109.746 16.1914 109.781 16.1687 109.819 16.1535C109.857 16.1384 109.898 16.1312 109.938 16.1322H113.39C113.431 16.1312 113.472 16.1384 113.51 16.1535C113.548 16.1687 113.582 16.1914 113.611 16.2203C113.64 16.2492 113.663 16.2837 113.678 16.3217C113.694 16.3597 113.701 16.4004 113.7 16.4413L113.567 27.3075L113.705 38.5735C113.706 38.6147 113.698 38.6556 113.682 38.6938C113.667 38.7319 113.643 38.7664 113.614 38.7952C113.584 38.824 113.549 38.8465 113.511 38.8612C113.472 38.876 113.431 38.8827 113.39 38.881H109.983ZM103.476 36.3624C107.417 36.3624 109.808 33.4471 109.852 27.7047C109.896 22.1832 107.771 18.9148 104.008 18.6493H103.255C99.0927 18.782 97.1445 22.2698 97.1445 27.2629C97.1419 32.6983 99.1783 36.3624 103.473 36.3624H103.476Z" fill="white"/>
<path d="M117.853 38.881C117.812 38.882 117.771 38.8747 117.733 38.8596C117.695 38.8444 117.661 38.8217 117.632 38.7928C117.603 38.7639 117.58 38.7294 117.565 38.6915C117.549 38.6535 117.542 38.6129 117.543 38.572L117.676 23.2447L117.543 8.27058C117.542 8.2297 117.549 8.18905 117.565 8.15109C117.58 8.11314 117.603 8.07867 117.632 8.04978C117.661 8.02089 117.695 7.99817 117.733 7.983C117.771 7.96783 117.812 7.96053 117.853 7.96153H121.263C121.304 7.96045 121.345 7.9677 121.383 7.98284C121.421 7.99798 121.456 8.02068 121.485 8.04959C121.514 8.07849 121.536 8.11298 121.552 8.15097C121.567 8.18896 121.574 8.22965 121.573 8.27058L121.441 23.2006L121.573 38.5746C121.574 38.6155 121.567 38.6562 121.552 38.6942C121.536 38.7322 121.514 38.7667 121.485 38.7956C121.456 38.8245 121.421 38.8472 121.383 38.8623C121.345 38.8775 121.304 38.8847 121.263 38.8836L117.853 38.881Z" fill="white"/>
<path d="M141.42 38.881C141.379 38.882 141.338 38.8747 141.3 38.8595C141.262 38.8443 141.228 38.8216 141.199 38.7928C141.17 38.7639 141.147 38.7294 141.132 38.6914C141.117 38.6535 141.109 38.6128 141.11 38.5719L141.199 35.2138C139.649 37.7759 137.213 39.3223 133.893 39.3223C127.738 39.3223 124.461 34.1539 124.461 27.5725C124.461 20.991 127.959 15.6904 133.981 15.6904C137.213 15.6904 139.648 17.0599 141.154 19.5775L141.066 16.4413C141.065 16.4004 141.072 16.3597 141.088 16.3217C141.103 16.2837 141.126 16.2492 141.155 16.2203C141.184 16.1914 141.218 16.1687 141.256 16.1535C141.294 16.1384 141.335 16.1312 141.376 16.1322H144.83C144.871 16.1312 144.911 16.1384 144.949 16.1535C144.987 16.1687 145.022 16.1914 145.051 16.2203C145.08 16.2492 145.103 16.2837 145.118 16.3217C145.133 16.3597 145.141 16.4004 145.14 16.4413L145.006 27.3075L145.14 38.5714C145.141 38.6123 145.133 38.653 145.118 38.6909C145.103 38.7289 145.08 38.7633 145.051 38.7922C145.022 38.8211 144.987 38.8438 144.949 38.859C144.911 38.8741 144.871 38.8814 144.83 38.8804L141.42 38.881ZM134.914 36.3624C138.854 36.3624 141.246 33.4471 141.29 27.7047C141.334 22.1832 139.209 18.9148 135.445 18.6493H134.692C130.53 18.782 128.582 22.2698 128.582 27.2629C128.579 32.6983 130.616 36.3624 134.911 36.3624H134.914Z" fill="white"/>
<path d="M163.244 38.8811C163.066 38.8811 162.845 38.7924 162.756 38.6187L157.089 29.3429L151.421 38.6187C151.332 38.795 151.111 38.8811 150.934 38.8811H147.347C147.316 38.8821 147.286 38.8743 147.259 38.8586C147.233 38.8428 147.211 38.8198 147.197 38.7922C147.183 38.7647 147.177 38.7337 147.18 38.703C147.184 38.6722 147.195 38.643 147.214 38.6187L154.609 26.8249L147.834 16.3994C147.814 16.3752 147.802 16.3457 147.798 16.3145C147.795 16.2834 147.8 16.2518 147.814 16.2238C147.828 16.1957 147.85 16.1724 147.877 16.1565C147.904 16.1407 147.936 16.133 147.967 16.1345H151.908C152.085 16.1345 152.307 16.2226 152.395 16.3994L157.531 24.7475L162.491 16.3994C162.545 16.32 162.618 16.2546 162.703 16.2086C162.787 16.1625 162.881 16.1371 162.978 16.1345H166.431C166.463 16.133 166.494 16.1407 166.521 16.1565C166.548 16.1724 166.57 16.1957 166.584 16.2238C166.598 16.2518 166.604 16.2834 166.6 16.3145C166.597 16.3457 166.584 16.3752 166.564 16.3994L160.011 26.9566L167.317 38.6187C167.336 38.643 167.348 38.6722 167.351 38.703C167.354 38.7337 167.348 38.7647 167.334 38.7922C167.32 38.8198 167.299 38.8428 167.272 38.8586C167.246 38.8743 167.215 38.8821 167.184 38.8811H163.244Z" fill="white"/>
<path d="M178.575 46.082C178.55 46.1695 178.498 46.2467 178.426 46.3024C178.354 46.3581 178.267 46.3894 178.176 46.3916H174.944C174.907 46.3901 174.871 46.3802 174.839 46.3627C174.806 46.3453 174.779 46.3207 174.757 46.2909C174.736 46.261 174.722 46.2267 174.716 46.1905C174.709 46.1543 174.712 46.1172 174.722 46.082L177.202 38.9266L168.258 16.4433C168.168 16.2665 168.258 16.1343 168.435 16.1343H172.375C172.466 16.1364 172.554 16.1676 172.625 16.2232C172.697 16.2788 172.749 16.356 172.774 16.4433L179.283 33.67L184.773 16.4433C184.798 16.3561 184.85 16.279 184.922 16.2234C184.993 16.1678 185.081 16.1366 185.172 16.1343H188.714C188.891 16.1343 188.98 16.2665 188.935 16.4433L178.575 46.082Z" fill="white"/>
<path d="M8.01323 7.96245H46.4602V46.4068C51.3793 41.4876 54.4226 34.6927 54.4226 27.1862C54.4226 12.1732 42.251 0 27.237 0C12.223 0 0.0507812 12.1732 0.0507812 27.1862C0.0507812 34.6895 3.09409 41.4814 8.01323 46.4V7.96245Z" fill="white"/>
<path d="M8.02454 46.4092H8.01562V54.0983H46.4626V46.4092H46.46H8.02454Z" fill="white"/>
</g>
<defs>
<clipPath id="clip0_448_740">
<rect width="189" height="54.0985" fill="white"/>
</clipPath>
</defs>
</svg>
