<svg width="187" height="39" viewBox="0 0 187 39" fill="none" xmlns="http://www.w3.org/2000/svg">
<g clip-path="url(#clip0_425_4480)">
<path fill-rule="evenodd" clip-rule="evenodd" d="M118.134 7.60523C118.804 7.60523 119.323 7.39205 119.78 6.93522C120.237 6.4784 120.45 5.93021 120.45 5.29065C120.45 4.62064 120.206 4.10291 119.78 3.64609C119.323 3.18926 118.774 2.97607 118.134 2.97607C117.464 2.97607 116.945 3.18926 116.458 3.64609C116.001 4.07245 115.788 4.6511 115.788 5.29065C115.788 5.96066 116.001 6.4784 116.458 6.93522C116.945 7.39205 117.525 7.60523 118.134 7.60523ZM74.8947 9.28023C77.6679 9.28023 79.9839 10.1939 81.8427 12.0516C83.7321 13.8789 84.6463 16.163 84.6463 18.8735C84.6463 21.584 83.7016 23.8682 81.8427 25.6956C79.9534 27.5228 77.6373 28.4364 74.8947 28.4364C72.1522 28.4364 69.8057 27.5228 67.9468 25.6956C66.0574 23.8682 65.1433 21.584 65.1433 18.8735C65.1433 16.163 66.0879 13.8789 67.9468 12.0516C69.8362 10.1939 72.1522 9.28023 74.8947 9.28023ZM74.8947 24.9341C76.6013 24.9341 77.9726 24.3554 79.0696 23.1982C80.1972 22.0409 80.7456 20.6095 80.7456 18.8735C80.7456 17.1072 80.1972 15.6454 79.0696 14.5184C77.9421 13.3917 76.5707 12.7826 74.8947 12.7826C73.2186 12.7826 71.8473 13.3917 70.7198 14.549C69.6228 15.6758 69.0438 17.1377 69.0438 18.8735C69.0438 20.6095 69.5923 22.0409 70.7198 23.1982C71.8473 24.3251 73.2492 24.9341 74.8947 24.9341ZM112.255 11.473C110.883 10.0112 109.146 9.28023 106.983 9.28023C105.703 9.28023 104.545 9.58478 103.478 10.2243C102.473 10.8334 101.65 11.6557 100.979 12.7217C100.37 11.6557 99.5776 10.803 98.572 10.1939C97.5664 9.58478 96.4388 9.28023 95.159 9.28023C92.9344 9.28023 91.167 10.2243 89.8262 12.1125V9.6457H86.0474V28.1015H89.8262V17.6553C89.8262 16.2239 90.2223 15.0667 91.0145 14.1531C91.8069 13.2089 92.843 12.7521 94.0619 12.7521C95.2808 12.7521 96.2865 13.2089 97.0788 14.1531C97.8712 15.0667 98.2673 16.2239 98.2673 17.6553V28.1015H102.046V17.6553C102.046 16.2239 102.442 15.0667 103.234 14.1531C104.027 13.2089 105.063 12.7521 106.282 12.7521C107.501 12.7521 108.506 13.2089 109.299 14.1531C110.121 15.0667 110.518 16.2239 110.518 17.6553V28.1015H114.296V17.0767C114.296 14.823 113.626 12.9348 112.255 11.473ZM116.249 9.61649H120.028V28.0418H116.249V9.61649ZM131.913 9.28023C134.138 9.28023 135.966 10.0112 137.399 11.473C138.831 12.9348 139.562 14.823 139.562 17.0767V28.1015H135.784V17.6553C135.784 16.2239 135.327 15.0667 134.382 14.1531C133.437 13.2089 132.279 12.7521 130.847 12.7521C129.415 12.7521 128.257 13.2089 127.282 14.1531C126.337 15.0667 125.88 16.2239 125.88 17.6553V28.1015H122.101V9.6457H125.88V12.2648C127.342 10.2853 129.354 9.28023 131.913 9.28023ZM145.008 6.93522C144.552 7.39205 144.033 7.60523 143.363 7.60523C142.723 7.60523 142.175 7.39205 141.687 6.93522C141.23 6.4784 141.017 5.96066 141.017 5.29065C141.017 4.6511 141.23 4.07245 141.687 3.64609C142.175 3.18926 142.693 2.97607 143.363 2.97607C144.003 2.97607 144.552 3.18926 145.008 3.64609C145.435 4.10291 145.678 4.62064 145.678 5.29065C145.678 5.93021 145.466 6.4784 145.008 6.93522ZM145.224 9.61442H141.445V28.0398H145.224V9.61442ZM162.658 11.444C161.227 9.98217 159.399 9.25126 157.174 9.25126C154.613 9.25126 152.573 10.2563 151.14 12.2359V9.61672H147.361V28.0725H151.14V17.6264C151.14 16.195 151.597 15.0377 152.541 14.1241C153.517 13.18 154.674 12.7231 156.107 12.7231C157.539 12.7231 158.697 13.18 159.642 14.1241C160.586 15.0377 161.044 16.195 161.044 17.6264V28.0725H164.823V17.0478C164.823 14.794 164.091 12.9059 162.658 11.444ZM181.766 9.61672V12.3272C180.18 10.2867 177.956 9.25126 175.244 9.25126C172.684 9.25126 170.521 10.1649 168.753 11.9618C167.016 13.7586 166.163 15.9819 166.163 18.6315C166.163 21.3115 167.016 23.5347 168.753 25.3316C170.49 27.0979 172.654 28.0116 175.244 28.0116C177.987 28.0116 180.15 27.0065 181.766 24.9965V26.0929C181.766 27.8288 181.187 29.2602 180.028 30.4175C178.901 31.5748 177.468 32.1838 175.763 32.1838C174.603 32.1838 173.537 31.8794 172.623 31.2398C171.74 30.6307 171.039 29.8084 170.551 28.7425L167.139 30.4175C167.9 32.0012 169.058 33.2803 170.551 34.2244C172.105 35.1684 173.842 35.6253 175.763 35.6253C178.535 35.6253 180.85 34.7117 182.71 32.8843C184.599 31.057 185.513 28.7729 185.513 26.0624V9.58627H181.766V9.61672ZM180.089 22.8646C178.961 23.9914 177.621 24.5397 175.914 24.5397C174.268 24.5397 172.867 23.9611 171.74 22.8646C170.612 21.7378 170.063 20.3369 170.063 18.6315C170.063 16.9259 170.642 15.5555 171.74 14.4287C172.867 13.3018 174.238 12.7536 175.914 12.7536C177.591 12.7536 178.992 13.3322 180.089 14.4287C181.217 15.5555 181.766 16.9259 181.766 18.6315C181.766 20.3369 181.217 21.7683 180.089 22.8646ZM60.1063 12.3272V9.61672V9.58627H63.8546V26.0624C63.8546 28.7729 62.9403 31.057 61.0509 32.8843C59.1921 34.7117 56.8761 35.6253 54.103 35.6253C52.1832 35.6253 50.4462 35.1684 48.8921 34.2244C47.3989 33.2803 46.2408 32.0012 45.479 30.4175L48.8921 28.7425C49.3796 29.8084 50.0805 30.6307 50.9643 31.2398C51.8784 31.8794 52.945 32.1838 54.103 32.1838C55.8096 32.1838 57.2418 31.5748 58.3693 30.4175C59.5273 29.2602 60.1063 27.8288 60.1063 26.0929V24.9965C58.4912 27.0065 56.3277 28.0116 53.585 28.0116C50.9948 28.0116 48.8311 27.0979 47.0941 25.3316C45.3572 23.5347 44.5039 21.3115 44.5039 18.6315C44.5039 15.9819 45.3572 13.7586 47.0941 11.9618C48.8616 10.1649 51.0252 9.25126 53.585 9.25126C56.2971 9.25126 58.5217 10.2867 60.1063 12.3272ZM54.2555 24.5397C55.9619 24.5397 57.3027 23.9914 58.4302 22.8646C59.5578 21.7683 60.1063 20.3369 60.1063 18.6315C60.1063 16.9259 59.5578 15.5555 58.4302 14.4287C57.3332 13.3322 55.9314 12.7536 54.2555 12.7536C52.5794 12.7536 51.2081 13.3018 50.0805 14.4287C48.9835 15.5555 48.4046 16.9259 48.4046 18.6315C48.4046 20.3369 48.953 21.7378 50.0805 22.8646C51.2081 23.9611 52.6098 24.5397 54.2555 24.5397Z" fill="white"/>
<path d="M19.0742 0C29.6066 0 38.1453 8.53803 38.1455 19.0703C38.1455 29.6028 29.6067 38.1416 19.0742 38.1416C8.54177 38.1415 0.00390625 29.6028 0.00390625 19.0703C0.00415777 8.53807 8.54193 6.50959e-05 19.0742 0ZM19.374 5.72168C17.4092 5.72168 15.4193 6.13341 13.5029 7.03125C10.2041 8.56001 7.70598 11.2786 6.49316 14.6758C5.30471 18.0243 5.49845 21.6154 7.05078 24.8184C10.277 31.4673 18.4278 34.2825 25.2197 31.1279C26.9419 30.3271 28.4701 29.1866 29.7314 27.7793C30.9684 26.3719 31.8659 24.7459 32.4238 22.9746L29.5615 19.0918L32.3516 15.2822H28.4219L25.6318 19.043L28.5186 22.9014L28.4941 22.9502C26.3109 27.8517 20.4166 30.1087 15.3955 27.9492C12.9456 26.8816 11.0535 24.94 10.1074 22.4893C9.18569 20.087 9.2344 17.4905 10.2773 15.1367C12.4605 10.2351 18.3304 7.97807 23.376 10.1377C24.9526 10.8171 26.3112 11.8607 27.3301 13.1953H31.6475C29.2946 8.48786 24.4436 5.72182 19.374 5.72168ZM22.0918 15.2559L19.2539 19.041L22.0918 22.8027H25.9971L23.2568 19.041L25.9971 15.2559H22.0918Z" fill="white"/>
</g>
<defs>
<clipPath id="clip0_425_4480">
<rect width="186.621" height="38.1416" fill="white"/>
</clipPath>
</defs>
</svg>
