<svg width="190" height="39" viewBox="0 0 190 39" fill="none" xmlns="http://www.w3.org/2000/svg">
<g clip-path="url(#clip0_425_4429)">
<mask id="mask0_425_4429" style="mask-type:luminance" maskUnits="userSpaceOnUse" x="0" y="-1" width="190" height="40">
<path d="M189.121 -0.000488281H0V38.146H189.121V-0.000488281Z" fill="white"/>
</mask>
<g mask="url(#mask0_425_4429)">
<path d="M4.64062 24.915V35.5879C4.64062 36.245 5.19668 36.5177 5.36967 36.5796C5.54264 36.654 6.12344 36.8152 6.64239 36.3317L14.7166 28.5725C15.4041 27.9118 16.0677 27.2173 16.5664 26.4047C16.8011 26.0227 16.8984 25.8075 16.8984 25.8075C17.3928 24.8034 17.3928 23.8365 16.9107 22.8696C16.1943 21.4317 14.3653 19.9689 11.6097 18.5806L6.90189 21.2085C5.50563 22.0019 4.64062 23.4027 4.64062 24.915Z" fill="white"/>
<path d="M0 1.17617V12.3698C0 13.7706 0.939118 15.0102 2.27365 15.4069C6.82086 16.7208 14.7415 19.5471 16.6568 23.6998C16.9037 24.2453 17.0521 24.7783 17.1018 25.3361C18.3745 23.0181 18.9551 20.3529 18.6833 17.6505C18.3125 13.8201 16.2859 10.3368 13.1228 8.11794L1.84116 0.221667C1.64343 0.0729138 1.40866 -0.00146484 1.17389 -0.00146484C0.976163 -0.00146484 0.803171 0.0357246 0.617833 0.134894C0.247117 0.345626 0 0.729915 0 1.17617Z" fill="white"/>
<path d="M34.673 24.915V35.5879C34.673 36.245 34.1172 36.5177 33.9439 36.5796C33.7712 36.654 33.19 36.8152 32.6713 36.3317L24.4092 28.3921C23.8468 27.8515 23.3097 27.2798 22.8861 26.6247C22.5506 26.1063 22.4153 25.8075 22.4153 25.8075C21.921 24.8034 21.921 23.8365 22.4026 22.8696C23.1195 21.4317 24.9484 19.9689 27.7036 18.5806L32.4117 21.2085C33.8205 22.0019 34.673 23.4027 34.673 24.915Z" fill="white"/>
<path d="M39.3233 1.17519V12.3688C39.3233 13.7696 38.384 15.0092 37.0493 15.4058C32.5023 16.7198 24.5818 19.5462 22.6665 23.6988C22.4191 24.2443 22.2707 24.7773 22.2215 25.3351C20.9488 23.0171 20.3681 20.3519 20.6399 17.6495C21.0103 13.8191 23.0369 10.3359 26.2005 8.117L37.4821 0.220686C37.6798 0.0719329 37.9145 -0.00244141 38.1492 -0.00244141C38.3468 -0.00244141 38.5201 0.0347479 38.705 0.133917C39.0759 0.34465 39.3233 0.72893 39.3233 1.17519Z" fill="white"/>
<path d="M58.4648 3.59375H62.784L72.7934 26.7452H73.09L83.0994 3.59375H87.3439V30.2855H84.1928V9.04332H83.8962L74.7212 30.2855H71.0881L61.9125 9.04332H61.616V30.2855H58.4648V3.59375Z" fill="white"/>
<path d="M90.8203 20.8513C90.8203 14.475 94.6946 10.9531 100.441 10.9531C106.168 10.9531 110.061 14.475 110.061 20.8513C110.061 27.2092 106.168 30.731 100.441 30.731C94.6946 30.731 90.8203 27.2092 90.8203 20.8513ZM94.1197 20.8513C94.1197 25.5224 96.6594 28.0618 100.441 28.0618C104.203 28.0618 106.743 25.5224 106.743 20.8513C106.743 16.1617 104.203 13.6408 100.441 13.6408C96.6594 13.6408 94.1197 16.1617 94.1197 20.8513Z" fill="white"/>
<path d="M113.18 11.3979H116.331V13.6593H116.627C117.276 12.3247 118.463 11.3237 121.298 11.3237H123.931V14.1412H121.373C117.832 14.1412 116.442 16.0875 116.442 19.9244V30.286H113.18V11.3979Z" fill="white"/>
<path d="M126.438 37.7005V11.398H129.626V14.0116H129.922C131.331 11.8243 133.629 10.9717 136.299 10.9717C141.21 10.9717 144.973 14.3082 144.973 20.8514C144.973 27.376 141.21 30.7125 136.299 30.7125C133.685 30.7125 131.405 29.8784 129.996 27.7838H129.7V37.7005H126.438ZM129.589 20.8514C129.589 25.4297 132.035 28.0062 135.631 28.0062C139.246 28.0062 141.693 25.4297 141.693 20.8514C141.693 16.2544 139.246 13.6779 135.631 13.6779C132.035 13.6779 129.589 16.2544 129.589 20.8514Z" fill="white"/>
<path d="M148.102 3.59375H151.364V13.7329H151.66C153.013 11.731 155.256 10.9711 157.907 10.9711C162.3 10.9711 165.081 13.1954 165.081 17.8108V30.2855H161.818V18.1259C161.818 15.049 160.131 13.6958 157.184 13.6958C153.959 13.6958 151.364 15.6051 151.364 19.7386V30.2855H148.102V3.59375Z" fill="white"/>
<path d="M168.012 20.8513C168.012 14.475 171.885 10.9531 177.632 10.9531C183.359 10.9531 187.252 14.475 187.252 20.8513C187.252 27.2092 183.359 30.731 177.632 30.731C171.885 30.731 168.012 27.2092 168.012 20.8513ZM171.311 20.8513C171.311 25.5224 173.85 28.0618 177.632 28.0618C181.395 28.0618 183.934 25.5224 183.934 20.8513C183.934 16.1617 181.395 13.6408 177.632 13.6408C173.85 13.6408 171.311 16.1617 171.311 20.8513Z" fill="white"/>
</g>
</g>
<defs>
<clipPath id="clip0_425_4429">
<rect width="189.121" height="38.1465" fill="white"/>
</clipPath>
</defs>
</svg>
