<svg width="190" height="33" viewBox="0 0 190 33" fill="none" xmlns="http://www.w3.org/2000/svg">
<path fill-rule="evenodd" clip-rule="evenodd" d="M46.7811 20.186L43.9443 19.201L38.1525 15.5105L32.3606 9.85003V6.02821L28.5388 2.20641V0.485932H26.5688L22.0115 1.35274L19.1747 6.02821L17.0865 9.85003L13.2647 13.5405V15.5105L10.4279 18.3473L9.44289 17.3623L1.85181 21.0528L0 22.0378V25.8596L2.08821 26.8446L5.77868 24.9928L10.5855 25.7283V29.4188L13.4223 30.4038L17.2441 26.7133H20.0809V28.5651L19.0959 30.4169L20.4487 32.2687L24.8877 30.4169L23.9027 27.8296L24.8877 23.1541H26.7395V24.9928L29.5764 25.9778L30.5614 28.8146L32.5314 30.6664L34.5014 28.8146L40.1619 26.9628L38.3101 25.111L36.34 21.2892H34.37L35.355 24.126L36.34 25.111L34.37 26.8315H32.4L30.43 23.141V21.171L26.6082 17.4805L28.5782 15.6287L24.7564 11.9382L26.6082 10.0864V6.02821L28.5782 4.17641L31.415 7.01322L30.43 9.85003L32.4 11.7018L36.2218 17.3623L40.0437 19.2141L44.8505 24.0209L47.6873 25.0059V26.8577H49.5391L51.5091 25.0059L47.6873 23.1541L46.7811 20.186ZM60.0852 26.8446H65.2597V0L60.0852 2.46907V26.8446ZM79.5357 7.14455C77.4475 7.14455 75.8452 7.88002 74.8602 8.86503V7.63049H69.6857V26.9628H74.9784V16.3773C74.9784 13.0546 76.213 12.0696 78.3012 12.0696C80.3894 12.0696 81.6239 13.1728 81.6239 16.6268V27.0941H86.7985V16.1409C86.7985 10.4673 84.5921 7.14455 79.5357 7.14455ZM99.4853 16.4955C98.9862 17.9665 98.5003 19.8183 98.2508 20.8033C98.0012 19.8183 97.5153 18.0978 97.0162 16.4955L94.1794 7.51229H88.5189L95.6635 26.8446H100.956L107.969 7.51229H102.44L99.4853 16.4955ZM118.2 7.14455C113.026 7.14455 108.849 11.3341 108.849 17.2441C108.849 23.4037 112.908 27.3437 118.699 27.3437C120.788 27.3437 124.242 26.6082 126.33 23.6532L122.39 20.8164C121.405 22.0509 119.921 22.5369 118.818 22.5369C116.729 22.5369 114.628 21.4337 114.26 18.9646H127.184C127.302 18.3473 127.302 18.0978 127.302 17.3623C127.065 11.5705 123.611 7.14455 118.2 7.14455ZM114.142 15.0246C114.51 13.1728 115.994 11.5836 117.964 11.5836C120.433 11.5836 121.654 13.1859 121.904 15.0246H114.142ZM139.253 14.775C137.782 14.4073 134.945 14.1578 134.945 12.805C134.945 12.0696 135.812 11.4523 138.019 11.4523C139.253 11.4523 141.092 12.0696 142.694 12.805L145.281 9.36409C143.311 8.12956 140.475 7.14455 138.019 7.14455C133.58 7.14455 129.889 9.48229 129.889 13.0546C129.889 17.9796 134.446 18.5969 138.268 19.4637C139.253 19.5819 141.341 19.8314 141.341 21.1841C141.341 22.1691 140.107 22.9046 138.268 22.9046C136.049 22.9046 134.21 22.0378 132.358 21.0528L129.771 24.4937C131.859 25.8465 134.945 27.1992 138.019 27.1992C142.208 27.1992 146.398 24.9797 146.398 20.9215C146.398 16.6137 142.825 15.6418 139.253 14.775ZM158.835 12.0696C160.687 12.0696 162.158 13.0546 163.025 14.4073L167.083 11.3341C165.231 8.74683 162.158 7.14455 158.704 7.14455C153.043 7.14455 148.486 11.7018 148.486 17.2441C148.486 22.7864 153.161 27.3437 158.704 27.3437C162.145 27.3437 165.113 25.7414 166.951 23.1541L162.893 20.1991C162.026 21.5519 160.555 22.4187 158.704 22.4187C155.749 22.4187 153.66 20.0809 153.66 17.2441C153.779 14.276 155.88 12.0696 158.835 12.0696ZM178.903 7.14455C173.242 7.14455 168.685 11.7018 168.685 17.2441C168.685 22.7864 173.361 27.2124 178.903 27.2124C184.563 27.2124 189.121 22.7733 189.121 17.2441C189.121 11.5705 184.563 7.14455 178.903 7.14455ZM178.903 22.4055C175.948 22.4055 173.86 20.0678 173.86 17.231C173.86 14.3942 175.948 12.0564 178.903 12.0564C181.858 12.0564 183.946 14.3942 183.946 17.231C183.946 20.0678 181.858 22.2873 178.903 22.4055Z" fill="white"/>
</svg>
