<svg width="169" height="28" viewBox="0 0 169 28" fill="none" xmlns="http://www.w3.org/2000/svg">
<path d="M65.1649 9.45157C67.1362 9.45166 68.768 9.78889 70.0601 10.4633C71.3743 11.1152 72.3595 12.1272 73.0166 13.4984C73.6737 14.8473 74.0027 16.5898 74.0027 18.7253C74.0027 20.8385 73.6737 22.5817 73.0166 23.9531C72.3595 25.3242 71.3734 26.3472 70.0601 27.0216C68.768 27.6735 67.1362 27.9999 65.1649 28C63.2157 28 61.5831 27.6735 60.2689 27.0216C58.9548 26.3472 57.9691 25.3243 57.3119 23.9531C56.6547 22.5817 56.3257 20.8386 56.3257 18.7253C56.3257 16.5898 56.6548 14.8473 57.3119 13.4984C57.9691 12.1273 58.9548 11.1152 60.2689 10.4633C61.5831 9.78889 63.2157 9.45157 65.1649 9.45157ZM107.216 11.9133H107.419C107.781 11.374 108.224 10.9246 108.745 10.5649C109.267 10.183 109.866 9.90133 110.546 9.7216C111.226 9.54179 111.974 9.45157 112.79 9.45157C114.127 9.45157 115.307 9.77804 116.326 10.4299C117.368 11.0819 118.184 12.0939 118.773 13.4651C119.362 14.8139 119.657 16.5564 119.657 18.692C119.657 20.85 119.362 22.6151 118.773 23.9865C118.207 25.3576 117.391 26.3696 116.326 27.0216C115.284 27.6735 114.025 27.9999 112.552 28C111.397 28 110.343 27.7745 109.39 27.3249C108.439 26.8529 107.668 26.1563 107.079 25.2348H106.841L106.501 27.595H103.068V3.21291H107.216V11.9133ZM129.606 9.45157C131.237 9.45157 132.575 9.67619 133.617 10.1258C134.683 10.5753 135.476 11.2165 135.997 12.0483C136.518 12.8801 136.778 13.8921 136.778 15.0835V23.4473C136.778 23.8741 136.904 24.1775 137.152 24.3573C137.402 24.5371 137.674 24.6273 137.969 24.6273H139.057V27.46C138.83 27.5499 138.501 27.651 138.07 27.7633C137.64 27.8981 137.107 27.9658 136.473 27.9658C135.884 27.9658 135.35 27.8647 134.875 27.6625C134.422 27.4826 134.036 27.2129 133.719 26.8533C133.402 26.4936 133.175 26.0662 133.039 25.5715H132.835C132.45 26.0436 131.985 26.4711 131.441 26.8533C130.921 27.2129 130.296 27.4935 129.571 27.6958C128.869 27.8981 128.053 28 127.125 28C126.626 28 126.048 27.9324 125.391 27.7975C124.756 27.6851 124.133 27.4605 123.521 27.1233C122.932 26.786 122.445 26.291 122.059 25.6391C121.674 24.9646 121.481 24.0879 121.481 23.0089C121.481 21.795 121.754 20.7939 122.297 20.007C122.842 19.198 123.601 18.5682 124.575 18.1186C125.572 17.6467 126.751 17.3201 128.11 17.1403C129.492 16.938 130.999 16.8369 132.631 16.8369V15.3869C132.631 14.8699 132.552 14.4088 132.394 14.0043C132.235 13.5998 131.94 13.2849 131.51 13.0601C131.102 12.8128 130.478 12.6892 129.639 12.6892C128.801 12.6892 128.144 12.7903 127.668 12.9925C127.193 13.1947 126.864 13.4423 126.683 13.7343C126.501 14.0264 126.41 14.3305 126.41 14.6451V15.1169H122.399C122.377 15.0047 122.364 14.8923 122.364 14.7802V14.3751C122.365 13.3637 122.671 12.4868 123.283 11.745C123.895 11.0033 124.745 10.4412 125.832 10.0591C126.92 9.65449 128.179 9.45157 129.606 9.45157ZM169 27.595H165.567L165.228 25.2348H164.989C164.422 26.1562 163.652 26.8529 162.678 27.3249C161.726 27.7745 160.672 27.9999 159.516 28C158.066 28 156.809 27.6735 155.743 27.0216C154.679 26.3696 153.851 25.3579 153.261 23.9865C152.694 22.6151 152.412 20.8501 152.412 18.692C152.412 16.5564 152.707 14.8139 153.296 13.4651C153.885 12.0938 154.701 11.0819 155.743 10.4299C156.786 9.77821 157.964 9.45157 159.278 9.45157C160.094 9.45157 160.842 9.5417 161.522 9.7216C162.202 9.90141 162.803 10.1828 163.324 10.5649C163.846 10.9246 164.287 11.374 164.65 11.9133H164.854V3.21291H169V27.595ZM43.7484 23.7839H55.442V27.595H39.3288V4.46049H43.7484V23.7839ZM95.6226 9.45157C96.6881 9.45157 97.6283 9.64276 98.4442 10.0249C99.2601 10.4071 99.9057 11.0368 100.382 11.9133C100.857 12.79 101.096 13.9598 101.096 15.421V27.595H96.9483V16.2635C96.9483 15.6568 96.8813 15.1505 96.7454 14.7459C96.6087 14.3191 96.4165 13.9932 96.1668 13.7685C95.9402 13.5212 95.6456 13.3408 95.2831 13.2284C94.9435 13.116 94.5686 13.0601 94.1611 13.0601C93.504 13.0601 92.9149 13.2406 92.3936 13.6001C91.8723 13.9597 91.4534 14.4543 91.1358 15.0835C90.8412 15.7129 90.6939 16.4436 90.6939 17.2753V27.595H86.5467V16.2635C86.5467 15.6568 86.4788 15.1505 86.343 14.7459C86.2063 14.3191 86.014 13.9932 85.7644 13.7685C85.5377 13.5212 85.2431 13.3408 84.8806 13.2284C84.541 13.116 84.1662 13.0601 83.7587 13.0601C83.1016 13.0602 82.5009 13.2406 81.9576 13.6001C81.4363 13.9597 81.0165 14.4541 80.699 15.0835C80.4044 15.7128 80.2571 16.4437 80.2571 17.2753V27.595H76.1098V9.85652H79.5779L79.9175 12.2167H80.1556C80.5411 11.6774 80.983 11.2052 81.4813 10.8008C81.9796 10.3738 82.5459 10.0472 83.181 9.8224C83.8381 9.57521 84.5525 9.45157 85.3225 9.45157C86.365 9.45157 87.2947 9.66534 88.1096 10.0924C88.9255 10.5195 89.5605 11.2277 90.0139 12.2167H90.2512C90.6366 11.6773 91.09 11.2053 91.6112 10.8008C92.1325 10.3737 92.734 10.0472 93.4132 9.8224C94.0932 9.57521 94.8297 9.45157 95.6226 9.45157ZM149.368 9.45157C149.731 9.45157 150.06 9.48579 150.354 9.55325C150.671 9.62054 150.909 9.68756 151.067 9.75485V13.6335H149.81C149.107 13.6335 148.483 13.7345 147.939 13.9367C147.396 14.1166 146.931 14.4091 146.546 14.8135C146.183 15.218 145.912 15.7243 145.731 16.3311C145.549 16.938 145.458 17.6469 145.458 18.4562V27.595H141.311V9.85652H144.779L145.119 12.655H145.357C145.583 12.0933 145.855 11.5761 146.173 11.1041C146.512 10.6097 146.943 10.2162 147.464 9.92408C147.985 9.60951 148.62 9.45157 149.368 9.45157ZM13.8805 22.721H22.9031V13.7701H14.9848V8.95081H27.761V27.5403H9.02256V4.81933H4.85796V8.95081H8.07589V13.7701H0V0H13.8805V22.721ZM65.1649 12.8242C64.0774 12.8242 63.1928 13.0381 62.5127 13.4651C61.8556 13.8697 61.3679 14.4995 61.0512 15.3535C60.7566 16.1852 60.6093 17.2308 60.6093 18.4895V18.962C60.6093 20.2209 60.7566 21.278 61.0512 22.1322C61.3679 22.9639 61.8556 23.5935 62.5127 24.0206C63.1928 24.4253 64.0774 24.6273 65.1649 24.6273C66.2525 24.6272 67.1248 24.425 67.7819 24.0206C68.461 23.5935 68.9497 22.9638 69.2443 22.1322C69.5609 21.278 69.7197 20.2207 69.7197 18.962V18.4895C69.7197 17.2309 69.5609 16.1852 69.2443 15.3535C68.9497 14.4993 68.461 13.8697 67.7819 13.4651C67.1248 13.0381 66.2525 12.8244 65.1649 12.8242ZM132.631 19.6696C131.385 19.6696 130.229 19.7489 129.164 19.9062C128.122 20.0636 127.283 20.3559 126.648 20.783C126.036 21.2101 125.731 21.8172 125.731 22.6039C125.731 23.0085 125.821 23.3684 126.002 23.6831C126.206 23.9753 126.502 24.2116 126.886 24.3915C127.295 24.5486 127.793 24.6273 128.382 24.6273C129.062 24.6273 129.663 24.5263 130.184 24.324C130.728 24.1217 131.17 23.8402 131.51 23.4806C131.872 23.121 132.144 22.6825 132.325 22.1655C132.529 21.6486 132.631 21.0864 132.631 20.4796V19.6696ZM111.261 12.9925C110.558 12.9925 109.946 13.1163 109.424 13.3634C108.927 13.6106 108.507 13.9709 108.168 14.4427C107.85 14.9147 107.612 15.5001 107.453 16.1969C107.294 16.8936 107.216 17.6805 107.216 18.557V18.9954C107.216 20.1643 107.351 21.1537 107.623 21.963C107.918 22.7723 108.36 23.3909 108.948 23.8181C109.56 24.2452 110.331 24.459 111.261 24.459C112.28 24.459 113.085 24.2677 113.674 23.8857C114.285 23.481 114.716 22.8738 114.966 22.0647C115.238 21.2554 115.374 20.2318 115.374 18.9954V18.5237C115.374 17.2649 115.238 16.2303 114.966 15.421C114.716 14.5893 114.285 13.9823 113.674 13.6001C113.085 13.1954 112.28 12.9926 111.261 12.9925ZM160.808 12.9925C159.788 12.9925 158.972 13.1956 158.36 13.6001C157.771 13.9822 157.341 14.5896 157.069 15.421C156.819 16.2303 156.695 17.2648 156.695 18.5237V18.9954C156.695 20.2318 156.819 21.2553 157.069 22.0647C157.341 22.8738 157.771 23.481 158.36 23.8857C158.972 24.2678 159.788 24.459 160.808 24.459C161.76 24.459 162.53 24.2452 163.12 23.8181C163.709 23.3909 164.139 22.7721 164.411 21.963C164.705 21.1537 164.854 20.1642 164.854 18.9954V18.557C164.854 17.6805 164.774 16.8936 164.616 16.1969C164.457 15.5 164.207 14.9147 163.868 14.4427C163.55 13.9707 163.131 13.6107 162.61 13.3634C162.111 13.1162 161.511 12.9926 160.808 12.9925Z" fill="#3B3B3B"/>
</svg>
