<svg width="169" height="29" viewBox="0 0 169 29" fill="none" xmlns="http://www.w3.org/2000/svg">
<path fill-rule="evenodd" clip-rule="evenodd" d="M41.804 18.1412L39.269 17.256L34.0934 13.9394L28.9178 8.85226V5.41758L25.5026 1.9829V0.436709H23.7422L19.6697 1.21571L17.1347 5.41758L15.2687 8.85226L11.8535 12.1689V13.9394L9.31847 16.4888L8.43826 15.6036L1.65479 18.9202L0 19.8055V23.2401L1.86604 24.1253L5.16389 22.4611L9.45931 23.1221V26.4387L11.9943 27.324L15.4095 24.0073H17.9445V25.6715L17.0643 27.3358L18.2731 29L22.2399 27.3358L21.3597 25.0106L22.2399 20.8087H23.8947V22.4611L26.4297 23.3464L27.3099 25.8958L29.0703 27.56L30.8308 25.8958L35.889 24.2316L34.2342 22.5674L32.4738 19.1327H30.7134L31.5936 21.6821L32.4738 22.5674L30.7134 24.1136H28.953L27.1926 20.7969V19.0265L23.7774 15.7098L25.5378 14.0456L22.1226 10.7289L23.7774 9.06471V5.41758L25.5378 3.75336L28.0728 6.3028L27.1926 8.85226L28.953 10.5165L32.3682 15.6036L35.7834 17.2678L40.0788 21.5877L42.6138 22.4729V24.1372H44.2686L46.029 22.4729L42.6138 20.8087L41.804 18.1412ZM53.6927 24.1253H58.3167V0L53.6927 2.21896V24.1253ZM71.0739 6.42083C69.2078 6.42083 67.776 7.08181 66.8958 7.96703V6.85755H62.2718V24.2316H67.0015V14.7184C67.0015 11.7322 68.1047 10.847 69.9707 10.847C71.8367 10.847 72.9399 11.8384 72.9399 14.9426V24.3496H77.564V14.5059C77.564 9.40699 75.5923 6.42083 71.0739 6.42083ZM88.901 14.8246C88.4551 16.1465 88.0208 17.8107 87.7978 18.696C87.5749 17.8107 87.1406 16.2645 86.6947 14.8246L84.1597 6.75132H79.1014L85.4858 24.1253H90.2155L96.4826 6.75132H91.5417L88.901 14.8246ZM105.625 6.42083C101.001 6.42083 97.2689 10.186 97.2689 15.4974C97.2689 21.033 100.895 24.5739 106.071 24.5739C107.937 24.5739 111.024 23.9129 112.89 21.2572L109.369 18.7078C108.489 19.8173 107.162 20.254 106.177 20.254C104.311 20.254 102.433 19.2625 102.104 17.0435H113.653C113.758 16.4888 113.758 16.2646 113.758 15.6036C113.547 10.3985 110.46 6.42083 105.625 6.42083ZM101.999 13.5026C102.327 11.8384 103.653 10.4103 105.414 10.4103C107.62 10.4103 108.712 11.8502 108.935 13.5026H101.999ZM124.438 13.2784C123.124 12.9479 120.589 12.7236 120.589 11.5079C120.589 10.847 121.363 10.2922 123.335 10.2922C124.438 10.2922 126.081 10.847 127.513 11.5079L129.825 8.41555C128.064 7.30606 125.529 6.42083 123.335 6.42083C119.368 6.42083 116.07 8.52177 116.07 11.7322C116.07 16.1583 120.143 16.7131 123.558 17.4921C124.438 17.5983 126.304 17.8225 126.304 19.0383C126.304 19.9235 125.201 20.5844 123.558 20.5844C121.574 20.5844 119.931 19.8055 118.277 18.9202L115.965 22.0126C117.831 23.2283 120.589 24.444 123.335 24.444C127.079 24.444 130.822 22.4493 130.822 18.8022C130.822 14.9308 127.63 14.0574 124.438 13.2784ZM141.937 10.847C143.591 10.847 144.906 11.7322 145.68 12.9479L149.307 10.186C147.652 7.8608 144.906 6.42083 141.819 6.42083C136.761 6.42083 132.688 10.5165 132.688 15.4974C132.688 20.4782 136.867 24.5739 141.819 24.5739C144.894 24.5739 147.546 23.1339 149.189 20.8087L145.563 18.153C144.788 19.3687 143.474 20.1477 141.819 20.1477C139.179 20.1477 137.312 18.0468 137.312 15.4974C137.418 12.8299 139.296 10.847 141.937 10.847ZM159.869 6.42083C154.811 6.42083 150.739 10.5165 150.739 15.4974C150.739 20.4782 154.917 24.4558 159.869 24.4558C164.928 24.4558 169 20.4664 169 15.4974C169 10.3985 164.928 6.42083 159.869 6.42083ZM159.869 20.1359C157.229 20.1359 155.363 18.035 155.363 15.4856C155.363 12.9361 157.229 10.8352 159.869 10.8352C162.51 10.8352 164.376 12.9361 164.376 15.4856C164.376 18.035 162.51 20.0297 159.869 20.1359Z" fill="#3B3B3B"/>
</svg>
