<svg width="171" height="52" viewBox="0 0 171 52" fill="none" xmlns="http://www.w3.org/2000/svg">
<path d="M68.4035 14.4072C71.5287 14.4072 73.9858 15.2947 75.7468 17.028C77.1111 18.3731 77.9742 20.0718 78.3222 22.1102C78.4406 22.9214 78.5171 23.8851 78.5589 25.0014V31.0472C78.5171 32.2051 78.4406 33.2035 78.3222 34.0147C77.9742 36.1294 77.1111 37.8627 75.7468 39.2147C73.9928 40.948 71.5287 41.8355 68.4035 41.8355H58.3663V22.0062H63.2178V37.0099H67.8188C69.7886 37.0099 71.3269 36.4344 72.3779 35.3251C73.255 34.3683 73.6935 31.9555 73.6935 28.0104C73.6935 24.0654 73.255 21.8814 72.3779 20.9246C71.3269 19.8152 69.7956 19.2398 67.8188 19.2398H58.3594V14.4142H68.3965L68.4035 14.4072Z" fill="#3B3B3B"/>
<path d="M87.9829 19.4407V14.4141H82.9922V19.4407H87.9829ZM87.9829 41.8285V21.9575H82.9922V41.8285H87.9829Z" fill="#3B3B3B"/>
<path d="M119.346 19.4407V14.4141H114.355V19.4407H119.346ZM119.346 41.8285V21.9575H114.355V41.8285H119.346Z" fill="#3B3B3B"/>
<path d="M109.907 22.0957H105.069V23.6765C105.069 23.6765 103.587 22.0957 100.44 22.0957C97.2943 22.0957 95.5611 22.6642 94.4056 23.836C93.5425 24.7096 92.9857 25.805 92.7212 27.1293C92.5332 28.1138 92.4219 30.0205 92.4219 32.0312C92.4219 34.0418 92.5332 35.9 92.7212 36.8845C92.9787 38.2504 93.5425 39.3458 94.4056 40.2194C95.568 41.3912 97.3012 41.9597 100.406 41.9597C103.51 41.9597 105.041 40.4968 105.041 40.4968V41.2594C105.041 42.3965 104.742 43.3394 104.178 44.0605C103.468 44.9341 101.784 45.3501 100.44 45.3501C99.097 45.3501 97.5031 44.8578 96.4938 43.8386L93.466 46.9448C95.22 48.6504 97.7119 49.517 100.663 49.517C103.614 49.517 106.009 48.7613 107.582 47.2082C109.113 45.6968 109.9 43.7208 109.9 41.3357V22.0957H109.907ZM104.645 27.6146C105.062 28.3704 105.292 30.5544 105.292 32.1421C105.292 33.7298 105.062 35.4493 104.645 36.205C104.039 37.2658 102.925 37.7997 101.304 37.7997C99.6817 37.7997 98.6098 37.2728 98.0112 36.205C97.5936 35.4493 97.3639 33.7714 97.3639 32.1421C97.3639 30.5128 97.5936 28.3357 98.0112 27.6146C98.6168 26.5538 99.6817 26.02 101.304 26.02C102.925 26.02 104.039 26.5469 104.645 27.6146Z" fill="#3B3B3B"/>
<path d="M141.267 19.4407V14.4141H135.441C129.003 14.4141 123.789 19.6141 123.789 26.0205V41.8285H128.968V30.4023H141.267V25.7154H128.968C128.968 22.2487 131.787 19.4407 135.267 19.4407H141.267Z" fill="#3B3B3B"/>
<path d="M162.823 19.4408V14.4072H143.473V19.4408H150.517V41.8286H155.779V19.4408H162.823Z" fill="#3B3B3B"/>
<path d="M30.4079 19.8854C34.3058 16.079 36.909 13.5483 38.1689 12.3281C38.322 12.1825 38.5587 12.1547 38.7397 12.2587C47.0367 17.2369 50.5309 27.3734 47.1271 36.3867C47.0088 36.7126 46.5912 36.8027 46.3476 36.5531L30.4079 20.551C30.2199 20.3638 30.2269 20.0657 30.4079 19.8785V19.8854Z" fill="#3B3B3B"/>
<path fill-rule="evenodd" clip-rule="evenodd" d="M28.2986 49.5117C25.8903 49.5117 23.5376 49.0818 21.2824 48.229C20.9622 48.1112 20.8717 47.6952 21.1153 47.4525L37.0968 31.492C37.2847 31.3048 37.591 31.3048 37.772 31.492C41.5724 35.3954 44.1061 38.0024 45.3172 39.2642C45.4634 39.4168 45.4912 39.6525 45.3798 39.8328C41.7882 45.8162 35.287 49.5117 28.2847 49.5117H28.2986Z" fill="#3B3B3B"/>
<path fill-rule="evenodd" clip-rule="evenodd" d="M17.8523 46.502C9.56227 41.517 6.06807 31.3874 9.46482 22.374C9.58315 22.0482 10.0008 21.958 10.2444 22.2076L26.1841 38.2098C26.372 38.397 26.3651 38.6951 26.1841 38.8823C22.2862 42.6887 19.6829 45.2194 18.4231 46.4396C18.2699 46.5852 18.0333 46.613 17.8523 46.509V46.502Z" fill="#3B3B3B"/>
<path fill-rule="evenodd" clip-rule="evenodd" d="M18.609 26.8535C17.3491 25.6402 14.7459 23.1026 10.848 19.2962C10.66 19.1159 10.66 18.8108 10.848 18.6236L26.7877 2.62845C27.0313 2.38578 27.4489 2.46898 27.5672 2.79485C28.4164 5.04818 28.848 7.40551 28.848 9.83218C28.848 16.8348 25.1589 23.3383 19.1798 26.9228C18.9988 27.0338 18.7621 27.006 18.609 26.8535Z" fill="#3B3B3B"/>
<path fill-rule="evenodd" clip-rule="evenodd" d="M21.6006 29.1827L28.1505 22.6238C28.3384 22.4366 28.6377 22.4366 28.8187 22.6238L35.3686 29.1827C35.5495 29.3699 35.5495 29.6681 35.3686 29.8483L28.8187 36.4073C28.6307 36.5945 28.3314 36.5945 28.1505 36.4073L21.6006 29.8483C21.4196 29.6611 21.4196 29.363 21.6006 29.1827Z" fill="#3B3B3B"/>
</svg>
