<svg width="169" height="31" viewBox="0 0 169 31" fill="none" xmlns="http://www.w3.org/2000/svg">
<g clip-path="url(#clip0_472_744)">
<path d="M105.819 8.87402C106.977 8.87402 107.591 9.39187 107.591 10.4511C107.591 10.9689 107.497 11.3926 107.166 11.6045C106.859 11.9105 106.433 12.0282 105.795 12.0282C104.638 12.0282 104.023 11.5103 104.023 10.4511C104.047 9.39187 104.661 8.87402 105.819 8.87402Z" fill="#3B3B3B"/>
<path d="M130.439 13.3701C131.904 13.3701 132.944 13.888 133.794 15.0413C134.621 16.1947 135.047 17.6541 135.047 19.6313C135.047 20.8788 134.834 22.0322 134.527 22.9738C134.102 23.9153 133.582 24.645 132.944 25.1628C132.211 25.6807 131.361 25.8925 130.439 25.8925C128.975 25.8925 127.935 25.3747 127.084 24.3154H126.872C126.966 25.3511 127.084 25.8925 127.084 26.0808V30.9768H123.848V13.5584H126.565L126.99 15.1355H127.084C127.817 13.888 128.975 13.3701 130.439 13.3701ZM129.4 15.9593C128.573 15.9593 128.03 16.1712 127.628 16.689C127.203 17.2069 127.108 18.0542 126.99 19.1841V19.4901C126.99 20.7376 127.203 21.6792 127.628 22.3147C128.053 22.8325 128.667 23.1385 129.4 23.1385C130.865 23.1385 131.597 21.891 131.597 19.4901C131.597 18.3367 131.384 17.3952 131.077 16.7832C130.747 16.2889 130.227 15.9593 129.4 15.9593Z" fill="#3B3B3B"/>
<path d="M142.915 13.3701C144.073 13.3701 145.112 13.582 145.963 14.0998C146.79 14.6176 147.546 15.3473 147.948 16.2889C148.467 17.2304 148.68 18.3838 148.68 19.6313C148.68 21.6085 148.16 23.0679 147.097 24.2213C146.058 25.3747 144.593 25.8925 142.797 25.8925C141.639 25.8925 140.6 25.6807 139.749 25.1628C138.922 24.645 138.166 23.9153 137.646 22.9738C137.127 22.0322 136.914 20.8788 136.914 19.6313C136.914 17.6541 137.434 16.1947 138.497 15.0413C139.655 13.888 141.025 13.3701 142.915 13.3701ZM142.915 15.9593C142.088 15.9593 141.45 16.2653 141.025 16.9009C140.6 17.5364 140.387 18.3602 140.387 19.6078C140.387 20.7612 140.6 21.7027 141.025 22.3147C141.45 22.9502 142.065 23.2562 142.915 23.2562C143.742 23.2562 144.38 22.9502 144.805 22.3147C145.231 21.6792 145.443 20.8553 145.443 19.6078C145.443 18.4544 145.231 17.5129 144.805 16.9009C144.38 16.2889 143.742 15.9593 142.915 15.9593Z" fill="#3B3B3B"/>
<path d="M76.5969 13.252C78.1799 13.252 79.4321 13.558 80.3771 14.2876C81.204 15.0173 81.6293 16.053 81.6293 17.5124V25.539H79.3139L78.676 23.8913H78.5815C78.0617 24.621 77.4238 25.0447 76.904 25.3507C76.2661 25.6567 75.5337 25.7744 74.5886 25.7744C73.4309 25.7744 72.4859 25.4684 71.8716 24.8328C71.2573 24.1973 70.832 23.2558 70.832 22.0082C70.832 20.7607 71.2573 19.8192 72.2024 19.1836C73.1474 18.5481 74.3996 18.2421 76.2897 18.1479L78.3925 18.0538V17.5359C78.3925 16.2884 77.7546 15.6529 76.5024 15.6529C75.5573 15.6529 74.3996 15.9589 73.0529 16.4767L71.9897 14.3112C73.3364 13.6756 74.9194 13.252 76.5969 13.252ZM78.3689 20.031H77.1167C76.1716 20.031 75.4392 20.2428 75.0139 20.5488C74.5886 20.8548 74.2815 21.3727 74.2815 22.0082C74.2815 22.9498 74.8013 23.3734 75.8645 23.3734C76.5969 23.3734 77.2348 23.1616 77.6364 22.7379C78.0617 22.3142 78.3689 21.7022 78.3689 20.9725V20.031Z" fill="#3B3B3B"/>
<path d="M113.262 13.5576L115.554 17.4414L117.964 13.5576H121.744L117.751 19.4187L121.957 25.5622H118.177L115.554 21.49L113.05 25.5622H109.27L113.475 19.4187L109.482 13.5576H113.262Z" fill="#3B3B3B"/>
<path d="M107.381 13.5576H104.145V25.5622H107.381V13.5576Z" fill="#3B3B3B"/>
<path d="M158.106 13.3701C158.532 13.3701 158.933 13.3701 159.264 13.4643L159.052 16.5007C158.744 16.4066 158.414 16.4066 158.106 16.4066C157.067 16.4066 156.216 16.7126 155.697 17.2304C155.059 17.7483 154.87 18.4779 154.87 19.5372V25.7042H151.633V13.5584H154.137L154.657 15.5356H154.87C155.295 14.9001 155.697 14.2881 156.334 13.8644C156.642 13.5584 157.374 13.3701 158.106 13.3701Z" fill="#3B3B3B"/>
<path d="M101.003 13.3701C101.428 13.3701 101.83 13.3701 102.16 13.4643L101.948 16.5007C101.641 16.4066 101.31 16.4066 101.003 16.4066C99.9631 16.4066 99.1126 16.7126 98.5928 17.2304C97.9549 17.7483 97.7659 18.4779 97.7659 19.5372V25.7042H94.3164V13.5584H96.8208L97.3406 15.5356H97.4351C97.8604 14.9001 98.262 14.2881 98.8999 13.8644C99.6324 13.5584 100.27 13.3701 101.003 13.3701Z" fill="#3B3B3B"/>
<path d="M64.3356 13.3701C65.706 13.3701 66.7455 13.6761 67.478 14.4058C68.2104 15.1355 68.5175 16.1712 68.5175 17.7482V25.5865H65.1626V18.5721C65.1626 17.7482 65.0681 16.995 64.7373 16.5949C64.4302 16.1712 64.0285 15.9593 63.3906 15.9593C62.5637 15.9593 62.0203 16.2653 61.6186 16.7832C61.1933 17.4423 60.9807 18.2661 60.9807 19.5136V25.563H57.6257V18.5721C57.6257 17.7482 57.5312 16.995 57.2005 16.5949C56.8933 16.1712 56.468 15.9593 55.8538 15.9593C55.0268 15.9593 54.3889 16.2653 53.9636 16.9009C53.5384 17.5364 53.4439 18.5721 53.4439 19.9373V25.563H50.207V13.5584H52.7114L53.1367 15.1355H53.3493C53.6565 14.6176 54.1763 14.194 54.7197 13.888C55.3576 13.582 56.09 13.3701 56.8224 13.3701C58.5708 13.3701 59.823 13.9821 60.4609 15.1355H60.7681C61.0752 14.6176 61.595 14.0998 62.2329 13.888C62.8708 13.4643 63.4851 13.3701 64.3356 13.3701Z" fill="#3B3B3B"/>
<path d="M165.433 10.9688V13.5815H168.788V16.0766H165.433V21.9141C165.433 22.3378 165.528 22.7379 165.859 22.9498C166.166 23.1616 166.496 23.2558 166.898 23.2558C167.536 23.2558 168.15 23.1616 169.001 22.8321V25.233C168.174 25.6567 167.229 25.7508 165.953 25.7508C164.583 25.7508 163.638 25.4448 163.118 24.7151C162.48 24.0796 162.173 23.0439 162.173 21.6787V15.8647H160.59V14.6172L162.362 13.5815L163.307 11.0864H165.41V10.9688H165.433Z" fill="#3B3B3B"/>
<path d="M88.4333 10.9688V13.5815H91.7882V16.0766H88.4333V21.9141C88.4333 22.3378 88.5278 22.7379 88.8585 22.9498C89.1657 23.1616 89.4965 23.2558 89.8981 23.2558C90.536 23.2558 91.1503 23.1616 92.0009 22.8321V25.233C91.1739 25.6567 90.2289 25.7508 88.953 25.7508C87.5827 25.7508 86.6377 25.4448 86.1179 24.7151C85.48 24.0796 85.1728 23.0439 85.1728 21.6787V15.8647H83.5898V14.6172L85.3618 13.4638L86.3069 10.9688H88.4333Z" fill="#3B3B3B"/>
<path d="M26.7197 17.748C26.8142 17.748 26.9323 17.748 26.9323 17.8422V21.9143C26.9323 22.0084 26.8378 22.1261 26.8378 22.1261L19.6081 26.1041C18.5685 26.7397 17.2927 26.7397 16.2531 26.1041L9.11795 22.032C9.02344 22.032 9.02344 21.9378 9.02344 21.8201V17.748C9.02344 17.6539 9.11795 17.5362 9.23608 17.6539L16.9856 22.032C17.6235 22.338 18.3559 22.338 18.8757 22.032L26.7197 17.748Z" fill="#3B3B3B"/>
<path d="M35.936 11.7924V29.2343C35.936 29.3285 35.8415 29.4462 35.7234 29.4462H32.1558C32.0613 29.4462 31.9432 29.352 31.9432 29.2343V11.7924C31.9432 11.1569 31.2107 10.7567 30.5728 11.0627L19.4684 17.3239C18.4288 17.9595 17.153 17.9595 16.1134 17.3239L5.009 11.0627C4.37108 10.7567 3.75679 11.1569 3.75679 11.7924V29.2343C3.75679 29.3285 3.66229 29.4462 3.54416 29.4462H0.189203C0.0946969 29.4462 -0.0234375 29.352 -0.0234375 29.2343V11.7924C-0.0234375 8.14398 3.8513 5.95491 6.99362 7.72029L16.9876 13.3695C17.6255 13.6755 18.3579 13.6755 18.8777 13.3695L28.8245 7.72029C32.0613 5.83722 35.936 8.14398 35.936 11.7924Z" fill="#3B3B3B"/>
<path d="M26.7198 0L18.8522 4.37813C18.2143 4.68413 17.4819 4.68413 16.9621 4.37813L9.21264 0C9.11813 0 9 -5.40153e-07 9 0.0941528V4.16629C9 4.26044 9.0945 4.37813 9.0945 4.37813L16.2297 8.45027C17.2693 9.0858 18.5451 9.0858 19.5846 8.45027L26.8143 4.37813C26.9088 4.37813 26.9088 4.28398 26.9088 4.16629V0.0941528C26.9325 -5.40153e-07 26.8143 0 26.7198 0Z" fill="#3B3B3B"/>
</g>
<defs>
<clipPath id="clip0_472_744">
<rect width="169" height="31" fill="white"/>
</clipPath>
</defs>
</svg>
