<svg width="169" height="47" viewBox="0 0 169 47" fill="none" xmlns="http://www.w3.org/2000/svg">
<path d="M17.4753 32.4139L20.1286 37.2146C20.3483 37.6174 20.9398 37.6174 21.1764 37.2146L23.8297 32.4139C23.9649 32.1789 23.9142 31.8935 23.7114 31.7089L21.0581 29.191C20.8215 28.9728 20.4666 28.9728 20.23 29.191L17.5767 31.7089C17.3908 31.8767 17.357 32.1789 17.4753 32.4139Z" fill="#3B3B3B"/>
<path d="M32.94 30.7682L21.4142 9.90352C21.0931 9.31602 20.2481 9.31602 19.927 9.90352L8.38427 30.7682C8.08007 31.3221 8.48567 32.0103 9.12787 32.0103H13.6233C13.7754 32.0103 13.9275 31.9432 14.0289 31.8424L20.2312 25.9507C20.4678 25.7324 20.8227 25.7324 21.0593 25.9507L27.2616 31.8424C27.3799 31.9432 27.5151 32.0103 27.6672 32.0103H32.1626C32.8386 32.0103 33.2611 31.3221 32.94 30.7682Z" fill="#3B3B3B"/>
<path d="M91.7835 14.335H77.7734V18.4642H82.7589V32.7992H86.8825V18.4642H91.7835V14.335Z" fill="#3B3B3B"/>
<path d="M59.1992 14.3516H62.9679L71.6714 25.7155V14.3516H75.7105V32.7991H72.2291L63.2383 21.0826V32.7991H59.1992V14.3516Z" fill="#3B3B3B"/>
<path d="M46.119 14.4854L39.1055 32.6307H43.5671L44.4966 29.9618H51.7636L52.6931 32.6307H57.1209L50.1243 14.4854H46.119ZM45.4768 26.2354L48.147 19.0343L50.7834 26.2354H45.4768Z" fill="#3B3B3B"/>
<path d="M150.73 14.335V32.7992H160.718V30.701H152.792V14.335H150.73Z" fill="#3B3B3B"/>
<path d="M106.163 17.7594C105.875 17.0712 105.453 16.4837 104.946 15.9634C104.439 15.4598 103.831 15.0569 103.138 14.7548C102.462 14.4694 101.718 14.3184 100.941 14.3184H96.0058H93.9609V32.7826H96.0396V26.5551V25.548H100.974C101.752 25.548 102.495 25.3969 103.171 25.1116C103.864 24.8262 104.456 24.4066 104.98 23.903C105.487 23.3994 105.892 22.7951 106.197 22.1069C106.484 21.4355 106.636 20.6969 106.636 19.9248C106.602 19.1694 106.45 18.4476 106.163 17.7594ZM104.236 21.318C104.05 21.7376 103.797 22.1237 103.476 22.4426C103.155 22.7616 102.766 23.0134 102.343 23.198C101.904 23.3826 101.448 23.4666 100.958 23.4666H96.0227V22.8959V16.4334H100.958C101.431 16.4334 101.904 16.5173 102.343 16.7019C102.766 16.8866 103.155 17.1384 103.476 17.4573C103.797 17.7762 104.05 18.1623 104.236 18.5819C104.422 19.0184 104.523 19.4716 104.523 19.9584C104.523 20.4284 104.422 20.8816 104.236 21.318Z" fill="#3B3B3B"/>
<path d="M134.205 17.8931C134.762 17.4231 135.405 17.037 136.098 16.7348C137.889 15.9795 140.018 15.9795 141.793 16.7348C142.418 17.0034 142.993 17.3391 143.517 17.742L144.919 16.3488C144.226 15.7613 143.432 15.2913 142.553 14.922C141.438 14.452 140.221 14.2002 138.937 14.2002C137.652 14.2002 136.436 14.4352 135.32 14.922C134.374 15.3248 133.529 15.862 132.785 16.5166L134.205 17.8931Z" fill="#3B3B3B"/>
<path d="M145.71 20.5965C146.099 21.4861 146.285 22.4429 146.285 23.4165C146.285 24.4068 146.099 25.3468 145.71 26.2365C145.406 26.9415 145.017 27.5625 144.527 28.1332L145.93 29.5265C146.589 28.7879 147.13 27.9486 147.536 27.0086C148.009 25.9007 148.262 24.6922 148.262 23.4165C148.262 22.1407 148.026 20.9322 147.536 19.8243C147.13 18.9011 146.606 18.0618 145.947 17.3232L144.544 18.7165C145.017 19.2872 145.423 19.9082 145.71 20.5965Z" fill="#3B3B3B"/>
<path d="M110.982 26.2531C110.593 25.3634 110.407 24.4234 110.407 23.4331C110.407 22.4427 110.61 21.4859 110.982 20.6131C111.286 19.9248 111.674 19.287 112.148 18.7331L110.745 17.3398C110.103 18.0784 109.562 18.9177 109.156 19.8409C108.683 20.9488 108.43 22.1573 108.43 23.4331C108.43 24.7088 108.666 25.9173 109.156 27.0252C109.562 27.9652 110.103 28.8045 110.762 29.5598L112.165 28.1666C111.691 27.5959 111.286 26.9581 110.982 26.2531Z" fill="#3B3B3B"/>
<path d="M113.177 17.7422C113.701 17.3393 114.276 16.9868 114.901 16.735C116.693 15.9797 118.822 15.9797 120.597 16.735C121.306 17.0372 121.932 17.4232 122.506 17.8932L123.909 16.5C123.165 15.8454 122.303 15.3082 121.357 14.9054C120.242 14.4354 119.025 14.1836 117.74 14.1836C116.456 14.1836 115.239 14.4186 114.124 14.9054C113.262 15.2747 112.468 15.7615 111.758 16.349L113.177 17.7422Z" fill="#3B3B3B"/>
<path d="M123.47 18.9007C124.619 20.2939 127.087 23.4328 127.087 23.4328C127.087 23.4328 124.585 26.5885 123.453 27.9649L124.839 29.3414C125.937 28.0153 128.337 25.0107 128.337 25.0107C128.337 25.0107 130.72 27.9985 131.819 29.3414L133.204 27.9649C132.072 26.5885 129.588 23.4496 129.588 23.4496C129.588 23.4496 132.072 20.3107 133.204 18.9342L131.802 17.541C130.686 18.8839 128.32 21.8549 128.32 21.8549C128.32 21.8549 125.921 18.8671 124.822 17.541L123.47 18.9007Z" fill="#3B3B3B"/>
<path d="M122.488 28.9883C121.93 29.4583 121.305 29.8444 120.612 30.1297C119.716 30.499 118.753 30.7004 117.756 30.7004C116.759 30.7004 115.796 30.5158 114.9 30.1297C114.275 29.8611 113.7 29.5254 113.176 29.1226L111.773 30.5158C112.466 31.1033 113.261 31.5733 114.139 31.9426C115.255 32.4126 116.472 32.6644 117.756 32.6644C119.04 32.6644 120.257 32.4294 121.373 31.9426C122.302 31.5397 123.147 31.0194 123.891 30.3647L122.488 28.9883Z" fill="#3B3B3B"/>
<path d="M143.514 29.1226C142.99 29.5254 142.432 29.8611 141.807 30.1297C140.911 30.499 139.948 30.7004 138.951 30.7004C137.954 30.7004 136.991 30.5158 136.095 30.1297C135.402 29.8444 134.777 29.4583 134.219 28.9883L132.816 30.3815C133.56 31.0194 134.405 31.5565 135.335 31.9594C136.45 32.4294 137.667 32.6811 138.951 32.6811C140.236 32.6811 141.452 32.4461 142.568 31.9594C143.43 31.5901 144.224 31.1033 144.917 30.5326L143.514 29.1226Z" fill="#3B3B3B"/>
</svg>
