<svg width="169" height="54" viewBox="0 0 169 54" fill="none" xmlns="http://www.w3.org/2000/svg">
<path fill-rule="evenodd" clip-rule="evenodd" d="M42.9987 20.0253C42.9987 40.7597 26.5248 46.4053 26.5248 46.4053C26.5248 46.4053 10.0508 40.7597 10.0508 20.0253V12.5617C10.0508 11.7437 10.6825 11.0872 11.4746 11.0266C14.4626 10.8852 21.5614 10.2793 26.5248 7.59277C31.4981 10.2793 38.5869 10.8852 41.5748 11.0367C42.3671 11.0872 42.9987 11.7437 42.9987 12.5617V20.0253ZM28.6104 19.4799C31.0568 19.7122 32.982 20.4899 33.1824 22.7522C33.333 24.4085 32.6411 25.3982 31.5381 25.9637C33.3529 26.4082 34.476 27.4989 34.2354 29.933C33.9344 32.9426 31.6884 33.7404 28.5001 33.902L28.5101 37.0633H26.595L26.605 33.9323C26.1137 33.9222 25.6124 33.9121 25.0909 33.902L25.0708 37.0633L23.1859 37.0531L23.1758 33.8718C22.7346 33.8718 19.7266 33.8819 19.7266 33.8819L19.7467 31.5791L21.8724 31.569L21.8825 21.4695H19.4559V19.4597C19.4559 19.4597 22.8751 19.4597 23.2862 19.4496L23.2761 16.3087L25.1913 16.2986V19.3991C25.7027 19.389 26.2339 19.389 26.7353 19.389L26.7252 16.3289L28.6203 16.3188L28.6104 19.4799ZM25.5399 31.5956C27.0875 31.6291 30.4669 31.7025 30.4853 29.5189C30.5033 27.2941 27.2385 27.3473 25.6396 27.3732C25.4601 27.3762 25.3016 27.3787 25.1712 27.3777L25.1812 31.5892C25.2847 31.5901 25.4053 31.5926 25.5399 31.5956ZM25.529 25.4649C26.8086 25.4971 29.6246 25.5676 29.6431 23.5804C29.6521 21.5412 26.8911 21.6049 25.5799 21.6353C25.443 21.6385 25.3217 21.6412 25.2212 21.6412L25.2313 25.4588C25.3169 25.4596 25.417 25.4621 25.529 25.4649Z" fill="#3B3B3B"/>
<path d="M75.7581 33.3168C75.7581 34.9733 75.4371 36.3569 74.7853 37.478C74.1336 38.5989 73.2715 39.5079 72.1984 40.1845C71.1256 40.8714 69.9024 41.3561 68.5288 41.6592C67.155 41.9621 65.7513 42.1034 64.3074 42.1034H52.3555V11.8857H64.3074C65.4705 11.8857 66.6537 12.0069 67.867 12.2493C69.0802 12.4917 70.1832 12.9058 71.1758 13.4916C72.1685 14.0773 72.9705 14.8651 73.5923 15.8649C74.2139 16.8648 74.5246 18.1273 74.5246 19.6624C74.5246 21.339 74.0735 22.7326 73.1712 23.8234C72.2688 24.9243 71.0755 25.7119 69.6117 26.1969V26.2776C70.4638 26.419 71.256 26.6816 72.0081 27.0653C72.7601 27.4492 73.4118 27.9441 73.9531 28.54C74.5047 29.1356 74.9458 29.8326 75.2666 30.6306C75.5977 31.4283 75.7581 32.3271 75.7581 33.3168ZM67.5361 20.642C67.5361 19.622 67.145 18.8746 66.373 18.3999C65.5909 17.9253 64.4479 17.693 62.9137 17.693H59.3542V23.9244H63.2546C64.6083 23.9244 65.661 23.6517 66.413 23.0963C67.1651 22.5407 67.5361 21.7227 67.5361 20.642ZM68.5087 32.6404C68.5087 31.388 68.0473 30.5194 67.105 30.0347C66.1724 29.5499 64.9291 29.3073 63.375 29.3073H59.3442V36.2257H63.415C63.9765 36.2257 64.5681 36.175 65.1697 36.0742C65.7814 35.9732 66.3328 35.8015 66.8241 35.5389C67.3154 35.2864 67.7165 34.9227 68.0274 34.4481C68.3583 33.9836 68.5087 33.3776 68.5087 32.6404Z" fill="#3B3B3B"/>
<path d="M85.3932 14.0673C85.3932 14.6127 85.2828 15.1177 85.0721 15.5822C84.8616 16.0569 84.5808 16.4609 84.22 16.7942C83.869 17.1376 83.4378 17.4102 82.9465 17.6021C82.4552 17.8041 81.9338 17.9051 81.4025 17.9051C80.2693 17.9051 79.3269 17.5315 78.5649 16.774C77.8028 16.0165 77.4219 15.1177 77.4219 14.0673C77.4219 13.5522 77.522 13.0674 77.7226 12.5928C77.923 12.1181 78.2038 11.7141 78.5749 11.3808C78.9458 11.0374 79.3669 10.7648 79.8482 10.5527C80.3294 10.3406 80.8509 10.2295 81.4123 10.2295C81.9539 10.2295 82.4653 10.3305 82.9566 10.5325C83.4479 10.7345 83.8791 10.9971 84.23 11.3404C84.5808 11.6838 84.8616 12.0878 85.0822 12.5524C85.2928 13.0169 85.3932 13.5219 85.3932 14.0673ZM77.9331 42.1136V20.8542H84.8818V42.1136H77.9331Z" fill="#3B3B3B"/>
<path d="M97.4857 26.0653V34.2056C97.4857 35.2054 97.6762 35.9527 98.0572 36.4577C98.4383 36.9627 99.1202 37.2051 100.113 37.2051C100.454 37.2051 100.815 37.1747 101.196 37.1243C101.577 37.0638 101.897 36.983 102.148 36.8718L102.228 41.9923C101.747 42.164 101.145 42.3155 100.403 42.4365C99.6716 42.568 98.9296 42.6285 98.1977 42.6285C96.7839 42.6285 95.6007 42.4467 94.6382 42.0933C93.6755 41.7398 92.9034 41.2247 92.3319 40.548C91.7503 39.8815 91.3393 39.0736 91.0785 38.1545C90.8279 37.2253 90.6976 36.1951 90.6976 35.0539V26.0653H87.3086V20.8539H90.6576V15.2588H97.4857V20.8539H102.449V26.0653H97.4857Z" fill="#3B3B3B"/>
<path d="M127.605 42.1547C125.64 42.6395 123.504 42.8818 121.178 42.8818C118.771 42.8818 116.565 42.4981 114.54 41.7305C112.515 40.9629 110.78 39.8823 109.326 38.4886C107.872 37.0948 106.729 35.4182 105.917 33.4692C105.095 31.5199 104.684 29.3485 104.684 26.955C104.684 24.5311 105.105 22.3395 105.937 20.3801C106.769 18.4208 107.922 16.7443 109.396 15.3606C110.86 13.977 112.585 12.9166 114.57 12.1793C116.545 11.442 118.681 11.0684 120.967 11.0684C123.344 11.0684 125.549 11.4319 127.585 12.1591C129.62 12.8863 131.275 13.8558 132.548 15.088L127.966 20.3397C127.254 19.5116 126.321 18.8349 125.168 18.3097C124.005 17.7845 122.692 17.5219 121.228 17.5219C119.955 17.5219 118.781 17.7542 117.709 18.2289C116.636 18.6935 115.703 19.35 114.911 20.1882C114.119 21.0265 113.507 22.0262 113.066 23.1778C112.625 24.329 112.404 25.5915 112.404 26.955C112.404 28.3487 112.605 29.6314 112.996 30.8029C113.387 31.9745 113.979 32.9743 114.751 33.8126C115.523 34.6509 116.485 35.3073 117.628 35.7718C118.771 36.2464 120.075 36.4788 121.549 36.4788C122.401 36.4788 123.203 36.4181 123.965 36.2869C124.727 36.1557 125.439 35.9536 126.081 35.6707V30.1665H120.356V24.2786H132.739V40.2863C131.285 41.0437 129.57 41.67 127.605 42.1547Z" fill="#3B3B3B"/>
<path d="M158.888 31.3976C158.888 33.1349 158.577 34.7104 157.955 36.1141C157.334 37.5281 156.482 38.7198 155.409 39.6994C154.336 40.6792 153.093 41.4466 151.679 41.982C150.265 42.5273 148.751 42.7899 147.147 42.7899C145.562 42.7899 144.058 42.5174 142.635 41.982C141.211 41.4365 139.967 40.6792 138.905 39.6994C137.842 38.7198 137 37.5179 136.378 36.1141C135.756 34.7002 135.445 33.1349 135.445 31.3976C135.445 29.6605 135.756 28.0951 136.378 26.7015C137 25.3076 137.842 24.1259 138.905 23.1565C139.967 22.187 141.211 21.4496 142.635 20.9346C144.058 20.4195 145.562 20.167 147.147 20.167C148.761 20.167 150.265 20.4195 151.679 20.9346C153.093 21.4496 154.336 22.187 155.409 23.1565C156.482 24.1259 157.334 25.3076 157.955 26.7015C158.577 28.0951 158.888 29.6605 158.888 31.3976ZM152.19 31.3976C152.19 30.711 152.08 30.0444 151.849 29.388C151.619 28.7313 151.298 28.1557 150.876 27.6608C150.456 27.166 149.934 26.762 149.312 26.449C148.691 26.1357 147.969 25.9843 147.147 25.9843C146.324 25.9843 145.602 26.1459 144.981 26.449C144.359 26.762 143.848 27.166 143.437 27.6608C143.026 28.1557 142.715 28.7313 142.504 29.388C142.294 30.0444 142.183 30.711 142.183 31.3976C142.183 32.0844 142.294 32.751 142.504 33.4074C142.715 34.064 143.036 34.6498 143.457 35.1748C143.878 35.7001 144.399 36.1243 145.021 36.4373C145.643 36.7503 146.365 36.9121 147.187 36.9121C148.009 36.9121 148.731 36.7605 149.353 36.4373C149.974 36.1243 150.496 35.7001 150.917 35.1748C151.338 34.6498 151.659 34.0539 151.869 33.4074C152.09 32.751 152.19 32.0844 152.19 31.3976Z" fill="#3B3B3B"/>
</svg>
