<svg width="191" height="51" viewBox="0 0 191 51" fill="none" xmlns="http://www.w3.org/2000/svg">
<path d="M68.4152 26.9003C68.4152 27.4911 68.2994 28.044 68.0678 28.5591C67.8433 29.0675 67.5345 29.514 67.1414 29.8987C66.7554 30.2765 66.2992 30.5753 65.7727 30.7952C65.2465 31.015 64.6885 31.1249 64.0988 31.1249H53.8765V29.0125H64.0988C64.3937 29.0125 64.6709 28.9576 64.9305 28.8478C65.1973 28.7378 65.4289 28.5867 65.6254 28.3944C65.8219 28.202 65.9764 27.9787 66.0887 27.7246C66.2009 27.4635 66.2571 27.1888 66.2571 26.9003C66.2571 26.6118 66.2009 26.3404 66.0887 26.0863C65.9764 25.8321 65.8219 25.6088 65.6254 25.4165C65.4289 25.2242 65.1973 25.0731 64.9305 24.9632C64.6709 24.8532 64.3937 24.7983 64.0988 24.7983H53.8765V22.686H61.9407C62.2355 22.686 62.5128 22.6311 62.7724 22.5211C63.0392 22.4112 63.2707 22.2601 63.4672 22.0678C63.6638 21.8755 63.8181 21.6522 63.9304 21.398C64.0427 21.137 64.0988 20.8623 64.0988 20.5738C64.0988 20.2853 64.0427 20.0139 63.9304 19.7597C63.8181 19.4987 63.6638 19.272 63.4672 19.0796C63.2707 18.8873 63.0392 18.7362 62.7724 18.6263C62.5128 18.5163 62.2355 18.4614 61.9407 18.4614H52.8028V31.1249H50.6445V16.3491H61.9407C62.5303 16.3491 63.0882 16.4625 63.6146 16.6891C64.141 16.909 64.5972 17.2112 64.9832 17.5959C65.3762 17.9737 65.685 18.4203 65.9096 18.9354C66.1413 19.4506 66.2571 19.9966 66.2571 20.5738C66.2571 21.0202 66.1904 21.4427 66.057 21.8411C65.9237 22.2326 65.7447 22.5967 65.5202 22.9333C65.9413 23.0776 66.3273 23.2802 66.6782 23.5412C67.0361 23.8023 67.3415 24.1045 67.594 24.448C67.8538 24.7914 68.0538 25.1727 68.1942 25.5917C68.3416 26.0038 68.4152 26.44 68.4152 26.9003Z" fill="white"/>
<path d="M86.5618 31.1249H70.9492V16.3491H86.5618V18.4614H73.1075V29.0125H86.5618V31.1249ZM84.73 24.7983H74.1812V22.686H84.73V24.7983Z" fill="white"/>
<path d="M107.034 23.737C107.034 24.7605 106.865 25.7222 106.529 26.622C106.199 27.5219 105.729 28.305 105.118 28.9714C104.507 29.6376 103.774 30.1632 102.918 30.5479C102.068 30.9325 101.124 31.1249 100.086 31.1249H92.4742V29.0125H100.086C100.83 29.0125 101.496 28.8752 102.086 28.6004C102.682 28.3256 103.184 27.9513 103.591 27.4773C104.005 26.9965 104.321 26.4366 104.539 25.7978C104.763 25.152 104.876 24.4651 104.876 23.737C104.876 23.0089 104.763 22.3253 104.539 21.6865C104.321 21.0477 104.005 20.4913 103.591 20.0173C103.184 19.5364 102.682 19.1587 102.086 18.8839C101.496 18.6023 100.83 18.4614 100.086 18.4614H91.4003V31.1249H89.2422V16.3491H100.086C101.124 16.3491 102.068 16.545 102.918 16.9364C103.774 17.3211 104.507 17.8501 105.118 18.5232C105.729 19.1895 106.199 19.9727 106.529 20.8725C106.865 21.7656 107.034 22.7203 107.034 23.737Z" fill="white"/>
<path d="M127.216 31.1249H124.301L119.773 26.9003H113.162V24.8188H121.826C122.275 24.8188 122.697 24.7365 123.089 24.5716C123.483 24.3999 123.823 24.1698 124.11 23.8813C124.406 23.5928 124.637 23.2562 124.805 22.8715C124.974 22.4799 125.058 22.0643 125.058 21.6247C125.058 21.185 124.974 20.7729 124.805 20.3882C124.637 20.0036 124.406 19.6704 124.11 19.3888C123.823 19.1003 123.483 18.8736 123.089 18.7087C122.697 18.5439 122.275 18.4614 121.826 18.4614H111.951V31.1249H109.793V16.3491H121.826C122.57 16.3491 123.269 16.49 123.921 16.7716C124.574 17.0463 125.142 17.4242 125.627 17.9051C126.118 18.379 126.504 18.9354 126.785 19.5742C127.072 20.213 127.216 20.8965 127.216 21.6247C127.216 22.2842 127.1 22.9093 126.869 23.5C126.637 24.084 126.318 24.6094 125.91 25.0765C125.504 25.5367 125.023 25.9214 124.468 26.2305C123.921 26.5328 123.328 26.7354 122.69 26.8384L127.216 31.1249Z" fill="white"/>
<path d="M148.011 23.737C148.011 24.7605 147.847 25.7222 147.517 26.622C147.187 27.5219 146.717 28.305 146.106 28.9714C145.502 29.6376 144.777 30.1632 143.927 30.5479C143.078 30.9325 142.134 31.1249 141.095 31.1249H136.073C135.027 31.1249 134.077 30.9325 133.22 30.5479C132.365 30.1632 131.631 29.6376 131.021 28.9714C130.417 28.305 129.95 27.5219 129.62 26.622C129.29 25.7222 129.125 24.7605 129.125 23.737C129.125 22.7203 129.29 21.7656 129.62 20.8725C129.95 19.9727 130.417 19.1895 131.021 18.5232C131.631 17.8501 132.365 17.3211 133.22 16.9364C134.077 16.545 135.027 16.3491 136.073 16.3491H141.095C142.134 16.3491 143.078 16.545 143.927 16.9364C144.777 17.3211 145.502 17.8501 146.106 18.5232C146.717 19.1895 147.187 19.9727 147.517 20.8725C147.847 21.7656 148.011 22.7203 148.011 23.737ZM145.853 23.737C145.853 23.0089 145.745 22.3253 145.527 21.6865C145.31 21.0477 144.994 20.4913 144.579 20.0173C144.173 19.5364 143.674 19.1587 143.085 18.8839C142.503 18.6023 141.839 18.4614 141.095 18.4614H136.073C135.33 18.4614 134.66 18.6023 134.063 18.8839C133.473 19.1587 132.971 19.5364 132.557 20.0173C132.151 20.4913 131.834 21.0477 131.609 21.6865C131.392 22.3253 131.283 23.0089 131.283 23.737C131.283 24.4651 131.392 25.152 131.609 25.7978C131.834 26.4366 132.151 26.9965 132.557 27.4773C132.971 27.9513 133.473 28.3256 134.063 28.6004C134.66 28.8752 135.33 29.0125 136.073 29.0125H141.095C141.839 29.0125 142.503 28.8752 143.085 28.6004C143.674 28.3256 144.173 27.9513 144.579 27.4773C144.994 26.9965 145.31 26.4366 145.527 25.7978C145.745 25.152 145.853 24.4651 145.853 23.737Z" fill="white"/>
<path d="M166.567 31.1249H156.851C155.805 31.1249 154.853 30.9325 153.998 30.5479C153.141 30.1632 152.408 29.6376 151.797 28.9714C151.193 28.305 150.726 27.5219 150.396 26.622C150.067 25.7222 149.902 24.7605 149.902 23.737C149.902 22.7203 150.067 21.7656 150.396 20.8725C150.726 19.9727 151.193 19.1895 151.797 18.5232C152.408 17.8501 153.141 17.3211 153.998 16.9364C154.853 16.545 155.805 16.3491 156.851 16.3491H166.567V18.4614H156.851C156.106 18.4614 155.436 18.6023 154.839 18.8839C154.249 19.1587 153.748 19.5364 153.333 20.0173C152.927 20.4913 152.611 21.0477 152.387 21.6865C152.169 22.3253 152.06 23.0089 152.06 23.737C152.06 24.4651 152.169 25.152 152.387 25.7978C152.611 26.4366 152.927 26.9965 153.333 27.4773C153.748 27.9513 154.249 28.3256 154.839 28.6004C155.436 28.8752 156.106 29.0125 156.851 29.0125H166.567V31.1249Z" fill="white"/>
<path d="M186.741 31.1249H183.836L176.129 23.5309L171.35 26.9003V31.1249H169.191V16.3491H171.35V24.5819L183.183 16.3491H186.331L177.772 22.3666L186.741 31.1249Z" fill="white"/>
<path d="M8.01752 27.4901L4.73047 32.3148L4.94601 34.0976L9.22458 37.4053C9.22458 37.4053 13.8587 41.0105 16.3617 41.3639C17.1916 41.4808 25.0402 35.4711 30.2483 32.7851C34.4756 30.6039 36.9409 29.7777 36.9409 29.7777L42.3511 30.8217L32.0346 21.1431C32.0346 21.1431 24.5983 25.6543 22.8147 27.4875C21.031 29.3206 16.3457 32.6204 16.3457 32.6204L11.2884 31.1113L8.01752 27.4875V27.4901Z" fill="white"/>
<path d="M11.6624 18.7361L8.55859 23.2819L11.5708 26.7649L16.1997 28.1757L23.7841 21.8525L28.2459 19.3233L31.3686 17.9497L26.6105 14.1187C26.6105 14.1187 20.6614 14.4853 18.506 17.1235C18.506 17.1235 14.3433 21.0821 13.6724 20.5694L11.6651 18.7361H11.6624Z" fill="white"/>
<path d="M19.141 5.90918L12.125 15.2212C12.125 15.2212 13.4129 17.1235 14.1323 16.7249C14.9406 16.2787 17.9123 13.2366 19.2406 12.6175C21.9 11.3768 20.7225 11.7488 23.7806 10.9677L25.9549 11.3423L19.141 5.90918Z" fill="white"/>
</svg>
