<svg width="190" height="56" viewBox="0 0 190 56" fill="none" xmlns="http://www.w3.org/2000/svg">
<path d="M147.736 9.6084H141.31V16.5148H137.467V22.5805H141.31V38.4352C141.31 39.8165 141.49 41.1978 141.911 42.519C142.271 43.4799 142.872 44.3808 143.652 45.1014C144.373 45.7621 145.334 46.3026 146.295 46.5428C148.517 47.0833 150.859 47.0833 153.081 46.5428C153.982 46.3026 154.823 46.0023 155.604 45.5218V40.6573C154.402 41.1378 153.141 41.438 151.82 41.438C150.739 41.5581 149.658 41.1978 148.877 40.4171C148.157 39.6964 147.736 38.7956 147.736 37.2942V22.5805H155.664V16.5148H147.796V9.6084H147.736ZM127.557 18.6768C120.591 13.5721 110.742 15.0735 105.637 22.04C100.532 29.0065 102.034 38.8556 109 43.9604C114.525 47.9841 121.972 47.9841 127.497 43.9604V46.1224H133.923V16.5148H127.497V18.6768H127.557ZM118.309 40.5973C113.204 40.5973 109.06 36.4534 109.06 31.3486C109.06 26.2439 113.204 22.1 118.309 22.1C123.414 22.1 127.557 26.2439 127.557 31.3486C127.557 36.4534 123.414 40.5973 118.309 40.5973ZM83.1161 25.5833V32.7299H92.7851C91.5239 37.9548 86.8396 41.6182 81.4346 41.4981C74.6482 41.4981 69.1231 35.9729 69.1231 29.1866C69.1231 22.4003 74.6482 16.8752 81.4946 16.8752C85.0379 16.8752 88.401 18.4366 90.7432 21.0791L96.2684 16.5749C89.3019 8.40728 77.0505 7.38633 68.8228 14.2928C60.5951 21.1992 59.6343 33.5107 66.5407 41.7383C70.2642 46.1224 75.6692 48.5847 81.3745 48.5847C86.4192 48.7048 91.3438 46.723 94.8871 43.1196C97.8899 39.9967 99.7516 35.9729 100.172 31.709C100.352 29.6671 100.352 27.6252 100.232 25.5833H83.0561H83.1161ZM173.32 15.674C164.672 15.674 157.646 22.7006 157.646 31.3486C157.646 39.9967 164.672 47.0232 173.32 47.0232C179.085 47.0232 184.37 43.9003 187.133 38.7956L181.368 35.9729C178.785 40.357 173.08 41.8584 168.696 39.276C166.594 38.0148 165.092 36.033 164.432 33.6908H188.935C190.256 25.1028 184.37 17.1154 175.782 15.7942C175.002 15.674 174.221 15.614 173.44 15.614L173.32 15.674ZM164.612 28.1056C166.414 23.3011 171.759 20.8989 176.563 22.7006C179.085 23.6615 181.007 25.5833 181.968 28.1056H164.612Z" fill="white"/>
<path d="M27.8659 43.1802C19.3981 43.1802 12.5517 36.3338 12.5517 27.8659C12.5517 19.3981 19.3981 12.5517 27.8659 12.5517V0C12.4916 0 0 12.4916 0 27.8659C0 43.2403 12.4916 55.7319 27.8659 55.7319C43.2403 55.7319 55.7319 43.2403 55.7319 27.8659H43.1802C43.1802 36.3338 36.3338 43.1802 27.8659 43.1802Z" fill="white"/>
<path d="M43.1775 12.5513H27.8633V27.8655H43.1775V12.5513Z" fill="white"/>
</svg>
