<svg width="190" height="57" viewBox="0 0 190 57" fill="none" xmlns="http://www.w3.org/2000/svg">
<g clip-path="url(#clip0_425_4491)">
<path d="M27.8359 0.000488281C43.207 0.000679408 55.667 12.4614 55.667 27.8325C55.6669 43.2036 43.207 55.6634 27.8359 55.6636C12.4648 55.6636 0.00404016 43.2037 0.00390625 27.8325C0.00390625 12.4613 12.4647 0.000488281 27.8359 0.000488281ZM26.7959 22.9458C28.8369 25.8939 26.3519 29.378 21.7236 28.1616C19.1149 27.4514 16.7577 26.0227 14.9209 24.0386C12.4161 31.8726 15.3541 38.8202 21.7656 42.0054C22.1851 43.5999 21.3612 45.2602 19.8379 45.8911C22.8097 46.5147 25.903 45.7572 28.249 43.8296C29.6148 44.0182 30.9929 44.1084 32.3721 44.0981C30.5558 41.6448 29.7711 38.5766 30.1865 35.5522C30.1865 35.5522 30.3622 41.1089 35.1348 43.8921L35.1455 43.9644C38.0275 43.7045 40.7349 42.472 42.8242 40.4692C42.0715 30.4296 31.6304 23.4718 26.7959 22.9458ZM37.5635 36.7212C38.2324 36.6595 38.8249 37.1519 38.8867 37.8208V37.9028C38.8156 38.4904 38.3329 38.9422 37.7412 38.9731C37.0705 39.0069 36.5001 38.4915 36.4648 37.8208C36.5184 37.2374 36.9811 36.7748 37.5635 36.7212ZM19.415 17.0601C17.3741 18.666 15.8713 20.8554 15.1064 23.3374C19.8275 27.3987 22.3223 26.3687 22.3223 26.3687C18.7773 24.5088 19.442 17.1381 19.4463 17.0913L19.415 17.0601ZM26.208 8.50439C23.2867 10.3186 21.0975 13.103 20.0234 16.3696C21.4668 15.9575 26.6099 18.6059 29.0322 17.3999C25.2496 14.73 26.1562 8.54541 26.1562 8.54541L26.208 8.50439Z" fill="white"/>
<path fill-rule="evenodd" clip-rule="evenodd" d="M74.9113 10.4731C73.4146 11.2462 72.1436 12.3925 71.2211 13.8026C70.3119 15.1849 69.8346 16.8074 69.8501 18.4618V20.0698L66.8711 20.8326V23.2035H69.8501V38.3768L66.9123 38.7273V41.2321H79.9519V38.7273L76.0349 38.3768V23.2035H80.6219V20.0286H76.0349V16.627C75.9679 15.8724 76.1565 15.1169 76.5709 14.4829C77.0389 14.0046 77.6986 13.7655 78.3645 13.8335C79.1881 13.8428 80.0035 13.9923 80.7766 14.2768C81.3847 14.4468 81.9455 14.753 82.4155 15.1736V9.62786C81.5888 9.36707 80.7261 9.23822 79.8592 9.24647C78.1202 9.23616 76.406 9.65775 74.8701 10.4731" fill="white"/>
<path fill-rule="evenodd" clip-rule="evenodd" d="M100.268 36.6971L89.6407 37.8104C92.9166 36.0405 95.9224 33.8129 98.5675 31.1926C100.842 28.8496 101.982 26.4788 101.99 24.0801C102 22.8586 101.675 21.6567 101.052 20.6063C100.36 19.5034 99.355 18.6303 98.1654 18.1015C96.6481 17.4305 94.9999 17.1099 93.3413 17.1635C92.0054 17.1645 90.6798 17.3985 89.4243 17.8541C88.2131 18.2798 87.0627 18.8622 86.002 19.5859C85.1629 20.1198 84.4146 20.7847 83.7858 21.5547L85.3114 23.8534C85.9505 23.3173 86.4762 22.905 86.8988 22.6164C87.4214 22.2701 87.9863 21.9928 88.579 21.7918C89.3366 21.5258 90.1366 21.397 90.9395 21.4104C92.0446 21.3516 93.13 21.7206 93.9701 22.4412C94.7319 23.1483 95.1462 24.1544 95.104 25.1934C95.104 27.5158 94.0392 29.8526 91.9085 32.2028C89.4408 34.8396 86.5999 37.1002 83.4766 38.9133L84.394 41.2532H103.247L104.391 34.0995L101.804 33.5223L100.268 36.6971Z" fill="white"/>
<path fill-rule="evenodd" clip-rule="evenodd" d="M119.71 19.4623C118.505 19.4479 117.317 19.7427 116.257 20.3179C115.294 20.8178 114.449 21.5218 113.783 22.3795V20.3179L112.753 19.5138H112.68L105.836 20.3591V23.3381L108.166 24.0287V47.634L105.836 48.1288V50.5099H117.577V48.1391L114.288 47.6443V44.387L114.165 41.2946C114.518 41.4245 114.884 41.5142 115.257 41.5626C115.693 41.6379 116.135 41.676 116.577 41.676C118.748 41.7317 120.89 41.1781 122.762 40.0783C124.444 39.0506 125.796 37.5631 126.658 35.7901C127.578 33.9605 128.054 31.9411 128.05 29.894C128.05 26.348 127.28 23.7164 125.741 21.9981C124.227 20.2911 122.032 19.3468 119.752 19.4211M120.154 37.1096C119.483 38.3774 118.165 39.1701 116.731 39.1712C116.231 39.1743 115.733 39.0949 115.257 38.9341C114.901 38.8361 114.579 38.6403 114.33 38.3671V24.3483C114.673 23.9195 115.119 23.5855 115.629 23.3793C116.214 23.1113 116.851 22.9742 117.494 22.9773C118.721 22.9948 119.831 23.7061 120.36 24.8121C121.17 26.5542 121.525 28.4725 121.391 30.3888C121.391 33.4812 120.968 35.7077 120.112 37.0786" fill="white"/>
<path fill-rule="evenodd" clip-rule="evenodd" d="M141.869 19.514C139.99 19.4903 138.134 19.9222 136.458 20.7716C134.806 21.6272 133.445 22.9497 132.541 24.5752C131.526 26.475 131.025 28.6067 131.087 30.76C131.087 34.1926 131.994 36.883 133.819 38.8003C135.798 40.7897 138.532 41.8391 141.333 41.6865C143.225 41.7154 145.096 41.2989 146.797 40.4702C148.443 39.6362 149.803 38.3292 150.703 36.7181C151.73 34.7781 152.231 32.6031 152.157 30.4096C152.157 26.9739 151.242 24.2938 149.415 22.3693C147.425 20.3768 144.68 19.3264 141.869 19.4831M144.446 37.0273C144.047 38.1983 142.952 38.9879 141.715 38.9961C140.371 38.9982 139.179 38.1313 138.767 36.8521C138.049 34.7369 137.738 32.5062 137.849 30.2756C137.849 24.8433 139.107 22.1323 141.601 22.1323C142.929 22.1178 144.106 22.9837 144.488 24.2557C145.166 26.3853 145.455 28.6201 145.343 30.8528C145.459 32.9536 145.153 35.0564 144.446 37.0376" fill="white"/>
<path fill-rule="evenodd" clip-rule="evenodd" d="M165.975 19.5133C164.1 19.4741 162.243 19.8875 160.563 20.7194C158.912 21.5749 157.55 22.8974 156.646 24.523C155.632 26.4228 155.131 28.5545 155.193 30.7078C155.193 34.1403 156.1 36.8307 157.924 38.748C159.903 40.7375 162.637 41.7868 165.439 41.6343C167.33 41.6631 169.201 41.2467 170.902 40.4179C172.548 39.584 173.909 38.2769 174.809 36.6658C175.835 34.7258 176.336 32.5509 176.262 30.3573C176.262 26.9217 175.348 24.2416 173.52 22.3171C171.531 20.3246 168.786 19.2742 165.975 19.4309M168.552 37.0266C168.153 38.1976 167.057 38.9872 165.82 38.9954C164.476 38.9975 163.284 38.1306 162.872 36.8513C162.155 34.7362 161.843 32.5055 161.955 30.2749C161.955 24.8425 163.212 22.1315 165.707 22.1315C167.034 22.1171 168.212 22.983 168.593 24.255C169.271 26.3846 169.561 28.6194 169.449 30.8521C169.564 32.9529 169.259 35.0557 168.552 37.0369" fill="white"/>
<path fill-rule="evenodd" clip-rule="evenodd" d="M186.641 10.7005L185.528 9.89648H185.414L177.766 10.8139V13.1538L180.446 13.6486V38.3774L178.003 38.7279V41.2534H189.125V38.7279L186.641 38.3774V10.7005Z" fill="white"/>
</g>
<defs>
<clipPath id="clip0_425_4491">
<rect width="189.121" height="56.7362" fill="white"/>
</clipPath>
</defs>
</svg>
