<svg width="190" height="31" viewBox="0 0 190 31" fill="none" xmlns="http://www.w3.org/2000/svg">
<path d="M21.8445 0H21.7126C21.6364 0 21.5553 0.0101491 21.4791 0.030446L0.644425 5.67805C0.263859 5.77953 0 6.12458 0 6.51022C0 6.89586 0.263859 7.2409 0.644425 7.34239L13.4923 10.8284L21.4791 12.9951C21.5553 13.0154 21.6314 13.0255 21.7126 13.0255H21.8445C21.9206 13.0255 22.0018 13.0154 22.0779 12.9951L30.0647 10.8284L42.9126 7.34239C43.2932 7.2409 43.557 6.89586 43.557 6.51022C43.557 6.12458 43.2932 5.77953 42.9126 5.67805L22.0779 0.030446C22.0018 0.0101491 21.9257 0 21.8445 0Z" fill="white"/>
<path d="M22.0666 14.6646H21.4881C21.412 14.6646 21.3308 14.6545 21.2547 14.6342L10.5989 11.7419C10.4466 11.7013 10.2843 11.7013 10.1371 11.7419L0.648331 14.3145C0.267766 14.416 0.00390625 14.761 0.00390625 15.1467C0.00390625 15.5323 0.267766 15.8774 0.648331 15.9788L13.5013 19.4648L21.483 21.6315C21.5592 21.6518 21.6353 21.662 21.7165 21.662H21.8484C21.9245 21.662 22.0057 21.6518 22.0818 21.6315L30.0635 19.4648L42.9165 15.9788C43.2971 15.8774 43.5609 15.5323 43.5609 15.1467C43.5609 14.761 43.2971 14.416 42.9165 14.3145L33.4277 11.7419C33.2755 11.7013 33.1131 11.7013 32.966 11.7419L22.3101 14.6342C22.234 14.6545 22.1579 14.6646 22.0767 14.6646" fill="white"/>
<path d="M22.0666 23.3007H21.4881C21.412 23.3007 21.3308 23.2905 21.2547 23.2702L10.6039 20.383C10.4517 20.3424 10.2893 20.3424 10.1422 20.383L0.648331 22.9556C0.267766 23.0571 0.00390625 23.4021 0.00390625 23.7878C0.00390625 24.1734 0.267766 24.5185 0.648331 24.62L21.483 30.2676C21.5592 30.2878 21.6353 30.298 21.7165 30.298H21.8484C21.9245 30.298 22.0057 30.2878 22.0818 30.2676L42.9165 24.62C43.2971 24.5185 43.5609 24.1734 43.5609 23.7878C43.5609 23.4021 43.2971 23.0571 42.9165 22.9556L33.4227 20.383C33.2704 20.3424 33.1081 20.3424 32.9558 20.383L22.3051 23.2702C22.229 23.2905 22.1528 23.3007 22.0717 23.3007" fill="white"/>
<path d="M54.8398 26.7313L54.8449 4.354H60.3149V13.1984H70.2096V4.354H75.6796V26.7313H70.2096V17.5673H60.3149L60.3098 26.7313H54.8398Z" fill="white"/>
<path d="M88.711 17.2469C88.6044 15.684 87.5946 14.2632 85.6157 14.2632C83.5302 14.2632 82.5559 15.5775 82.2667 17.2469H88.711ZM93.6025 21.154C92.7754 24.7415 89.9288 27.1568 85.7578 27.1568C80.6836 27.1568 77.0859 24.1021 77.0859 19.0939C77.0859 14.1212 80.7597 10.5337 85.6512 10.5337C90.9436 10.5337 93.7141 14.1212 93.7141 18.419V19.9819H82.1957C82.3377 22.0775 83.9209 23.2852 85.9404 23.2852C87.7418 23.2852 88.853 22.6103 89.4315 21.154H93.6076H93.6025Z" fill="white"/>
<path d="M119.583 26.7362V8.79882H111.703V4.35889H133.01L133.005 8.79882H125.018V26.7362H119.583Z" fill="white"/>
<path d="M141.757 15.9789C140.93 15.5172 140.138 15.3396 139.022 15.3396C136.86 15.3396 135.424 16.5472 135.424 19.2822V26.7413H130.238V10.9707H135.424V13.8477C136.038 12.0718 137.692 10.5444 139.849 10.5444C140.818 10.5444 141.65 10.8286 142.082 11.1838L141.757 15.9789Z" fill="white"/>
<path d="M154.282 10.9707H159.498V26.7414H154.277V24.2905C153.414 26.0665 151.613 27.1676 149.203 27.1676C144.885 27.1676 143.52 24.255 143.52 20.8806V10.9707H148.705V19.6375C148.705 21.8752 149.461 23.1184 151.369 23.1184C153.277 23.1184 154.287 21.52 154.287 18.9981V10.9707H154.282Z" fill="white"/>
<path d="M165.509 21.4844C165.722 23.0118 166.95 23.8642 168.894 23.8642C170.299 23.8642 171.233 23.367 171.233 22.5145C171.233 21.7331 170.73 21.3068 169.431 21.0937L166.986 20.703C163.312 20.1347 161.338 18.8915 161.338 15.7658C161.338 12.7111 164.037 10.5444 168.32 10.5444C172.856 10.5444 175.556 12.5335 175.876 15.9079L171.593 16.05C171.339 14.6647 170.223 13.8833 168.244 13.8833C166.95 13.8833 166.159 14.4161 166.159 15.2685C166.159 15.9079 166.661 16.2986 167.452 16.4051L170.548 16.9379C174.039 17.4707 176.053 18.9981 176.053 22.0172C176.053 25.3205 173.212 27.1676 168.853 27.1676C164.535 27.1676 161.262 25.4271 160.973 21.591L165.509 21.4844Z" fill="white"/>
<path d="M104.769 17.7952L110.087 10.9653H104.688L102.156 14.3701L104.769 17.7952Z" fill="white"/>
<path d="M107.16 22.2303L104.258 18.4601L101.63 15.0858L98.6408 10.9655L92.8512 10.9604L98.6764 18.6733L92.3438 26.7362H97.7427L101.305 22.0476L104.831 26.7362H110.626L107.16 22.2303Z" fill="white"/>
<path d="M186.526 23.0471C185.303 23.0471 184.654 22.4788 184.654 21.129V14.5579V10.9705V6.60156H181.452L180.914 8.69721C180.518 10.1535 180.051 10.9705 178.468 11.2546L177.316 11.4322V14.5579H179.549V22.5143C179.549 26.0662 181.888 27.1673 184.476 27.1673C186.562 27.1673 187.932 26.6701 189.119 25.7821V22.4077C188.15 22.834 187.323 23.0471 186.526 23.0471Z" fill="white"/>
<path d="M188.902 10.9707H185.559V14.5582H188.902V10.9707Z" fill="white"/>
</svg>
