<svg width="169" height="29" viewBox="0 0 169 29" fill="none" xmlns="http://www.w3.org/2000/svg">
<path d="M0 4.38086V8.0242H14.4417C15.051 8.0242 15.5001 7.71518 15.7849 7.09905L16.815 4.38276H0V4.38086ZM0 12.7358V24.6195H4.14668V16.9876C4.14668 16.7759 4.21837 16.6041 4.36175 16.4687C4.50325 16.3333 4.67115 16.2647 4.8617 16.2647H10.6667C11.2761 16.2647 11.725 15.9384 12.0099 15.2823L12.8966 12.7358H0Z" fill="#3B3B3B"/>
<path d="M34.0218 5.82577C33.5652 4.86248 32.8597 4.37988 31.9069 4.37988H28.6469L20.4102 24.6186H24.7286L30.9617 8.48483L37.0818 24.6186H41.5718L34.0218 5.82577Z" fill="#3B3B3B"/>
<path d="M52.2503 20.918V5.82577C52.2503 5.41948 52.1126 5.07993 51.8371 4.79763C51.5617 4.51913 51.2221 4.37988 50.8221 4.37988H48.1055V24.6186H60.8021C61.3738 24.6186 61.8133 24.3114 62.1189 23.6953L63.2037 20.918H52.2503Z" fill="#3B3B3B"/>
<path d="M84.7353 19.3468C84.4504 19.3468 84.163 19.4441 83.8781 19.6367C82.6387 20.581 81.2467 21.052 79.7016 21.052C77.8339 21.052 76.2793 20.4206 75.0398 19.1579C73.8004 17.8951 73.1816 16.3501 73.1816 14.517C73.1816 12.6838 73.7966 11.0567 75.0248 9.8035C76.253 8.55022 77.7754 7.92269 79.5846 7.92269C81.1693 7.92269 82.5971 8.42439 83.8748 9.42578C84.1597 9.61847 84.4463 9.71385 84.7312 9.71385C85.0162 9.71385 85.2954 9.62797 85.5615 9.45446L87.8777 7.83494C86.965 6.71714 85.773 5.81107 84.3051 5.11674C82.8355 4.42432 81.2637 4.07715 79.5846 4.07715C77.6226 4.07715 75.8304 4.53495 74.2079 5.44865C72.5892 6.36426 71.3007 7.60795 70.348 9.17976C69.3953 10.7516 68.918 12.5274 68.918 14.5131C68.918 16.3825 69.3708 18.1088 70.2744 19.6901C71.18 21.2695 72.4327 22.5361 74.0343 23.4917C75.636 24.4455 77.4849 24.9224 79.5809 24.9224C81.1656 24.9224 82.6844 24.5848 84.1426 23.9095C85.6007 23.2343 86.8156 22.3301 87.7896 21.1913L85.5574 19.6024C85.2913 19.4288 85.0162 19.341 84.7271 19.341" fill="#3B3B3B"/>
<path d="M114.142 9.09262C113.17 7.53229 111.878 6.30385 110.268 5.40733C109.163 4.79311 107.987 4.38872 106.745 4.19606V8.12362C107.827 8.40403 108.763 8.96293 109.553 9.8003C110.744 11.0631 111.34 12.631 111.34 14.4985C111.34 16.366 110.744 17.9378 109.553 19.1986C108.763 20.036 107.827 20.5968 106.745 20.8773V24.8124C108.075 24.6141 109.303 24.1849 110.425 23.5229C112.025 22.5788 113.289 21.316 114.213 19.7347C115.138 18.1552 115.6 16.4098 115.6 14.4985C115.6 12.4575 115.113 10.6549 114.142 9.09262ZM95.7964 9.26622C94.8723 10.8475 94.4102 12.591 94.4102 14.4985C94.4102 16.5434 94.9008 18.3517 95.883 19.9215C96.8643 21.4933 98.1608 22.7218 99.7716 23.6069C100.877 24.2154 102.041 24.6159 103.268 24.8067V20.8715C102.213 20.5911 101.284 20.0322 100.487 19.1986C99.2752 17.9378 98.6694 16.3698 98.6694 14.4985C98.6694 12.6272 99.2752 11.0402 100.487 9.78693C101.284 8.95914 102.213 8.40597 103.268 8.12555V4.18652C101.941 4.38299 100.715 4.81218 99.5863 5.4779C97.9853 6.42403 96.7231 7.6868 95.7964 9.26622Z" fill="#3B3B3B"/>
<path d="M139.916 4.37988H136.027V18.9208C134.023 15.9852 129.496 9.28789 127.352 6.11572C126.623 5.03606 125.413 4.38751 124.119 4.3837L122.129 4.37988V24.6186H126.047V11.0886L133.712 22.835C134.439 23.949 135.671 24.6186 136.991 24.6186H139.917V4.37988H139.916Z" fill="#3B3B3B"/>
<path d="M151.331 4.43164H146.449L153.546 14.6406L146.674 24.5673H151.558L158.312 14.6426L151.331 4.43164ZM160.559 4.43164L157.674 8.59767L160.076 12.0502L165.413 4.43164H160.559ZM160.078 16.9506L157.67 20.4128L160.56 24.5692H165.415L160.078 16.9525V16.9506Z" fill="#3B3B3B"/>
</svg>
