<svg width="189" height="34" viewBox="0 0 189 34" fill="none" xmlns="http://www.w3.org/2000/svg">
<path fill-rule="evenodd" clip-rule="evenodd" d="M16.2925 15.8835L9.31304 12.1869L28.2619 1.66699V9.12018L16.2925 15.8835ZM28.297 31.6597L8.33203 21.0223V13.6416L28.297 24.209V31.6597Z" fill="white"/>
<path fill-rule="evenodd" clip-rule="evenodd" d="M45.5201 17.4431L52.4996 21.1397L33.5507 31.6596V24.2065L45.5201 17.4431ZM33.5156 1.66699L53.4806 12.3044V19.6851L33.5156 9.11768V1.66699Z" fill="white"/>
<path fill-rule="evenodd" clip-rule="evenodd" d="M61.8125 24.5183L67.1128 8.80713H71.4246L76.7249 24.5183H73.3165L69.2799 12.0338L67.1353 18.5922H70.2659L71.1869 21.4391H66.2294L65.2184 24.5183H61.8125ZM81.765 8.80713L88.4715 18.8297V8.80713H91.6899V24.5183H88.684L82.0152 14.7732V24.5183H78.7969V8.80713H81.765ZM93.9418 8.80713H106.73V11.6539H101.955V24.5183H98.7165V11.6539H93.9418V8.80713ZM106.13 24.5183L111.432 8.80713H115.742L121.044 24.5183H117.636L113.597 12.0338L111.452 18.5922H114.583L115.504 21.4391H110.546L109.538 24.5183H106.13ZM123.094 8.80713H126.332V21.6715H133.947V24.5183H123.094V8.80713ZM143.034 8.80713C144.31 8.80713 145.371 9.05957 146.219 9.56944C147.071 10.0793 147.709 10.7342 148.131 11.5365C148.562 12.3363 148.772 13.1661 148.772 14.0309C148.772 14.9231 148.562 15.7679 148.131 16.5677C147.704 17.365 147.068 18.0224 146.219 18.5298C145.371 19.0371 144.31 19.2946 143.034 19.2946H139.858V24.5183H136.617V8.80713H143.034ZM154.14 15.0706H160.198V8.80713H163.437V24.5183H160.198V17.9149H154.14V24.5183H150.901V8.80713H154.14V15.0706ZM180.411 24.5183H177.002L172.963 12.0338L170.819 18.5922H173.95L174.87 21.4391H169.916L168.904 24.5183H165.499L170.796 8.80713H175.11L180.411 24.5183ZM145.234 12.9036C145.044 12.5387 144.768 12.2413 144.403 12.0138C144.04 11.7864 143.581 11.6739 143.037 11.6739H139.861V16.4503H143.037C143.581 16.4503 144.037 16.3328 144.403 16.1004C144.768 15.8679 145.044 15.568 145.234 15.2081C145.421 14.8482 145.516 14.4608 145.516 14.0509C145.516 13.6559 145.421 13.2735 145.234 12.9036Z" fill="white"/>
</svg>
