<svg width="190" height="49" viewBox="0 0 190 49" fill="none" xmlns="http://www.w3.org/2000/svg">
<g clip-path="url(#clip0_425_4577)">
<path d="M24.955 27.7562L22.6402 34.1182C22.5418 34.3073 22.5418 34.504 22.6402 34.6931L26.6873 45.6772L31.3095 42.9766L25.719 27.7562C25.6283 27.3703 25.1441 27.3703 24.955 27.7562Z" fill="white"/>
<path d="M29.5782 16.9681C29.4798 16.5823 29.0032 16.5823 28.8066 16.9681L26.4917 23.3301C26.3934 23.5192 26.3934 23.7159 26.4917 23.905L33.0429 41.9244L37.665 39.2238L29.5782 16.9681Z" fill="white"/>
<path d="M21.2959 2.99494C21.3943 2.99494 21.485 2.99494 21.5834 3.09328L39.3078 13.3058C39.4969 13.4041 39.5952 13.5933 39.5952 13.8807V34.3057C39.5952 34.4949 39.4969 34.7899 39.3078 34.8807L21.5834 45.0932C21.485 45.1915 21.3943 45.1915 21.2959 45.1915C21.1976 45.1915 21.1068 45.1915 21.0084 45.0932L3.28407 34.8807C3.09495 34.7823 2.9966 34.5932 2.9966 34.3057V13.8807C2.9966 13.6916 3.09495 13.3966 3.28407 13.3058L21.0084 3.09328C21.0992 2.99494 21.1976 2.99494 21.2959 2.99494ZM21.2959 0.00683594C20.6226 0.00683594 20.0402 0.195957 19.4652 0.490985L1.74084 10.7035C0.583426 11.3768 -0.0898438 12.5342 -0.0898438 13.8807V34.3057C-0.0898438 35.5615 0.583426 36.8097 1.74084 37.483L19.4652 47.6955C20.0402 47.9829 20.6226 48.1796 21.2959 48.1796C21.9692 48.1796 22.5517 47.9905 23.1266 47.6955L40.851 37.483C42.0084 36.8097 42.6817 35.6523 42.6817 34.3057V13.8807C42.6817 12.625 42.0084 11.3768 40.851 10.7035L23.2174 0.490985C22.6425 0.203521 22.06 0.00683594 21.3867 0.00683594H21.2959Z" fill="white"/>
<path d="M9.64062 41.9164L11.2746 37.4834L14.5502 40.184L11.4713 43.0738L9.64062 41.9164Z" fill="white"/>
<path d="M19.8509 12.4351H15.3196C15.0321 12.4351 14.6463 12.6242 14.548 12.9192L4.91797 39.3129L9.54008 42.0135L20.1384 13.01C20.2367 12.7225 20.0401 12.4351 19.7526 12.4351H19.8509Z" fill="white"/>
<path d="M27.6506 12.4355H23.1193C22.8318 12.4355 22.446 12.6246 22.3477 12.9197L11.3711 42.9747L15.9932 45.6753L27.9381 12.9197C28.0364 12.6322 27.8397 12.3447 27.5523 12.3447L27.6506 12.4355Z" fill="white"/>
<path d="M61.7596 17.9272C62.2437 17.9272 62.6295 18.0256 62.917 18.2147C63.2045 18.4038 63.4919 18.7896 63.7869 19.2738L69.6648 29.8721C69.7632 29.9704 69.7632 30.0612 69.6648 30.1596C69.6648 30.2579 69.5665 30.2579 69.3773 30.2579H67.1609C66.9717 30.2579 66.8734 30.1596 66.775 30.0688L65.5117 27.754H57.2282L55.9725 30.0688C55.8741 30.2579 55.7834 30.2579 55.5867 30.2579H53.2718C53.0827 30.2579 52.9844 30.2579 52.9844 30.1596C52.9844 30.0612 52.9844 29.9704 52.9844 29.8721L58.7639 19.2738C59.0514 18.6989 59.3388 18.4038 59.6339 18.2147C59.9289 18.0256 60.2088 17.9272 60.5946 17.9272H61.6537H61.7596ZM58.2873 25.7341H64.3543L61.5629 20.5295C61.4645 20.4312 61.4645 20.4312 61.3738 20.4312H61.2754C61.1771 20.4312 61.0863 20.4312 61.0863 20.5295L58.2873 25.7341Z" fill="white"/>
<path d="M82.4733 17.9272C83.8199 17.9272 84.7882 18.2147 85.3631 18.888C85.938 19.4629 86.2331 20.4312 86.2331 21.5886V22.5494C86.2331 23.6084 86.044 24.38 85.6581 24.955C85.2723 25.5299 84.5991 25.9157 83.6383 26.1124L86.6264 29.8721C86.7248 29.9704 86.7248 30.0612 86.7248 30.1596C86.7248 30.2579 86.6264 30.3487 86.4373 30.3487H84.1225C83.9334 30.3487 83.835 30.3487 83.835 30.2503C83.7367 30.2503 83.7367 30.152 83.6459 30.0612L80.8545 26.3998H75.1733V29.9629C75.1733 30.2503 75.075 30.3487 74.7875 30.3487H72.8585C72.571 30.3487 72.4727 30.2503 72.4727 29.9629V18.5022C72.4727 18.1164 72.6618 17.9272 73.0476 17.9272H82.5868H82.4733ZM75.1506 24.2817H81.8909C82.4658 24.2817 82.9499 24.1834 83.1466 23.8959C83.4341 23.6084 83.5324 23.2226 83.5324 22.7385V21.9669C83.5324 21.3919 83.4341 21.0061 83.1466 20.8094C82.8592 20.522 82.4734 20.4236 81.8909 20.4236H75.3397C75.1506 20.4236 75.1506 20.522 75.1506 20.6128V24.2817Z" fill="white"/>
<path d="M101.068 17.9272C102.324 17.9272 103.186 18.2147 103.671 18.6989C104.155 19.183 104.442 19.9546 104.442 20.9154V21.7853C104.442 22.746 104.056 23.5176 103.285 24.0018C104.056 24.4859 104.541 25.2576 104.541 26.3166V27.3757C104.541 27.8599 104.442 28.2457 104.351 28.6315C104.261 29.0173 104.064 29.3047 103.867 29.5922C103.58 29.8797 103.292 30.0764 102.907 30.1671C102.521 30.2655 102.037 30.3562 101.462 30.3562H90.9616C90.5758 30.3562 90.3867 30.1671 90.3867 29.7813V18.5097C90.3867 18.1239 90.5758 17.9348 90.9616 17.9348H101.174H101.068V17.9272ZM93.0722 23.0335H100.297C100.872 23.0335 101.257 22.9352 101.454 22.746C101.651 22.5569 101.742 22.3602 101.742 21.9744V21.3995C101.742 21.0137 101.643 20.7262 101.454 20.6279C101.265 20.4388 100.879 20.3404 100.493 20.3404H93.2689C93.0798 20.3404 93.0798 20.4388 93.0798 20.5295V23.0335H93.0722ZM93.0722 24.9625V27.5648C93.0722 27.754 93.1706 27.754 93.2614 27.754H100.486C100.97 27.754 101.257 27.6556 101.446 27.4665C101.636 27.2774 101.734 26.9823 101.734 26.6949V26.0216C101.734 25.6358 101.636 25.3483 101.446 25.1517C101.257 24.955 100.872 24.8642 100.191 24.8642H92.9739L93.0722 24.9625Z" fill="white"/>
<path d="M111.08 17.9272C111.368 17.9272 111.466 18.0256 111.466 18.3131V29.8721C111.466 30.1596 111.368 30.2579 111.08 30.2579H109.151C108.864 30.2579 108.766 30.1596 108.766 29.8721V18.3131C108.766 18.0256 108.864 17.9272 109.151 17.9272H111.08Z" fill="white"/>
<path d="M129.677 17.9272C129.965 17.9272 130.063 18.0256 130.063 18.3131V20.0454C130.063 20.3329 129.965 20.4312 129.677 20.4312H124.087V29.8721C124.087 30.1596 123.989 30.2579 123.701 30.2579H121.772C121.485 30.2579 121.386 30.1596 121.386 29.8721V20.4312H115.796C115.508 20.4312 115.41 20.3329 115.41 20.0454V18.3131C115.41 18.0256 115.508 17.9272 115.796 17.9272H129.572H129.677Z" fill="white"/>
<path d="M143.649 17.9272C144.996 17.9272 145.964 18.2147 146.539 18.888C147.114 19.4629 147.409 20.4312 147.409 21.5886V22.5494C147.409 23.6084 147.22 24.38 146.834 24.955C146.448 25.5299 145.775 25.9157 144.814 26.1124L147.802 29.8721C147.901 29.9704 147.901 30.0612 147.901 30.1596C147.901 30.2579 147.802 30.3487 147.613 30.3487H145.298C145.109 30.3487 145.011 30.3487 145.011 30.2503C144.912 30.2503 144.912 30.152 144.822 30.0612L142.03 26.3998H136.349V29.9629C136.349 30.2503 136.251 30.3487 135.963 30.3487H134.034C133.747 30.3487 133.648 30.2503 133.648 29.9629V18.5022C133.648 18.1164 133.838 17.9272 134.223 17.9272H143.763H143.649ZM136.326 24.2817H143.067C143.642 24.2817 144.126 24.1834 144.322 23.8959C144.61 23.6084 144.708 23.2226 144.708 22.7385V21.9669C144.708 21.3919 144.61 21.0061 144.322 20.8094C144.035 20.522 143.649 20.4236 143.067 20.4236H136.516C136.326 20.4236 136.326 20.522 136.326 20.6128V24.2817Z" fill="white"/>
<path d="M153.574 17.9272C153.862 17.9272 153.96 18.0256 153.96 18.3131V25.3483C153.96 25.8325 153.96 26.2183 154.058 26.5058C154.157 26.7932 154.248 27.0807 154.444 27.2774C154.641 27.4741 154.83 27.5648 155.117 27.6632C155.405 27.7615 155.791 27.7615 156.275 27.7615H161.192C161.676 27.7615 162.062 27.7615 162.349 27.6632C162.637 27.5648 162.924 27.4741 163.023 27.2774C163.212 27.0882 163.31 26.7932 163.409 26.5058C163.507 26.2183 163.507 25.8325 163.507 25.3483V18.3131C163.507 18.0256 163.605 17.9272 163.893 17.9272H165.822C166.109 17.9272 166.208 18.0256 166.208 18.3131V25.6358C166.208 26.5058 166.109 27.179 165.92 27.754C165.731 28.3289 165.436 28.813 165.05 29.1988C164.664 29.5846 164.18 29.8721 163.507 29.9704C162.834 30.1596 162.16 30.2579 161.192 30.2579H156.086C155.216 30.2579 154.444 30.1596 153.771 29.9704C153.196 29.7813 152.614 29.4863 152.228 29.1988C151.842 28.813 151.554 28.3289 151.358 27.754C151.169 27.179 151.07 26.4074 151.07 25.6358V18.3131C151.07 18.0256 151.169 17.9272 151.456 17.9272H153.385H153.574Z" fill="white"/>
<path d="M173.804 17.9272C174.091 17.9272 174.288 17.9272 174.477 18.0256C174.666 18.0256 174.863 18.1239 174.961 18.2147C175.059 18.3131 175.248 18.4038 175.347 18.6005C175.445 18.7896 175.536 18.9863 175.733 19.2738L179.394 27.754C179.492 27.8523 179.492 27.9431 179.681 27.9431H179.871C179.969 27.9431 180.06 27.8447 180.158 27.754L183.819 19.2738C183.918 18.9863 184.009 18.7896 184.205 18.6005C184.304 18.4114 184.394 18.3131 184.591 18.2147C184.689 18.1164 184.879 18.0256 185.075 18.0256C185.272 18.0256 185.461 17.9272 185.748 17.9272H187.677C188.252 17.9272 188.737 18.0256 188.933 18.3131C189.122 18.6005 189.221 19.0847 189.221 19.7579V29.8721C189.221 30.1596 189.122 30.2579 188.835 30.2579H187.004C186.717 30.2579 186.618 30.1596 186.618 29.8721V20.6279C186.618 20.5295 186.52 20.4388 186.52 20.4388H186.331C186.233 20.4388 186.142 20.5371 186.142 20.5371L182.579 28.4348C182.48 28.7222 182.291 29.0097 182.095 29.2064C181.898 29.4031 181.807 29.5922 181.611 29.7813C181.421 29.8797 181.225 30.0688 181.036 30.0688C180.846 30.1671 180.551 30.1671 180.264 30.1671H179.394C179.107 30.1671 178.819 30.1671 178.622 30.0688C178.426 29.9704 178.237 29.8797 178.047 29.7813C177.858 29.683 177.76 29.4939 177.563 29.2064C177.374 29.0173 177.276 28.7222 177.079 28.4348L173.516 20.5371C173.516 20.4388 173.418 20.4388 173.327 20.4388H173.138C173.04 20.4388 173.04 20.5371 173.04 20.6279V29.8797C173.04 30.1671 172.941 30.2655 172.654 30.2655H170.816C170.528 30.2655 170.43 30.1671 170.43 29.8797V19.7579C170.43 19.0847 170.528 18.6005 170.717 18.3131C170.906 18.0256 171.39 17.9272 171.973 17.9272H173.902H173.804Z" fill="white"/>
</g>
<defs>
<clipPath id="clip0_425_4577">
<rect width="189.121" height="48.1879" fill="white"/>
</clipPath>
</defs>
</svg>
