<svg width="189" height="26" viewBox="0 0 189 26" fill="none" xmlns="http://www.w3.org/2000/svg">
<path d="M0.996094 12.812V1.15332L11.5823 1.23277C20.9967 1.31221 22.2678 1.3718 23.241 1.66972C25.8826 2.52377 26.8161 3.81477 26.975 6.81386C27.0942 9.29655 26.7367 10.6074 25.6046 11.6204C25.1676 12.0176 24.83 12.3751 24.8697 12.395C24.8895 12.4148 25.2669 12.6333 25.6641 12.8915C26.9154 13.6462 27.2133 14.5599 27.2133 17.7973C27.2133 20.3793 27.1736 20.6574 26.7168 21.5909C26.1607 22.6832 25.3066 23.3983 23.8369 23.9742C23.0226 24.292 21.9103 24.3317 11.9795 24.3913L0.996094 24.4509V12.812ZM21.5528 20.5779C21.9103 20.419 22.3075 20.1211 22.4267 19.9026C22.5459 19.6643 22.6452 18.5719 22.6452 17.4199C22.6452 15.4735 22.6253 15.3345 22.1288 14.8776L21.6124 14.401L13.5883 14.3414L5.56425 14.2818V17.5788V20.856H13.2109C19.368 20.856 20.9967 20.7964 21.5528 20.5779ZM21.096 10.528C22.2281 10.2102 22.4466 9.73351 22.4466 7.68777C22.4466 6.09885 22.4068 5.90023 21.95 5.46328L21.4733 4.96674H13.5089H5.56425V7.84666V10.7266H12.9726C17.4415 10.7266 20.659 10.6471 21.096 10.528Z" fill="white"/>
<path d="M32.1758 12.8119V1.19287H34.3606H36.5453V12.8119V24.4309H34.3606H32.1758V12.8119Z" fill="white"/>
<path d="M52.2372 14.6987V4.96657H46.2788H40.3203V3.07972V1.19287H54.422H68.5237V3.07972V4.96657H62.6646H56.8054V14.6987V24.4309H54.5213H52.2372V14.6987Z" fill="white"/>
<path d="M72.1413 12.8713L72.2009 1.29202L74.2069 1.23244L76.2328 1.17285L83.0254 10.5276C86.7594 15.6519 89.8776 19.8626 89.9372 19.8427C90.0167 19.8427 93.0952 15.6519 96.7895 10.5078L103.523 1.19271H105.39H107.257V12.8117V24.4307H105.171H103.086L103.046 16.5854L102.986 8.7401L97.3257 16.5656L91.6652 24.4109H89.7585L87.8518 24.4307L82.1118 16.5656L76.3718 8.68052L76.3122 16.5656L76.2725 24.4307H74.187H72.1016L72.1413 12.8713Z" fill="white"/>
<path d="M110.373 23.8549C110.572 23.5371 114.048 18.3135 118.08 12.2359L125.429 1.21273L126.938 1.19287C128.13 1.19287 128.507 1.27232 128.745 1.55038C129.103 1.94761 143.8 24.2124 143.8 24.3514C143.8 24.3912 142.668 24.4309 141.278 24.411H138.736L132.956 15.3343C129.778 10.349 127.097 6.25757 127.017 6.25757C126.958 6.25757 124.237 10.349 120.999 15.3343L115.101 24.411L112.558 24.4309H109.996L110.373 23.8549Z" fill="white"/>
<path d="M146.777 12.8119V1.19287H149.061H151.345V12.8119V24.4309H149.061H146.777V12.8119Z" fill="white"/>
<path d="M156.352 12.8713L156.412 1.29202L158.219 1.23244L160.046 1.17285L168.746 7.66758C173.552 11.2427 178.637 15.0561 180.087 16.1286C181.517 17.2011 182.748 18.075 182.808 18.075C182.867 18.075 182.947 14.3013 182.967 9.69346L183.026 1.29202L184.973 1.23244L186.899 1.17285V12.8117V24.4307H185.767H184.615L172.5 15.5725L160.384 6.73408L160.325 15.5725L160.285 24.4307H158.299H156.312L156.352 12.8713Z" fill="white"/>
</svg>
