<svg width="170" height="45" viewBox="0 0 170 45" fill="none" xmlns="http://www.w3.org/2000/svg">
<path d="M61.1225 23.8192C61.1225 24.3423 61.019 24.8319 60.8122 25.2881C60.6116 25.7382 60.3357 26.1336 59.9845 26.4742C59.6396 26.8088 59.232 27.0733 58.7617 27.268C58.2915 27.4626 57.793 27.5599 57.2663 27.5599H48.1336V25.6895H57.2663C57.5297 25.6895 57.7773 25.6409 58.0093 25.5436C58.2476 25.4463 58.4546 25.3125 58.6301 25.1422C58.8057 24.9718 58.9437 24.7741 59.044 24.5491C59.1443 24.318 59.1944 24.0746 59.1944 23.8192C59.1944 23.5637 59.1443 23.3235 59.044 23.0985C58.9437 22.8734 58.8057 22.6757 58.6301 22.5054C58.4546 22.3351 58.2476 22.2013 58.0093 22.104C57.7773 22.0066 57.5297 21.958 57.2663 21.958H48.1336V20.0876H55.3382C55.6015 20.0876 55.8492 20.039 56.0812 19.9417C56.3195 19.8443 56.5264 19.7105 56.702 19.5402C56.8776 19.3699 57.0155 19.1723 57.1158 18.9472C57.2161 18.7161 57.2663 18.4728 57.2663 18.2173C57.2663 17.9619 57.2161 17.7216 57.1158 17.4965C57.0155 17.2654 56.8776 17.0647 56.702 16.8943C56.5264 16.724 56.3195 16.5902 56.0812 16.4929C55.8492 16.3956 55.6015 16.3469 55.3382 16.3469H47.1743V27.5599H45.2461V14.4766H55.3382C55.8649 14.4766 56.3634 14.5769 56.8337 14.7776C57.3039 14.9723 57.7115 15.2399 58.0564 15.5805C58.4075 15.9151 58.6834 16.3105 58.884 16.7666C59.091 17.2228 59.1944 17.7063 59.1944 18.2173C59.1944 18.6126 59.1349 18.9867 59.0157 19.3395C58.8966 19.6862 58.7367 20.0085 58.5361 20.3066C58.9123 20.4344 59.2572 20.6137 59.5707 20.8449C59.8904 21.0761 60.1632 21.3437 60.3889 21.6478C60.621 21.9519 60.7996 22.2895 60.9251 22.6605C61.0567 23.0254 61.1225 23.4117 61.1225 23.8192Z" fill="#3B3B3B"/>
<path d="M77.3351 27.5599H63.3867V14.4766H77.3351V16.3469H65.3149V25.6895H77.3351V27.5599ZM75.6985 21.958H66.2742V20.0876H75.6985V21.958Z" fill="#3B3B3B"/>
<path d="M95.6257 21.0182C95.6257 21.9245 95.4752 22.776 95.1742 23.5728C94.8795 24.3697 94.4594 25.0631 93.9139 25.6531C93.3684 26.243 92.7131 26.7084 91.9482 27.049C91.1894 27.3896 90.3461 27.5599 89.418 27.5599H82.6179V25.6895H89.418C90.0827 25.6895 90.6784 25.5679 91.2052 25.3246C91.7381 25.0813 92.1864 24.7499 92.5501 24.3301C92.92 23.9044 93.2022 23.4086 93.3966 22.843C93.5972 22.2712 93.6975 21.663 93.6975 21.0182C93.6975 20.3736 93.5972 19.7682 93.3966 19.2026C93.2022 18.637 92.92 18.1443 92.5501 17.7246C92.1864 17.2988 91.7381 16.9643 91.2052 16.721C90.6784 16.4716 90.0827 16.3469 89.418 16.3469H81.6585V27.5599H79.7305V14.4766H89.418C90.3461 14.4766 91.1894 14.65 91.9482 14.9966C92.7131 15.3372 93.3684 15.8056 93.9139 16.4016C94.4594 16.9916 94.8795 17.6851 95.1742 18.4819C95.4752 19.2726 95.6257 20.118 95.6257 21.0182Z" fill="#3B3B3B"/>
<path d="M113.656 27.5599H111.051L107.006 23.8192H101.1V21.9762H108.84C109.241 21.9762 109.618 21.9032 109.969 21.7572C110.32 21.6052 110.624 21.4014 110.881 21.146C111.145 20.8905 111.352 20.5925 111.502 20.2518C111.653 19.9051 111.728 19.5372 111.728 19.1479C111.728 18.7586 111.653 18.3937 111.502 18.053C111.352 17.7125 111.145 17.4175 110.881 17.1681C110.624 16.9126 110.32 16.7119 109.969 16.5659C109.618 16.4199 109.241 16.3469 108.84 16.3469H100.018V27.5599H98.0898V14.4766H108.84C109.505 14.4766 110.129 14.6013 110.712 14.8507C111.295 15.0939 111.803 15.4285 112.236 15.8543C112.675 16.2739 113.019 16.7666 113.271 17.3323C113.527 17.8979 113.656 18.5031 113.656 19.1479C113.656 19.7318 113.552 20.2853 113.346 20.8084C113.139 21.3255 112.853 21.7907 112.489 22.2043C112.126 22.6118 111.696 22.9525 111.201 23.2261C110.712 23.4938 110.182 23.6732 109.612 23.7645L113.656 27.5599Z" fill="#3B3B3B"/>
<path d="M132.233 21.0182C132.233 21.9245 132.086 22.776 131.791 23.5728C131.496 24.3697 131.076 25.0631 130.531 25.6531C129.991 26.243 129.343 26.7084 128.583 27.049C127.825 27.3896 126.982 27.5599 126.054 27.5599H121.567C120.633 27.5599 119.784 27.3896 119.018 27.049C118.254 26.7084 117.598 26.243 117.053 25.6531C116.513 25.0631 116.096 24.3697 115.802 23.5728C115.507 22.776 115.359 21.9245 115.359 21.0182C115.359 20.118 115.507 19.2726 115.802 18.4819C116.096 17.6851 116.513 16.9916 117.053 16.4016C117.598 15.8056 118.254 15.3372 119.018 14.9966C119.784 14.65 120.633 14.4766 121.567 14.4766H126.054C126.982 14.4766 127.825 14.65 128.583 14.9966C129.343 15.3372 129.991 15.8056 130.531 16.4016C131.076 16.9916 131.496 17.6851 131.791 18.4819C132.086 19.2726 132.233 20.118 132.233 21.0182ZM130.305 21.0182C130.305 20.3736 130.207 19.7682 130.013 19.2026C129.819 18.637 129.537 18.1443 129.166 17.7246C128.803 17.2988 128.358 16.9643 127.832 16.721C127.311 16.4716 126.718 16.3469 126.054 16.3469H121.567C120.903 16.3469 120.304 16.4716 119.771 16.721C119.244 16.9643 118.795 17.2988 118.426 17.7246C118.062 18.1443 117.779 18.637 117.579 19.2026C117.385 19.7682 117.287 20.3736 117.287 21.0182C117.287 21.663 117.385 22.2712 117.579 22.843C117.779 23.4086 118.062 23.9044 118.426 24.3301C118.795 24.7499 119.244 25.0813 119.771 25.3246C120.304 25.5679 120.903 25.6895 121.567 25.6895H126.054C126.718 25.6895 127.311 25.5679 127.832 25.3246C128.358 25.0813 128.803 24.7499 129.166 24.3301C129.537 23.9044 129.819 23.4086 130.013 22.843C130.207 22.2712 130.305 21.663 130.305 21.0182Z" fill="#3B3B3B"/>
<path d="M148.814 27.5599H140.133C139.199 27.5599 138.349 27.3896 137.584 27.049C136.819 26.7084 136.164 26.243 135.618 25.6531C135.079 25.0631 134.662 24.3697 134.367 23.5728C134.073 22.776 133.926 21.9245 133.926 21.0182C133.926 20.118 134.073 19.2726 134.367 18.4819C134.662 17.6851 135.079 16.9916 135.618 16.4016C136.164 15.8056 136.819 15.3372 137.584 14.9966C138.349 14.65 139.199 14.4766 140.133 14.4766H148.814V16.3469H140.133C139.468 16.3469 138.87 16.4716 138.336 16.721C137.809 16.9643 137.362 17.2988 136.991 17.7246C136.628 18.1443 136.346 18.637 136.145 19.2026C135.951 19.7682 135.854 20.3736 135.854 21.0182C135.854 21.663 135.951 22.2712 136.145 22.843C136.346 23.4086 136.628 23.9044 136.991 24.3301C137.362 24.7499 137.809 25.0813 138.336 25.3246C138.87 25.5679 139.468 25.6895 140.133 25.6895H148.814V27.5599Z" fill="#3B3B3B"/>
<path d="M166.835 27.5599H164.24L157.354 20.8358L153.084 23.8192V27.5599H151.156V14.4766H153.084V21.7664L163.656 14.4766H166.469L158.822 19.8048L166.835 27.5599Z" fill="#3B3B3B"/>
<path d="M7.16323 24.3418L4.22656 28.6138L4.41913 30.1924L8.24162 33.1213C8.24162 33.1213 12.3818 36.3135 14.618 36.6264C15.3595 36.7299 22.3714 31.4086 27.0243 29.0302C30.801 27.0989 33.0035 26.3673 33.0035 26.3673L37.837 27.2918L28.6202 18.7217C28.6202 18.7217 21.9766 22.7162 20.3831 24.3395C18.7895 25.9626 14.6036 28.8845 14.6036 28.8845L10.0855 27.5482L7.16323 24.3395V24.3418Z" fill="#3B3B3B"/>
<path d="M10.4175 16.5896L7.64453 20.6147L10.3357 23.6988L14.4711 24.948L21.2471 19.349L25.2333 17.1095L28.0232 15.8932L23.7722 12.501C23.7722 12.501 18.4572 12.8256 16.5316 15.1616C16.5316 15.1616 12.8126 18.6668 12.2133 18.2128L10.4199 16.5896H10.4175Z" fill="#3B3B3B"/>
<path d="M17.1002 5.23242L10.832 13.4779C10.832 13.4779 11.9826 15.1622 12.6254 14.8094C13.3475 14.4142 16.0025 11.7206 17.1892 11.1724C19.5651 10.0738 18.5131 10.4032 21.2452 9.71154L23.1878 10.0432L17.1002 5.23242Z" fill="#3B3B3B"/>
</svg>
