<svg width="169" height="48" viewBox="0 0 169 48" fill="none" xmlns="http://www.w3.org/2000/svg">
<g clip-path="url(#clip0_472_935)">
<path d="M71.5172 42.1794C66.8052 42.2581 63.0837 40.2594 62.7271 35.8697C62.7262 35.8334 62.7328 35.7973 62.7465 35.7636C62.7601 35.7299 62.7805 35.6993 62.8065 35.6736C62.8324 35.648 62.8633 35.6278 62.8973 35.6144C62.9314 35.601 62.9678 35.5945 63.0044 35.5955H66.0151C66.1737 35.5955 66.2924 35.7128 66.3323 35.8697C66.6884 38.4172 68.7472 39.5942 71.5979 39.5942C74.924 39.5942 77.2202 37.6346 77.2202 33.088V30.8151C75.9135 33.0498 73.736 34.3813 70.8862 34.3813C65.1847 34.3813 62.1758 30.1098 62.1758 24.3485C62.1758 18.6263 65.2639 14.002 70.7675 14.002C73.6182 14.002 75.7957 15.2166 77.1423 17.4508L77.0231 14.5895C77.0223 14.5532 77.0289 14.5171 77.0425 14.4834C77.0562 14.4496 77.0766 14.419 77.1025 14.3934C77.1284 14.3678 77.1593 14.3476 77.1934 14.3342C77.2274 14.3208 77.2638 14.3143 77.3004 14.3153H80.3501C80.3867 14.3143 80.4231 14.3208 80.4571 14.3342C80.4911 14.3476 80.522 14.3678 80.548 14.3934C80.5739 14.419 80.5943 14.4496 80.608 14.4834C80.6216 14.5171 80.6282 14.5532 80.6274 14.5895L80.5481 22.3885L80.5875 33.1276C80.6236 38.9279 77.337 42.1794 71.5172 42.1794ZM71.6753 31.8333C75.0014 31.8333 77.1789 29.4813 77.2183 24.504C77.2582 19.6836 75.3575 16.7837 71.992 16.5481H71.3169C67.6746 16.6659 65.8138 19.6441 65.8138 24.2298C65.8157 29.0907 67.7952 31.8733 71.6753 31.8342V31.8333Z" fill="#3B3B3B"/>
<path d="M98.3442 34.4982C98.3076 34.4991 98.2713 34.4926 98.2373 34.4791C98.2033 34.4657 98.1725 34.4455 98.1466 34.4199C98.1207 34.3942 98.1004 34.3636 98.0867 34.33C98.0731 34.2963 98.0665 34.2602 98.0674 34.2239L98.1462 31.2444C96.7607 33.5177 94.5804 34.8897 91.6133 34.8897C86.1097 34.8897 83.1797 30.3039 83.1797 24.4644C83.1797 18.6249 86.3077 13.9219 91.6926 13.9219C94.5827 13.9219 96.7597 15.137 98.1068 17.3707L98.0275 14.5881C98.0266 14.5518 98.0332 14.5157 98.0469 14.482C98.0605 14.4483 98.081 14.4176 98.1069 14.392C98.1328 14.3664 98.1637 14.3462 98.1977 14.3328C98.2318 14.3194 98.2682 14.3129 98.3048 14.3139H101.391C101.428 14.3129 101.464 14.3194 101.498 14.3328C101.532 14.3462 101.563 14.3664 101.589 14.392C101.615 14.4176 101.635 14.4483 101.649 14.482C101.663 14.5157 101.669 14.5518 101.668 14.5881L101.55 24.2293L101.673 34.2253C101.673 34.2619 101.666 34.2982 101.652 34.3321C101.638 34.3659 101.618 34.3965 101.591 34.4221C101.565 34.4476 101.533 34.4676 101.499 34.4806C101.465 34.4937 101.428 34.4997 101.391 34.4982H98.3442ZM92.5263 32.2635C96.0499 32.2635 98.1884 29.6768 98.2278 24.5818C98.2672 19.6827 96.367 16.7827 93.0016 16.5472H92.3283C88.6067 16.6649 86.8647 19.7595 86.8647 24.1898C86.8623 29.0125 88.6832 32.2635 92.5235 32.2635H92.5263Z" fill="#3B3B3B"/>
<path d="M105.382 34.4975C105.346 34.4984 105.309 34.4919 105.275 34.4785C105.242 34.465 105.211 34.4449 105.185 34.4192C105.159 34.3936 105.139 34.363 105.125 34.3293C105.111 34.2957 105.105 34.2596 105.106 34.2233L105.224 20.6239L105.106 7.33778C105.105 7.30151 105.111 7.26544 105.125 7.23176C105.139 7.19809 105.159 7.16751 105.185 7.14187C105.211 7.11623 105.242 7.09608 105.275 7.08262C105.309 7.06916 105.346 7.06268 105.382 7.06357H108.432C108.469 7.06261 108.505 7.06905 108.539 7.08248C108.573 7.09591 108.604 7.11606 108.63 7.1417C108.656 7.16734 108.676 7.19795 108.69 7.23165C108.704 7.26536 108.71 7.30147 108.709 7.33778L108.591 20.5848L108.709 34.2256C108.71 34.262 108.704 34.2981 108.69 34.3318C108.676 34.3655 108.656 34.3961 108.63 34.4217C108.604 34.4474 108.573 34.4675 108.539 34.4809C108.505 34.4944 108.469 34.5008 108.432 34.4999L105.382 34.4975Z" fill="#3B3B3B"/>
<path d="M126.454 34.4982C126.417 34.499 126.381 34.4926 126.347 34.4791C126.313 34.4657 126.282 34.4455 126.256 34.4199C126.23 34.3943 126.209 34.3637 126.196 34.33C126.182 34.2963 126.175 34.2602 126.176 34.2239L126.256 31.2444C124.87 33.5177 122.692 34.8897 119.723 34.8897C114.219 34.8897 111.289 30.3039 111.289 24.4644C111.289 18.6249 114.417 13.9219 119.802 13.9219C122.692 13.9219 124.869 15.137 126.216 17.3707L126.137 14.5881C126.136 14.5518 126.143 14.5157 126.156 14.482C126.17 14.4483 126.19 14.4176 126.216 14.392C126.242 14.3664 126.273 14.3462 126.307 14.3328C126.341 14.3194 126.378 14.3129 126.414 14.3139H129.502C129.539 14.3129 129.575 14.3194 129.609 14.3328C129.643 14.3462 129.674 14.3664 129.7 14.392C129.726 14.4176 129.747 14.4483 129.76 14.482C129.774 14.5157 129.78 14.5518 129.78 14.5881L129.66 24.2293L129.78 34.2235C129.78 34.2598 129.774 34.2959 129.76 34.3295C129.746 34.3632 129.726 34.3938 129.7 34.4194C129.674 34.445 129.643 34.4652 129.609 34.4787C129.575 34.4921 129.539 34.4986 129.502 34.4977L126.454 34.4982ZM120.636 32.2635C124.159 32.2635 126.298 29.6768 126.337 24.5818C126.377 19.6827 124.476 16.7827 121.111 16.5472H120.438C116.716 16.6649 114.974 19.7595 114.974 24.1898C114.972 29.0125 116.793 32.2635 120.633 32.2635H120.636Z" fill="#3B3B3B"/>
<path d="M145.97 34.498C145.811 34.498 145.613 34.4193 145.534 34.2652L140.467 26.0351L135.398 34.2652C135.319 34.4217 135.121 34.498 134.962 34.498H131.755C131.728 34.4989 131.7 34.492 131.677 34.478C131.653 34.464 131.634 34.4436 131.621 34.4192C131.609 34.3947 131.603 34.3672 131.606 34.34C131.609 34.3127 131.619 34.2868 131.637 34.2652L138.249 23.8009L132.191 14.5507C132.173 14.5292 132.162 14.503 132.159 14.4754C132.155 14.4477 132.16 14.4197 132.173 14.3949C132.186 14.37 132.205 14.3492 132.229 14.3352C132.254 14.3211 132.281 14.3143 132.309 14.3156H135.833C135.992 14.3156 136.19 14.3938 136.269 14.5507L140.862 21.9577L145.296 14.5507C145.345 14.4802 145.41 14.4222 145.486 14.3813C145.561 14.3405 145.646 14.318 145.732 14.3156H148.82C148.848 14.3143 148.876 14.3211 148.9 14.3352C148.924 14.3492 148.944 14.37 148.956 14.3949C148.969 14.4197 148.974 14.4477 148.971 14.4754C148.968 14.503 148.956 14.5292 148.939 14.5507L143.079 23.9177L149.612 34.2652C149.629 34.2868 149.64 34.3127 149.642 34.34C149.645 34.3672 149.64 34.3947 149.627 34.4192C149.615 34.4436 149.596 34.464 149.572 34.478C149.548 34.492 149.521 34.4989 149.493 34.498H145.97Z" fill="#3B3B3B"/>
<path d="M159.674 40.8872C159.652 40.9648 159.606 41.0333 159.542 41.0827C159.477 41.1322 159.399 41.1599 159.318 41.1619H156.428C156.395 41.1605 156.363 41.1517 156.334 41.1363C156.305 41.1208 156.28 41.099 156.261 41.0725C156.242 41.046 156.229 41.0155 156.224 40.9834C156.218 40.9513 156.22 40.9184 156.23 40.8872L158.447 34.5384L150.449 14.5896C150.37 14.4328 150.449 14.3154 150.607 14.3154H154.131C154.212 14.3174 154.291 14.345 154.355 14.3944C154.419 14.4437 154.465 14.5121 154.488 14.5896L160.308 29.8744L165.217 14.5896C165.239 14.5122 165.286 14.4438 165.35 14.3945C165.414 14.3452 165.492 14.3175 165.573 14.3154H168.741C168.899 14.3154 168.979 14.4328 168.939 14.5896L159.674 40.8872Z" fill="#3B3B3B"/>
<path d="M7.16674 7.06485H41.5452V41.1754C45.9438 36.8108 48.6651 30.7818 48.6651 24.1215C48.6651 10.801 37.7815 0 24.3562 0C10.931 0 0.046875 10.801 0.046875 24.1215C0.046875 30.779 2.76814 36.8052 7.16674 41.1693V7.06485Z" fill="#3B3B3B"/>
<path d="M7.17204 41.1777H7.16406V48H41.5426V41.1777H41.5402H7.17204Z" fill="#3B3B3B"/>
</g>
<defs>
<clipPath id="clip0_472_935">
<rect width="169" height="48" fill="white"/>
</clipPath>
</defs>
</svg>
