<svg width="169" height="38" viewBox="0 0 169 38" fill="none" xmlns="http://www.w3.org/2000/svg">
<g clip-path="url(#clip0_472_785)">
<path fill-rule="evenodd" clip-rule="evenodd" d="M19.2836 25.3341H12.8557H6.42787V12.6675V6.33425H25.7112V12.6672H32.139V6.33389H25.7116V0.000976562H0V25.3341H6.42787V31.6673H25.7116V12.6675H12.8557V19.0008H19.2836V25.3341ZM6.42787 31.6677H0V38.001H6.42787V31.6677ZM135.512 29.4778V8.00769H138.79V29.4778H135.512ZM68.1302 16.3753H64.636L64.6254 16.2922C64.4114 14.6209 63.8177 13.3783 62.7523 12.5511C61.6848 11.7222 60.1283 11.2985 57.9641 11.2985C55.4988 11.2985 53.764 11.9918 52.6426 13.3201C51.518 14.652 50.9949 16.6396 50.9949 19.2596C50.9949 21.8498 51.4874 23.8374 52.6005 25.1767C53.7103 26.5119 55.4523 27.2206 57.9948 27.2206C60.3826 27.2206 61.9834 26.5575 63.0372 25.5267C64.0678 24.5184 64.587 23.147 64.7959 21.665H56.1399V19.1646H68.0881V29.4778H65.0258V25.6348C63.9226 28.3058 61.3118 29.9946 57.532 29.9946C54.053 29.9946 51.5324 28.8304 49.8836 26.8978C48.237 24.9679 47.4699 22.2836 47.4699 19.2596C47.4699 16.2493 48.284 13.5643 50.0242 11.6307C51.766 9.69516 54.4248 8.52449 58.0875 8.52449C61.2628 8.52449 63.6325 9.21115 65.2794 10.5294C66.9279 11.8488 67.8387 13.79 68.1184 16.2698L68.1302 16.3753ZM75.7597 20.6251L79.6166 19.9867C80.3532 19.8657 80.873 19.6939 81.2079 19.4321C81.5354 19.176 81.6958 18.8258 81.6958 18.3171C81.6958 17.6502 81.5161 17.1055 81.0302 16.7231C80.5388 16.3365 79.717 16.1017 78.3982 16.1017C77.1441 16.1017 76.2356 16.3506 75.623 16.8225C75.0134 17.2922 74.6824 17.9939 74.6068 18.9326L74.5997 19.0202H71.328L71.3288 18.9242C71.3445 17.2875 71.9726 15.9445 73.1586 15.0128C74.3418 14.0832 76.0705 13.5709 78.2748 13.5709C80.417 13.5709 82.0301 14.0525 83.1096 14.8988C84.1919 15.7472 84.7273 16.954 84.7273 18.3779V25.9172C84.7273 27.0393 84.758 27.9486 84.8813 29.3746L84.8901 29.4778H81.8903L81.8816 29.3925C81.7759 28.3779 81.7153 27.4736 81.6998 26.472C80.9508 28.2416 79.2446 29.873 76.2076 29.873C74.6175 29.873 73.3122 29.4504 72.4031 28.6636C71.4922 27.8755 70.9895 26.7309 70.9895 25.3092C70.9895 24.0768 71.3025 23.0474 72.0649 22.2532C72.8253 21.4611 74.021 20.9156 75.7597 20.6251ZM81.6958 21.2669C80.8788 21.8103 79.9372 22.0402 79.0682 22.2401L76.939 22.7265C75.9886 22.938 75.3215 23.222 74.8927 23.6155C74.4685 24.0044 74.2677 24.5093 74.2677 25.1876C74.2677 25.8919 74.5273 26.426 74.9728 26.786C75.4211 27.148 76.0681 27.3422 76.8556 27.3422C78.449 27.3422 79.6552 26.7526 80.4647 25.7956C81.2761 24.8361 81.6958 23.499 81.6958 21.9956V21.2669ZM102.127 14.0877H98.8484V20.5972C98.8484 22.8519 98.4101 24.5172 97.6428 25.6162C96.8785 26.7104 95.7826 27.251 94.4401 27.251C93.4155 27.251 92.543 27.0619 91.9254 26.4972C91.3091 25.9337 90.9264 24.9769 90.9264 23.394V14.0877H87.6482V23.6676C87.6482 25.6688 88.0587 27.2462 89.0023 28.3237C89.9484 29.404 91.4143 29.9642 93.4835 29.9642C94.9527 29.9642 96.1154 29.5633 97.0249 28.8768C97.8153 28.28 98.4096 27.471 98.8484 26.5324V29.4778H102.127V14.0877ZM120.115 29.4778H116.837V20.1716C116.837 18.5876 116.469 17.63 115.882 17.0665C115.295 16.5029 114.47 16.3145 113.508 16.3145C112.019 16.3145 110.879 16.7845 110.107 17.8369C109.331 18.8959 108.915 20.559 108.915 22.9684V29.4778H105.636V14.0877H108.915V17.1306C109.368 16.172 109.977 15.3391 110.788 14.7231C111.717 14.0175 112.902 13.6013 114.403 13.6013C116.472 13.6013 117.908 14.1614 118.823 15.2429C119.736 16.3206 120.115 17.898 120.115 19.898V29.4778ZM121.831 14.3541V16.6185H124.763V24.914C124.763 26.4381 124.993 27.5878 125.718 28.3532C126.444 29.1198 127.643 29.4778 129.518 29.4778H132.669V26.8558H128.041V16.6185H132.977V14.0877H128.041V10.6525H126.339L124.794 14.0931L121.831 14.3541ZM156.864 24.6974H153.842L153.822 24.7677C153.611 25.5415 153.205 26.2278 152.513 26.7218C151.82 27.2162 150.831 27.5246 149.442 27.5246C148.128 27.5246 146.998 27.2384 146.167 26.4929C145.35 25.761 144.805 24.572 144.67 22.729H156.806L156.819 22.6484C156.881 22.2458 156.881 21.8747 156.881 21.4816V21.4788C156.881 19.2877 156.244 17.3181 154.979 15.8947C153.713 14.4696 151.827 13.6013 149.349 13.6013C146.687 13.6013 144.708 14.5149 143.395 15.9974C142.084 17.4781 141.447 19.5163 141.447 21.7524C141.447 24.0166 142.029 26.0703 143.313 27.5593C144.6 29.051 146.58 29.9642 149.349 29.9642C152.083 29.9642 153.889 29.2139 155.048 28.188C156.206 27.163 156.709 25.8714 156.85 24.8045L156.864 24.6974ZM152.505 17.0962C153.215 17.7914 153.632 18.8501 153.721 20.3198H144.706C144.899 18.7058 145.42 17.6468 146.196 16.9868C146.989 16.3122 148.065 16.0409 149.38 16.0409C150.737 16.0409 151.781 16.3862 152.505 17.0962ZM157.749 16.6185V14.3541L160.712 14.0931L162.257 10.6525H163.959V14.0877H168.895V16.6185H163.959V26.8558H168.587V29.4778H165.436C163.561 29.4778 162.362 29.1198 161.636 28.3532C160.911 27.5878 160.681 26.4381 160.681 24.914V16.6185H157.749ZM156.744 24.8655C156.746 24.8524 156.748 24.8395 156.75 24.8266L156.75 24.8224C156.748 24.8366 156.746 24.8511 156.744 24.8655ZM144.571 22.6938L144.569 22.6653L144.567 22.644C144.569 22.6608 144.57 22.6773 144.571 22.6938Z" fill="#3B3B3B"/>
</g>
<defs>
<clipPath id="clip0_472_785">
<rect width="169" height="38" fill="white"/>
</clipPath>
</defs>
</svg>
