<svg width="168" height="27" viewBox="0 0 168 27" fill="none" xmlns="http://www.w3.org/2000/svg">
<path d="M19.4049 0H19.2877C19.2201 0 19.148 0.00904428 19.0804 0.0271316L0.572457 5.05993C0.234392 5.15036 0 5.45785 0 5.80151C0 6.14517 0.234392 6.45265 0.572457 6.54309L11.9855 9.64958L19.0804 11.5804C19.148 11.5985 19.2156 11.6075 19.2877 11.6075H19.4049C19.4726 11.6075 19.5447 11.5985 19.6123 11.5804L26.7071 9.64958L38.1202 6.54309C38.4583 6.45265 38.6927 6.14517 38.6927 5.80151C38.6927 5.45785 38.4583 5.15036 38.1202 5.05993L19.6123 0.0271316C19.5447 0.00904428 19.4771 0 19.4049 0Z" fill="#3B3B3B"/>
<path d="M19.6027 13.0682H19.0888C19.0212 13.0682 18.9491 13.0592 18.8815 13.0411L9.41564 10.4637C9.28041 10.4275 9.13617 10.4275 9.00545 10.4637L0.576363 12.7562C0.238298 12.8467 0.00390625 13.1541 0.00390625 13.4978C0.00390625 13.8415 0.238298 14.1489 0.576363 14.2394L11.9939 17.3459L19.0843 19.2767C19.1519 19.2948 19.2195 19.3038 19.2916 19.3038H19.4088C19.4765 19.3038 19.5486 19.2948 19.6162 19.2767L26.7065 17.3459L38.1241 14.2394C38.4622 14.1489 38.6966 13.8415 38.6966 13.4978C38.6966 13.1541 38.4622 12.8467 38.1241 12.7562L29.695 10.4637C29.5598 10.4275 29.4156 10.4275 29.2849 10.4637L19.819 13.0411C19.7514 13.0592 19.6838 13.0682 19.6117 13.0682" fill="#3B3B3B"/>
<path d="M19.6027 20.7639H19.0888C19.0212 20.7639 18.9491 20.7549 18.8815 20.7368L9.42015 18.1638C9.28492 18.1277 9.14068 18.1277 9.00996 18.1638L0.576363 20.4564C0.238298 20.5469 0.00390625 20.8543 0.00390625 21.198C0.00390625 21.5417 0.238298 21.8491 0.576363 21.9396L19.0843 26.9724C19.1519 26.9905 19.2195 26.9995 19.2916 26.9995H19.4088C19.4765 26.9995 19.5486 26.9905 19.6162 26.9724L38.1241 21.9396C38.4622 21.8491 38.6966 21.5417 38.6966 21.198C38.6966 20.8543 38.4622 20.5469 38.1241 20.4564L29.6905 18.1638C29.5553 18.1277 29.4111 18.1277 29.2758 18.1638L19.8145 20.7368C19.7469 20.7549 19.6793 20.7639 19.6072 20.7639" fill="#3B3B3B"/>
<path d="M48.7148 23.8211L48.7193 3.87988H53.5785V11.7614H62.3682V3.87988H67.2273V23.8211H62.3682V15.6547H53.5785L53.574 23.8211H48.7148Z" fill="#3B3B3B"/>
<path d="M78.8033 15.3691C78.7087 13.9764 77.8117 12.7103 76.0537 12.7103C74.2011 12.7103 73.3357 13.8814 73.0788 15.3691H78.8033ZM83.1486 18.8509C82.4139 22.0478 79.8851 24.2002 76.1799 24.2002C71.6724 24.2002 68.4766 21.4781 68.4766 17.015C68.4766 12.5837 71.74 9.38672 76.0853 9.38672C80.7866 9.38672 83.2478 12.5837 83.2478 16.4136V17.8064H73.0156C73.1419 19.6739 74.5482 20.7501 76.3422 20.7501C77.9424 20.7501 78.9295 20.1487 79.4434 18.8509H83.1531H83.1486Z" fill="#3B3B3B"/>
<path d="M106.227 23.8251V7.84039H99.2266V3.88379H118.154L118.149 7.84039H111.054V23.8251H106.227Z" fill="#3B3B3B"/>
<path d="M125.927 14.2394C125.193 13.8279 124.49 13.6696 123.498 13.6696C121.578 13.6696 120.302 14.7458 120.302 17.1831V23.8302H115.695V9.77632H120.302V12.3402C120.847 10.7576 122.317 9.39648 124.233 9.39648C125.094 9.39648 125.833 9.64971 126.216 9.96623L125.927 14.2394Z" fill="#3B3B3B"/>
<path d="M137.053 9.77637H141.686V23.8302H137.048V21.6462C136.282 23.2288 134.682 24.21 132.541 24.21C128.705 24.21 127.492 21.6145 127.492 18.6075V9.77637H132.099V17.4997C132.099 19.4938 132.771 20.6016 134.465 20.6016C136.16 20.6016 137.057 19.1772 137.057 16.9299V9.77637H137.053Z" fill="#3B3B3B"/>
<path d="M147.026 19.1455C147.215 20.5066 148.306 21.2663 150.032 21.2663C151.281 21.2663 152.11 20.8231 152.11 20.0635C152.11 19.3671 151.664 18.9873 150.51 18.7974L148.338 18.4492C145.074 17.9427 143.321 16.8349 143.321 14.0494C143.321 11.3273 145.719 9.39648 149.523 9.39648C153.553 9.39648 155.951 11.169 156.235 14.1761L152.43 14.3027C152.205 13.0682 151.213 12.3718 149.455 12.3718C148.306 12.3718 147.603 12.8466 147.603 13.6063C147.603 14.1761 148.049 14.5242 148.752 14.6192L151.502 15.094C154.603 15.5688 156.392 16.9299 156.392 19.6203C156.392 22.564 153.868 24.21 149.996 24.21C146.16 24.21 143.253 22.659 142.996 19.2405L147.026 19.1455Z" fill="#3B3B3B"/>
<path d="M93.0714 15.8579L97.7953 9.77148H92.9993L90.75 12.8056L93.0714 15.8579Z" fill="#3B3B3B"/>
<path d="M95.1933 19.8106L92.6149 16.4508L90.28 13.4438L87.6251 9.7721L82.482 9.76758L87.6567 16.6408L82.0312 23.8259H86.8273L89.9916 19.6478L93.1243 23.8259H98.2719L95.1933 19.8106Z" fill="#3B3B3B"/>
<path d="M165.693 20.5381C164.607 20.5381 164.03 20.0316 164.03 18.8288V12.973V9.77611V5.88281H161.185L160.708 7.75033C160.356 9.04809 159.941 9.77611 158.535 10.0293L157.512 10.1876V12.973H159.495V20.0633C159.495 23.2285 161.573 24.2098 163.872 24.2098C165.724 24.2098 166.941 23.7666 167.996 22.9753V19.9683C167.135 20.3481 166.401 20.5381 165.693 20.5381Z" fill="#3B3B3B"/>
<path d="M167.806 9.77637H164.836V12.9733H167.806V9.77637Z" fill="#3B3B3B"/>
</svg>
