<svg width="170" height="29" viewBox="0 0 170 29" fill="none" xmlns="http://www.w3.org/2000/svg">
<g clip-path="url(#clip0_472_944)">
<path d="M133.7 12.1712V17.1348H118.205V23.6624H134.241V29H112.826C112.86 23.4243 112.86 17.8488 112.86 12.1712H133.7ZM18.4039 0.0679953C18.7085 0.0679953 18.8776 0.135991 19.0129 0.44197C23.1742 9.82532 27.3691 19.2087 31.5304 28.558C31.5642 28.66 31.598 28.7621 31.6657 28.932H29.5343C28.4518 28.932 27.403 28.8981 26.3205 28.932C25.9145 28.932 25.7115 28.8301 25.5424 28.422C23.0726 22.7444 20.603 17.0329 18.1334 11.3552C17.389 9.65533 16.6447 7.92145 15.8666 6.11958C15.7652 6.35757 15.6975 6.49355 15.5961 6.66353C12.4159 13.905 9.26965 21.1465 6.12339 28.3881C5.95424 28.7621 5.78507 28.8981 5.34528 28.8981C3.91085 28.8708 2.49806 28.8872 1.0723 28.8599L0 28.8301C0.101493 28.66 0.202986 28.49 0.304477 28.3201C4.43184 19.0727 8.5592 9.82532 12.6866 0.57796C12.8557 0.203986 13.0249 0.0679953 13.4647 0.0679953C15.1224 0.101993 16.7802 0.101993 18.4039 0.0679953ZM43.5065 0.169988C43.8447 0.169988 44.0139 0.271981 44.1831 0.543963C46.9572 4.3857 49.7313 8.19343 52.5055 12.0352C52.6069 12.1712 52.7085 12.3412 52.8776 12.5111C53.0129 12.3412 53.1145 12.2052 53.2159 12.0692C55.9901 8.22743 58.7642 4.4197 61.5383 0.57796C61.7751 0.271981 61.9781 0.169988 62.3502 0.169988C64.0417 0.203986 65.7672 0.169988 67.4587 0.169988H68V28.932H62.6547V8.26143C62.6209 8.22743 62.5871 8.22743 62.5532 8.19343C62.4518 8.32942 62.3502 8.46542 62.2488 8.6014C59.3731 12.4431 56.4975 16.2848 53.6219 20.1266C53.1145 20.8066 52.3701 20.8066 51.8965 20.0927C49.1224 16.2509 46.3145 12.4431 43.5403 8.6014C43.4387 8.46542 43.3373 8.29542 43.202 8.15944C43.1682 8.19343 43.1343 8.19343 43.1005 8.22743V28.932H37.7214V0.203986C37.8567 0.203986 38.0258 0.169988 38.1613 0.169988H43.5065ZM158.395 0C160.054 0 161.644 0.339977 163.132 1.05393C166.55 2.65182 168.613 6.11958 168.41 9.96131C168.342 11.1852 168.173 12.3751 167.734 13.4971C166.65 16.2169 164.587 17.7808 161.847 18.5287C161.644 18.5628 161.474 18.6308 161.205 18.6988C161.474 19.0047 161.677 19.2767 161.915 19.5147C164.485 22.4044 167.024 25.2942 169.594 28.218C169.729 28.3881 169.831 28.626 170 28.8981H163.843C163.606 28.8981 163.335 28.7621 163.167 28.592C160.595 25.6343 158.024 22.7105 155.487 19.7187C155.183 19.3787 154.877 19.2427 154.438 19.2427C152.95 19.2767 151.427 19.2427 149.904 19.2427V28.864C148.044 28.8301 146.285 28.8301 144.458 28.8301V14.279H145.066C149.296 14.279 153.524 14.313 157.787 14.313C158.531 14.313 159.31 14.245 160.02 14.041C162.083 13.4291 163.233 11.4572 162.997 9.04338C162.794 7.00351 161.205 5.37163 159.107 5.13365C158.666 5.06565 158.194 5.06565 157.753 5.06565H144.491V0.0339977C144.594 0.0339977 144.729 0 144.83 0H158.395ZM92.2906 0C94.0159 0 95.7074 0.305979 97.2975 1.01993C100.038 2.27785 101.459 4.45369 101.729 7.44549C102 10.4033 100.884 12.5791 98.1433 13.905C98.211 13.973 98.2786 14.007 98.3124 14.041C101.29 15.0949 102.812 18.4948 102.643 20.9086C102.44 24.2404 100.985 26.6542 97.8387 27.8781C96.9254 28.218 95.9443 28.49 94.997 28.626C93.9482 28.796 92.8657 28.864 91.8169 28.864H78.3184V11.7632H78.9274C83.4945 11.6952 88.0617 11.6612 92.595 11.5592C93.2378 11.5252 93.9145 11.3892 94.5235 11.1512C96.2488 10.5053 96.8915 8.80539 96.0795 7.13951C95.4707 5.88159 94.3542 5.26963 93.0348 5.03166C92.595 4.96365 92.1214 4.92967 91.6816 4.92967C87.4189 4.89566 83.1901 4.89566 78.9274 4.86166H78.3184V0.0339977C78.4537 0.0339977 78.5553 0 78.6906 0H92.2906ZM91.9184 16.3869H84.1035C83.9343 16.3869 83.799 16.4208 83.6299 16.4208V23.7643C86.7085 23.7643 89.6855 23.7984 92.6965 23.7643C93.7115 23.7643 94.6587 23.4923 95.5721 23.0164C96.3502 22.6084 96.9254 22.0304 97.1622 21.1806C97.5343 19.8886 97.0606 18.6308 95.8767 17.7128C94.7263 16.8288 93.3731 16.3869 91.9184 16.3869ZM134.275 0.169988V5.37163H112.86V0.169988H134.275Z" fill="#3B3B3B"/>
</g>
<defs>
<clipPath id="clip0_472_944">
<rect width="170" height="29" fill="white"/>
</clipPath>
</defs>
</svg>
