<svg width="169" height="50" viewBox="0 0 169 50" fill="none" xmlns="http://www.w3.org/2000/svg">
<g clip-path="url(#clip0_472_715)">
<path d="M65.6246 40.152C73.7238 40.152 80.2868 33.5937 80.2678 25.5081C80.2623 23.5016 81.9234 21.885 83.9347 21.885H84.3174C84.9172 21.885 85.403 21.4003 85.403 20.8019V12.0177C85.403 11.4193 84.9172 10.9346 84.3174 10.9346H83.9347C75.8355 10.9346 69.2725 17.4929 69.2915 25.5785C69.297 27.585 67.6359 29.2016 65.6246 29.2016H65.2419C64.6421 29.2016 64.1562 29.6863 64.1562 30.2847V39.0689C64.1562 39.6673 64.6421 40.152 65.2419 40.152H65.6246Z" fill="#3B3B3B"/>
<path d="M126.891 12.0334C130.216 12.0334 132.911 9.34444 132.911 6.02744C132.911 2.71044 130.216 0.0214844 126.891 0.0214844C123.566 0.0214844 120.871 2.71044 120.871 6.02744C120.871 9.34444 123.566 12.0334 126.891 12.0334Z" fill="#3B3B3B"/>
<path d="M131.297 14.5918H122.492C121.892 14.5918 121.406 15.0767 121.406 15.6749V37.9685C121.406 38.5667 121.892 39.0516 122.492 39.0516H131.297C131.896 39.0516 132.382 38.5667 132.382 37.9685V15.6749C132.382 15.0767 131.896 14.5918 131.297 14.5918Z" fill="#3B3B3B"/>
<path d="M150.69 9.97587V1.11045C150.69 0.476814 150.147 -0.0214263 149.512 0.0300224C141.975 0.628452 136.047 6.91873 136.047 14.5927V37.9694C136.047 38.5678 136.533 39.0525 137.133 39.0525H145.937C146.537 39.0525 147.023 38.5678 147.023 37.9694V26.629C147.023 26.0306 147.509 25.5459 148.109 25.5459H149.604C150.204 25.5459 150.69 25.0612 150.69 24.4627V15.6786C150.69 15.0801 150.204 14.5954 149.604 14.5954H148.35C147.558 14.5954 147.029 13.7749 147.362 13.0574C147.832 12.0501 148.747 11.2892 149.857 11.0319C150.345 10.9182 150.69 10.4822 150.69 9.98128V9.97587Z" fill="#3B3B3B"/>
<path d="M168.999 30.1571V39.0225C168.999 39.6561 168.456 40.1544 167.821 40.1029C160.283 39.5045 154.355 33.2142 154.355 25.5402V1.08313C154.355 0.484701 154.841 0 155.441 0H164.246C164.846 0 165.332 0.484701 165.332 1.08313V13.5066C165.332 14.1051 165.818 14.5898 166.417 14.5898H167.913C168.513 14.5898 168.999 15.0745 168.999 15.6729V24.4571C168.999 25.0555 168.513 25.5402 167.913 25.5402H166.659C165.866 25.5402 165.337 26.3607 165.671 27.0783C166.141 28.0856 167.055 28.8465 168.165 29.1037C168.654 29.2174 168.999 29.6534 168.999 30.1544V30.1571Z" fill="#3B3B3B"/>
<path d="M99.4282 25.543C99.4282 23.4634 101.168 21.7899 103.271 21.8901C105.245 21.9822 106.762 23.6773 106.762 25.6486V37.9692C106.762 38.5676 107.248 39.0523 107.848 39.0523H116.653C117.252 39.0523 117.738 38.5676 117.738 37.9692V25.7732C117.738 17.739 111.333 11.0399 103.282 10.937C102.4 10.9261 101.537 10.9938 100.696 11.1319C100.031 11.2403 99.4255 10.7366 99.4255 10.0651V2.08781H99.4227C99.3793 1.48938 98.8582 1.04258 98.2584 1.08591C98.1091 1.09674 97.9679 1.13736 97.8431 1.20235L89.0409 5.67567C88.6772 5.85981 88.4492 6.23349 88.4492 6.63966V37.9638C88.4492 38.5622 88.9351 39.0469 89.5349 39.0469H98.3398C98.9396 39.0469 99.4255 38.5622 99.4255 37.9638V25.5403L99.4282 25.543Z" fill="#3B3B3B"/>
<path d="M28.2006 39.0492H14.6431C6.55481 39.0492 0 32.5098 0 24.4405V13.1163C0 12.5179 0.485843 12.0332 1.08568 12.0332H9.89056C10.4904 12.0332 10.9762 12.5179 10.9762 13.1163V25.4369C10.9762 27.4055 12.4935 29.1006 14.4667 29.1954C16.5729 29.2956 18.31 27.6194 18.31 25.5425V13.119C18.31 12.5206 18.7959 12.0359 19.3957 12.0359H28.2006C28.8004 12.0359 29.2863 12.5206 29.2863 13.119V37.9688C29.2863 38.5672 28.8004 39.0519 28.2006 39.0519V39.0492Z" fill="#3B3B3B"/>
<path d="M45.1969 39.9563C46.2147 40.1242 47.2651 40.1864 48.3427 40.1323C55.842 39.7613 61.911 33.6579 62.2258 26.1734C62.576 17.8442 55.9343 10.9771 47.675 10.9338C39.5188 10.8905 32.9531 17.6438 32.9531 25.7808V48.9977H32.9558C32.9993 49.5934 33.5204 50.0429 34.1202 49.9969C34.2695 49.9861 34.4107 49.9454 34.5355 49.8805L43.3377 45.4071C43.7014 45.223 43.9294 44.8493 43.9294 44.4431V41.0232C43.9294 40.3516 44.5346 39.848 45.1969 39.9563ZM47.5963 29.2008C45.5715 29.2008 43.9294 27.5626 43.9294 25.5425C43.9294 23.5225 45.5715 21.8842 47.5963 21.8842C49.6211 21.8842 51.2631 23.5225 51.2631 25.5425C51.2631 27.5626 49.6211 29.2008 47.5963 29.2008Z" fill="#3B3B3B"/>
</g>
<defs>
<clipPath id="clip0_472_715">
<rect width="169" height="50" fill="white"/>
</clipPath>
</defs>
</svg>
