<svg width="169" height="50" viewBox="0 0 169 50" fill="none" xmlns="http://www.w3.org/2000/svg">
<path d="M132.019 8.62012H126.276V14.8162H122.842V20.258H126.276V34.4822C126.276 35.7214 126.437 36.9606 126.813 38.146C127.135 39.008 127.672 39.8162 128.369 40.4628C129.013 41.0555 129.872 41.5404 130.731 41.7559C132.716 42.2408 134.809 42.2408 136.795 41.7559C137.6 41.5404 138.351 41.271 139.049 40.8399V36.4757C137.976 36.9067 136.849 37.1761 135.668 37.1761C134.702 37.2839 133.736 36.9606 133.038 36.2602C132.394 35.6136 132.019 34.8055 132.019 33.4585V20.258H139.103V14.8162H132.072V8.62012H132.019ZM113.987 16.7559C107.761 12.1762 98.9601 13.5231 94.3984 19.7731C89.8368 26.0231 91.1785 34.8593 97.4038 39.4391C102.341 43.049 108.996 43.049 113.933 39.4391V41.3787H119.675V14.8162H113.933V16.7559H113.987ZM105.722 36.4218C101.16 36.4218 97.4574 32.7042 97.4574 28.1244C97.4574 23.5447 101.16 19.827 105.722 19.827C110.284 19.827 113.987 23.5447 113.987 28.1244C113.987 32.7042 110.284 36.4218 105.722 36.4218ZM74.2735 22.952V29.3636H82.9138C81.7868 34.0511 77.6008 37.3378 72.7708 37.23C66.7065 37.23 61.7692 32.2731 61.7692 26.1848C61.7692 20.0964 66.7065 15.1395 72.8245 15.1395C75.9908 15.1395 78.9961 16.5404 81.0891 18.9111L86.0265 14.8701C79.8011 7.54253 68.8532 6.62658 61.5009 12.8227C54.1485 19.0188 53.2899 30.0641 59.4615 37.4455C62.7889 41.3787 67.6188 43.5878 72.7172 43.5878C77.2251 43.6955 81.6258 41.9175 84.7921 38.6848C87.4755 35.883 89.1391 32.2731 89.5148 28.4477C89.6758 26.6158 89.6758 24.7839 89.5685 22.952H74.2198H74.2735ZM154.881 14.0619C147.153 14.0619 140.874 20.3658 140.874 28.1244C140.874 35.883 147.153 42.1869 154.881 42.1869C160.033 42.1869 164.755 39.3852 167.224 34.8055L162.072 32.2731C159.764 36.2063 154.666 37.5533 150.748 35.2365C148.87 34.105 147.528 32.327 146.938 30.2257H168.834C170.015 22.521 164.755 15.355 157.081 14.1697C156.383 14.0619 155.686 14.008 154.988 14.008L154.881 14.0619ZM147.099 25.2149C148.709 20.9046 153.485 18.7494 157.779 20.3658C160.033 21.2279 161.75 22.952 162.609 25.2149H147.099Z" fill="#3B3B3B"/>
<path d="M24.9013 38.7392C17.3343 38.7392 11.2163 32.597 11.2163 25C11.2163 17.403 17.3343 11.2608 24.9013 11.2608V0C11.1626 0 0 11.2069 0 25C0 38.7931 11.1626 50 24.9013 50C38.6399 50 49.8026 38.7931 49.8026 25H38.5863C38.5863 32.597 32.4683 38.7392 24.9013 38.7392Z" fill="#3B3B3B"/>
<path d="M38.5834 11.2607H24.8984V25H38.5834V11.2607Z" fill="#3B3B3B"/>
</svg>
