<svg width="190" height="23" viewBox="0 0 190 23" fill="none" xmlns="http://www.w3.org/2000/svg">
<path d="M78.6387 0.14862C78.003 0.0100698 77.2451 0.03452 76.4464 0.18937C72.1024 4.41108 67.7503 8.64909 63.39 12.8953C63.2515 12.8301 63.1211 12.7567 62.9825 12.6915V0.295321C62.2898 0.0100701 61.8008 0.0671197 61.1406 0.20567V22.2841C61.7763 22.3574 62.3142 22.4715 63.007 22.1211V15.8782C64.8244 14.1422 66.5196 12.5203 68.3045 10.817C71.3363 14.8105 74.2214 18.6247 77.131 22.4471C77.9704 22.2352 78.7365 22.5938 79.5678 22.0885C76.2019 17.8586 72.9174 13.7347 69.6085 9.57819C72.7137 6.34264 75.6966 3.22933 78.6387 0.16492V0.14862Z" fill="white"/>
<path d="M106.202 0.22998C104.393 6.66849 102.567 13.1641 100.742 19.6678C100.628 19.6433 100.522 19.6189 100.408 19.5944C98.6391 13.1233 96.8706 6.66034 95.1102 0.238129C94.2544 0.0343787 93.5617 -0.0471212 92.7793 0.31963C90.9048 6.73369 89.0221 13.1804 87.1395 19.6352C87.0335 19.627 86.9194 19.6107 86.8135 19.6026C85.0694 13.1396 83.3334 6.66849 81.6137 0.303329C80.9128 0.00992854 80.3831 0.026229 79.5273 0.28703C81.6871 7.6954 83.8224 15.0141 85.9251 22.2432C86.7157 22.398 87.2536 22.4388 87.9382 22.1943C89.8697 15.8373 91.8257 9.39875 93.7817 2.96024L94.0914 2.99284C95.9496 9.4232 97.8078 15.8454 99.666 22.3002C100.375 22.3573 100.962 22.4958 101.687 22.1454C103.896 14.9408 106.129 7.63835 108.362 0.35223C107.555 -0.0145212 106.968 0.0506787 106.211 0.238129L106.202 0.22998Z" fill="white"/>
<path d="M12.6325 0.727199C8.49232 -0.552354 4.24616 0.319698 0 0.0670471V22.341C0.676452 22.3003 1.2225 22.5693 1.8419 22.0313V13.7591C2.60801 13.4249 3.27631 13.5309 3.93646 13.5146C6.25106 13.4657 8.58197 13.5472 10.8884 13.3679C14.4255 13.0908 16.6586 10.8821 17.0417 7.53247C17.3758 4.58216 15.5665 1.63185 12.6325 0.719049V0.727199ZM10.049 11.6401C9.33177 11.6971 8.61457 11.6808 7.89737 11.6808C5.96581 11.6808 4.04241 11.6808 1.92341 11.6808V1.8193C4.91446 1.9008 7.82402 1.477 10.701 2.0801C13.5861 2.6832 15.0775 4.54956 14.8819 7.14126C14.6863 9.74927 12.9015 11.4119 10.049 11.6401Z" fill="white"/>
<path d="M22.5205 20.8413V11.6807H35.5035C35.748 11.0776 35.8214 10.6131 35.2672 9.97736H22.4961V1.75399H36.237C36.5223 1.12644 36.5875 0.661889 36.18 0.148438H20.5156V22.292H36.9053C36.9461 21.8112 37.158 21.4118 36.563 20.8413H22.5205Z" fill="white"/>
<path d="M47.6368 0.115723C44.5153 7.47519 41.402 14.7939 38.2969 22.1208C39.0385 22.4631 39.5764 22.3897 40.3425 22.2756C41.3694 19.961 42.38 17.6627 43.358 15.4541H54.2546C55.2652 17.785 56.2351 20.0507 57.2131 22.3001C57.9547 22.349 58.5823 22.512 59.3158 22.0882C56.1047 14.7124 52.9343 7.40999 49.764 0.115723H47.6368ZM44.1323 13.4818C45.64 9.83055 47.1152 6.24454 48.7452 2.29178C50.3589 6.19564 51.8259 9.7409 53.3744 13.4818H44.1323Z" fill="white"/>
<path d="M129.562 0.205566C129.383 0.816818 129.269 1.28952 129.864 1.86002H137.41V22.0884C138.095 22.4633 138.625 22.3981 139.399 22.178V1.76222H147.182C147.321 1.06947 147.468 0.580467 147.044 0.213717H129.562V0.205566Z" fill="white"/>
<path d="M166.041 20.8416H152.072V11.681H165.169C165.218 11.0127 165.414 10.5074 164.746 9.96948H152.015V1.76241H165.944C166.115 1.08595 166.229 0.613254 165.781 0.189453H150.043V22.2597H166.433C166.596 21.7218 166.71 21.298 166.033 20.8416H166.041Z" fill="white"/>
<path d="M117.514 0.0913086C114.393 7.44263 111.28 14.7776 108.109 22.2349C108.933 22.3735 109.552 22.4876 110.237 22.1697C111.239 19.9285 112.25 17.6709 113.252 15.4215H124.14C125.11 17.728 126.072 20.0018 127.009 22.2268C127.767 22.3735 128.403 22.5202 129.177 22.0719C125.974 14.7124 122.779 7.36113 119.617 0.0913086H117.514ZM114.002 13.4899C115.526 9.79798 117.009 6.22012 118.631 2.30811C120.245 6.19567 121.712 9.74093 123.26 13.4899H114.002Z" fill="white"/>
<path d="M181.835 12.5529C182.61 12.3736 183.139 12.2595 183.661 12.121C186.766 11.3304 188.2 9.5537 188.225 6.48929C188.241 3.43303 186.709 1.22438 183.726 0.547928C179.382 -0.430075 174.973 0.230077 170.531 0.0833769V22.3003C171.191 22.3085 171.729 22.5367 172.389 21.9173V12.4959H179.309C182.047 15.8211 184.745 19.0892 187.426 22.3411C188.274 22.3166 189.032 22.5041 190.002 22.1455C187.263 18.9262 184.631 15.8374 181.827 12.5529H181.835ZM172.43 10.6947V1.78673C175.878 1.94158 179.187 1.45258 182.463 2.08013C185.055 2.57728 186.147 3.93019 186.139 6.38334C186.13 8.6898 185.038 10.0672 182.438 10.4747C179.162 10.9881 175.845 10.5806 172.43 10.6947Z" fill="white"/>
</svg>
