<svg width="170" height="20" viewBox="0 0 170 20" fill="none" xmlns="http://www.w3.org/2000/svg">
<path d="M70.3632 0.13284C69.7944 0.00939398 69.1163 0.0311787 68.4016 0.169147C64.5149 3.93061 60.6209 7.7066 56.7197 11.4899C56.5957 11.4318 56.479 11.3664 56.3551 11.3083V0.263547C55.7352 0.00939421 55.2977 0.0602244 54.707 0.18367V19.8551C55.2758 19.9205 55.7571 20.0221 56.3769 19.7099V14.1476C58.0031 12.6009 59.5198 11.1558 61.1168 9.63816C63.8295 13.1963 66.4109 16.5947 69.0142 20.0003C69.7653 19.8115 70.4507 20.1311 71.1945 19.6808C68.1829 15.9121 65.2442 12.2378 62.2836 8.53441C65.0619 5.65159 67.7308 2.87769 70.3632 0.147362V0.13284Z" fill="#3B3B3B"/>
<path d="M95.0234 0.204663C93.4045 5.94126 91.7711 11.7287 90.1376 17.5234C90.0355 17.5016 89.9408 17.4798 89.8387 17.458C88.2563 11.6924 86.6739 5.934 85.0988 0.211924C84.3331 0.0303864 83.7133 -0.0422285 83.0132 0.28454C81.3361 5.99935 79.6516 11.7432 77.9671 17.4943C77.8723 17.4871 77.7702 17.4725 77.6754 17.4653C76.1149 11.7069 74.5617 5.94126 73.023 0.270016C72.3959 0.00860175 71.9219 0.0231252 71.1562 0.255494C73.0887 6.85621 74.9992 13.3771 76.8806 19.818C77.5879 19.956 78.0692 19.9923 78.6817 19.7744C80.41 14.1105 82.1601 8.37387 83.9102 2.63727L84.1873 2.66632C85.8499 8.39565 87.5125 14.1177 89.1751 19.8688C89.8095 19.9197 90.3345 20.0431 90.9835 19.7309C92.9597 13.3117 94.9577 6.80538 96.9558 0.313586C96.2339 -0.0131825 95.7088 0.0449094 95.0307 0.211924L95.0234 0.204663Z" fill="#3B3B3B"/>
<path d="M11.3028 0.648338C7.59839 -0.491721 3.7992 0.285261 0 0.0601544V19.9059C0.605246 19.8696 1.09382 20.1092 1.64802 19.6299V12.2595C2.33348 11.9618 2.93143 12.0562 3.52209 12.0417C5.59306 11.9981 7.67861 12.0707 9.74228 11.9109C12.9071 11.6641 14.9051 9.69619 15.2478 6.7117C15.5468 4.08304 13.928 1.45437 11.3028 0.641076V0.648338ZM8.99119 10.3715C8.34948 10.4223 7.70777 10.4078 7.06607 10.4078C5.33783 10.4078 3.61689 10.4078 1.72094 10.4078V1.62138C4.39715 1.694 7.00044 1.3164 9.57456 1.85375C12.156 2.3911 13.4904 4.05399 13.3154 6.36315C13.1404 8.68684 11.5434 10.1682 8.99119 10.3715Z" fill="#3B3B3B"/>
<path d="M20.1493 18.5688V10.4069H31.7657C31.9844 9.86953 32.0501 9.45562 31.5542 8.88922H20.1275V1.56235H32.422C32.6772 1.00322 32.7355 0.589311 32.3709 0.131836H18.3555V19.8614H33.0199C33.0564 19.4329 33.246 19.0771 32.7137 18.5688H20.1493Z" fill="#3B3B3B"/>
<path d="M42.6224 0.103516C39.8295 6.66066 37.0439 13.1815 34.2656 19.7096C34.9292 20.0146 35.4105 19.9492 36.0959 19.8476C37.0148 17.7853 37.919 15.7376 38.794 13.7697H48.5436C49.4478 15.8465 50.3156 17.8652 51.1906 19.8694C51.8542 19.9129 52.4157 20.0582 53.072 19.6806C50.1989 13.1089 47.3623 6.60257 44.5256 0.103516H42.6224ZM39.4868 12.0124C40.8358 8.75924 42.1557 5.56418 43.6141 2.04234C45.058 5.52061 46.3705 8.67937 47.7561 12.0124H39.4868Z" fill="#3B3B3B"/>
<path d="M115.922 0.183594C115.761 0.728207 115.659 1.14938 116.192 1.65768H122.944V19.6808C123.557 20.0148 124.031 19.9567 124.723 19.7606V1.57054H131.687C131.811 0.953314 131.943 0.517624 131.563 0.190855H115.922V0.183594Z" fill="#3B3B3B"/>
<path d="M148.564 18.5696H136.066V10.4077H147.784C147.828 9.81224 148.003 9.36202 147.405 8.88276H136.015V1.57042H148.477C148.63 0.967712 148.732 0.546544 148.331 0.168945H134.25V19.8331H148.914C149.06 19.3539 149.162 18.9763 148.557 18.5696H148.564Z" fill="#3B3B3B"/>
<path d="M105.146 0.0820312C102.353 6.63192 99.5671 13.1673 96.7305 19.8116C97.467 19.935 98.0212 20.0367 98.6337 19.7535C99.5306 17.7566 100.435 15.7451 101.332 13.7409H111.074C111.942 15.796 112.802 17.8219 113.641 19.8043C114.319 19.935 114.888 20.0657 115.581 19.6663C112.715 13.1092 109.856 6.5593 107.027 0.0820312H105.146ZM102.003 12.02C103.366 8.7305 104.693 5.54269 106.145 2.05716C107.588 5.52091 108.901 8.67967 110.287 12.02H102.003Z" fill="#3B3B3B"/>
<path d="M162.692 11.1844C163.385 11.0247 163.859 10.923 164.326 10.7995C167.104 10.0952 168.387 8.51217 168.409 5.78184C168.424 3.05877 167.053 1.0909 164.384 0.488193C160.497 -0.383188 156.552 0.204995 152.578 0.0742873V19.8692C153.169 19.8764 153.65 20.0798 154.241 19.5279V11.1336H160.432C162.882 14.0963 165.296 17.0081 167.695 19.9055C168.453 19.8837 169.131 20.0507 169.999 19.7312C167.549 16.8629 165.193 14.1108 162.685 11.1844H162.692ZM154.277 9.52878V1.59194C157.362 1.72991 160.322 1.29422 163.254 1.85336C165.573 2.29631 166.55 3.50172 166.543 5.68744C166.535 7.74245 165.558 8.96964 163.232 9.33272C160.3 9.79019 157.333 9.42712 154.277 9.52878Z" fill="#3B3B3B"/>
</svg>
